<svg width="432" height="346" viewBox="0 0 432 346" fill="none" xmlns="http://www.w3.org/2000/svg">
<g clip-path="url(#clip0)">
<path d="M160.4 304.9C161 312 152.3 317 145.3 315.7C138.3 314.3 132.8 308.9 127.9 303.7C122.9 298.5 117.4 293.2 110.4 291.9C98.8 289.9 87.9 299.8 76.1 298.9C64.4 298.1 56.4 287.3 49.6 277.8C42.8 268.3 33.4 258 21.8 259C17.5 259.4 13.5 261.2 9.2 261.4C4.9 261.5 0 258.8 0 254.5C0 250.3 4.6 247.8 8.4 246.2C19.8 241.5 31.2 236.9 42.5 232.2C55.3 227 69.8 221.8 82.3 227.5C93.2 232.4 99.8 244.6 111.1 248.5C126 253.6 143.2 242.5 157.6 248.8C168.5 253.5 173.5 266.8 172.2 278.6C170.9 290.4 164.8 301 158.8 311.2" fill="#00003F"/>
<path d="M1.30078 255.7C17.5008 246.7 45.0008 247.8 62.2008 254.6C73.1008 258.9 82.9008 266.2 94.3008 268C104.201 269.6 114.401 266.9 124.401 267.1C140.701 267.4 157.801 279.1 167.401 292.3" fill="#00003F"/>
<path d="M1.30078 255.7C17.5008 246.7 45.0008 247.8 62.2008 254.6C73.1008 258.9 82.9008 266.2 94.3008 268C104.201 269.6 114.401 266.9 124.401 267.1C140.701 267.4 157.801 279.1 167.401 292.3" stroke="#FFF9F7" stroke-width="0.65" stroke-miterlimit="10"/>
<path d="M98.4 268.2C98.4 268.2 90.5 232.2 74.5 225.4L98.4 268.2Z" fill="#00003F"/>
<path d="M98.4 268.2C98.4 268.2 90.5 232.2 74.5 225.4" stroke="#FFF9F7" stroke-width="0.65" stroke-miterlimit="10"/>
<path d="M38.5008 249.7C38.5008 249.7 36.8008 258.5 21.8008 259L38.5008 249.7Z" fill="#00003F"/>
<path d="M38.5008 249.7C38.5008 249.7 36.8008 258.5 21.8008 259" stroke="#FFF9F7" stroke-width="0.65" stroke-miterlimit="10"/>
<path d="M141.599 271.7C141.599 271.7 143.599 254.6 130.199 249.7L141.599 271.7Z" fill="#00003F"/>
<path d="M141.599 271.7C141.599 271.7 143.599 254.6 130.199 249.7" stroke="#FFF9F7" stroke-width="0.65" stroke-miterlimit="10"/>
<path d="M155.5 279.9C155.5 279.9 145 297.3 123.5 299.1L155.5 279.9Z" fill="#00003F"/>
<path d="M155.5 279.9C155.5 279.9 145 297.3 123.5 299.1" stroke="#FFF9F7" stroke-width="0.65" stroke-miterlimit="10"/>
<path d="M62.5996 225.3C62.5996 225.3 75.9996 234.3 83.0996 265.1L62.5996 225.3Z" fill="#00003F"/>
<path d="M62.5996 225.3C62.5996 225.3 75.9996 234.3 83.0996 265.1" stroke="#FFF9F7" stroke-width="0.65" stroke-miterlimit="10"/>
<path d="M94.2996 268C94.2996 268 78.2996 289.1 59.5996 289.6L94.2996 268Z" fill="#00003F"/>
<path d="M94.2996 268C94.2996 268 78.2996 289.1 59.5996 289.6" stroke="#FFF9F7" stroke-width="0.65" stroke-miterlimit="10"/>
<path d="M39.1992 265.8C39.1992 265.8 58.9992 264.9 64.6992 256.2L39.1992 265.8Z" fill="#00003F"/>
<path d="M39.1992 265.8C39.1992 265.8 58.9992 264.9 64.6992 256.2" stroke="#FFF9F7" stroke-width="0.65" stroke-miterlimit="10"/>
<path d="M14.8008 243.5C14.8008 243.5 18.5008 241.5 24.7008 248.8L14.8008 243.5Z" fill="#00003F"/>
<path d="M14.8008 243.5C14.8008 243.5 18.5008 241.5 24.7008 248.8" stroke="#FFF9F7" stroke-width="0.65" stroke-miterlimit="10"/>
<path d="M36.3008 235C36.3008 235 42.6008 238.3 45.7008 249.8L36.3008 235Z" fill="#00003F"/>
<path d="M36.3008 235C36.3008 235 42.6008 238.3 45.7008 249.8" stroke="#FFF9F7" stroke-width="0.65" stroke-miterlimit="10"/>
<path d="M110.301 291.9C110.301 291.9 139.301 289.9 136.901 269.5L110.301 291.9Z" fill="#00003F"/>
<path d="M110.301 291.9C110.301 291.9 139.301 289.9 136.901 269.5" stroke="#FFF9F7" stroke-width="0.65" stroke-miterlimit="10"/>
<path d="M111.1 248.5C111.1 248.5 119.6 256.1 115 266.4L111.1 248.5Z" fill="#00003F"/>
<path d="M111.1 248.5C111.1 248.5 119.6 256.1 115 266.4" stroke="#FFF9F7" stroke-width="0.65" stroke-miterlimit="10"/>
<path d="M154.4 248C154.4 248 164.3 266.7 159.9 282.2L154.4 248Z" fill="#00003F"/>
<path d="M154.4 248C154.4 248 164.3 266.7 159.9 282.2" stroke="#FFF9F7" stroke-width="0.65" stroke-miterlimit="10"/>
</g>
<path d="M376.777 293.685C374.459 285.524 319.952 294.189 251.037 303.055C182.021 311.922 126.505 321.997 127.009 325.725C127.513 329.453 171.139 331.367 240.155 322.501C309.171 313.634 377.885 297.212 376.777 293.685Z" fill="#C8C8C8"/>
<path d="M326.703 334.994C325.998 328.243 309.172 330.359 287.913 331.367C266.654 332.374 249.425 335.498 249.627 338.52C249.728 341.543 263.228 346.883 284.487 345.875C305.746 344.868 327.005 337.916 326.703 334.994Z" fill="#C8C8C8"/>
<g opacity="0.95">
<g opacity="0.95">
<path opacity="0.95" d="M302.421 241.696C295.57 238.674 295.267 228.296 300.003 222.452C304.738 216.609 312.395 214.291 319.65 212.276C326.803 210.261 334.561 207.843 339.095 201.899C346.652 192.226 342.924 177.214 349.473 166.837C356.022 156.459 369.926 154.444 382.016 152.832C394.106 151.22 408.111 147.794 412.947 136.611C414.761 132.48 414.962 127.845 416.977 123.815C418.992 119.785 423.929 116.561 427.859 118.676C431.687 120.792 431.788 126.132 431.284 130.565C429.975 143.361 428.665 156.157 427.355 168.852C425.844 183.058 423.526 198.977 412.141 207.742C402.267 215.4 387.759 215.4 378.59 223.863C366.5 235.047 368.213 256.306 355.417 266.582C345.745 274.34 331.035 272.325 320.758 265.373C310.582 258.421 303.831 247.54 297.383 236.961" fill="#ECB000"/>
</g>
<g opacity="0.95">
<path d="M426.145 119.482C426.447 138.827 411.838 163.612 397.128 176.106C387.859 183.965 376.373 189.405 369.018 199.078C362.67 207.44 360.152 218.019 355.013 227.188C346.651 242.099 327.507 251.973 310.682 254.391" fill="#ECB000"/>
<path d="M426.145 119.482C426.447 138.827 411.838 163.612 397.128 176.106C387.859 183.965 376.373 189.405 369.018 199.078C362.67 207.44 360.152 218.019 355.013 227.188C346.651 242.099 327.507 251.973 310.682 254.391" stroke="#FFF9F7" stroke-width="0.6738" stroke-miterlimit="10"/>
</g>
<g opacity="0.95">
<path d="M366.701 202.604C366.701 202.604 403.778 213.082 417.884 201.697L366.701 202.604Z" fill="#ECB000"/>
<path d="M366.701 202.604C366.701 202.604 403.778 213.082 417.884 201.697" stroke="#FFF9F7" stroke-width="0.6738" stroke-miterlimit="10"/>
</g>
<g opacity="0.95">
<path d="M413.349 156.661C413.349 156.661 406.095 150.716 413.047 136.711L413.349 156.661Z" fill="#ECB000"/>
<path d="M413.349 156.661C413.349 156.661 406.095 150.716 413.047 136.711" stroke="#FFF9F7" stroke-width="0.6738" stroke-miterlimit="10"/>
</g>
<g opacity="0.95">
<path d="M342.219 240.689C342.219 240.689 357.03 250.966 368.112 241.092L342.219 240.689Z" fill="#ECB000"/>
<path d="M342.219 240.689C342.219 240.689 357.03 250.966 368.112 241.092" stroke="#FFF9F7" stroke-width="0.6738" stroke-miterlimit="10"/>
</g>
<g opacity="0.95">
<path d="M327.911 249.455C327.911 249.455 317.029 231.218 325.996 210.564L327.911 249.455Z" fill="#ECB000"/>
<path d="M327.911 249.455C327.911 249.455 317.029 231.218 325.996 210.564" stroke="#FFF9F7" stroke-width="0.6738" stroke-miterlimit="10"/>
</g>
<g opacity="0.95">
<path d="M423.929 190.816C423.929 190.816 409.018 198.675 377.18 190.111L423.929 190.816Z" fill="#ECB000"/>
<path d="M423.929 190.816C423.929 190.816 409.018 198.675 377.18 190.111" stroke="#FFF9F7" stroke-width="0.6738" stroke-miterlimit="10"/>
</g>
<g opacity="0.95">
<path d="M368.918 198.977C368.918 198.977 357.331 173.789 366.097 156.358L368.918 198.977Z" fill="#ECB000"/>
<path d="M368.918 198.977C368.918 198.977 357.331 173.789 366.097 156.358" stroke="#FFF9F7" stroke-width="0.6738" stroke-miterlimit="10"/>
</g>
<g opacity="0.95">
<path d="M398.135 149.306C398.135 149.306 389.268 167.945 394.407 177.517L398.135 149.306Z" fill="#ECB000"/>
<path d="M398.135 149.306C398.135 149.306 389.268 167.945 394.407 177.517" stroke="#FFF9F7" stroke-width="0.6738" stroke-miterlimit="10"/>
</g>
<g opacity="0.95">
<path d="M430.679 137.82C430.679 137.82 430.679 142.253 420.906 144.268L430.679 137.82Z" fill="#ECB000"/>
<path d="M430.679 137.82C430.679 137.82 430.679 142.253 420.906 144.268" stroke="#FFF9F7" stroke-width="0.6738" stroke-miterlimit="10"/>
</g>
<g opacity="0.95">
<path d="M427.959 161.799C427.959 161.799 421.813 166.03 409.723 163.109L427.959 161.799Z" fill="#ECB000"/>
<path d="M427.959 161.799C427.959 161.799 421.813 166.03 409.723 163.109" stroke="#FFF9F7" stroke-width="0.6738" stroke-miterlimit="10"/>
</g>
<g opacity="0.95">
<path d="M339.095 201.899C339.095 201.899 326.703 229.606 346.652 237.364L339.095 201.899Z" fill="#ECB000"/>
<path d="M339.095 201.899C339.095 201.899 326.703 229.606 346.652 237.364" stroke="#FFF9F7" stroke-width="0.6738" stroke-miterlimit="10"/>
</g>
<g opacity="0.95">
<path d="M378.691 224.065C378.691 224.065 367.507 228.196 360.354 218.825L378.691 224.065Z" fill="#ECB000"/>
<path d="M378.691 224.065C378.691 224.065 367.507 228.196 360.354 218.825" stroke="#FFF9F7" stroke-width="0.6738" stroke-miterlimit="10"/>
</g>
<g opacity="0.95">
<path d="M357.734 264.164C357.734 264.164 335.568 264.064 323.578 252.275L357.734 264.164Z" fill="#ECB000"/>
<path d="M357.734 264.164C357.734 264.164 335.568 264.064 323.578 252.275" stroke="#FFF9F7" stroke-width="0.6738" stroke-miterlimit="10"/>
</g>
</g>
<path d="M134.062 264.265C131.946 268.799 125.397 268.698 121.972 265.273C118.445 261.847 117.236 256.608 116.128 251.671C115.02 246.734 113.71 241.495 110.184 238.17C104.34 232.729 94.8692 234.744 88.5217 229.908C82.275 225.173 81.2675 215.702 80.6629 207.44C80.0584 199.178 78.2448 189.607 71.3936 185.98C68.8748 184.67 65.9529 184.267 63.5349 182.856C61.1168 181.345 59.2025 177.919 60.613 175.3C62.0236 172.781 65.4492 172.882 68.1695 173.386C76.129 174.695 84.0885 176.005 92.0481 177.315C100.914 178.826 110.889 180.942 116.027 188.902C120.561 195.854 120.158 205.627 125.196 212.176C131.846 220.74 145.246 220.236 151.291 229.304C155.825 236.054 154.213 246.029 149.477 252.678C144.843 259.328 137.79 263.56 130.939 267.59" fill="#ECB000"/>
<path d="M60.916 176.509C73.1072 177.013 88.1194 187.693 95.5752 198.07C100.21 204.619 103.333 212.579 109.177 217.818C114.215 222.453 120.864 224.468 126.406 228.296C135.473 234.442 141.216 247.742 142.224 259.228" fill="#ECB000"/>
<path d="M60.916 176.509C73.1072 177.013 88.1194 187.693 95.5752 198.07C100.21 204.619 103.333 212.579 109.177 217.818C114.215 222.453 120.864 224.468 126.406 228.296C135.473 234.442 141.216 247.742 142.224 259.228" stroke="#FFF9F7" stroke-width="0.4395" stroke-miterlimit="10"/>
<path d="M80.0586 204.216C80.0586 204.216 91.0407 210.06 100.612 206.13L80.0586 204.216Z" fill="#ECB000"/>
<path d="M80.0586 204.216C80.0586 204.216 91.0407 210.06 100.612 206.13" stroke="#FFF9F7" stroke-width="0.4395" stroke-miterlimit="10"/>
<path d="M124.39 227.692C124.39 227.692 95.574 233.032 85.0957 226.18L124.39 227.692Z" fill="#ECB000"/>
<path d="M124.39 227.692C124.39 227.692 95.5741 233.032 85.0957 226.18" stroke="#FFF9F7" stroke-width="0.4395" stroke-miterlimit="10"/>
<path d="M83.8871 186.383C83.8871 186.383 79.9578 191.118 71.293 185.98L83.8871 186.383Z" fill="#ECB000"/>
<path d="M83.8871 186.383C83.8871 186.383 79.9578 191.118 71.293 185.98" stroke="#FFF9F7" stroke-width="0.4395" stroke-miterlimit="10"/>
<path d="M134.566 237.263C134.566 237.263 141.418 227.591 135.574 219.732L134.566 237.263Z" fill="#ECB000"/>
<path d="M134.566 237.263C134.566 237.263 141.418 227.591 135.574 219.732" stroke="#FFF9F7" stroke-width="0.4395" stroke-miterlimit="10"/>
<path d="M139.602 247.238C139.602 247.238 127.814 253.988 115.119 247.238H139.602Z" fill="#ECB000"/>
<path d="M139.602 247.238C139.602 247.238 127.814 253.988 115.119 247.238" stroke="#FFF9F7" stroke-width="0.4395" stroke-miterlimit="10"/>
<path d="M105.55 180.237C105.55 180.237 110.084 190.514 103.736 211.873L105.55 180.237Z" fill="#ECB000"/>
<path d="M105.55 180.237C105.55 180.237 110.084 190.514 103.736 211.873" stroke="#FFF9F7" stroke-width="0.4395" stroke-miterlimit="10"/>
<path d="M72.502 173.99C72.502 173.99 75.323 174.192 76.3306 180.841L72.502 173.99Z" fill="#ECB000"/>
<path d="M72.502 173.99C72.502 173.99 75.323 174.192 76.3306 180.841" stroke="#FFF9F7" stroke-width="0.4395" stroke-miterlimit="10"/>
<path d="M87.5137 176.61C87.5137 176.61 89.9318 180.942 87.8159 189.003L87.5137 176.61Z" fill="#ECB000"/>
<path d="M87.5137 176.61C87.5137 176.61 89.9318 180.942 87.8159 189.003" stroke="#FFF9F7" stroke-width="0.4395" stroke-miterlimit="10"/>
<path d="M110.182 238.069C110.182 238.069 127.209 247.439 132.65 234.14L110.182 238.069Z" fill="#ECB000"/>
<path d="M110.182 238.069C110.182 238.069 127.209 247.439 132.65 234.14" stroke="#FFF9F7" stroke-width="0.4395" stroke-miterlimit="10"/>
<path d="M125.094 212.075C125.094 212.075 127.311 219.833 121.266 224.367L125.094 212.075Z" fill="#ECB000"/>
<path d="M125.094 212.075C125.094 212.075 127.311 219.833 121.266 224.367" stroke="#FFF9F7" stroke-width="0.4395" stroke-miterlimit="10"/>
<path d="M149.679 227.49C149.679 227.49 148.974 242.502 141.316 250.26L149.679 227.49Z" fill="#ECB000"/>
<path d="M149.679 227.49C149.679 227.49 148.974 242.502 141.316 250.26" stroke="#FFF9F7" stroke-width="0.4395" stroke-miterlimit="10"/>
<g opacity="0.6">
<path opacity="0.6" d="M305.142 200.186C300.205 199.783 297.988 193.637 300.003 189.203C302.018 184.77 306.451 181.748 310.784 179.027C315.116 176.307 319.549 173.284 321.464 168.751C324.587 161.396 319.348 153.134 321.665 145.577C323.983 138.021 332.547 133.89 340.002 130.464C347.559 127.039 355.921 122.001 356.929 114.243C357.332 111.422 356.627 108.601 357.13 105.78C357.634 102.959 360.254 100.037 363.176 100.44C365.997 100.944 367.105 104.168 367.609 106.787C369.12 114.747 370.631 122.706 372.243 130.565C373.956 139.431 375.367 149.406 369.725 157.063C364.788 163.713 355.418 166.735 351.085 173.788C345.443 182.957 350.481 195.45 344.133 204.216C339.297 210.865 329.423 212.78 321.564 210.664C313.706 208.649 307.358 203.51 301.212 198.473" fill="#00003F"/>
</g>
<path d="M361.967 101.146C365.795 112.732 360.959 130.565 353.806 141.145C349.272 147.794 342.924 153.436 340.003 160.791C337.484 167.139 337.786 173.99 336.174 180.64C333.554 191.32 323.076 201.194 312.598 206.13" stroke="#FFF9F7" stroke-width="0.4395" stroke-miterlimit="10"/>
<path d="M342.624 128.752C342.624 128.752 340.911 141.044 347.863 148.701" stroke="#FFF9F7" stroke-width="0.4395" stroke-miterlimit="10"/>
<path d="M335.974 178.423C335.974 178.423 320.962 153.235 323.783 141.044" stroke="#FFF9F7" stroke-width="0.4395" stroke-miterlimit="10"/>
<path d="M360.758 126.132C360.758 126.132 355.015 124.117 356.829 114.243" stroke="#FFF9F7" stroke-width="0.4395" stroke-miterlimit="10"/>
<path d="M330.531 191.32C330.531 191.32 342.017 194.443 347.256 186.181" stroke="#FFF9F7" stroke-width="0.4395" stroke-miterlimit="10"/>
<path d="M322.976 199.581C322.976 199.581 312.599 190.917 314.513 176.61" stroke="#FFF9F7" stroke-width="0.4395" stroke-miterlimit="10"/>
<path d="M373.956 144.368C373.956 144.368 365.795 152.227 343.629 153.638" stroke="#FFF9F7" stroke-width="0.4395" stroke-miterlimit="10"/>
<path d="M368.417 111.221C368.417 111.221 369.223 113.84 363.379 117.165" stroke="#FFF9F7" stroke-width="0.4395" stroke-miterlimit="10"/>
<path d="M371.135 126.233C371.135 126.233 367.911 130.062 359.549 130.868" stroke="#FFF9F7" stroke-width="0.4395" stroke-miterlimit="10"/>
<path d="M321.364 168.751C321.364 168.751 318.543 187.995 332.85 188.498" stroke="#FFF9F7" stroke-width="0.4395" stroke-miterlimit="10"/>
<path d="M350.884 173.788C350.884 173.788 344.435 178.624 338.088 174.494" stroke="#FFF9F7" stroke-width="0.4395" stroke-miterlimit="10"/>
<path d="M344.94 202.201C344.94 202.201 330.633 206.735 320.658 202.201" stroke="#FFF9F7" stroke-width="0.4395" stroke-miterlimit="10"/>
<path d="M135.17 315.448L97.6895 36.3611C96.9842 31.4242 100.511 26.7895 105.447 26.185L300.002 0.0898639C304.939 -0.615409 309.574 2.91095 310.178 7.84787L347.659 286.935C348.364 291.872 344.837 296.506 339.901 297.111L145.346 323.206C140.409 323.911 135.875 320.385 135.17 315.448Z" fill="#959595"/>
<path opacity="0.75" d="M136.882 313.634L99.8047 37.6709C99.0994 32.734 102.626 28.0994 107.563 27.4949L298.39 1.80275C303.326 1.09748 307.961 4.62385 308.566 9.56077L345.643 285.524C346.348 290.461 342.822 295.096 337.885 295.7L147.058 321.292C142.121 322.098 137.486 318.571 136.882 313.634Z" fill="#02000D"/>
<path d="M322.046 276.584L288.186 24.4458L123.422 46.5727L157.283 298.711L322.046 276.584Z" fill="white"/>
<path opacity="0.17" d="M232.195 312.224L173.557 319.478L213.455 11.6763L272.093 4.32129L232.195 312.224Z" fill="white"/>
<path d="M196.853 26.3759C197.075 28.0304 198.73 29.1735 200.55 28.9291C202.37 28.6846 203.666 27.1453 203.443 25.4908C203.221 23.8363 201.566 22.6932 199.746 22.9377C197.926 23.1821 196.631 24.7214 196.853 26.3759Z" fill="#333333"/>
<g opacity="0.4">
<path opacity="0.65" d="M263.832 110.516L172.852 123.211C170.031 123.614 167.411 121.599 167.109 118.878L167.008 118.375C166.605 115.553 168.62 112.934 171.341 112.632L262.321 99.9367C265.142 99.5337 267.762 101.549 268.064 104.269L268.165 104.773C268.669 107.594 266.654 110.113 263.832 110.516Z" fill="#00003F"/>
<path opacity="0.65" d="M266.551 129.659L175.571 142.354C172.75 142.757 170.13 140.741 169.828 138.021L169.727 137.517C169.324 134.696 171.339 132.077 174.06 131.774L265.04 119.079C267.861 118.676 270.481 120.692 270.783 123.412L270.884 123.916C271.287 126.636 269.372 129.256 266.551 129.659Z" fill="#00003F"/>
<path opacity="0.65" d="M269.172 148.701L178.192 161.396C175.371 161.799 172.751 159.784 172.449 157.064L172.348 156.56C171.945 153.739 173.96 151.119 176.681 150.817L267.661 138.122C270.482 137.719 273.102 139.734 273.404 142.454L273.505 142.958C273.908 145.779 271.993 148.399 269.172 148.701Z" fill="#00003F"/>
<path opacity="0.65" d="M271.892 167.844L180.811 180.539C177.99 180.942 175.37 178.927 175.068 176.207L174.967 175.703C174.564 172.882 176.579 170.262 179.3 169.96L270.28 157.265C273.101 156.862 275.721 158.877 276.023 161.597L276.124 162.101C276.628 164.822 274.613 167.441 271.892 167.844Z" fill="#00003F"/>
<path opacity="0.65" d="M274.411 186.383L183.43 199.078C180.609 199.481 177.99 197.466 177.687 194.745L177.587 194.242C177.184 191.421 179.199 188.801 181.919 188.499L272.899 175.804C275.72 175.401 278.34 177.416 278.642 180.136L278.743 180.64C279.247 183.461 277.232 185.98 274.411 186.383Z" fill="#00003F"/>
</g>
<path d="M176.565 83.99L175.212 74.1425L179.29 73.5823C179.715 73.5239 180.116 73.5584 180.491 73.6858C180.876 73.8119 181.219 74.0098 181.519 74.2793C181.828 74.5384 182.077 74.8433 182.267 75.1941C182.464 75.5344 182.589 75.8941 182.641 76.2732C182.715 76.8095 182.665 77.3346 182.49 77.8484C182.315 78.353 182.034 78.7825 181.65 79.1368C181.265 79.4912 180.791 79.7071 180.227 79.7845L177.037 80.2228L177.536 83.8567L176.565 83.99ZM176.918 79.3629L180.067 78.9303C180.455 78.877 180.778 78.7243 181.036 78.4722C181.293 78.2202 181.477 77.9123 181.587 77.5486C181.697 77.1849 181.725 76.8042 181.67 76.4066C181.614 75.9998 181.471 75.6426 181.24 75.3351C181.009 75.0184 180.726 74.7793 180.393 74.6178C180.069 74.455 179.727 74.3984 179.366 74.4479L176.301 74.869L176.918 79.3629ZM187.967 82.4237L186.614 72.5761L190.775 72.0045C191.2 71.9461 191.601 71.9806 191.976 72.108C192.361 72.2341 192.704 72.432 193.005 72.7015C193.304 72.9619 193.549 73.2674 193.738 73.6182C193.936 73.9585 194.06 74.3182 194.112 74.6973C194.179 75.1781 194.148 75.6393 194.02 76.0808C193.901 76.521 193.695 76.9073 193.402 77.2397C193.108 77.5721 192.75 77.8097 192.327 77.9527L195.262 81.4214L194.167 81.572L191.351 78.2563L188.438 78.6564L188.938 82.2903L187.967 82.4237ZM188.32 77.7965L191.538 77.3544C191.926 77.3011 192.249 77.1484 192.507 76.8963C192.763 76.635 192.946 76.3225 193.056 75.9588C193.167 75.5951 193.195 75.2191 193.142 74.8307C193.087 74.4331 192.944 74.0806 192.714 73.7731C192.491 73.4551 192.213 73.2154 191.88 73.0539C191.546 72.8831 191.198 72.8225 190.838 72.872L187.703 73.3027L188.32 77.7965ZM199.802 80.7978L198.449 70.9502L199.42 70.8168L200.773 80.6644L199.802 80.7978ZM205.084 78.8144C205.297 78.9265 205.568 79.0117 205.896 79.0703C206.234 79.1275 206.611 79.1276 207.027 79.0704C207.665 78.9827 208.126 78.7734 208.41 78.4423C208.693 78.1019 208.846 77.6335 208.867 77.037C208.898 76.4392 208.854 75.7057 208.735 74.8366L208.02 69.6354L208.991 69.502L209.679 74.509C209.781 75.2487 209.836 75.9288 209.846 76.5492C209.856 77.1697 209.785 77.7164 209.633 78.1895C209.482 78.6625 209.21 79.0485 208.817 79.3473C208.425 79.6461 207.878 79.8438 207.175 79.9404C206.722 80.0026 206.313 80.007 205.947 79.9536C205.582 79.9001 205.237 79.792 204.913 79.6293L205.084 78.8144ZM216.95 68.4087L217.768 68.2962L223.213 77.5817L222.186 77.7227L220.487 74.8189L216.063 75.4267L215.224 78.6792L214.183 78.8221L216.95 68.4087ZM220.16 74.0865L217.508 69.4907L216.166 74.6353L220.16 74.0865ZM225.191 67.2765L229.901 75.4334L232.223 66.3104L233.236 66.1714L230.511 76.5791L229.623 76.701L224.179 67.4156L225.191 67.2765ZM245.271 73.6752L245.389 74.5352L238.773 75.444L237.42 65.5965L243.911 64.7047L244.029 65.5647L238.509 66.323L238.997 69.8737L243.81 69.2125L243.922 70.0308L239.109 70.692L239.626 74.4507L245.271 73.6752Z" fill="#00003F"/>
<path d="M263.79 232.148L201.256 241.1L203.112 254.065L265.646 245.114L263.79 232.148Z" fill="#00003F"/>
<path d="M242.069 171.976C242.069 171.976 236.125 160.994 231.087 158.979C231.087 158.979 229.173 155.251 234.412 157.165C234.412 157.165 233.304 156.56 232.599 154.848C232.498 154.545 232.699 154.243 233.102 154.243C235.521 154.344 243.581 155.855 246.805 169.558L242.271 172.883" fill="#FFB2B6"/>
<path d="M314.51 331.971H308.666V335.095H314.51V331.971Z" fill="white"/>
<path d="M277.635 331.971H271.791V335.095H277.635V331.971Z" fill="white"/>
<path d="M314.915 334.289V338.621H301.011C301.011 338.621 298.694 331.367 314.915 334.289Z" fill="white"/>
<path d="M277.936 334.289V338.621H264.133C264.133 338.621 261.816 331.367 277.936 334.289Z" fill="white"/>
<path d="M311.689 235.651L309.876 293.181C309.876 294.592 309.876 296.003 310.178 297.413L315.619 332.072H305.14L297.785 295.902C297.584 294.894 297.483 293.887 297.382 292.778L295.267 258.422C295.267 257.918 294.561 257.817 294.461 258.321L283.277 287.942C282.975 288.748 282.773 289.554 282.672 290.36L278.945 332.072H269.877L269.373 286.834C269.373 286.129 269.474 285.524 269.575 284.819L279.851 235.248L311.689 235.651Z" fill="#02000D"/>
<path d="M280.758 199.582L260.305 197.063C258.189 197.063 256.275 196.055 254.965 194.443L238.945 172.68L248.517 165.93L260.708 182.856C262.018 184.67 264.033 185.778 266.249 185.879L310.077 183.058L315.115 246.331L276.224 241.696L280.758 199.582Z" fill="#ECB000"/>
<path d="M310.884 190.111L327.609 213.788C329.725 216.81 329.019 220.941 325.997 223.057L309.675 234.644L303.227 224.669L315.921 217.717C316.224 217.516 316.325 217.113 316.123 216.81L305.645 205.425L306.551 188.7L308.466 186.786L310.884 190.111Z" fill="#ECB000"/>
<path d="M285.294 164.721C285.294 164.721 283.078 166.736 281.566 169.255L282.775 170.262L281.062 174.796L288.921 176.811L294.463 163.209L285.294 164.721Z" fill="#FFB2B6"/>
<path d="M294.461 156.157C291.438 155.149 288.113 156.661 286.098 159.784C283.982 162.907 283.277 167.744 284.285 171.774C282.27 171.169 280.154 172.177 278.844 174.292C277.534 176.408 277.131 179.632 277.836 182.252C276.124 182.655 274.31 183.159 273 184.67C271.59 186.181 270.784 189.002 271.69 191.118C272.698 193.536 275.015 193.738 276.93 193.637C289.423 193.234 301.916 192.831 314.41 192.428C315.417 192.428 316.425 192.327 317.332 191.723C319.045 190.615 319.75 187.29 318.843 185.073C317.936 182.756 315.619 181.95 314.007 183.36C316.022 181.547 316.828 177.517 315.72 174.494C314.611 171.572 311.69 170.162 309.574 171.572C311.69 168.147 311.287 162.605 309.171 159.079C307.156 155.653 303.73 154.041 300.506 153.84C297.282 153.638 294.058 154.746 290.934 155.855C290.934 157.366 290.934 158.776 290.934 160.288" fill="#3F2929"/>
<defs>
<clipPath id="clip0">
<rect width="172.4" height="90.9" fill="white" transform="translate(0 225)"/>
</clipPath>
</defs>
</svg>
