<svg width="318" height="336" viewBox="0 0 318 336" fill="none" xmlns="http://www.w3.org/2000/svg">
<path d="M249.139 51.4926C249.664 49.2846 250.489 47.3921 251.539 45.8939C252.664 44.3168 254.389 43.2128 256.863 42.4243C257.613 42.1877 258.513 41.9512 259.563 41.6357C260.613 41.3992 261.663 41.0049 262.713 40.5318C263.763 40.0586 264.738 39.4278 265.563 38.6393C266.388 37.8507 266.988 36.8256 267.288 35.5639C267.513 34.6177 267.513 33.7503 267.363 32.9617C267.213 32.1732 266.913 31.4635 266.463 30.8326C266.013 30.2018 265.488 29.6498 264.813 29.1767C264.138 28.7036 263.388 28.3882 262.638 28.2304C261.738 27.9939 260.838 27.915 259.938 28.0727C259.113 28.2304 258.288 28.467 257.538 28.7824C256.788 29.0978 256.113 29.571 255.438 30.123C254.763 30.6749 254.239 31.1481 253.789 31.6212L249.214 26.1014C250.114 24.8397 251.089 23.8146 252.289 23.026C253.489 22.1586 254.688 21.6066 256.038 21.1335C257.388 20.7392 258.813 20.5027 260.238 20.4238C261.663 20.4238 263.163 20.5815 264.588 20.9758C266.238 21.3701 267.738 22.0798 269.163 22.9472C270.587 23.8934 271.862 24.9974 272.837 26.4168C273.812 27.8362 274.487 29.4921 274.937 31.3058C275.312 33.1983 275.237 35.3274 274.712 37.6142C274.337 39.0335 273.887 40.2952 273.362 41.2415C272.762 42.2666 272.087 43.134 271.262 43.8437C270.437 44.5534 269.538 45.1842 268.563 45.7362C267.588 46.2093 266.538 46.6824 265.338 47.0767C264.363 47.3921 263.388 47.7076 262.413 47.9441C261.438 48.1807 260.538 48.575 259.713 48.9692C258.888 49.3635 258.138 49.9155 257.463 50.6252C256.863 51.256 256.413 52.2023 256.113 53.3062L249.139 51.4926ZM245.539 67.1058L247.714 57.8798L254.763 59.7723L252.589 68.9983L245.539 67.1058Z" fill="#ECECEC"/>
<path d="M26.0261 222.844C26.3261 224.5 26.4011 225.998 26.1761 227.418C25.9511 228.837 25.1262 230.178 23.7013 231.518C23.2513 231.912 22.8013 232.386 22.1264 232.938C21.5264 233.49 20.9264 234.042 20.3265 234.751C19.8015 235.461 19.3515 236.171 19.0516 236.959C18.7516 237.748 18.6766 238.615 18.8266 239.561C18.9766 240.271 19.2016 240.823 19.5765 241.296C19.9515 241.769 20.3265 242.164 20.8515 242.4C21.3014 242.637 21.9014 242.873 22.4264 242.873C23.0263 242.952 23.6263 242.873 24.1512 242.794C24.8262 242.637 25.4262 242.4 25.9511 242.006C26.4761 241.612 26.9261 241.217 27.3011 240.744C27.676 240.271 27.976 239.719 28.276 239.167C28.576 238.615 28.726 238.063 28.9509 237.59L33.6757 239.64C33.4507 240.744 33.0757 241.769 32.5507 242.716C32.0258 243.662 31.4258 244.529 30.6008 245.239C29.8509 245.949 28.951 246.579 28.051 247.131C27.0761 247.605 26.1011 247.999 24.9762 248.235C23.7763 248.472 22.5763 248.551 21.3014 248.472C20.0265 248.393 18.9016 247.999 17.7766 247.447C16.6517 246.816 15.7518 246.027 14.8518 244.845C14.0269 243.741 13.4269 242.321 13.0519 240.586C12.827 239.561 12.752 238.536 12.827 237.669C12.9019 236.801 13.1269 236.013 13.4269 235.224C13.7269 234.436 14.1019 233.726 14.6268 233.095C15.1518 232.464 15.6768 231.755 16.3517 231.124C16.8767 230.572 17.4767 230.099 18.0016 229.547C18.5266 229.074 19.0516 228.522 19.5015 227.97C19.9515 227.418 20.2515 226.787 20.4765 226.156C20.7015 225.525 20.7015 224.737 20.5515 223.948L26.0261 222.844ZM23.6263 211.252L24.9762 218.113L19.7265 219.296L18.3766 212.435L23.6263 211.252Z" fill="#ECECEC"/>
<path d="M262.187 152.505C263.162 153.846 263.762 155.186 264.062 156.605C264.362 158.025 264.212 159.602 263.462 161.416C263.237 161.968 262.937 162.598 262.637 163.387C262.262 164.176 261.962 164.964 261.737 165.831C261.512 166.699 261.362 167.566 261.437 168.434C261.437 169.301 261.737 170.168 262.262 170.878C262.637 171.43 263.087 171.903 263.612 172.14C264.137 172.376 264.662 172.534 265.187 172.613C265.712 172.613 266.312 172.534 266.837 172.376C267.362 172.14 267.887 171.903 268.412 171.509C269.012 171.036 269.462 170.563 269.762 170.011C270.062 169.459 270.362 168.828 270.512 168.276C270.662 167.645 270.737 167.014 270.812 166.462C270.812 165.831 270.812 165.279 270.812 164.727L275.911 164.57C276.136 165.674 276.211 166.778 276.136 167.882C276.061 168.986 275.761 170.011 275.386 171.036C275.011 172.061 274.486 173.007 273.812 173.875C273.137 174.742 272.387 175.531 271.487 176.24C270.512 177.029 269.387 177.581 268.262 178.054C267.062 178.527 265.862 178.685 264.662 178.606C263.462 178.527 262.187 178.212 260.987 177.502C259.787 176.871 258.662 175.846 257.687 174.427C257.088 173.559 256.638 172.692 256.338 171.903C256.038 171.115 255.888 170.247 255.888 169.459C255.888 168.591 255.963 167.803 256.113 167.014C256.263 166.226 256.563 165.358 256.863 164.412C257.163 163.702 257.463 162.993 257.762 162.283C258.062 161.573 258.287 160.864 258.512 160.154C258.662 159.444 258.737 158.735 258.662 158.104C258.587 157.394 258.362 156.763 257.837 156.053L262.187 152.505ZM255.438 143.042L259.412 148.72L255.063 152.111L251.088 146.433L255.438 143.042Z" fill="#ECECEC"/>
<path d="M286.859 138.312C286.859 136.498 287.159 134.842 287.684 133.423C288.284 132.003 289.409 130.663 291.209 129.638C291.734 129.322 292.409 128.928 293.159 128.455C293.909 128.061 294.734 127.509 295.484 126.878C296.234 126.247 296.834 125.616 297.359 124.749C297.884 123.96 298.109 123.014 298.109 121.989C298.109 121.2 297.959 120.491 297.659 119.939C297.359 119.308 296.984 118.835 296.534 118.44C296.084 118.046 295.559 117.731 294.884 117.494C294.284 117.258 293.609 117.179 293.009 117.179C292.259 117.179 291.509 117.336 290.909 117.573C290.234 117.888 289.709 118.204 289.184 118.598C288.659 118.992 288.209 119.544 287.834 120.018C287.459 120.569 287.084 121.043 286.784 121.595L282.135 118.204C282.585 117.021 283.185 115.996 283.935 115.129C284.685 114.261 285.585 113.473 286.559 112.842C287.534 112.211 288.584 111.738 289.709 111.422C290.834 111.107 292.034 110.949 293.234 110.949C294.584 110.949 295.934 111.186 297.209 111.58C298.559 111.974 299.684 112.605 300.734 113.551C301.784 114.419 302.609 115.602 303.283 117.021C303.958 118.44 304.258 120.096 304.258 122.068C304.258 123.251 304.108 124.355 303.883 125.222C303.583 126.168 303.208 126.957 302.759 127.745C302.234 128.455 301.709 129.165 301.034 129.795C300.359 130.426 299.609 130.978 298.709 131.53C298.034 132.003 297.284 132.398 296.609 132.792C295.934 133.186 295.259 133.659 294.659 134.132C294.059 134.606 293.609 135.236 293.234 135.867C292.859 136.498 292.709 137.287 292.709 138.233H286.859V138.312ZM286.934 151.323V143.595H292.859V151.323H286.934Z" fill="#ECECEC"/>
<path d="M101.922 183.102C101.547 181.288 101.547 179.632 101.772 178.134C102.072 176.557 102.972 175.058 104.472 173.639C104.922 173.166 105.522 172.693 106.196 172.062C106.871 171.51 107.546 170.8 108.146 170.091C108.746 169.381 109.271 168.513 109.571 167.646C109.946 166.779 110.021 165.754 109.796 164.728C109.646 163.94 109.346 163.309 108.971 162.757C108.596 162.205 108.146 161.811 107.546 161.495C107.021 161.18 106.421 161.022 105.747 160.943C105.072 160.865 104.472 160.943 103.872 161.022C103.122 161.18 102.447 161.495 101.847 161.89C101.247 162.284 100.797 162.757 100.347 163.309C99.8969 163.861 99.5969 164.413 99.2969 165.044C98.9969 165.675 98.7719 166.227 98.6219 166.779L93.4473 164.492C93.6723 163.23 94.0472 162.126 94.6472 161.101C95.2472 160.076 95.9221 159.13 96.7471 158.341C97.572 157.553 98.547 156.843 99.5969 156.291C100.647 155.739 101.772 155.345 102.972 155.029C104.322 154.714 105.597 154.635 107.021 154.793C108.371 154.872 109.646 155.266 110.846 155.976C112.046 156.606 113.096 157.553 113.996 158.814C114.896 160.076 115.571 161.574 115.946 163.467C116.171 164.65 116.246 165.675 116.171 166.621C116.096 167.567 115.871 168.435 115.571 169.302C115.196 170.169 114.821 170.958 114.221 171.668C113.696 172.377 113.021 173.166 112.346 173.876C111.746 174.506 111.146 175.058 110.546 175.61C109.946 176.162 109.421 176.793 108.896 177.345C108.446 177.976 108.071 178.607 107.846 179.395C107.621 180.105 107.621 180.894 107.771 181.84L101.922 183.102ZM104.622 195.797L103.122 188.227L108.896 186.965L110.396 194.535L104.622 195.797Z" fill="#ECECEC"/>
<path d="M0 295.231C0 295.231 19.8738 295.152 49.5719 294.995C79.3451 294.916 119.018 294.916 158.69 294.837C198.363 294.916 238.035 294.995 267.808 294.995C297.582 295.152 317.38 295.231 317.38 295.231C317.38 295.231 297.507 295.31 267.808 295.467C238.035 295.546 198.363 295.546 158.69 295.625C119.018 295.546 79.3451 295.467 49.5719 295.467C19.8738 295.31 0 295.231 0 295.231Z" fill="#0E113C"/>
<path d="M158.688 336C233.408 336 293.98 329.786 293.98 322.122C293.98 314.457 233.408 308.243 158.688 308.243C83.9686 308.243 23.3965 314.457 23.3965 322.122C23.3965 329.786 83.9686 336 158.688 336Z" fill="#ECECEC"/>
<path d="M291.503 208.491C288.653 205.573 284.978 202.025 280.628 203.286C276.504 204.469 274.929 209.201 274.254 213.064C273.279 218.111 272.604 223.237 271.779 228.283C271.029 233.409 270.279 238.535 269.604 243.739C269.229 246.657 268.779 249.574 268.404 252.413C268.179 253.832 268.029 255.331 267.804 256.75C267.579 258.169 267.354 259.589 267.279 261.008C267.279 261.481 267.954 261.56 268.029 261.087C268.554 258.642 268.779 256.119 269.079 253.675C269.454 251.23 269.754 248.707 270.129 246.262C270.804 241.373 271.554 236.405 272.229 231.516C272.904 226.627 273.654 221.738 274.404 216.771C275.004 212.591 275.304 207.466 278.829 204.706C280.778 203.208 283.178 203.208 285.353 204.075C287.678 205.021 289.478 206.756 291.278 208.491C291.428 208.57 291.503 208.491 291.503 208.491Z" fill="#060716"/>
<path d="M287.603 205.495C287.603 205.495 281.753 203.287 278.904 207.782C276.054 212.276 279.429 223.631 305.977 230.019C305.977 230.019 305.302 217.875 299.602 204.785C293.903 191.774 283.778 196.663 287.603 205.495Z" fill="#EAB020"/>
<path d="M304.405 228.125C304.03 227.336 303.505 226.627 303.055 225.838C302.605 225.128 302.155 224.419 301.705 223.709C301.33 223.157 301.03 222.605 300.655 222.132C300.655 221.974 300.655 221.895 300.73 221.738C300.73 221.501 300.805 221.265 300.805 221.028C300.88 220.476 300.955 220.003 301.03 219.451C301.105 218.899 301.18 218.426 301.255 217.874C301.33 217.322 301.405 216.691 301.63 216.218C301.63 216.139 301.555 216.06 301.48 216.218C301.48 216.533 301.33 216.849 301.255 217.164C301.18 217.401 301.105 217.637 301.105 217.874C300.955 218.426 300.88 218.899 300.73 219.451C300.655 219.924 300.505 220.397 300.43 220.949C300.355 221.186 300.355 221.422 300.355 221.659C299.905 220.949 299.38 220.239 298.93 219.53C297.505 217.558 296.005 215.666 294.505 213.852C294.505 213.852 294.505 213.852 294.505 213.773C294.655 210.856 294.58 207.938 295.18 205.099C295.18 205.02 295.105 204.942 295.03 205.02C294.43 207.702 293.905 210.54 294.055 213.379C293.53 212.748 292.93 212.117 292.405 211.408C291.13 209.909 289.781 208.49 288.431 207.071C288.356 206.992 288.281 207.071 288.356 207.15C290.605 209.673 292.705 212.275 294.805 214.956C293.23 214.877 291.58 215.035 289.931 215.114C288.131 215.272 286.331 215.508 284.531 215.745C284.456 215.745 284.456 215.902 284.531 215.902C286.331 215.587 288.131 215.508 289.856 215.429C291.58 215.35 293.305 215.429 295.03 215.429C296.155 216.849 297.28 218.347 298.33 219.845C298.255 219.845 298.18 219.845 298.105 219.845C297.73 219.845 297.28 219.845 296.905 219.845C296.08 219.845 295.255 219.924 294.505 220.003C292.855 220.161 291.205 220.397 289.631 220.791C289.556 220.791 289.556 220.949 289.631 220.949C291.28 220.791 292.855 220.634 294.505 220.555C295.255 220.555 296.08 220.555 296.83 220.555C297.205 220.555 297.655 220.555 298.03 220.555C298.255 220.555 298.48 220.555 298.705 220.476C299.455 221.422 300.13 222.447 300.805 223.394C301.405 224.182 301.93 224.971 302.455 225.759C302.98 226.548 303.505 227.415 304.105 228.204C304.405 228.204 304.48 228.204 304.405 228.125Z" fill="#060716"/>
<path d="M290.08 211.803C289.18 211.645 288.205 211.645 287.23 211.645C286.255 211.645 285.355 211.645 284.38 211.724C284.305 211.724 284.305 211.881 284.38 211.881C285.355 211.803 286.33 211.803 287.23 211.803C288.28 211.803 289.18 211.881 290.08 211.803C290.155 211.881 290.155 211.803 290.08 211.803Z" fill="#060716"/>
<path d="M298.406 214.011C298.481 213.064 298.631 212.118 298.856 211.172C298.856 211.093 298.781 211.093 298.706 211.172C298.556 212.118 298.406 213.064 298.256 214.011C298.181 214.484 298.106 214.957 298.106 215.43C298.031 215.824 297.956 216.298 298.031 216.771C298.031 216.849 298.181 216.849 298.181 216.771C298.256 216.376 298.256 215.903 298.331 215.43C298.331 214.957 298.406 214.484 298.406 214.011Z" fill="#060716"/>
<path d="M296.681 203.523C296.456 204.469 296.231 205.416 296.081 206.362C296.006 206.835 295.931 207.308 295.856 207.781C295.781 208.254 295.706 208.727 295.781 209.201C295.781 209.201 295.856 209.279 295.856 209.201C296.006 208.806 296.006 208.333 296.081 207.86C296.156 207.387 296.231 206.914 296.306 206.441C296.456 205.494 296.606 204.469 296.831 203.523C296.831 203.444 296.681 203.444 296.681 203.523Z" fill="#060716"/>
<path d="M262.183 260.061C262.033 258.326 261.883 256.591 261.733 254.777C261.358 251.308 260.983 247.838 260.533 244.369C260.083 240.899 259.633 237.429 259.108 234.039C258.883 232.462 258.583 230.884 258.133 229.307C257.683 228.046 256.933 226.863 255.658 226.39C252.508 225.286 250.408 228.677 249.208 231.042C249.134 231.121 249.283 231.2 249.283 231.121C250.033 230.017 252.133 226.784 254.458 226.942C256.033 227.021 257.308 228.203 258.058 232.383C259.933 242.792 261.658 263.925 261.883 265.265C261.958 265.975 262.483 265.975 262.483 265.186C262.483 263.451 262.333 261.717 262.183 260.061Z" fill="#060716"/>
<path d="M249.957 229.781C249.957 229.781 252.656 219.688 246.657 224.734C236.607 233.172 236.232 251.466 236.232 251.466C236.232 251.466 254.081 240.584 256.256 233.408C259.631 222.684 249.957 229.781 249.957 229.781Z" fill="#EAB020"/>
<path d="M253.333 234.75C251.908 235.065 250.483 235.223 249.133 235.459C248.458 235.538 247.783 235.696 247.108 235.775C246.658 235.854 246.208 235.854 245.758 235.932C247.108 234.04 248.458 232.069 249.733 230.097C249.808 230.018 249.658 229.939 249.583 230.018C248.533 231.122 247.558 232.384 246.583 233.646C246.358 232.857 246.058 232.069 245.758 231.28C245.458 230.413 245.158 229.466 244.933 228.52C244.933 228.441 244.783 228.441 244.783 228.52C245.008 229.466 245.233 230.413 245.458 231.359C245.683 232.226 245.908 233.172 246.283 234.04C245.608 234.907 245.008 235.854 244.408 236.8C244.108 235.854 243.733 234.986 243.433 234.04C243.433 233.961 243.283 233.961 243.283 234.04C243.583 235.065 243.808 236.169 244.108 237.194C243.733 237.825 243.283 238.456 242.908 239.087C242.158 240.269 241.483 241.452 240.808 242.635C240.733 242.714 240.658 242.793 240.658 242.95C239.533 245.001 238.484 247.051 237.434 249.18C237.434 249.259 237.509 249.338 237.509 249.259C238.559 247.209 239.758 245.158 240.958 243.187C241.108 243.108 241.408 243.108 241.558 243.029C241.783 242.95 241.933 242.95 242.158 242.872C242.608 242.793 243.058 242.635 243.508 242.556C244.408 242.32 245.308 242.083 246.208 241.925C246.283 241.925 246.283 241.768 246.208 241.768C245.158 242.004 244.033 242.083 242.983 242.241C242.458 242.32 241.933 242.398 241.408 242.477H241.333C242.008 241.452 242.608 240.427 243.283 239.402C243.958 238.377 244.633 237.431 245.233 236.484C245.833 236.406 246.433 236.248 247.108 236.09C247.783 235.932 248.458 235.775 249.208 235.696C250.558 235.38 251.983 235.065 253.333 234.828C253.483 234.828 253.408 234.75 253.333 234.75Z" fill="#060716"/>
<path d="M242.609 235.774C242.534 235.537 242.459 235.222 242.384 234.985C242.234 234.433 242.084 233.881 242.009 233.251C242.009 233.172 241.859 233.172 241.859 233.251C242.009 233.803 242.084 234.355 242.234 234.985C242.384 235.537 242.459 236.168 242.684 236.641C242.759 236.799 242.909 236.72 242.909 236.562C242.834 236.326 242.684 236.01 242.609 235.774Z" fill="#060716"/>
<path d="M255.129 232.384C254.304 232.541 253.479 232.541 252.654 232.62C251.829 232.699 251.004 232.778 250.179 232.935C250.104 232.935 250.104 233.014 250.179 233.014C251.004 232.935 251.829 232.856 252.654 232.778C253.479 232.699 254.304 232.541 255.129 232.463C255.279 232.541 255.204 232.384 255.129 232.384Z" fill="#060716"/>
<path d="M275.307 247.208C275.007 239.717 274.557 232.304 273.807 224.892C273.432 221.186 273.057 217.48 272.532 213.852C272.082 210.225 271.482 206.676 270.507 203.128C269.757 200.447 268.782 197.766 267.132 195.558C265.482 193.429 263.008 192.088 260.308 192.404C257.233 192.798 254.683 194.848 252.583 197.056C250.183 199.58 247.934 202.261 245.684 204.942C245.084 205.651 244.559 206.282 243.959 206.992C243.884 207.071 243.959 207.15 244.034 207.071C246.209 204.39 248.534 201.866 250.858 199.343C253.033 197.056 255.358 194.612 258.358 193.665C259.783 193.192 261.283 193.113 262.708 193.587C263.833 193.981 264.882 194.691 265.707 195.558C267.432 197.45 268.407 199.974 269.082 202.418C270.957 209.279 271.707 216.454 272.382 223.551C273.132 230.727 273.582 237.982 273.957 245.158C274.332 252.412 274.557 259.667 275.232 266.921C275.307 267.789 275.457 268.735 275.532 269.602C275.607 270.233 276.507 270.233 276.432 269.602C275.907 262.19 275.607 254.699 275.307 247.208Z" fill="#060716"/>
<path d="M252.133 197.924C252.133 197.924 256.183 190.039 251.383 187.516C246.583 184.992 230.609 203.76 225.885 231.28C225.885 231.28 251.758 219.215 260.533 207.229C269.382 195.243 259.408 192.641 252.133 197.924Z" fill="#EAB020"/>
<path d="M255.956 204.312C253.031 204.312 250.182 204.075 247.257 204.075C247.782 203.444 248.382 202.734 248.907 202.104C249.657 201.236 250.556 200.29 251.156 199.344C251.231 199.265 251.081 199.186 251.081 199.265C250.256 199.896 249.582 200.763 248.907 201.552C248.157 202.34 247.482 203.208 246.732 203.996C245.607 205.258 244.557 206.52 243.432 207.86C243.432 207.702 243.432 207.623 243.432 207.466C243.432 206.914 243.432 206.362 243.432 205.889C243.432 204.864 243.432 203.838 243.432 202.813C243.432 200.684 243.432 198.634 243.582 196.505C243.582 196.426 243.432 196.426 243.432 196.505C243.282 198.634 243.057 200.684 242.982 202.813C242.907 203.838 242.907 204.864 242.907 205.889C242.907 206.441 242.907 206.993 242.907 207.466C242.907 207.781 242.907 208.097 242.907 208.333C242.757 208.57 242.532 208.727 242.382 208.964C240.057 211.724 237.882 214.642 235.707 217.559C235.707 217.401 235.707 217.244 235.632 217.086C235.632 216.771 235.557 216.455 235.557 216.14C235.482 215.43 235.407 214.72 235.257 214.011C235.182 213.38 235.032 212.67 234.957 212.039C234.807 211.33 234.657 210.541 234.582 209.831C234.582 209.753 234.432 209.753 234.432 209.831C234.582 210.541 234.582 211.33 234.657 212.039C234.732 212.749 234.807 213.38 234.807 214.09C234.882 214.799 234.957 215.43 234.957 216.14C234.957 216.455 235.032 216.771 235.032 217.086C235.032 217.244 235.032 217.401 235.107 217.559C235.107 217.796 235.182 217.796 235.257 217.953C234.882 218.427 234.507 218.979 234.132 219.452C232.633 221.502 231.208 223.552 229.783 225.602C229.708 225.681 229.858 225.76 229.858 225.681C231.208 223.789 232.633 221.975 234.057 220.161C235.107 220.24 236.232 220.161 237.282 220.083C238.407 220.083 239.532 220.083 240.657 220.083C240.732 220.083 240.732 219.925 240.657 219.925C239.532 219.925 238.407 219.925 237.282 220.004C236.232 220.004 235.182 219.925 234.207 220.004C235.482 218.427 236.757 216.849 237.957 215.272C238.407 214.72 238.857 214.09 239.382 213.538C239.832 213.616 240.282 213.616 240.657 213.616C241.182 213.616 241.707 213.616 242.157 213.616C243.132 213.616 244.032 213.616 245.007 213.538C246.957 213.538 248.982 213.459 250.931 213.459C251.006 213.459 251.006 213.301 250.931 213.301C248.982 213.301 246.957 213.222 245.007 213.143C244.032 213.143 243.132 213.064 242.157 213.064C241.632 213.064 241.107 213.064 240.657 213.064C240.357 213.064 240.057 213.064 239.757 213.064C240.807 211.724 241.932 210.383 242.982 209.043L243.057 208.964C244.107 207.623 245.157 206.362 246.282 205.021C246.432 204.864 246.582 204.706 246.732 204.469C249.732 204.548 252.731 204.39 255.731 204.39C256.031 204.469 256.031 204.312 255.956 204.312Z" fill="#060716"/>
<path d="M254.458 209.752C254.233 209.752 254.008 209.752 253.783 209.752C253.708 209.752 253.708 209.83 253.783 209.83C254.008 209.83 254.233 209.83 254.458 209.83C254.533 209.83 254.533 209.752 254.458 209.752Z" fill="#060716"/>
<path d="M252.883 209.752C251.983 209.752 251.008 209.752 250.108 209.673C249.658 209.673 249.208 209.673 248.683 209.594C248.233 209.594 247.783 209.515 247.408 209.594C247.333 209.594 247.408 209.673 247.408 209.673C247.783 209.83 248.308 209.752 248.683 209.752C249.133 209.752 249.583 209.752 250.108 209.752C251.008 209.752 251.983 209.752 252.883 209.752C252.958 209.83 252.958 209.752 252.883 209.752Z" fill="#060716"/>
<path d="M244.784 218.899C242.909 218.584 240.959 218.348 239.084 218.348V218.426C240.959 218.584 242.909 218.741 244.784 219.056C244.784 219.056 244.859 218.899 244.784 218.899Z" fill="#060716"/>
<path d="M236.982 210.147C236.982 209.989 236.907 209.831 236.907 209.595C236.832 209.201 236.832 208.806 236.757 208.412C236.682 207.702 236.532 206.914 236.382 206.204C236.382 206.125 236.232 206.125 236.232 206.204C236.307 206.993 236.382 207.702 236.457 208.491C236.457 208.885 236.532 209.279 236.532 209.595C236.532 209.91 236.532 210.383 236.682 210.699C236.757 210.778 236.907 210.778 236.907 210.62C237.057 210.541 236.982 210.383 236.982 210.147Z" fill="#060716"/>
<path d="M275.006 187.83C274.106 186.017 272.906 183.651 270.581 183.809C268.706 183.966 267.806 186.017 267.431 187.673C266.157 192.877 266.082 198.397 265.857 203.759C265.332 215.114 264.882 226.469 264.807 237.745C264.807 240.9 264.807 244.054 264.807 247.208C264.807 250.441 264.807 253.674 265.032 256.828C265.032 257.144 265.482 257.144 265.482 256.828C265.482 254.068 265.407 251.308 265.407 248.627C265.407 245.946 265.407 243.265 265.482 240.584C265.557 235.143 265.707 229.702 265.932 224.34C266.157 218.978 266.382 213.537 266.532 208.175C266.607 205.494 266.757 202.813 266.832 200.132C266.906 197.529 267.056 194.927 267.356 192.325C267.506 190.906 267.731 189.407 268.031 187.988C268.256 186.963 268.556 185.859 269.231 185.07C270.131 184.045 271.556 184.124 272.606 184.834C273.731 185.544 274.406 186.805 275.006 187.988C274.931 187.909 275.081 187.83 275.006 187.83Z" fill="#060716"/>
<path d="M274.404 186.964C274.404 186.964 272.529 179.946 276.729 183.416C283.704 189.251 283.929 202.025 283.929 202.025C283.929 202.025 271.479 194.455 269.979 189.408C267.655 181.996 274.404 186.964 274.404 186.964Z" fill="#EAB020"/>
<path d="M281.308 196.821C281.158 196.663 281.083 196.426 280.933 196.269C280.933 196.111 280.933 195.874 280.933 195.638C280.933 195.322 280.933 195.007 280.933 194.692C280.933 194.061 280.933 193.509 281.008 192.878C281.008 192.799 280.858 192.799 280.858 192.878C280.858 193.43 280.783 194.061 280.783 194.613C280.783 194.928 280.783 195.165 280.783 195.48C280.783 195.559 280.783 195.717 280.783 195.874C280.258 195.086 279.808 194.297 279.283 193.509C279.133 193.272 278.983 193.036 278.833 192.878C278.683 192.089 278.758 191.301 278.833 190.591C278.833 189.803 278.833 188.935 278.908 188.147C278.908 188.068 278.758 188.068 278.758 188.147C278.758 189.014 278.683 189.881 278.683 190.67C278.683 191.301 278.608 191.853 278.608 192.484C277.408 190.749 276.133 189.093 274.858 187.437C274.783 187.358 274.708 187.437 274.783 187.516C275.608 188.541 276.358 189.645 277.108 190.749C275.683 190.355 274.183 190.197 272.683 189.96C272.608 189.96 272.608 190.039 272.683 190.118C274.258 190.355 275.833 190.749 277.333 191.143C277.933 192.011 278.533 192.878 279.133 193.824C279.358 194.218 279.583 194.534 279.808 194.928H279.733C279.583 194.928 279.433 194.849 279.283 194.849C278.908 194.77 278.608 194.77 278.233 194.77C277.483 194.692 276.808 194.692 276.058 194.613C275.983 194.613 275.983 194.77 276.058 194.77C276.733 194.77 277.483 194.849 278.158 194.928C278.533 195.007 278.908 195.007 279.283 195.086C279.433 195.086 279.583 195.165 279.733 195.165C279.808 195.165 279.808 195.165 279.883 195.165C280.258 195.796 280.708 196.426 281.083 196.978C281.758 198.082 282.433 199.265 283.183 200.29C283.258 200.369 283.333 200.29 283.258 200.211C282.733 199.029 281.983 197.925 281.308 196.821Z" fill="#060716"/>
<path d="M278.234 188.856C278.234 188.62 278.234 188.304 278.234 188.068C278.234 187.516 278.234 186.885 278.309 186.333C278.309 186.254 278.159 186.254 278.159 186.333C278.159 186.885 278.084 187.437 278.084 188.068C278.084 188.383 278.084 188.62 278.084 188.935C278.084 189.093 278.084 189.172 278.084 189.33C278.084 189.487 278.084 189.645 278.084 189.724C278.084 189.803 278.159 189.803 278.159 189.724C278.159 189.566 278.159 189.487 278.159 189.33C278.234 189.093 278.234 189.014 278.234 188.856Z" fill="#060716"/>
<path d="M276.735 191.774C276.285 191.696 275.835 191.696 275.31 191.617C274.785 191.538 274.26 191.538 273.81 191.459C273.735 191.459 273.735 191.538 273.81 191.617C274.785 191.696 275.76 191.853 276.735 191.932C276.735 191.853 276.735 191.774 276.735 191.774Z" fill="#060716"/>
<path d="M280.633 191.774C280.633 191.852 280.633 192.01 280.633 192.01V192.247C280.633 192.404 280.633 192.562 280.633 192.72C280.633 192.877 280.633 193.035 280.633 193.193C280.633 193.35 280.633 193.508 280.633 193.587H280.708C280.708 193.508 280.708 193.429 280.708 193.35C280.708 193.271 280.708 193.193 280.708 193.114C280.708 192.956 280.708 192.798 280.708 192.641C280.708 192.483 280.708 192.325 280.708 192.168V191.931C280.708 191.852 280.708 191.695 280.708 191.695C280.783 191.695 280.558 191.695 280.633 191.774Z" fill="#060716"/>
<path d="M275.305 225.444C272.68 223.394 270.356 220.398 266.831 220.24C263.906 220.082 261.881 222.448 260.756 224.971C260.156 226.312 259.706 227.731 259.331 229.15C258.806 231.043 258.281 233.014 257.831 234.986C256.931 238.85 256.107 242.713 255.507 246.577C255.132 248.785 254.832 250.914 254.532 253.122C254.232 255.33 253.932 257.617 253.932 259.825C253.932 260.219 254.532 260.298 254.607 259.904C254.982 258.09 255.132 256.198 255.357 254.384C255.582 252.491 255.882 250.678 256.181 248.785C256.781 245.079 257.456 241.373 258.281 237.746C259.031 234.276 259.781 230.806 260.831 227.416C261.581 224.971 262.781 222.211 265.256 221.344C269.006 220.003 272.455 223.394 275.23 225.523C275.305 225.523 275.38 225.444 275.305 225.444Z" fill="#060716"/>
<path d="M272.607 223.473C272.607 223.473 270.207 216.218 273.657 214.799C278.907 212.67 292.556 228.835 289.856 253.674C289.856 253.674 279.282 247.524 271.482 240.663C263.683 233.803 261.658 224.814 265.107 222.448C268.632 220.161 272.607 223.473 272.607 223.473Z" fill="#EAB020"/>
<path d="M288.357 248.312C288.057 247.444 287.532 246.656 287.082 245.788C286.632 244.921 286.182 244.132 285.732 243.265C284.832 241.609 283.932 240.032 282.957 238.376C282.807 238.139 282.657 237.824 282.507 237.587C282.507 237.509 282.507 237.43 282.582 237.272C282.657 237.035 282.657 236.799 282.732 236.562C282.882 236.01 282.957 235.458 283.032 234.906C283.257 233.881 283.407 232.777 283.632 231.752C283.632 231.673 283.557 231.673 283.482 231.752C283.257 232.777 282.957 233.881 282.657 234.906C282.507 235.379 282.357 235.931 282.207 236.405C282.132 236.562 282.133 236.72 282.058 236.957C280.933 234.985 279.808 233.093 278.533 231.2C278.608 230.964 278.608 230.648 278.683 230.412C278.683 230.017 278.758 229.702 278.833 229.308C278.908 228.519 278.983 227.652 279.133 226.863C279.358 225.286 279.583 223.709 279.958 222.132C279.958 222.053 279.883 222.053 279.808 222.132C279.433 223.709 279.058 225.286 278.758 226.863C278.608 227.652 278.458 228.44 278.383 229.229C278.308 229.623 278.308 230.017 278.233 230.412C278.233 230.49 278.233 230.648 278.158 230.806C277.783 230.254 277.408 229.702 277.033 229.15C275.833 227.494 274.558 225.838 273.283 224.261C273.208 224.182 273.133 224.261 273.208 224.34C275.458 227.179 277.258 230.333 279.133 233.487C279.508 234.039 279.808 234.67 280.183 235.222C280.033 235.222 279.958 235.222 279.808 235.143C279.358 235.064 278.908 235.064 278.458 234.985C277.558 234.906 276.658 234.827 275.758 234.749C273.958 234.591 272.233 234.512 270.433 234.276C270.358 234.276 270.358 234.354 270.433 234.433C272.233 234.67 274.033 234.985 275.833 235.222C276.733 235.379 277.558 235.458 278.458 235.616C279.058 235.695 279.808 235.853 280.483 235.853C281.158 237.035 281.908 238.218 282.582 239.401C282.432 239.401 282.283 239.401 282.133 239.401C281.833 239.401 281.533 239.401 281.233 239.401C280.708 239.401 280.108 239.401 279.583 239.401C278.458 239.401 277.258 239.401 276.133 239.401C276.058 239.401 276.058 239.559 276.133 239.559C277.258 239.559 278.458 239.638 279.583 239.716C280.108 239.716 280.708 239.795 281.233 239.795C281.533 239.795 281.758 239.874 282.058 239.874C282.283 239.874 282.582 239.953 282.807 239.874C283.407 240.899 284.007 241.924 284.607 242.95C285.132 243.896 285.732 244.842 286.257 245.709C286.857 246.656 287.382 247.681 288.057 248.548C288.282 248.469 288.357 248.39 288.357 248.312Z" fill="#060716"/>
<path d="M283.33 228.282C283.255 229.071 283.03 229.859 282.88 230.648C282.655 231.436 282.43 232.225 282.205 233.014C282.205 233.092 282.28 233.171 282.355 233.092C282.58 232.304 282.805 231.515 282.955 230.727C283.105 229.938 283.255 229.15 283.405 228.361C283.405 228.203 283.33 228.203 283.33 228.282Z" fill="#060716"/>
<path d="M275.532 233.171C275.382 233.014 275.157 233.014 274.932 232.935C274.632 232.856 274.257 232.856 273.957 232.777C273.357 232.699 272.757 232.62 272.082 232.541C270.807 232.383 269.532 232.226 268.257 232.068C268.182 232.068 268.182 232.147 268.257 232.226C269.457 232.383 270.657 232.541 271.857 232.777C272.457 232.856 273.057 232.935 273.657 233.014C273.957 233.014 274.257 233.093 274.482 233.093C274.782 233.093 275.157 233.093 275.457 233.25C275.532 233.25 275.607 233.171 275.532 233.171Z" fill="#060716"/>
<path d="M283.255 244.053C282.655 243.975 282.055 243.975 281.455 243.975C281.155 243.975 280.855 243.975 280.555 243.975C280.405 243.975 280.255 243.975 280.105 243.975C279.955 243.975 279.73 243.975 279.505 243.975C279.43 243.975 279.43 244.132 279.505 244.132C279.655 244.132 279.88 244.132 280.03 244.132C280.18 244.132 280.33 244.132 280.48 244.132C280.78 244.132 281.08 244.132 281.38 244.211C281.98 244.211 282.58 244.29 283.18 244.29C283.33 244.211 283.33 244.053 283.255 244.053Z" fill="#060716"/>
<path d="M287.006 241.294C287.081 240.899 287.156 240.584 287.231 240.19C287.381 239.48 287.456 238.77 287.606 238.061C287.606 237.982 287.531 237.982 287.456 238.061C287.306 238.77 287.156 239.48 287.006 240.111C286.931 240.426 286.856 240.821 286.781 241.136C286.781 241.294 286.706 241.451 286.706 241.609C286.706 241.767 286.631 241.925 286.631 242.082C286.631 242.161 286.706 242.161 286.781 242.161C286.931 241.925 286.931 241.53 287.006 241.294Z" fill="#060716"/>
<path d="M251.232 257.065L251.982 265.818L254.457 295.546H276.581L279.731 265.818L280.631 257.065H251.232Z" fill="#0E113C"/>
<path d="M251.232 257.065L251.982 265.818H279.731L280.631 257.065H251.232Z" fill="#060716"/>
<path d="M282.805 254.621H249.057V261.718H282.805V254.621Z" fill="#0E113C"/>
<path d="M131.767 227.89C131.767 215.273 133.717 203.918 137.617 193.904C141.517 183.889 149.616 175.136 161.84 167.645C165.515 165.358 170.015 162.677 175.414 159.76C180.814 156.763 186.064 153.294 191.238 149.114C196.413 145.014 200.763 140.204 204.288 134.605C207.812 129.085 209.612 122.698 209.612 115.443C209.612 110.002 208.637 105.271 206.687 101.171C204.738 97.0703 202.188 93.6007 198.963 90.7619C195.738 87.9231 192.063 85.7941 187.789 84.3747C183.514 82.9553 179.164 82.2456 174.739 82.2456C169.34 82.2456 164.465 83.1919 160.04 85.1632C155.616 87.1346 151.641 89.5791 148.116 92.4967C144.591 95.4932 141.367 98.8051 138.592 102.511C135.742 106.217 133.417 109.766 131.392 113.157H125.842L99.3691 89.8945C102.519 81.9302 106.794 74.8333 112.043 68.6037C117.293 62.4531 123.293 57.1698 130.042 52.9905C136.792 48.7324 144.066 45.4993 151.941 43.2914C159.815 41.0835 167.84 39.9795 176.164 39.9795C185.464 39.9795 194.688 41.3989 203.763 44.2376C212.837 47.0764 221.012 51.5711 228.211 57.8007C235.411 63.9513 241.335 71.9156 245.835 81.5359C250.335 91.2351 252.66 102.748 252.66 116.153C252.66 124.433 251.76 131.688 249.885 137.996C248.01 144.304 245.385 150.061 242.01 155.186C238.56 160.312 234.511 164.964 229.861 169.065C225.211 173.165 219.962 177.187 214.037 181.051C209.162 184.126 204.213 187.122 199.338 189.961C194.463 192.8 189.964 195.954 185.914 199.424C181.864 202.893 178.564 206.915 176.014 211.41C173.465 215.904 172.19 221.424 172.19 227.811H131.767V227.89ZM132.442 317.942V264.637H173.24V317.942H132.442Z" fill="#EAB020"/>
<g opacity="0.2">
<path opacity="0.2" d="M131.767 227.89C131.767 215.273 133.717 203.918 137.617 193.904C141.517 183.889 149.616 175.136 161.84 167.645C165.515 165.358 170.015 162.677 175.414 159.76C180.814 156.763 186.064 153.294 191.238 149.114C196.413 145.014 200.763 140.204 204.288 134.605C207.812 129.085 209.612 122.698 209.612 115.443C209.612 110.002 208.637 105.271 206.687 101.171C204.738 97.0703 202.188 93.6007 198.963 90.7619C195.738 87.9231 192.063 85.7941 187.789 84.3747C183.514 82.9553 179.164 82.2456 174.739 82.2456C169.34 82.2456 164.465 83.1919 160.04 85.1632C155.616 87.1346 151.641 89.5791 148.116 92.4967C144.591 95.4932 141.367 98.8051 138.592 102.511C135.742 106.217 133.417 109.766 131.392 113.157H125.842L99.3691 89.8945C102.519 81.9302 106.794 74.8333 112.043 68.6037C117.293 62.4531 123.293 57.1698 130.042 52.9905C136.792 48.7324 144.066 45.4993 151.941 43.2914C159.815 41.0835 167.84 39.9795 176.164 39.9795C185.464 39.9795 194.688 41.3989 203.763 44.2376C212.837 47.0764 221.012 51.5711 228.211 57.8007C235.411 63.9513 241.335 71.9156 245.835 81.5359C250.335 91.2351 252.66 102.748 252.66 116.153C252.66 124.433 251.76 131.688 249.885 137.996C248.01 144.304 245.385 150.061 242.01 155.186C238.56 160.312 234.511 164.964 229.861 169.065C225.211 173.165 219.962 177.187 214.037 181.051C209.162 184.126 204.213 187.122 199.338 189.961C194.463 192.8 189.964 195.954 185.914 199.424C181.864 202.893 178.564 206.915 176.014 211.41C173.465 215.904 172.19 221.424 172.19 227.811H131.767V227.89ZM132.442 317.942V264.637H173.24V317.942H132.442Z" fill="black"/>
</g>
<path d="M126.216 227.891C126.216 215.274 128.165 203.919 132.065 193.904C135.965 183.89 144.064 175.137 156.289 167.646C159.963 165.359 164.463 162.678 169.863 159.76C175.263 156.764 180.512 153.294 185.687 149.115C190.862 145.014 195.211 140.204 198.736 134.606C202.261 129.086 204.061 122.699 204.061 115.444C204.061 110.003 203.086 105.272 201.136 101.171C199.186 97.0708 196.636 93.6012 193.411 90.7624C190.187 87.9236 186.512 85.7946 182.237 84.3752C177.962 82.9558 173.613 82.2461 169.188 82.2461C163.788 82.2461 158.914 83.1923 154.489 85.1637C150.064 87.1351 146.089 89.5796 142.565 92.4972C139.04 95.4937 135.815 98.8056 133.04 102.512C130.19 106.218 127.865 109.766 125.841 113.157L93.8926 89.895C97.0424 81.9307 101.317 74.8338 106.567 68.6042C111.816 62.4536 117.816 57.1703 124.566 52.991C131.315 48.7328 138.59 45.4998 146.464 43.2919C154.339 41.0839 162.363 39.98 170.688 39.98C179.987 39.98 189.212 41.3994 198.286 44.2381C207.361 47.0769 215.535 51.5716 222.735 57.8011C229.934 63.9518 235.859 71.9161 240.358 81.5364C244.858 91.2355 247.183 102.748 247.183 116.154C247.183 124.433 246.283 131.688 244.408 137.996C242.533 144.305 239.909 150.061 236.534 155.187C233.084 160.312 229.034 164.965 224.384 169.065C219.735 173.166 214.485 177.187 208.56 181.051C203.686 184.126 198.736 187.123 193.861 189.962C188.987 192.8 184.487 195.955 180.437 199.424C176.387 202.894 173.088 206.915 170.538 211.41C167.988 215.905 166.713 221.425 166.713 227.812H126.216V227.891ZM126.966 317.943V264.637H167.763V317.943H126.966Z" fill="#EAB020"/>
<path d="M109.421 322.201C107.846 322.753 62.2487 322.122 60.5238 320.94C59.8489 320.466 59.5489 313.527 59.3989 305.09C59.3989 305.011 59.3989 304.932 59.3989 304.853C59.3989 303.118 59.3239 301.305 59.3239 299.491C59.3239 299.255 59.3239 299.018 59.3239 298.703C59.2489 286.48 59.4739 273.863 59.4739 273.863L89.922 274.179L89.0221 298.781V299.728L88.8721 304.853V305.405C88.8721 305.405 106.196 313.843 107.996 315.341C109.646 316.839 110.996 321.649 109.421 322.201Z" fill="#FFBE9D"/>
<path d="M109.421 322.201C107.846 322.753 62.249 322.123 60.5241 320.94C59.8492 320.467 59.5492 313.527 59.3992 305.09C59.3992 305.011 59.3992 304.932 59.3992 304.853C59.3992 303.119 59.3242 301.305 59.3242 299.491C59.3242 299.255 59.3242 299.018 59.3242 298.703L89.0224 298.781V299.728L88.8724 304.853V305.405C88.8724 305.405 106.196 313.843 107.996 315.341C109.646 316.839 110.996 321.649 109.421 322.201Z" fill="#ECECEC"/>
<path d="M109.422 322.202C108.447 322.517 90.8227 322.438 76.9485 322.044C68.3241 321.807 61.1995 321.413 60.5245 320.94C59.8496 320.546 59.5496 313.685 59.4746 305.405C59.4746 305.327 59.4746 305.169 59.4746 305.09C59.4746 305.011 59.4746 304.932 59.4746 304.854L88.8728 304.932V305.484C88.8728 305.484 106.197 313.922 107.997 315.42C109.647 316.839 110.996 321.65 109.422 322.202Z" fill="#EAB020"/>
<path d="M108.897 320.307C101.247 319.992 70.2741 319.52 62.6246 319.835C62.5496 319.835 62.5496 319.914 62.6246 319.914C70.1991 320.386 101.247 320.622 108.897 320.465C109.047 320.465 109.047 320.307 108.897 320.307Z" fill="#060716"/>
<path d="M92.098 305.01C89.0982 304.379 85.3484 304.852 83.0236 307.059C82.9486 307.138 83.0236 307.296 83.1736 307.217C86.1734 306.271 88.9482 305.64 92.098 305.404C92.323 305.404 92.323 305.01 92.098 305.01Z" fill="#060716"/>
<path d="M94.2738 306.429C91.274 305.799 87.5242 306.272 85.1993 308.479C85.1243 308.558 85.1993 308.715 85.3493 308.637C88.3492 307.691 91.124 307.06 94.2738 306.824C94.4988 306.745 94.4988 306.429 94.2738 306.429Z" fill="#060716"/>
<path d="M96.4476 307.848C93.4478 307.217 89.698 307.69 87.3732 309.897C87.2982 309.976 87.3732 310.134 87.5232 310.055C90.523 309.109 93.2978 308.479 96.4476 308.242C96.5976 308.163 96.6726 307.848 96.4476 307.848Z" fill="#060716"/>
<path d="M96.1459 298.15C94.946 296.415 92.7711 297.125 91.4962 298.229C89.3963 300.042 87.5964 302.802 86.7715 305.405C86.7715 305.483 86.7715 305.483 86.8465 305.483C86.8465 305.72 87.0715 305.957 87.2965 305.878C89.7713 304.931 92.6211 304.301 94.721 302.566C95.9959 301.62 97.1958 299.727 96.1459 298.15ZM90.7462 303.749C89.5463 304.222 88.2714 304.695 87.0715 305.247C87.9714 303.828 88.8714 302.408 89.9213 301.068C90.4463 300.437 90.9712 299.806 91.5712 299.254C92.4711 298.387 96.0709 296.652 95.4709 300.121C95.171 302.014 92.2461 303.118 90.7462 303.749Z" fill="#060716"/>
<path d="M79.0479 304.458C81.5228 305.641 84.3726 305.562 86.9974 305.877C87.2974 305.877 87.4474 305.641 87.3724 305.404C87.4474 305.404 87.4474 305.325 87.4474 305.246C86.0225 302.881 83.6226 300.594 81.2228 299.411C79.7229 298.623 77.398 298.465 76.6481 300.436C75.9731 302.329 77.623 303.827 79.0479 304.458ZM77.698 302.25C76.3481 299.017 80.2479 299.884 81.2978 300.515C81.9727 300.909 82.6477 301.382 83.2477 301.856C84.5976 302.881 85.7225 304.063 86.9224 305.167C85.6475 304.931 84.2976 304.852 83.0227 304.615C81.5228 304.379 78.448 303.985 77.698 302.25Z" fill="#060716"/>
<path d="M76.9485 322.044C68.3241 321.808 61.1995 321.413 60.5245 320.94C59.8496 320.546 59.5496 313.686 59.4746 305.406C62.9994 308.718 71.7738 316.997 76.9485 322.044Z" fill="#060716"/>
<path d="M50.1758 135.867C50.1758 135.867 57.0004 216.772 58.1253 223.002C58.3503 224.421 58.5753 232.07 58.6503 241.927C58.8752 263.375 58.7253 302.093 58.7253 302.093H90.8233C90.8233 302.093 89.8483 235.066 88.4234 222.686C86.9985 210.306 77.9241 135.946 77.9241 135.946H50.1758V135.867Z" fill="#0E113C"/>
<path d="M89.3997 296.178C84.375 296.099 85.8 296.02 80.8503 295.942C78.3754 295.942 62.2514 295.784 60.0016 296.178C59.9266 296.178 59.9266 296.257 60.0016 296.257C62.3264 296.65 78.3754 296.493 80.8503 296.493C85.875 296.414 84.45 296.414 89.3997 296.257C89.4747 296.335 89.4747 296.178 89.3997 296.178Z" fill="#060716"/>
<path d="M64.8016 257.855C64.8016 252.966 64.7266 248.077 64.7266 243.188C64.7266 238.457 64.7266 233.726 64.5016 228.994C64.0516 219.374 62.2518 209.99 60.9018 200.449C59.5519 190.986 58.502 181.445 57.527 171.903C56.4021 161.179 55.4272 150.534 54.3772 139.81C54.3772 139.731 54.2273 139.731 54.3022 139.81C55.8022 158.892 57.527 178.054 60.0019 197.058C60.6019 201.789 61.2768 206.521 62.0268 211.173C62.7767 215.904 63.5267 220.715 63.9017 225.525C64.2766 230.256 64.2766 234.987 64.3516 239.719C64.4266 244.608 64.4266 249.497 64.5016 254.386C64.5766 265.267 64.7266 281.985 64.8016 292.867C64.8016 293.103 65.1016 293.103 65.1016 292.867C64.9516 283.089 64.8766 267.554 64.8016 257.855Z" fill="#060716"/>
<path d="M43.3496 135.867C43.3496 135.867 56.9238 216.772 58.0487 223.002C58.2737 224.421 58.4987 232.07 58.5737 241.927L73.8727 135.946H43.3496V135.867Z" fill="#060716"/>
<path d="M72.1458 325.04C70.4959 325.434 25.1237 321.413 23.4738 320.151C22.8739 319.678 23.0239 312.66 23.4738 304.223C23.4738 304.144 23.4738 304.065 23.4738 303.986C23.5488 302.251 23.6238 300.438 23.7738 298.624C23.7738 298.387 23.7738 298.151 23.8488 297.914C24.5988 285.771 25.6487 273.154 25.6487 273.154L56.0218 275.756L53.472 300.201L53.397 301.147L52.872 306.194L52.797 306.746C52.797 306.746 69.521 316.445 71.1709 318.101C72.7458 319.757 73.7207 324.646 72.1458 325.04Z" fill="#FFBE9D"/>
<path d="M72.1458 325.04C70.4959 325.434 25.1237 321.413 23.4738 320.151C22.8739 319.678 23.0239 312.66 23.4738 304.222C23.4738 304.144 23.4738 304.065 23.4738 303.986C23.5488 302.251 23.6238 300.437 23.7738 298.624C23.7738 298.387 23.7738 298.151 23.8488 297.914L53.472 300.201L53.397 301.147L52.872 306.194L52.797 306.746C52.797 306.746 69.521 316.445 71.1709 318.101C72.7458 319.757 73.7207 324.646 72.1458 325.04Z" fill="#ECECEC"/>
<path d="M72.1458 325.04C70.4959 325.434 25.1237 321.412 23.4738 320.151C22.8739 319.677 23.0239 312.659 23.4738 304.222C23.4738 304.143 23.4738 304.064 23.4738 303.985L52.797 306.193L52.722 306.745C52.722 306.745 69.446 316.444 71.0959 318.1C72.7458 319.756 73.7207 324.645 72.1458 325.04Z" fill="#EAB020"/>
<path d="M71.7721 323.147C64.1226 322.28 33.2245 319.52 25.65 319.283C25.575 319.283 25.575 319.362 25.65 319.362C33.2245 320.387 64.1226 322.911 71.7721 323.305C71.9221 323.305 71.9221 323.147 71.7721 323.147Z" fill="#060716"/>
<path d="M56.0226 306.588C53.0228 305.72 49.348 305.878 46.8732 307.928C46.7982 308.006 46.8732 308.164 47.0232 308.164C50.098 307.455 52.8728 307.061 56.0226 306.982C56.1726 306.982 56.2476 306.666 56.0226 306.588Z" fill="#060716"/>
<path d="M58.046 308.165C55.0462 307.298 51.3715 307.456 48.8966 309.505C48.8216 309.584 48.8966 309.742 49.0466 309.742C52.1214 309.032 54.8962 308.638 58.046 308.559C58.271 308.559 58.271 308.244 58.046 308.165Z" fill="#060716"/>
<path d="M60.1476 309.742C57.1478 308.875 53.473 309.032 50.9982 311.082C50.9232 311.161 50.9982 311.318 51.1482 311.318C54.223 310.609 56.9978 310.215 60.1476 310.136C60.2976 310.136 60.3726 309.821 60.1476 309.742Z" fill="#060716"/>
<path d="M60.4482 300.043C59.3983 298.229 57.1484 298.781 55.7985 299.806C53.6236 301.462 51.5988 304.065 50.5488 306.667C50.5488 306.746 50.5488 306.746 50.6238 306.824C50.6238 307.061 50.7738 307.376 51.0738 307.298C53.6236 306.588 56.4735 306.115 58.7233 304.538C60.0732 303.513 61.4981 301.778 60.4482 300.043ZM54.7486 305.247C53.4736 305.642 52.1987 305.957 50.9988 306.43C52.0487 305.09 52.9487 303.749 54.1486 302.487C54.6736 301.935 55.2735 301.305 55.8735 300.832C56.8484 300.043 60.5232 298.545 59.6983 301.935C59.3233 303.828 56.2485 304.774 54.7486 305.247Z" fill="#060716"/>
<path d="M43.0499 305.168C45.4498 306.508 48.2996 306.666 50.9244 307.218C51.2244 307.297 51.3744 306.982 51.2994 306.745C51.3744 306.745 51.3744 306.666 51.3744 306.587C50.0995 304.143 47.9246 301.698 45.5998 300.279C44.1749 299.412 41.85 299.017 40.9501 300.989C40.1251 302.723 41.625 304.379 43.0499 305.168ZM41.85 302.723C40.7251 299.412 44.5498 300.516 45.5998 301.225C46.2747 301.698 46.8747 302.171 47.4747 302.723C48.7496 303.827 49.7995 305.089 50.9244 306.351C49.6495 306.035 48.3746 305.799 47.0997 305.562C45.5248 305.247 42.45 304.616 41.85 302.723Z" fill="#060716"/>
<path d="M54.0726 303.828L21.9746 302.408C21.9746 302.408 30.7491 228.364 30.8991 223.869C31.349 212.041 38.7736 135.867 38.7736 135.867H77.9961C77.9961 135.867 75.5213 153.452 71.3216 164.57C71.3216 164.57 68.0968 165.595 63.1471 168.513C63.1471 168.513 59.4723 218.901 59.3223 225.21C59.0223 237.669 54.0726 303.828 54.0726 303.828Z" fill="#0E113C"/>
<path d="M53.2493 297.676C48.2247 297.361 49.7246 297.361 44.6999 297.125C42.225 296.967 26.176 296.1 23.8512 296.415C23.7762 296.415 23.7762 296.494 23.8512 296.494C26.101 296.967 42.225 297.598 44.6999 297.676C49.7246 297.834 48.2997 297.755 53.2493 297.834C53.3243 297.834 53.3243 297.676 53.2493 297.676Z" fill="#060716"/>
<path d="M41.701 140.362C40.2761 159.524 38.7762 178.764 37.0513 197.926C35.4014 217.167 33.4515 236.407 31.0517 255.49C29.7018 266.214 28.2769 281.275 26.627 291.921C26.627 292 26.7019 292 26.7019 291.921C29.9267 272.996 32.3266 249.497 34.3515 230.335C36.3764 211.174 38.0263 192.012 39.5262 172.85C40.3511 161.968 41.1011 151.165 41.926 140.283C41.926 140.204 41.701 140.204 41.701 140.362Z" fill="#060716"/>
<path d="M72.6714 163.86C69.3716 165.043 66.1468 166.778 63.072 168.592C62.922 168.671 62.997 168.828 63.147 168.828C66.3718 167.33 69.6716 165.99 72.8214 164.334C73.1214 164.097 72.8964 163.782 72.6714 163.86Z" fill="#060716"/>
<path d="M73.7208 140.52C73.7208 140.441 73.4958 140.362 73.4958 140.52C73.4958 144.541 73.2709 148.09 72.9709 151.875C72.8209 153.61 71.471 163.309 68.6211 162.599C68.1712 162.52 67.8712 161.968 67.7962 161.18C67.7212 160.233 68.0212 159.13 68.1712 158.183C68.4712 156.133 68.7711 154.162 68.9211 152.111C69.2211 148.326 69.2211 144.463 68.7711 140.677C68.7711 140.52 68.6211 140.599 68.6211 140.677C68.6211 145.961 68.4712 151.244 67.7212 156.448C67.3462 158.972 66.1463 162.757 68.6211 163.151C71.171 163.545 72.8209 157.237 73.1209 155.502C74.0208 150.692 74.0958 145.409 73.7208 140.52Z" fill="#060716"/>
<path d="M68.6214 162.836C68.3964 163.467 68.1715 164.176 67.9465 164.807C67.7965 165.359 67.6465 165.911 67.6465 166.463C67.6465 166.542 67.7965 166.542 67.8715 166.542C68.2465 166.069 68.3214 165.438 68.5464 164.965C68.7714 164.334 68.9964 163.703 69.2214 163.072C69.3714 162.678 68.8464 162.442 68.6214 162.836Z" fill="#060716"/>
<path d="M55.5727 143.673C55.5727 143.279 55.5727 142.806 55.4227 142.412C55.4227 142.333 55.3477 142.333 55.2727 142.412C55.1977 142.727 55.1977 143.121 55.1227 143.516C55.0477 143.91 55.0478 144.383 54.9728 144.777C54.8978 145.645 54.7478 146.512 54.5228 147.301C54.1478 148.878 53.3979 150.297 52.3479 151.48C51.298 152.584 50.0231 153.451 48.5981 154.082C47.0232 154.792 45.4483 155.028 43.7984 155.502C43.7234 155.502 43.7234 155.659 43.7984 155.659C45.5233 155.738 47.3982 155.265 48.9731 154.555C50.398 154.003 51.7479 153.136 52.8729 151.953C53.9978 150.77 54.7478 149.272 55.1227 147.695C55.3477 146.828 55.4227 146.039 55.4227 145.172C55.6477 144.62 55.6477 144.146 55.5727 143.673Z" fill="#060716"/>
<path d="M93.8963 66.633C96.2961 69.7083 98.921 77.9881 98.846 80.2748C98.771 82.5616 85.4968 87.6872 83.6219 86.4255C81.7471 85.1638 74.3975 74.203 74.3225 70.1026C74.2475 66.0022 91.4214 63.4 93.8963 66.633Z" fill="#FFBE9D"/>
<path d="M74.0222 60.9551C72.8222 59.6146 68.8475 55.6719 67.1226 57.4067C65.9977 58.5106 68.6975 61.586 69.7474 62.7688C72.0723 65.2921 73.7972 69.708 74.6221 71.8371C75.4471 73.9662 79.3469 69.708 79.3469 69.708C79.3469 69.708 77.172 64.4247 74.0222 60.9551Z" fill="#FFBE9D"/>
<path d="M77.1728 74.2815C77.1728 74.2815 78.5228 78.1454 80.7726 78.0665C82.8725 77.9876 82.4225 74.6757 82.4225 74.4392C82.4975 74.6757 83.8474 78.1453 86.0223 77.8299C88.3472 77.5145 87.2972 74.2815 87.2222 74.0449C87.3722 74.2026 89.0221 76.4105 90.672 75.7797C93.4468 74.6757 89.2471 68.9193 89.6971 66.396C89.6971 66.396 93.8218 66.6325 93.9718 66.6325C93.9718 66.6325 90.0721 61.1127 86.8473 60.7184C85.1224 60.4819 84.5974 62.1378 84.5974 62.1378C84.5974 62.1378 83.5475 60.1664 81.7476 60.403C80.8476 60.4819 80.1727 62.1378 80.1727 62.1378C80.1727 62.1378 79.2727 60.6396 77.6978 60.8761C76.4979 61.1127 75.8229 62.6898 75.7479 63.3206C75.223 68.1308 77.1728 74.2815 77.1728 74.2815Z" fill="#FFBE9D"/>
<path d="M75.8987 62.8491C75.8987 62.8491 75.8237 62.8491 75.8987 62.8491C75.2238 66.6342 75.5988 70.9712 77.1737 74.4408C77.2487 74.5196 77.3986 74.5196 77.3986 74.3619C76.4237 70.498 75.8237 66.9496 75.8987 62.8491Z" fill="#060716"/>
<path d="M80.175 61.982C80.175 61.9031 80.1 61.9031 80.1 61.982C79.4251 65.8459 80.025 70.7349 82.3499 74.5199C82.4249 74.6776 82.6499 74.6776 82.5749 74.5199C81.15 71.9177 80.1 65.6882 80.175 61.982Z" fill="#060716"/>
<path d="M87.449 74.2042C85.4242 70.498 84.6742 66.4765 84.5242 62.2183C84.5242 62.1395 84.4492 62.1395 84.4492 62.2183C83.9992 64.3474 84.3742 67.0284 84.8242 69.0787C85.2742 71.05 86.0241 72.7848 87.374 74.2831C87.374 74.3619 87.524 74.2831 87.449 74.2042Z" fill="#060716"/>
<path d="M77.1699 74.2827C77.4699 74.9924 77.8449 75.7021 78.2949 76.3329C78.7448 76.9637 79.2698 77.5157 79.9447 77.8311C80.2447 77.9889 80.6197 77.9889 80.9197 77.8311C81.2197 77.6734 81.5197 77.5157 81.7446 77.2003C82.1946 76.6483 82.2696 75.8598 82.1196 75.2289L81.8196 73.4941L82.6446 74.9924C83.0196 75.6232 83.4695 76.2541 83.9945 76.806C84.5195 77.2792 85.1944 77.6734 85.7944 77.5157C86.4693 77.4369 86.9943 76.9637 87.0693 76.2541C87.2193 75.5444 87.0693 74.7558 86.7693 74.0461L86.0944 72.1536L87.2943 73.7307C87.5943 74.125 88.0443 74.5981 88.4942 74.9135C88.9442 75.2289 89.3942 75.4655 89.9191 75.4655C90.3691 75.4655 90.8941 75.2289 91.0441 74.8347C91.2691 74.3615 91.269 73.8096 91.1941 73.2576C91.0441 72.0748 90.5941 70.9708 90.2941 69.8668C90.1441 69.3148 89.9191 68.7629 89.7691 68.132C89.6192 67.58 89.4692 66.9492 89.5442 66.3184C89.4692 66.9492 89.6941 67.5012 89.9191 68.0532C90.1441 68.6051 90.2941 69.1571 90.5191 69.7091C90.9691 70.8131 91.344 71.917 91.644 73.1787C91.719 73.8096 91.794 74.4404 91.569 75.0712C91.269 75.7809 90.5941 76.1752 89.9191 76.0963C89.2442 76.0963 88.6442 75.7809 88.1942 75.3867C87.6693 74.9924 87.2943 74.5981 86.8443 74.125L87.3693 73.8096C87.6693 74.5981 87.8193 75.4655 87.7443 76.4118C87.6693 76.8849 87.4443 77.358 87.0693 77.6734C86.6943 77.9889 86.2444 78.1466 85.8694 78.2254C84.9694 78.3043 84.1445 77.8311 83.5445 77.2792C82.9446 76.7272 82.4946 76.0175 82.0446 75.3078L82.5696 75.0712C82.6446 75.9386 82.4946 76.8849 81.9696 77.5157C81.6696 77.8312 81.2947 78.0677 80.9197 78.2254C80.5447 78.3831 80.0947 78.3043 79.7198 78.1466C78.9698 77.7523 78.5198 77.1215 78.0699 76.4118C77.7699 75.7809 77.4699 75.0712 77.1699 74.2827Z" fill="#060716"/>
<path d="M82.0474 84.7695C82.0474 84.7695 67.7233 77.1206 73.3479 72.7047C74.9978 71.3642 83.3223 68.1311 83.9973 69.8659C84.8222 72.1527 81.5974 74.203 79.4226 75.1492C79.4226 75.1492 84.6722 77.0417 84.4473 81.221C84.3723 83.8233 82.0474 84.7695 82.0474 84.7695Z" fill="#FFBE9D"/>
<path d="M72.8984 73.021C73.4984 72.3902 74.1734 71.9171 74.9233 71.5228C75.6733 71.1285 76.4232 70.7343 77.1732 70.4188C78.7481 69.788 80.248 69.236 81.8979 68.9206C82.3479 68.8417 82.7228 68.7629 83.1728 68.8417C83.3978 68.8417 83.6228 68.9206 83.8478 69.0783C83.9978 69.1572 84.0727 69.236 84.1477 69.3937C84.2227 69.5514 84.2977 69.6303 84.3727 69.788C84.5977 70.2611 84.5227 70.8131 84.3727 71.2862C84.2227 71.7594 83.9978 72.1536 83.6978 72.4691C83.0978 73.1788 82.4228 73.6519 81.7479 74.125C80.9979 74.5981 80.248 74.9136 79.498 75.229V74.677C80.098 74.9136 80.623 75.229 81.1479 75.5444C81.6729 75.8598 82.1979 76.2541 82.6478 76.7272C83.0978 77.2004 83.4728 77.6735 83.7728 78.3043C84.0727 78.8563 84.2977 79.4871 84.3727 80.118C84.2227 79.4871 83.9228 78.9352 83.6228 78.3832C83.3228 77.8312 82.8728 77.4369 82.4229 77.0426C81.9729 76.6484 81.4479 76.2541 80.9229 76.0175C80.398 75.7021 79.873 75.4655 79.273 75.3078L78.5981 75.0713L79.273 74.7559C80.023 74.4404 80.698 74.0462 81.3729 73.573C82.0479 73.0999 82.7228 72.6268 83.1728 72.0748C83.6228 71.5228 83.9977 70.7343 83.7728 70.1034C83.6228 69.5514 82.7228 69.5514 81.9729 69.7091C81.2229 69.788 80.398 70.0246 79.648 70.2611C78.8981 70.4977 78.0731 70.6554 77.3232 70.9708C75.7483 71.4439 74.2484 71.9959 72.8984 73.021Z" fill="#060716"/>
<path d="M65.6242 95.6497C78.2984 112.052 96.6722 122.697 101.172 119.227C105.672 115.758 90.4476 97.6211 90.1476 97.3846C89.2477 96.5171 82.4981 92.811 70.1989 87.37C58.1246 82.0079 59.9245 88.3162 65.6242 95.6497Z" fill="#FFBE9D"/>
<path d="M84.4489 93.6794L74.9245 106.848C74.9245 106.848 66.9 98.1741 62.7003 92.4177C58.5006 86.6613 58.8755 82.2455 68.3249 85.9516C77.8494 89.6578 84.4489 93.6794 84.4489 93.6794Z" fill="#EAB020"/>
<path d="M74.0254 103.852C75.2253 102.038 76.4252 100.303 77.6252 98.5686C78.2251 97.7012 78.8251 96.8338 79.5001 96.0453C80.175 95.1779 80.85 94.3893 81.5249 93.5219C81.5999 93.4431 81.6749 93.5219 81.5999 93.6008C81 94.4682 80.475 95.3356 79.875 96.203C79.2751 97.0704 78.6001 97.9378 78.0001 98.884C76.7252 100.619 75.4503 102.354 74.1004 104.01C74.1004 104.01 74.0254 103.931 74.0254 103.852Z" fill="#060716"/>
<path d="M79.498 100.539L74.9233 106.847C74.9233 106.847 66.8988 98.173 62.6991 92.4166C62.5491 92.2588 62.3991 92.0223 62.3241 91.8646C62.2491 91.7857 62.1741 91.7069 62.1741 91.628C62.0991 91.4703 62.0241 91.3914 61.8741 91.2337C61.6491 90.9183 61.4241 90.524 61.2741 90.2086C61.1991 90.0509 61.1242 89.9721 61.0492 89.8144C60.6742 89.1835 60.4492 88.4738 60.2992 87.9218C60.2242 87.6853 60.2242 87.5276 60.1492 87.291C60.1492 87.2121 60.1492 87.0544 60.0742 86.9756C64.349 90.1298 74.0984 96.7536 79.498 100.539Z" fill="#060716"/>
<path d="M79.8695 143.989C79.8695 143.989 36.4471 144.778 36.2221 144.462C35.5472 143.674 44.3216 96.6764 53.3961 86.9773C56.6209 83.5865 63.2205 84.927 64.2704 85.479C66.8203 86.7407 69.2201 89.5795 71.245 94.705C75.2197 105.193 80.4694 143.28 79.8695 143.989Z" fill="#EAB020"/>
<path opacity="0.1" d="M66.4438 87.1338H53.3196L53.3946 87.0549C53.6946 86.7395 54.0696 86.4241 54.4446 86.1875H65.3189C65.6939 86.4241 66.0689 86.7395 66.4438 87.1338ZM67.9437 88.7108H52.0447C51.8197 89.0263 51.5948 89.3417 51.4448 89.6571H68.5437C68.3937 89.2628 68.1687 88.9474 67.9437 88.7108ZM69.5936 91.2342H50.5448C50.3948 91.5496 50.2448 91.865 50.0198 92.1805H70.0436C69.8936 91.7862 69.7436 91.4708 69.5936 91.2342ZM70.7936 93.7575H49.3449C49.1949 94.073 49.0449 94.3884 48.8949 94.7038H71.1685C71.0186 94.3095 70.9436 93.9941 70.7936 93.7575ZM71.7685 96.202H48.22C48.07 96.5175 47.995 96.8329 47.845 97.1483H71.9935C71.9185 96.8329 71.8435 96.5175 71.7685 96.202ZM72.5185 98.7254H47.245C47.095 99.0408 47.02 99.3562 46.87 99.6716H72.7434C72.6684 99.3562 72.5934 99.0408 72.5185 98.7254ZM73.1184 101.249H46.3451C46.2701 101.564 46.1201 101.88 46.0451 102.195H73.4184C73.2684 101.88 73.1934 101.564 73.1184 101.249ZM73.7184 103.772H45.4451C45.3701 104.088 45.2201 104.403 45.1452 104.718H73.8684C73.8684 104.403 73.7934 104.088 73.7184 103.772ZM74.2434 106.295H44.6952C44.6202 106.611 44.4702 106.926 44.3952 107.242H74.4683C74.3933 106.926 74.3183 106.611 74.2434 106.295ZM74.7683 108.819H43.9452C43.8702 109.134 43.7202 109.45 43.6452 109.765H74.9183C74.9183 109.45 74.8433 109.134 74.7683 108.819ZM75.2183 111.342H43.1953C43.1203 111.658 43.0453 111.973 42.9703 112.288H75.4433C75.3683 111.973 75.2933 111.658 75.2183 111.342ZM75.7433 113.865H42.5203C42.4453 114.181 42.3703 114.496 42.2953 114.812H75.8932C75.8182 114.496 75.7433 114.181 75.7433 113.865ZM76.1932 116.389H41.8454C41.7704 116.704 41.6954 117.02 41.6204 117.335H76.3432C76.2682 117.02 76.1932 116.704 76.1932 116.389ZM76.5682 118.912H41.1704C41.0954 119.228 41.0204 119.543 40.9454 119.858H76.7182C76.7182 119.543 76.6432 119.228 76.5682 118.912ZM77.0182 121.436H40.5704C40.4954 121.751 40.4204 122.066 40.3454 122.382H77.1682C77.0932 122.066 77.0932 121.751 77.0182 121.436ZM77.3932 123.959H39.9705C39.8955 124.274 39.8205 124.59 39.7455 124.905H77.5431C77.5431 124.59 77.4681 124.274 77.3932 123.959ZM77.7681 126.482H39.4455C39.3705 126.798 39.2955 127.113 39.2205 127.428H77.9181C77.9181 127.113 77.8431 126.798 77.7681 126.482ZM78.1431 128.927H38.8455C38.7705 129.242 38.6956 129.558 38.6206 129.873H78.2931C78.2931 129.636 78.2181 129.321 78.1431 128.927ZM78.5181 131.45H38.3206C38.2456 131.765 38.1706 132.081 38.0956 132.396H78.5931C78.5931 132.081 78.5931 131.765 78.5181 131.45ZM78.8931 133.973H37.7956C37.7206 134.289 37.6456 134.604 37.6456 134.92H78.9681C78.9681 134.604 78.8931 134.289 78.8931 133.973ZM79.193 136.497H37.3456C37.2706 136.812 37.1956 137.128 37.1956 137.443H79.343C79.268 137.128 79.268 136.812 79.193 136.497ZM79.493 139.02H36.8957C36.8207 139.336 36.7457 139.651 36.7457 139.966H79.643C79.568 139.651 79.568 139.336 79.493 139.02ZM79.793 141.543H36.5207C36.4457 141.859 36.4457 142.174 36.3707 142.49H79.868C79.868 142.253 79.793 141.938 79.793 141.543ZM36.2207 144.067C36.2207 144.303 36.2207 144.461 36.2207 144.461C36.4457 144.698 63.369 144.225 74.7683 144.067H36.2207Z" fill="#010201"/>
<path d="M55.8721 92.7324C52.9473 96.9905 37.9482 114.417 37.4233 115.995C36.8983 117.65 40.3481 121.199 40.2731 121.83C40.0481 124.59 34.4235 142.726 32.1736 140.834C29.2488 138.389 16.7246 121.041 18.4494 113.471C20.2493 105.98 49.4225 87.8434 54.0722 86.2663C58.7219 84.7681 58.7219 88.5531 55.8721 92.7324Z" fill="#FFBE9D"/>
<path d="M44.0983 108.583L35.5488 95.9663C35.5488 95.9663 45.0732 89.4214 51.4478 86.5826C57.8224 83.7438 60.9722 85.3209 55.1226 93.9949C49.348 102.748 44.0983 108.583 44.0983 108.583Z" fill="#EAB020"/>
<path d="M38.0983 95.1777C39.4482 96.8337 40.7981 98.4896 41.9981 100.224C42.598 101.092 43.273 101.88 43.873 102.748C44.4729 103.615 45.0729 104.561 45.7478 105.429C45.8228 105.508 45.6728 105.587 45.6728 105.508C44.9979 104.64 44.3229 103.852 43.723 103.063C43.048 102.196 42.448 101.328 41.7731 100.461C40.4232 98.8051 39.2232 97.0702 38.0983 95.1777C37.9483 95.1777 38.0233 95.1777 38.0983 95.1777Z" fill="#060716"/>
<path d="M44.0975 108.661C45.3724 106.847 46.9473 105.191 48.3722 103.457C49.7971 101.722 51.222 99.9869 52.4969 98.1733C52.4969 98.0944 52.5719 98.1733 52.5719 98.2521C51.972 99.1984 51.372 100.145 50.6971 101.012C50.3971 101.485 50.0221 101.879 49.7221 102.353C49.8721 102.195 50.0221 102.037 50.2471 101.958C50.7721 101.564 51.297 101.17 51.822 100.854C51.822 100.854 51.897 100.854 51.822 100.933C51.372 101.406 50.847 101.801 50.3221 102.274C49.9471 102.589 49.5721 102.826 49.1971 103.141C48.9722 103.378 48.8222 103.614 48.5972 103.93C47.2473 105.664 45.8224 107.478 44.1725 108.898C44.0975 108.819 44.0225 108.74 44.0975 108.661Z" fill="#060716"/>
<path d="M39.5232 147.774C41.5481 146.355 38.7732 144.699 38.7732 144.699C38.7732 144.699 43.273 146.118 44.7729 143.753C46.2728 141.545 42.823 139.652 42.598 139.494C42.823 139.573 47.0227 140.756 48.2977 138.233C49.6476 135.631 45.9728 134.369 45.6728 134.29C45.8978 134.29 49.1976 134.132 49.7226 132.003C50.6975 128.376 41.3981 127.903 39.3732 125.695C39.3732 125.695 40.2732 120.885 40.3481 120.727C40.3481 120.727 39.2982 122.62 37.7233 123.093C35.6984 123.724 33.8985 124.039 33.0736 125.064C31.7237 126.72 32.7736 128.376 32.7736 128.376C32.7736 128.376 30.2238 128.061 29.1738 129.953C28.6489 130.978 29.6238 132.792 29.6238 132.792C29.6238 132.792 27.5989 132.634 26.699 134.369C26.024 135.788 27.149 137.365 27.149 137.365C27.149 137.365 25.1241 138.154 24.8241 139.889C24.3741 143.358 35.2485 150.85 39.5232 147.774Z" fill="#FFBE9D"/>
<path d="M27.3009 137.76C27.3009 137.681 27.2259 137.76 27.3009 137.76C30.2257 141.15 34.5005 143.91 38.8502 144.778C39.0002 144.778 39.0752 144.541 38.9252 144.541C34.7254 142.728 31.0507 140.756 27.3009 137.76Z" fill="#060716"/>
<path d="M29.6246 132.792C29.5496 132.792 29.5496 132.871 29.6246 132.792C32.6994 136.34 37.5741 139.258 42.6738 139.652C42.8238 139.652 43.0488 139.495 42.8238 139.495C39.449 138.943 32.9244 135.552 29.6246 132.792Z" fill="#060716"/>
<path d="M46.125 134.211C41.2503 133.659 37.0505 131.451 33.0008 128.534C32.9258 128.534 32.9258 128.613 32.9258 128.613C34.5007 130.584 37.2755 132.161 39.5254 133.186C41.7002 134.132 43.8001 134.605 46.125 134.369C46.2 134.369 46.2 134.211 46.125 134.211Z" fill="#060716"/>
<path d="M27.076 137.444C26.326 136.498 25.876 135.315 26.326 134.053C26.551 133.501 26.926 133.107 27.4509 132.792C28.0509 132.476 28.9509 132.555 29.3258 132.634C28.7259 131.53 28.5009 130.11 29.2508 129.007C29.6258 128.533 30.1508 128.297 30.7507 128.139C31.0507 128.06 32.4006 128.139 32.7756 128.218C32.2507 127.587 32.0257 126.562 32.1757 125.695C32.4006 124.669 33.0756 124.039 33.9755 123.644C34.9505 123.171 36.0754 123.092 37.1254 122.856C37.6503 122.777 38.2503 122.619 38.7003 122.383C39.1502 122.146 39.6002 121.831 40.0502 121.121C40.1252 121.042 40.1252 121.121 40.0502 121.2C39.8252 121.594 39.6002 121.91 39.2252 122.225C38.9252 122.54 38.5503 122.777 38.1003 122.935C37.1254 123.408 36.0754 123.566 35.1005 123.881C34.2005 124.196 33.3756 124.67 32.8506 125.458C32.3256 126.325 32.3256 127.351 32.7756 128.218C32.7756 128.297 32.7756 128.297 32.7006 128.297C32.2506 128.297 31.2007 128.376 30.9007 128.533C30.4508 128.691 29.9258 128.928 29.6258 129.322C28.9509 130.268 29.0258 131.609 29.4758 132.713C29.4758 132.713 28.4259 132.713 27.6009 133.186C27.226 133.422 26.926 133.817 26.701 134.211C26.251 135.157 26.326 136.419 27.001 137.286C27.001 137.286 27.001 137.286 27.001 137.365L26.326 137.681C26.551 137.759 27.001 137.444 27.076 137.444Z" fill="#060716"/>
<path d="M64.2728 92.5743C61.873 93.5206 57.2233 90.051 55.1984 87.1333C55.0484 86.8968 54.8984 78.0651 54.7484 76.3303C54.6734 75.936 65.5478 77.6708 65.5478 77.6708C65.5478 77.6708 64.9478 81.4558 65.3228 84.5311C65.3228 84.7677 66.5977 91.7069 64.2728 92.5743Z" fill="#FFBE9D"/>
<path d="M65.5478 77.5934C65.5478 77.5934 65.3978 78.3031 65.3228 79.4071C62.323 83.2709 57.5233 83.6652 55.0484 83.5864C54.9734 80.8264 54.8984 77.278 54.7484 76.174C54.6734 75.9374 65.5478 77.5934 65.5478 77.5934Z" fill="#060716"/>
<path d="M54.7487 57.3276C54.7487 57.3276 51.2989 58.747 50.6239 62.3744C49.949 66.0017 50.6239 69.8656 50.9239 70.0233C51.2239 70.2599 54.7487 57.3276 54.7487 57.3276Z" fill="#060716"/>
<path d="M68.6997 62.0582C69.5997 66.0798 66.8998 77.2771 64.05 79.5639C60.0003 82.9547 53.6257 82.8758 51.0008 77.7503C48.451 72.8613 52.2007 58.352 55.2756 56.2229C59.9253 53.2265 67.4248 56.1441 68.6997 62.0582Z" fill="#FFBE9D"/>
<path d="M58.0488 68.2876C58.0488 68.2876 58.0488 68.3664 58.0488 68.2876C57.9738 69.1547 57.8989 70.0218 58.4988 70.4159V70.4947C57.6739 70.2582 57.7489 68.997 58.0488 68.2876Z" fill="#060716"/>
<path d="M58.7985 67.658C59.9985 67.8156 59.6985 70.2593 58.5735 70.1804C57.4486 70.0228 57.8236 67.5003 58.7985 67.658Z" fill="#060716"/>
<path d="M53.8527 67.5795C53.8527 67.5006 53.7777 67.5795 53.8527 67.5795C53.7027 68.4465 53.4777 69.3136 52.8027 69.4713V69.5501C53.6277 69.4713 53.9277 68.2889 53.8527 67.5795Z" fill="#060716"/>
<path d="M53.2507 66.6328C52.0508 66.3963 51.6758 68.9188 52.8008 69.1553C53.8507 69.3918 54.2257 66.8693 53.2507 66.6328Z" fill="#060716"/>
<path d="M57.8254 74.8345C57.6004 74.992 57.4505 75.2282 57.1505 75.2282C56.9255 75.2282 56.6255 75.0707 56.4005 74.992C56.4005 74.992 56.3255 74.992 56.4005 74.992C56.5505 75.3069 56.9255 75.5432 57.3005 75.5432C57.6004 75.4644 57.8254 75.2282 57.8254 74.8345C57.9004 74.8345 57.9004 74.8345 57.8254 74.8345Z" fill="#060716"/>
<path d="M54.3781 71.2843C54.3781 71.2843 54.0781 72.3883 54.0031 72.9403C54.0031 73.0191 55.503 73.098 56.928 73.8865C57.1529 73.9654 57.1529 73.8077 56.928 73.5711C56.478 73.1768 55.803 72.7037 54.4531 72.546C54.4531 72.3883 54.9781 70.8112 54.9031 70.8112C54.6031 70.7324 54.0031 70.8901 53.7032 70.8901C54.3031 68.5244 55.2031 66.2376 55.803 63.7932C55.803 63.7143 55.728 63.6354 55.653 63.7143C54.5281 66.0011 53.7782 68.761 53.1032 71.2055C53.0282 71.5209 54.1531 71.2843 54.3781 71.2843Z" fill="#060716"/>
<path d="M59.7022 66.7889C59.4023 66.6312 59.1773 66.3948 58.9523 66.1583C58.6523 65.9218 58.4273 65.7641 58.2773 65.37C58.2023 65.1335 58.3523 64.897 58.5773 64.8182C59.0273 64.6605 59.4772 64.8182 59.7772 65.1335C60.1522 65.4488 60.3772 65.7641 60.5272 66.3159C60.6772 66.7101 60.0772 67.0254 59.7022 66.7889Z" fill="#060716"/>
<path d="M52.727 63.8721C53.027 63.7933 53.3269 63.7144 53.7019 63.6356C54.0769 63.5568 54.3769 63.478 54.6019 63.2415C54.7518 63.0838 54.7518 62.7685 54.6019 62.6109C54.3019 62.2168 53.7769 62.2168 53.4019 62.2956C52.952 62.3744 52.577 62.6109 52.277 63.005C51.977 63.3991 52.277 63.9509 52.727 63.8721Z" fill="#060716"/>
<path d="M66.9743 71.6005C64.7995 71.364 65.9994 61.1128 65.9994 61.1128C65.9994 61.1128 63.6745 61.9802 61.7997 61.9802C59.9248 61.9014 57.8249 61.4282 57.5249 61.2705C57.2249 61.1128 61.1997 59.93 61.1997 59.93C61.1997 59.93 51.3003 60.8763 51.0003 58.9837C50.8503 58.2741 52.7252 52.2022 60.8247 52.5965C66.8243 52.9119 69.5992 59.4569 69.5992 59.4569C69.5992 59.4569 72.524 62.8476 71.999 64.4247C71.1741 67.1058 69.2992 71.8371 66.9743 71.6005Z" fill="#060716"/>
<path d="M65.6246 71.6797C65.6246 71.6797 68.3994 68.2101 69.8993 69.3141C71.3992 70.3392 69.1493 75.4648 67.1995 76.0956C65.2496 76.6476 64.7246 74.8339 64.7246 74.8339L65.6246 71.6797Z" fill="#FFBE9D"/>
<path d="M69.1504 70.7329C69.2254 70.7329 69.2254 70.7329 69.1504 70.7329C67.8005 71.206 67.0506 72.3889 66.4506 73.7294C66.9006 73.2563 67.4255 73.0197 68.0255 73.5717C68.0255 73.5717 68.0255 73.6505 67.9505 73.6505C67.4255 73.4928 67.0506 73.5717 66.6006 73.9659C66.3006 74.2814 66.0756 74.6756 65.9256 74.991C65.8506 75.0699 65.6256 74.991 65.7006 74.9122C65.9256 73.0197 67.3505 70.7329 69.1504 70.7329Z" fill="#060716"/>
<path d="M102.145 118.597C108.22 113.63 102.445 88.5538 98.8452 79.3278C97.7953 76.6467 81.2963 81.6935 82.0463 84.7688C86.471 102.038 95.4705 124.038 102.145 118.597Z" fill="#FFBE9D"/>
<path d="M84.8184 94.231C84.8184 94.231 85.2683 95.4138 85.9433 97.2274C86.3183 98.0948 86.6932 99.12 87.1432 100.224C87.5932 101.328 88.0432 102.511 88.5681 103.694C89.0181 104.876 89.5431 106.059 90.068 107.084C90.593 108.188 91.043 109.213 91.4179 110.002C91.8679 110.869 92.1679 111.579 92.4679 112.052C92.6929 112.525 92.8428 112.841 92.8428 112.841C92.8428 112.841 92.6929 112.604 92.3929 112.131C92.0929 111.658 91.6429 111.027 91.1929 110.16C90.968 109.765 90.743 109.292 90.443 108.819C90.143 108.346 89.918 107.794 89.693 107.321C89.1681 106.217 88.6431 105.113 88.1181 103.93C87.6682 102.747 87.2182 101.564 86.7682 100.46C86.3933 99.3565 86.0183 98.2526 85.7183 97.3851C85.0433 95.4926 84.8184 94.231 84.8184 94.231Z" fill="#060716"/>
<path d="M79.4193 49.2053C81.7801 49.2053 83.694 47.1929 83.694 44.7105C83.694 42.2282 81.7801 40.2158 79.4193 40.2158C77.0584 40.2158 75.1445 42.2282 75.1445 44.7105C75.1445 47.1929 77.0584 49.2053 79.4193 49.2053Z" fill="white"/>
<path d="M83.6936 44.316C83.6936 44.316 83.6936 44.3948 83.6936 44.6314C83.6936 44.8679 83.6936 45.1834 83.6186 45.4988C83.4686 46.2873 83.0936 47.3913 82.1187 48.2587C81.6687 48.7318 80.9937 49.0472 80.2438 49.2838C80.0938 49.3627 79.8688 49.3627 79.6438 49.3627C79.4938 49.3627 79.2689 49.4415 79.0439 49.3627C78.6689 49.3627 78.2189 49.2838 77.8439 49.1261C77.019 48.8895 76.269 48.3375 75.6691 47.6279C75.0691 46.9182 74.7691 45.9719 74.6191 45.0256C74.6191 44.6314 74.6191 44.0794 74.6941 43.6063C74.7691 43.1331 74.9191 42.66 75.1441 42.2657C75.5941 41.4772 76.269 40.7675 77.019 40.3732C77.7689 39.9789 78.5939 39.8212 79.3438 39.9001C80.0938 39.9789 80.7688 40.2155 81.3687 40.5309C82.4937 41.2406 83.0186 42.2657 83.3186 42.9754C83.4686 43.3697 83.4686 43.6063 83.5436 43.8428C83.6936 44.2371 83.6936 44.316 83.6936 44.316ZM83.6936 44.316C83.6936 44.316 83.6936 44.2371 83.6186 44.0005C83.6186 43.764 83.5436 43.5274 83.3936 43.1331C83.2436 42.7389 83.0936 42.3446 82.7186 41.9503C82.4187 41.556 81.9687 41.1618 81.3687 40.8463C80.8438 40.5309 80.1688 40.3732 79.4938 40.3732C78.8189 40.3732 78.0689 40.6098 77.469 41.0041C76.869 41.3983 76.269 42.0292 75.9691 42.7389C75.8191 43.1331 75.6691 43.4485 75.5941 43.8428C75.5191 44.2371 75.5191 44.6314 75.5191 45.1045C75.5191 45.4988 75.6691 45.893 75.7441 46.2873C75.8941 46.6816 76.044 46.997 76.269 47.3124C76.719 47.9433 77.319 48.4164 78.0689 48.7318C78.4439 48.8895 78.7439 48.9684 79.1189 48.9684C79.2689 48.9684 79.4938 48.9684 79.6438 48.9684C79.7938 48.9684 80.0188 48.9684 80.1688 48.8895C80.8438 48.8107 81.4437 48.4953 81.9687 48.101C82.4937 47.7067 82.8686 47.2336 83.0936 46.7604C83.3186 46.2873 83.4686 45.8142 83.5436 45.4988C83.6186 45.1045 83.6186 44.7891 83.6186 44.6314C83.6936 44.4737 83.6936 44.316 83.6936 44.316Z" fill="#060716"/>
<path d="M71.9936 55.3553C73.319 55.3553 74.3934 54.2255 74.3934 52.8319C74.3934 51.4383 73.319 50.3086 71.9936 50.3086C70.6682 50.3086 69.5938 51.4383 69.5938 52.8319C69.5938 54.2255 70.6682 55.3553 71.9936 55.3553Z" fill="white"/>
<path d="M74.3938 52.5956C74.3938 52.5956 74.3938 52.6745 74.3938 52.7534C74.3938 52.8322 74.3938 53.0688 74.3938 53.2265C74.3188 53.6208 74.0939 54.2516 73.5689 54.8036C73.2689 55.0401 72.9689 55.2767 72.5189 55.4344C72.444 55.4344 72.294 55.5133 72.219 55.5133C72.144 55.5133 71.994 55.5133 71.919 55.5133C71.694 55.5133 71.469 55.5133 71.244 55.4344C70.7941 55.2767 70.3441 55.0401 69.9691 54.567C69.5941 54.1727 69.4441 53.6208 69.3691 52.9899C69.3691 52.7534 69.3691 52.4379 69.4441 52.2014C69.5191 51.9648 69.5941 51.6494 69.7441 51.4128C70.0441 50.9397 70.4191 50.5454 70.869 50.3877C71.319 50.1512 71.769 50.0723 72.219 50.1512C72.6689 50.23 73.0439 50.3877 73.3439 50.5454C73.9439 50.9397 74.2438 51.5705 74.3938 51.9648C74.4688 52.2014 74.4688 52.3591 74.5438 52.4379C74.3938 52.5956 74.3938 52.5956 74.3938 52.5956ZM74.3938 52.5956C74.3938 52.5956 74.3938 52.5168 74.3938 52.4379C74.3938 52.3591 74.3188 52.1225 74.2438 51.9648C74.0939 51.5705 73.7189 51.0186 73.1189 50.7031C72.8189 50.5454 72.444 50.4666 72.069 50.4666C71.694 50.4666 71.319 50.6243 70.944 50.8608C70.6441 51.0974 70.3441 51.4128 70.1941 51.8071C70.1191 51.9648 70.0441 52.2014 70.0441 52.3591C70.0441 52.5956 69.9691 52.7534 70.0441 52.9899C70.0441 53.3842 70.1941 53.7785 70.4191 54.0939C70.6441 54.4093 70.944 54.7247 71.319 54.8824C71.469 54.9613 71.694 55.0401 71.844 55.0401C71.919 55.0401 72.069 55.0401 72.144 55.0401C72.219 55.0401 72.294 55.0401 72.444 55.0401C72.8189 54.9613 73.1939 54.8824 73.4189 54.6459C74.0189 54.2516 74.2438 53.6208 74.3188 53.2265C74.3938 52.9899 74.3938 52.8322 74.3938 52.7534C74.3938 52.6745 74.3938 52.5956 74.3938 52.5956Z" fill="#060716"/>
<path d="M115.717 23.42C116.542 30.5957 111.667 37.2195 104.842 38.0869C102.593 38.4024 100.418 38.0081 98.4678 37.1407C96.8179 39.4275 94.343 41.0046 91.4182 41.3988C87.5935 41.872 83.9937 40.1372 81.8188 37.1407C81.3688 37.2984 80.9189 37.3772 80.3939 37.4561C75.7442 38.0869 71.4694 34.5385 70.9445 29.6495C70.7195 27.3627 71.2445 25.1548 72.4444 23.42C71.0945 21.6063 70.1195 19.3195 69.8195 16.875C68.9946 9.69925 73.8693 3.07546 80.6939 2.20805C83.8437 1.81378 86.7685 2.68118 89.2433 4.41598C90.8932 2.20805 93.3681 0.709814 96.1429 0.394396C101.018 -0.236442 105.592 2.83889 107.242 7.49132C107.692 7.33361 108.142 7.25475 108.592 7.1759C112.342 6.70277 115.792 9.54154 116.242 13.4843C116.467 15.6922 115.792 17.7424 114.517 19.2407C115.117 20.3446 115.492 21.8429 115.717 23.42Z" fill="white"/>
<path d="M115.717 23.4198C115.717 23.9718 115.867 24.5238 115.792 25.1547V26.0221C115.792 26.3375 115.717 26.574 115.717 26.8895C115.642 27.4414 115.492 27.9934 115.417 28.5454C115.267 29.0974 115.117 29.6494 114.892 30.2014L114.592 30.9899C114.442 31.2265 114.292 31.463 114.217 31.7784C113.992 32.3304 113.617 32.7247 113.317 33.1978C112.942 33.5921 112.642 34.0652 112.192 34.4595L111.592 35.0903L110.917 35.6423C110.467 36.0366 110.017 36.2732 109.567 36.5886C109.042 36.8251 108.592 37.1406 108.067 37.2983C107.842 37.3771 107.542 37.5348 107.317 37.6137L106.492 37.8503C105.967 38.008 105.442 38.0868 104.918 38.1657C102.743 38.4811 100.493 38.1657 98.4679 37.2983H98.6179C97.643 38.6388 96.3681 39.8216 94.8682 40.5313C94.1182 40.9256 93.3682 41.241 92.5433 41.3987C92.1683 41.4776 91.7184 41.5564 91.3434 41.6353C90.9684 41.7141 90.5184 41.7141 90.1434 41.7141C89.7685 41.7141 89.3185 41.7141 88.9435 41.6353C88.5685 41.6353 88.1186 41.4776 87.7436 41.3987C87.3686 41.3199 86.9186 41.1622 86.5437 41.0044C86.1687 40.8467 85.7937 40.689 85.4187 40.5313C85.0438 40.3736 84.6688 40.137 84.3688 39.9005C83.9938 39.6639 83.6938 39.4274 83.3939 39.1119C83.0939 38.8754 82.7939 38.56 82.4939 38.2445C82.1939 37.9291 81.969 37.6137 81.669 37.2983L81.969 37.3771L80.619 37.6926C80.394 37.7714 80.1691 37.7714 79.9441 37.7714C79.7191 37.7714 79.4941 37.7714 79.2691 37.7714C78.8191 37.7714 78.3692 37.6926 77.9192 37.6137C77.4692 37.5348 77.0193 37.456 76.5693 37.2983C76.1193 37.1406 75.7443 36.9829 75.2944 36.7463C74.9194 36.5097 74.4694 36.2732 74.1694 35.9577C73.9444 35.8 73.7945 35.6423 73.6445 35.4846C73.4945 35.3269 73.2695 35.1692 73.1195 35.0115C72.8195 34.6961 72.5195 34.3018 72.2196 33.9075C71.9946 33.5133 71.6946 33.119 71.5446 32.6459C71.3196 32.2516 71.1696 31.7784 71.0196 31.3053C70.8696 30.8322 70.7946 30.3591 70.7196 29.8859C70.4947 29.4917 70.4947 29.0185 70.4947 28.5454C70.4947 26.6529 71.0196 24.6815 72.0696 23.1044V23.5776C71.0946 22.3159 70.4197 20.8965 69.8947 19.3983C69.6697 18.6097 69.5197 17.8212 69.3697 17.0326C69.2947 16.2441 69.2197 15.4555 69.2947 14.667C69.2947 14.2727 69.3697 13.8784 69.3697 13.4842C69.4447 13.0899 69.4447 12.6956 69.5947 12.3013C69.7447 11.5128 69.9697 10.7242 70.2697 10.0145C70.4197 9.62027 70.5697 9.30486 70.7196 8.91058L71.3196 7.88547L71.9946 6.93921L72.7445 6.07181C73.2695 5.51983 73.7945 4.96785 74.4694 4.49472C74.7694 4.25815 75.0694 4.02159 75.4444 3.78503C75.7443 3.54846 76.1193 3.39075 76.4193 3.23304L76.9443 2.99648L77.4692 2.75991C77.8442 2.60221 78.1442 2.4445 78.5192 2.36564C79.2691 2.12908 80.0191 1.97137 80.769 1.89251C81.519 1.81366 82.2689 1.81366 83.0189 1.81366C83.7688 1.89251 84.5188 1.97137 85.2687 2.20793C86.7687 2.60221 88.1186 3.23304 89.3935 4.1793L89.0935 4.25815C90.2934 2.68106 91.8683 1.49824 93.5932 0.788547C94.4932 0.473128 95.3931 0.236564 96.3681 0.157709C96.743 0 97.193 0 97.643 0C98.093 0 98.5429 0.0788547 99.0679 0.157709L99.7429 0.315419L100.418 0.473128C100.868 0.630838 101.318 0.788547 101.693 1.02511C102.143 1.18282 102.518 1.49824 102.893 1.7348C103.268 1.97137 103.643 2.28679 104.018 2.60221C104.393 2.91762 104.693 3.23304 105.068 3.62732L105.517 4.1793L105.967 4.73128C106.192 5.12556 106.492 5.51983 106.717 5.99296C106.942 6.38723 107.092 6.86036 107.317 7.33349L107.242 7.25463C107.617 7.09692 107.992 7.01807 108.367 6.93921C108.742 6.86036 109.117 6.86036 109.492 6.86036C109.867 6.86036 110.242 6.93921 110.617 6.93921C110.992 7.01807 111.367 7.09692 111.742 7.25463C112.117 7.41234 112.417 7.57005 112.792 7.72776C113.092 7.88547 113.467 8.12204 113.767 8.3586C114.067 8.59516 114.367 8.91058 114.592 9.14715C114.817 9.46257 115.117 9.77798 115.267 10.0934C115.492 10.4088 115.642 10.8031 115.792 11.1185C115.942 11.5128 116.092 11.8282 116.167 12.2225C116.242 12.6168 116.317 13.011 116.317 13.4053C116.317 13.7996 116.317 14.1938 116.317 14.5881C116.167 16.1652 115.567 17.7423 114.517 18.8463C115.117 20.4234 115.567 21.8428 115.717 23.4198ZM115.717 23.4198C115.567 21.9216 115.117 20.4234 114.442 19.0828C115.417 17.9 116.092 16.4018 116.167 14.8247C116.167 14.4304 116.167 14.0361 116.167 13.6419C116.167 13.2476 116.092 12.8533 115.942 12.459C115.867 12.0648 115.717 11.6705 115.567 11.3551C115.417 11.0397 115.267 10.6454 115.042 10.33C114.817 10.0145 114.592 9.69913 114.367 9.38371C114.142 9.06829 113.842 8.83173 113.542 8.59516C113.242 8.3586 112.942 8.12204 112.567 7.96433C112.267 7.80662 111.892 7.57005 111.517 7.4912C111.142 7.33349 110.767 7.25463 110.467 7.17578C110.092 7.09692 109.717 7.09692 109.342 7.09692C108.967 7.09692 108.592 7.09692 108.217 7.17578C107.842 7.25463 107.467 7.33349 107.167 7.4912H107.092V7.41234C106.942 6.93921 106.717 6.54494 106.492 6.07181C106.267 5.67754 106.042 5.28327 105.742 4.88899L105.293 4.33701L104.843 3.78503C104.543 3.46961 104.168 3.07533 103.868 2.83877C103.493 2.52335 103.118 2.28679 102.743 1.97137C102.368 1.7348 101.918 1.49824 101.543 1.34053C101.168 1.10397 100.718 1.02511 100.268 0.867402L99.5929 0.709692L98.9929 0.473128C98.5429 0.394274 98.093 0.394274 97.643 0.394274C97.193 0.394274 96.743 0.394274 96.2931 0.473128C95.3931 0.551983 94.4932 0.788547 93.6682 1.18282C92.0183 1.89251 90.5184 3.07533 89.3935 4.57357L89.2435 4.65243L89.0185 4.49472C87.8186 3.62732 86.4687 2.99648 85.0438 2.68106C84.3688 2.52335 83.6188 2.36564 82.8689 2.36564C82.1189 2.28679 81.444 2.36564 80.694 2.4445C80.0191 2.52335 79.2691 2.68106 78.5942 2.91762C78.2192 2.99648 77.9192 3.15419 77.5442 3.3119L77.0193 3.54846L76.5693 3.78503C76.2693 3.94274 75.8943 4.10044 75.5943 4.33701C75.2944 4.57357 74.9944 4.73128 74.6944 4.96785C74.0944 5.44098 73.5695 5.9141 73.1195 6.46609L72.4445 7.33349L71.8446 8.27974L71.3196 9.226C71.1696 9.54142 71.0196 9.93569 70.8696 10.2511C70.5697 10.9608 70.3447 11.6705 70.1947 12.3802C70.1197 12.7745 70.0447 13.0899 70.0447 13.4842C69.9697 13.8784 69.9697 14.1938 69.9697 14.5881C69.8947 15.2978 69.9697 16.1652 70.0447 16.8749C70.1197 17.5846 70.2697 18.3731 70.4947 19.0828C70.9446 20.5022 71.6196 21.8428 72.5195 23.0256L72.6695 23.2621L72.5195 23.4987C71.5446 24.9181 71.0196 26.7317 71.0196 28.4665C71.0196 28.8608 71.0196 29.334 71.0946 29.8071C71.1696 30.2802 71.2446 30.6745 71.3946 31.0688C71.5446 31.463 71.6946 31.9362 71.8446 32.3304C71.9946 32.7247 72.2945 33.119 72.5195 33.4344C72.7445 33.7498 73.0445 34.1441 73.3445 34.4595C73.4945 34.6172 73.6445 34.7749 73.7945 34.9326C73.9444 35.0903 74.0944 35.2481 74.3194 35.3269C74.6194 35.5635 74.9944 35.8 75.3694 36.0366C75.7443 36.1943 76.1193 36.4309 76.4943 36.5886C76.8693 36.7463 77.3192 36.8251 77.6942 36.904C78.1442 36.9829 78.5192 37.0617 78.9691 37.0617C79.1941 37.0617 79.4191 37.0617 79.6441 37.0617C79.8691 37.0617 80.0941 37.0617 80.2441 36.9829L81.519 36.7463H81.669L81.744 36.904C81.969 37.2194 82.2689 37.5348 82.4939 37.8503C82.7939 38.1657 83.0189 38.4022 83.3189 38.7177C83.6188 38.9542 83.9188 39.2696 84.2938 39.4274C84.5938 39.6639 84.9688 39.9005 85.3437 40.0582C85.7187 40.2159 86.0937 40.3736 86.3937 40.5313C86.7687 40.689 87.1436 40.7679 87.5186 40.9256C87.8936 41.0045 88.2686 41.0833 88.7185 41.1622C89.0935 41.241 89.5435 41.241 89.9185 41.241C90.2934 41.241 90.6684 41.241 91.1184 41.1622C91.4934 41.0833 91.8683 41.0833 92.3183 40.9256C93.0683 40.7679 93.8182 40.4525 94.5682 40.137C95.9931 39.4274 97.268 38.3234 98.2429 36.9829L98.3179 36.904H98.3929C100.343 37.7714 102.593 38.1657 104.768 37.8503C105.293 37.7714 105.817 37.6926 106.342 37.5348L107.092 37.2983C107.317 37.2194 107.617 37.0617 107.842 36.9829C108.367 36.8251 108.817 36.5097 109.342 36.2732C109.792 35.9577 110.242 35.7212 110.692 35.3269L111.367 34.7749L111.967 34.2229C112.342 33.8287 112.717 33.3555 113.092 32.9613C113.392 32.4881 113.767 32.015 113.992 31.5419C114.142 31.3053 114.292 31.0688 114.367 30.8322L114.742 30.0436C114.967 29.4917 115.117 28.9397 115.267 28.4665C115.417 27.9146 115.567 27.3626 115.567 26.8106C115.567 26.4952 115.642 26.2586 115.642 25.9432V25.0758C115.792 24.5238 115.717 23.9718 115.717 23.4198Z" fill="#060716"/>
<path d="M94.3416 23.8134C94.3416 22.7883 94.4916 21.8421 94.7916 20.9747C95.0916 20.1073 95.7666 19.3976 96.8165 18.8456C97.1165 18.6879 97.4914 18.4513 97.9414 18.2148C98.3914 17.9782 98.8414 17.6628 99.2163 17.3473C99.6663 17.0319 99.9663 16.6377 100.266 16.1645C100.566 15.6914 100.716 15.2183 100.716 14.5874C100.716 14.1143 100.641 13.72 100.491 13.4046C100.341 13.0892 100.116 12.7738 99.8913 12.5372C99.5913 12.3006 99.2913 12.1429 98.9913 11.9852C98.6164 11.9064 98.3164 11.8275 97.9414 11.8275C97.4914 11.8275 97.1165 11.9064 96.7415 12.0641C96.3665 12.2218 96.0665 12.4584 95.7665 12.6949C95.4666 12.9315 95.2416 13.2469 94.9416 13.5623C94.7166 13.8777 94.4916 14.1932 94.3416 14.4297L91.7168 12.5372C91.9418 11.9064 92.3168 11.2755 92.7667 10.8024C93.2167 10.3293 93.6667 9.85615 94.2666 9.54074C94.7916 9.22532 95.3916 8.9099 96.0665 8.75219C96.7415 8.59448 97.4164 8.51562 98.0914 8.51562C98.8414 8.51562 99.5913 8.59448 100.341 8.83104C101.091 9.06761 101.766 9.46188 102.366 9.93501C102.966 10.4081 103.416 11.1178 103.791 11.9064C104.166 12.6949 104.316 13.6412 104.316 14.7451C104.316 15.4548 104.241 16.0068 104.091 16.5588C103.941 17.1108 103.716 17.5839 103.416 17.9782C103.116 18.3725 102.816 18.7667 102.441 19.161C102.066 19.4764 101.616 19.7918 101.166 20.1861C100.791 20.4227 100.341 20.6592 99.9663 20.8958C99.5913 21.1324 99.2163 21.3689 98.8414 21.6844C98.5414 21.9998 98.2414 22.3152 98.0164 22.7095C97.7914 23.1037 97.7164 23.498 97.7164 24.05H94.3416V23.8134ZM94.4166 31.2258V26.8099H97.7914V31.2258H94.4166Z" fill="#EAB020"/>
<path d="M86.8432 15.5339C87.0682 16.559 87.0682 17.5053 86.9182 18.3727C86.7682 19.2401 86.2433 20.1075 85.4183 20.896C85.1933 21.1326 84.8184 21.448 84.4434 21.7634C84.0684 22.0788 83.6934 22.4731 83.3185 22.8674C82.9435 23.2617 82.7185 23.7348 82.4935 24.2868C82.2685 24.7599 82.2685 25.3119 82.3435 25.9427C82.4185 26.4159 82.5685 26.7313 82.7935 27.0467C83.0185 27.3621 83.3185 27.5987 83.6184 27.7564C83.9184 27.9141 84.2934 28.0718 84.5934 28.0718C84.9684 28.0718 85.3433 28.0718 85.6433 27.9929C86.0933 27.9141 86.4683 27.7564 86.7682 27.5198C87.0682 27.2833 87.3682 27.0467 87.5932 26.7313C87.8182 26.4159 88.0432 26.1004 88.1932 25.785C88.3431 25.4696 88.4931 25.0753 88.5681 24.8388L91.493 26.1793C91.343 26.889 91.118 27.5198 90.818 28.1507C90.518 28.7815 90.068 29.2546 89.6181 29.7277C89.1681 30.2009 88.6431 30.5951 88.0432 30.9106C87.4432 31.226 86.8432 31.4625 86.1683 31.6203C85.4183 31.778 84.6684 31.8568 83.8434 31.778C83.0935 31.6991 82.3435 31.4625 81.6686 31.1471C80.9936 30.7529 80.3936 30.2797 79.8687 29.57C79.3437 28.8603 78.9687 27.9929 78.7437 26.889C78.5937 26.2581 78.5938 25.6273 78.5938 25.0753C78.6687 24.5233 78.7437 24.0502 78.9687 23.5771C79.1937 23.104 79.4187 22.6308 79.7187 22.2366C80.0187 21.8423 80.3936 21.3692 80.7686 20.9749C81.1436 20.6595 81.4436 20.344 81.8185 20.0286C82.1935 19.7132 82.4935 19.3978 82.7185 19.0035C83.0185 18.6881 83.1685 18.2938 83.3185 17.8207C83.4684 17.4264 83.4684 16.9533 83.3935 16.4013L86.8432 15.5339ZM85.3433 8.2793L86.1683 12.6163L82.8685 13.326L82.0435 8.98899L85.3433 8.2793Z" fill="#EAB020"/>
</svg>
