<svg width="316" height="318" viewBox="0 0 316 318" fill="none" xmlns="http://www.w3.org/2000/svg">
<path opacity="0.15" d="M302.751 214.582C270.739 287.721 186.237 319.135 120.029 313.78C101.951 312.318 65.5789 309.374 37.1796 283.123C-17.3608 232.708 -8.96063 127.327 43.25 65.2836C49.9741 57.2934 96.514 3.76305 169.038 4.47929C222.136 5.00423 259.405 34.3224 263.937 37.9753C269.663 42.5893 282.289 53.5539 293.669 70.9487C320.405 111.821 322.755 168.878 302.751 214.582Z" fill="#00003E"/>
<path d="M132.095 159.908C126.894 143.789 116.922 130.957 105.15 123.428C94.6261 116.698 87.015 106.195 84.1557 94.0469C83.8551 92.7705 83.4987 91.4894 83.0865 90.2095C76.8304 70.8231 59.8808 58.9396 45.228 63.6675C30.5752 68.3954 23.768 87.9446 30.0229 107.331C31.3017 111.295 33.0291 114.944 35.0913 118.202C41.6741 128.599 44.2931 141.081 41.9508 153.166C39.8579 163.967 40.5013 176.119 44.4013 188.204C50.2178 206.228 61.9977 220.143 75.5904 227.129C80.7316 229.771 85.3741 233.331 89.2252 237.635C95.6247 244.788 104.61 248.136 112.837 245.482C121.712 242.618 127.219 233.571 127.566 223.031C127.762 217.067 129.131 211.217 131.38 205.685C136.691 192.625 137.354 176.207 132.095 159.908Z" fill="#FFB000"/>
<path d="M57.0131 82.6362C63.0618 94.8306 68.7132 107.211 74.2359 119.649C75.6183 122.757 76.9495 125.889 78.292 129.014L80.3041 133.705L82.2775 138.412C83.5801 141.555 84.9272 144.681 86.1946 147.838L89.9979 157.311C92.4529 163.658 94.9615 169.985 97.2981 176.379C98.4709 179.574 99.7053 182.745 100.813 185.963L104.18 195.602C108.54 208.498 112.578 221.51 115.95 234.701L115.383 234.852L112.485 225.079L111.765 222.635L110.985 220.208L109.416 215.36L107.856 210.509C107.339 208.891 106.762 207.292 106.218 205.683C105.107 202.472 104.023 199.253 102.894 196.049C98.2887 183.263 93.5142 170.538 88.4765 157.913C85.9099 151.621 83.3979 145.306 80.7869 139.03L78.842 134.318L76.8572 129.622C75.5363 126.491 74.2154 123.36 72.8627 120.242C70.2106 113.984 67.513 107.743 64.7653 101.525C62.0495 95.2929 59.2757 89.0847 56.4824 82.8879L57.0131 82.6362Z" fill="white"/>
<path d="M118.009 242.068C111.532 229.458 101.57 220.204 90.8441 215.57C81.2562 211.429 73.5563 203.779 69.5481 194.134C69.1267 193.121 68.6599 192.111 68.1452 191.11C60.3553 175.945 44.771 168.411 33.3361 174.285C21.9013 180.159 18.9475 197.214 26.7373 212.38C28.3304 215.48 30.2491 218.262 32.3922 220.674C39.2301 228.373 43.0846 238.326 42.7965 248.619C42.5391 257.817 44.7209 267.765 49.5775 277.218C56.8208 291.319 68.4196 301.223 80.573 305.165C85.1699 306.655 89.4799 308.969 93.2388 312.006C99.4857 317.051 107.346 318.608 113.766 315.31C120.692 311.753 124.002 303.543 122.855 294.794C122.206 289.843 122.539 284.831 123.641 279.96C126.243 268.463 124.558 254.817 118.009 242.068Z" fill="#00003E"/>
<path d="M45.6293 188.361C52.2714 197.616 58.6117 207.078 64.8541 216.605C66.4152 218.986 67.9388 221.392 69.4692 223.793L71.7648 227.394L74.0309 231.015C75.5317 233.435 77.0666 235.834 78.5401 238.271L82.9617 245.582C85.8472 250.493 88.7748 255.379 91.5691 260.344C92.9698 262.824 94.4182 265.277 95.7687 267.785L99.8543 275.29C105.201 285.352 110.296 295.552 114.868 305.99L114.422 306.19L110.705 298.511L109.78 296.59L108.808 294.691L106.856 290.9L104.911 287.104C104.266 285.838 103.572 284.596 102.905 283.341C101.554 280.839 100.223 278.326 98.8557 275.833C93.3228 265.896 87.6588 256.031 81.7923 246.285C78.8214 241.434 75.8926 236.559 72.8887 231.728L70.6455 228.099L68.3715 224.489C66.857 222.082 65.3426 219.674 63.8042 217.282C60.7684 212.471 57.6973 207.681 54.5875 202.917C51.5028 198.137 48.3725 193.384 45.2285 188.642L45.6293 188.361Z" fill="white"/>
<path d="M172.39 190.178C176.981 172.937 186.769 158.894 198.741 150.331C209.444 142.676 216.876 131.211 219.221 118.276C219.467 116.917 219.772 115.55 220.136 114.182C225.658 93.4458 242.839 80.0193 258.512 84.1927C274.184 88.366 282.413 108.559 276.892 129.294C275.763 133.535 274.146 137.468 272.154 141.007C265.796 152.303 263.724 165.577 266.848 178.162C269.64 189.409 269.627 202.228 266.185 215.155C261.051 234.433 249.419 249.714 235.501 257.806C230.237 260.867 225.548 264.864 221.732 269.603C215.39 277.478 206.121 281.49 197.323 279.147C187.83 276.619 181.542 267.404 180.602 256.335C180.07 250.071 178.311 243.992 175.643 238.295C169.341 224.847 167.747 207.611 172.39 190.178Z" fill="#442424"/>
<path d="M247.152 104.791C241.455 117.95 236.186 131.282 231.057 144.667C229.772 148.013 228.542 151.38 227.302 154.741L225.442 159.785L223.623 164.844C222.424 168.221 221.178 171.583 220.017 174.974L216.534 185.147C214.298 191.959 212.005 198.751 209.896 205.604C208.837 209.029 207.711 212.432 206.721 215.878L203.705 226.202C199.823 240.006 196.286 253.914 193.459 267.975L194.064 268.102L196.579 257.663L197.202 255.053L197.89 252.458L199.275 247.271L200.651 242.083C201.106 240.353 201.627 238.64 202.111 236.918C203.103 233.479 204.067 230.033 205.082 226.601C209.228 212.899 213.555 199.253 218.164 185.697C220.52 178.936 222.818 172.157 225.222 165.413L227.011 160.35L228.842 155.303C230.06 151.937 231.28 148.571 232.532 145.217C234.981 138.489 237.477 131.777 240.027 125.086C242.543 118.381 245.123 111.7 247.723 105.028L247.152 104.791Z" fill="white"/>
<path d="M202.194 243.127C209.31 231.148 219.64 222.672 230.442 218.774C240.098 215.289 248.114 208.25 252.626 199.03C253.101 198.061 253.621 197.099 254.185 196.148C262.743 181.741 278.485 175.293 289.347 181.744C300.209 188.196 302.078 205.106 293.521 219.513C291.771 222.459 289.721 225.071 287.473 227.308C280.3 234.448 275.919 243.98 275.579 254.094C275.276 263.133 272.536 272.76 267.202 281.741C259.246 295.135 247.269 304.151 235.11 307.284C230.511 308.468 226.142 310.479 222.272 313.23C215.839 317.803 208.035 318.855 201.936 315.233C195.358 311.325 192.605 303.072 194.259 294.558C195.194 289.74 195.171 284.803 194.383 279.958C192.524 268.524 195.001 255.238 202.194 243.127Z" fill="#FFB000"/>
<path d="M276.44 194.811C269.366 203.489 262.574 212.388 255.877 221.357C254.202 223.599 252.562 225.867 250.915 228.13L248.445 231.525L246.004 234.94C244.386 237.223 242.735 239.484 241.143 241.786L236.364 248.69C233.237 253.333 230.07 257.949 227.029 262.651C225.505 264.999 223.936 267.317 222.459 269.697L217.999 276.813C212.147 286.361 206.532 296.059 201.418 306.022L201.844 306.246L205.953 298.937L206.976 297.108L208.045 295.304L210.189 291.702L212.327 288.096C213.037 286.893 213.791 285.717 214.522 284.526C215.998 282.152 217.455 279.768 218.947 277.405C224.974 267.99 231.127 258.655 237.471 249.449C240.677 244.87 243.845 240.263 247.083 235.706L249.503 232.282L251.951 228.877C253.582 226.607 255.213 224.336 256.867 222.083C260.136 217.546 263.438 213.033 266.776 208.547C270.091 204.043 273.449 199.569 276.82 195.109L276.44 194.811Z" fill="white"/>
<path d="M193.585 185.854L183.977 85.1763C160.901 76.6486 131.806 86.1795 131.806 86.1795L127.312 185.854H193.585Z" fill="white"/>
<path d="M147.86 68.1203L147.427 82.411C147.384 83.8241 148.261 85.0972 149.594 85.5675C153.248 86.8565 160.813 88.8162 167.981 86.2496C169.427 85.7315 170.298 84.2512 170.074 82.731L167.925 68.1191H147.86V68.1203Z" fill="url(#paint0_linear)"/>
<path d="M151.931 185.854C154.474 183.313 155.886 181.491 155.886 181.491L152.877 172.963C152.877 172.963 128.295 187.009 120.27 179.985C112.243 172.963 125.788 131.829 125.788 131.829L106.224 96.2124C106.224 96.2124 89.8027 150.961 95.3243 180.878C95.8561 183.758 98.3658 185.854 101.295 185.854H151.931Z" fill="#00003E"/>
<path d="M147.601 76.7446L158.769 87.453L150.704 92.954L143.574 83.3571L147.601 76.7446Z" fill="white"/>
<path d="M168.988 76.7446L157.818 87.453L165.884 92.954L173.014 83.3571L168.988 76.7446Z" fill="white"/>
<path d="M140.55 42.0349C140.55 42.0349 143.058 67.6181 148.577 74.1395C148.577 74.1395 165.131 75.6448 171.15 72.1331C171.15 72.1331 175.415 59.3409 174.913 42.2854C174.913 42.2854 175.735 26.765 158.61 25.4805C138.543 23.9751 140.55 42.0349 140.55 42.0349Z" fill="url(#paint1_linear)"/>
<path d="M173.16 50.0608C173.16 50.0608 174.666 45.5459 177.173 45.5459C179.681 45.5459 176.672 57.5853 173.16 57.5853V50.0608Z" fill="url(#paint2_linear)"/>
<path d="M142.833 51.2469C142.833 51.2469 140.733 46.9768 138.247 47.315C135.762 47.6532 140.368 59.1768 143.847 58.7031L142.833 51.2469Z" fill="url(#paint3_linear)"/>
<path d="M142.281 55.5336C142.281 55.5336 142.844 70.815 149.566 78.5661C150.183 79.2778 151.074 79.6911 152.015 79.7367C155.446 79.9018 164.216 80.1967 169.162 79.2117C170.392 78.9669 171.406 78.0992 171.81 76.9104C173.026 73.3463 175.136 67.7257 174.411 54.8276L170.377 64.4405C167.387 72.3852 165.766 62.7416 164.378 62.8532H155.348C154.396 62.9295 153.341 68.8724 149.815 67.1313L142.281 55.5336Z" fill="#442424"/>
<path d="M168.143 36.0148C168.143 36.0148 155.362 49.1599 141.435 49.1087C141.435 49.1087 133.529 27.9892 149.08 24.4774C164.631 20.9657 165.132 25.4806 165.132 25.4806C165.132 25.4806 183.029 20.9942 174.94 46.8051L168.143 36.0148Z" fill="#442424"/>
<path d="M172.378 185.855H218.952C221.049 185.855 222.998 184.774 224.108 182.996C244.175 150.892 215.581 98.219 215.581 98.219L200.532 137.849C200.532 137.849 213.574 150.892 206.552 171.459C199.528 192.026 170.936 175.974 170.936 175.974L171.939 185.505C171.938 185.504 172.092 185.631 172.378 185.855Z" fill="#00003E"/>
<path d="M157.118 88.3676L152.951 91.204L155.888 96.9157H160.677L163.878 91.606L158.424 87.8745L157.118 88.3676Z" fill="#FFB000"/>
<path d="M155.887 96.9158L152.637 151.035L160.904 165.984L169.224 151.574L160.676 96.9158H155.887Z" fill="#FFB000"/>
<path d="M120.89 131.781C124.449 140.411 126.149 149.694 125.878 159.024L125.1 185.854H162.82L160.902 147.634L143.571 83.3633C127.519 85.8718 106.223 96.2124 106.223 96.2124L120.89 131.781Z" fill="#00003E"/>
<path d="M197.373 185.854L198.524 163.595C198.524 152.199 200.469 140.887 204.273 130.145L215.581 98.2176C201.034 85.175 172.386 82.3293 172.386 82.3293L160.902 147.632V185.852H197.373V185.854Z" fill="#00003E"/>
<path d="M157.728 145.385C157.651 145.385 157.573 145.352 157.518 145.289L142.077 127.48C142.042 127.441 142.021 127.393 142.013 127.343L140.456 117.797L134.741 116.647C134.616 116.622 134.524 116.514 134.518 116.386L133.289 86.1676C133.284 86.0139 133.402 85.8852 133.556 85.8784C133.715 85.8727 133.838 85.9911 133.845 86.1448L135.064 116.146L140.755 117.291C140.868 117.313 140.955 117.404 140.974 117.518L142.549 127.176L157.94 144.926C158.04 145.042 158.027 145.217 157.911 145.317C157.858 145.362 157.793 145.385 157.728 145.385Z" fill="#00006C"/>
<path d="M162.903 145.385C162.838 145.385 162.773 145.362 162.721 145.316C162.605 145.215 162.592 145.038 162.694 144.921L178.084 127.021L179.659 117.281C179.677 117.166 179.765 117.074 179.879 117.051L185.569 115.897L186.789 85.6403C186.794 85.4854 186.91 85.3658 187.078 85.3715C187.231 85.3784 187.35 85.5082 187.344 85.663L186.116 116.139C186.11 116.268 186.019 116.377 185.893 116.402L180.178 117.562L178.622 127.188C178.614 127.239 178.591 127.287 178.558 127.327L163.116 145.287C163.058 145.352 162.981 145.385 162.903 145.385Z" fill="#00006C"/>
<path d="M84.2402 193.249L88.4409 202.816H235.266L241.016 193.249H84.2402Z" fill="#000005"/>
<path d="M99.7988 202.049L110.856 318H214.341L225.84 202.049H99.7988Z" fill="#000005"/>
<path d="M212.106 163.66C211.372 163.66 210.575 163.066 210.575 162.333V147.648C210.575 145.481 209.662 143.485 207.841 142.308L204.366 140.008C203.751 139.611 203.618 138.79 204.014 138.175C204.411 137.559 205.253 137.38 205.87 137.78L209.473 140.08C212.053 141.746 213.635 144.576 213.635 147.648V162.333C213.636 163.066 212.838 163.66 212.106 163.66Z" fill="url(#paint4_linear)"/>
<path d="M205.02 130.736C208.058 133.357 208.397 137.944 205.777 140.983C203.157 144.021 198.569 144.36 195.531 141.74L182.79 130.752C179.752 128.132 179.412 123.544 182.033 120.506C184.653 117.468 189.241 117.129 192.279 119.749L205.02 130.736Z" fill="url(#paint5_linear)"/>
<path d="M214.827 158.042H209.668C208.895 158.042 208.277 158.536 208.277 159.31V170.67H216.696V159.31C216.696 158.536 215.6 158.042 214.827 158.042Z" fill="url(#paint6_linear)"/>
<path d="M216.596 169.14H207.014C205.753 169.14 204.451 170.432 204.451 171.693V173.733H218.61V171.693C218.61 170.432 217.858 169.14 216.596 169.14Z" fill="url(#paint7_linear)"/>
<path d="M109.927 163.66C110.66 163.66 111.457 163.066 111.457 162.333V147.648C111.457 145.481 112.453 143.485 114.273 142.308L117.79 140.008C118.405 139.611 118.56 138.79 118.162 138.175C117.765 137.559 116.933 137.38 116.316 137.78L112.636 140.08C110.056 141.746 108.396 144.576 108.396 147.648V162.333C108.396 163.066 109.195 163.66 109.927 163.66Z" fill="url(#paint8_linear)"/>
<path d="M117.177 130.736C114.139 133.357 113.799 137.944 116.419 140.983C119.04 144.021 123.627 144.36 126.665 141.74L139.406 130.752C142.444 128.132 142.784 123.544 140.164 120.506C137.543 117.468 132.956 117.129 129.918 119.749L117.177 130.736Z" fill="url(#paint9_linear)"/>
<path d="M107.368 158.042H112.527C113.3 158.042 113.37 158.536 113.37 159.31V170.67H104.951V159.31C104.951 158.536 106.594 158.042 107.368 158.042Z" fill="url(#paint10_linear)"/>
<path d="M105.6 169.14H115.182C116.444 169.14 117.197 170.432 117.197 171.693V173.733H102.656V171.693C102.655 170.432 104.337 169.14 105.6 169.14Z" fill="url(#paint11_linear)"/>
<path d="M83.0737 193.249L78.8184 170.67H246.824L243.239 193.249H83.0737Z" fill="#000005"/>
<path d="M229.693 17.7878C209.354 17.7878 192.867 30.3557 192.867 45.8591C192.867 50.1577 194.136 54.2308 196.403 57.8724C197.523 59.6727 197.899 61.8612 197.379 63.9166C196.364 67.9226 196.897 73.0979 201.466 79.2401C202.333 80.4073 204.175 79.9689 204.441 78.5398C204.775 76.7486 205.35 74.5282 206.335 72.3863C207.252 70.389 209.591 69.4484 211.61 70.3172C216.952 72.6174 223.121 73.9303 229.693 73.9303C250.031 73.9303 266.519 61.3625 266.519 45.8591C266.519 30.3557 250.031 17.7878 229.693 17.7878Z" fill="#00003E"/>
<g opacity="0.68">
<path opacity="0.68" d="M220.574 53.2012C221.015 51.3339 219.859 49.4627 217.991 49.0218C216.124 48.5809 214.253 49.7372 213.812 51.6045C213.371 53.4718 214.527 55.343 216.395 55.784C218.262 56.2249 220.133 55.0686 220.574 53.2012Z" fill="white"/>
<g opacity="0.68">
<path opacity="0.68" d="M232.149 54.8467C233.506 53.49 233.506 51.2903 232.149 49.9336C230.792 48.5768 228.593 48.5768 227.236 49.9336C225.879 51.2903 225.879 53.49 227.236 54.8467C228.593 56.2034 230.792 56.2034 232.149 54.8467Z" fill="white"/>
</g>
<path opacity="0.68" d="M244.657 54.8472C246.014 53.4905 246.014 51.2908 244.657 49.9341C243.3 48.5773 241.1 48.5773 239.744 49.9341C238.387 51.2908 238.387 53.4905 239.744 54.8472C241.1 56.2039 243.3 56.2039 244.657 54.8472Z" fill="white"/>
</g>
<path d="M258.041 56.1425C278.379 56.1425 294.866 43.5746 294.866 28.0713C294.866 12.5679 278.379 0 258.041 0C237.702 0 221.215 12.5679 221.215 28.0713C221.215 43.5746 237.702 56.1425 258.041 56.1425Z" fill="#FFB000"/>
<path opacity="0.64" d="M274.967 48.9371C270.15 51.4286 264.729 52.7495 259.279 52.9863C253.828 53.2152 248.295 52.4033 243.172 50.4117C242.528 50.176 241.9 49.8936 241.271 49.618C240.958 49.4768 240.652 49.3186 240.343 49.1694C240.033 49.0214 239.725 48.8676 239.425 48.6991C238.203 48.066 237.04 47.3236 235.908 46.5401C233.671 44.9368 231.622 43.0386 229.964 40.825C228.295 38.625 227.029 36.1028 226.34 33.4291C225.688 30.7532 225.554 27.9429 226.12 25.2749L226.498 25.3353C226.35 26.6607 226.345 27.993 226.463 29.3093C226.594 30.6245 226.863 31.9192 227.254 33.1718C227.629 34.4301 228.172 35.6325 228.797 36.7803C229.421 37.9304 230.144 39.0281 230.974 40.0416C232.614 42.0855 234.582 43.8596 236.744 45.3491C238.903 46.8476 241.257 48.066 243.713 49.0225C248.626 50.956 253.944 51.8032 259.245 51.7565C264.545 51.6745 269.866 50.677 274.805 48.5909L274.967 48.9371Z" fill="white"/>
<g opacity="0.68">
<path opacity="0.68" d="M251.647 29.5049C252.045 27.628 250.847 25.7836 248.97 25.3853C247.093 24.987 245.248 26.1856 244.85 28.0625C244.452 29.9394 245.65 31.7838 247.527 32.1822C249.404 32.5805 251.249 31.3819 251.647 29.5049Z" fill="white"/>
<g opacity="0.68">
<path opacity="0.68" d="M263.856 30.3399C264.714 28.6237 264.019 26.537 262.302 25.6789C260.586 24.8208 258.5 25.5164 257.642 27.2325C256.783 28.9487 257.479 31.0354 259.195 31.8935C260.911 32.7516 262.998 32.056 263.856 30.3399Z" fill="white"/>
</g>
<path opacity="0.68" d="M276.362 30.34C277.22 28.6239 276.525 26.5372 274.808 25.6791C273.092 24.8211 271.006 25.5167 270.147 27.2328C269.289 28.9489 269.985 31.0357 271.701 31.8937C273.417 32.7517 275.504 32.0561 276.362 30.34Z" fill="white"/>
</g>
<defs>
<linearGradient id="paint0_linear" x1="155.615" y1="104.581" x2="159.005" y2="75.5804" gradientUnits="userSpaceOnUse">
<stop stop-color="#F9B776"/>
<stop offset="0.0496" stop-color="#F9B475"/>
<stop offset="1" stop-color="#F47960"/>
</linearGradient>
<linearGradient id="paint1_linear" x1="158.774" y1="72.1196" x2="157.477" y2="34.755" gradientUnits="userSpaceOnUse">
<stop stop-color="#F9B776"/>
<stop offset="0.0496" stop-color="#F9B475"/>
<stop offset="1" stop-color="#F47960"/>
</linearGradient>
<linearGradient id="paint2_linear" x1="176.29" y1="71.5123" x2="174.993" y2="34.1477" gradientUnits="userSpaceOnUse">
<stop stop-color="#F9B776"/>
<stop offset="0.0496" stop-color="#F9B475"/>
<stop offset="1" stop-color="#F47960"/>
</linearGradient>
<linearGradient id="paint3_linear" x1="141.354" y1="72.7241" x2="140.057" y2="35.3595" gradientUnits="userSpaceOnUse">
<stop stop-color="#F9B776"/>
<stop offset="0.0496" stop-color="#F9B475"/>
<stop offset="1" stop-color="#F47960"/>
</linearGradient>
<linearGradient id="paint4_linear" x1="208.686" y1="137.55" x2="208.807" y2="163.675" gradientUnits="userSpaceOnUse">
<stop stop-color="#2C759E"/>
<stop offset="1" stop-color="#051042"/>
</linearGradient>
<linearGradient id="paint5_linear" x1="169.441" y1="109.844" x2="208.387" y2="143.118" gradientUnits="userSpaceOnUse">
<stop stop-color="#2C759E"/>
<stop offset="1" stop-color="#051042"/>
</linearGradient>
<linearGradient id="paint6_linear" x1="212.423" y1="151.367" x2="212.52" y2="172.052" gradientUnits="userSpaceOnUse">
<stop stop-color="#2C759E"/>
<stop offset="1" stop-color="#051042"/>
</linearGradient>
<linearGradient id="paint7_linear" x1="211.502" y1="166.675" x2="211.537" y2="174.265" gradientUnits="userSpaceOnUse">
<stop stop-color="#2C759E"/>
<stop offset="1" stop-color="#051042"/>
</linearGradient>
<linearGradient id="paint8_linear" x1="113.416" y1="137.549" x2="113.294" y2="163.675" gradientUnits="userSpaceOnUse">
<stop stop-color="#2C759E"/>
<stop offset="1" stop-color="#051042"/>
</linearGradient>
<linearGradient id="paint9_linear" x1="152.755" y1="109.844" x2="113.809" y2="143.117" gradientUnits="userSpaceOnUse">
<stop stop-color="#2C759E"/>
<stop offset="1" stop-color="#051042"/>
</linearGradient>
<linearGradient id="paint10_linear" x1="109.224" y1="151.363" x2="109.127" y2="172.052" gradientUnits="userSpaceOnUse">
<stop stop-color="#2C759E"/>
<stop offset="1" stop-color="#051042"/>
</linearGradient>
<linearGradient id="paint11_linear" x1="109.954" y1="166.669" x2="109.919" y2="174.266" gradientUnits="userSpaceOnUse">
<stop stop-color="#2C759E"/>
<stop offset="1" stop-color="#051042"/>
</linearGradient>
</defs>
</svg>
