<svg width="1058" height="1013" viewBox="0 0 1058 1013" fill="none" xmlns="http://www.w3.org/2000/svg">
<g opacity="0.2">
<path d="M557.141 556.822C555.495 555.208 553.353 554.365 551.092 554.447C548.838 554.528 546.751 555.519 545.214 557.246L426.249 690.841C424.724 692.55 423.93 694.791 424.005 697.141C424.083 699.491 425.024 701.668 426.661 703.267L512.601 787.439" stroke="#EBEAE8" stroke-width="2.65996" stroke-linecap="round" stroke-linejoin="round"/>
<path d="M536.153 812.264L555.859 829.518C559.01 832.279 563.801 832.109 566.764 829.132L571.255 824.648" stroke="#EBEAE8" stroke-width="2.65996" stroke-linecap="round" stroke-linejoin="round"/>
<path d="M521.136 796.277L524.891 799.909" stroke="#EBEAE8" stroke-width="2.65996" stroke-linecap="round" stroke-linejoin="round"/>
<path d="M582.76 829.181L582.76 829.181L453.78 703.625C453.78 703.625 453.78 703.624 453.78 703.624C452.375 702.256 451.56 700.398 451.498 698.379C451.437 696.357 452.134 694.446 453.454 692.986L453.454 692.986L574.42 559.112C574.421 559.112 574.421 559.112 574.421 559.112C575.74 557.653 577.51 556.826 579.411 556.764L579.416 556.764C579.483 556.761 579.551 556.761 579.647 556.761C581.462 556.761 583.187 557.463 584.533 558.773L713.509 684.33C716.415 687.159 716.567 691.944 713.838 694.973L592.873 828.842C591.553 830.302 589.784 831.128 587.882 831.19C585.982 831.253 584.163 830.547 582.76 829.181Z" stroke="#EBEAE8" stroke-width="2.65996"/>
</g>
<g opacity="0.2">
<path d="M737.141 736.38C735.495 734.766 733.353 733.924 731.092 734.005C728.838 734.087 726.751 735.078 725.214 736.805L606.249 870.4C604.724 872.109 603.93 874.349 604.005 876.699C604.083 879.05 605.024 881.226 606.661 882.826L692.601 966.998" stroke="#EBEAE8" stroke-width="2.65996" stroke-linecap="round" stroke-linejoin="round"/>
<path d="M716.153 991.823L735.859 1009.08C739.01 1011.84 743.801 1011.67 746.764 1008.69L751.255 1004.21" stroke="#EBEAE8" stroke-width="2.65996" stroke-linecap="round" stroke-linejoin="round"/>
<path d="M701.136 975.836L704.891 979.467" stroke="#EBEAE8" stroke-width="2.65996" stroke-linecap="round" stroke-linejoin="round"/>
<path d="M762.76 1008.74L762.76 1008.74L633.78 883.183C633.78 883.183 633.78 883.183 633.78 883.183C632.375 881.814 631.56 879.956 631.498 877.937C631.437 875.916 632.134 874.004 633.454 872.545L633.454 872.545L754.42 738.671C754.421 738.671 754.421 738.67 754.421 738.67C755.74 737.211 757.51 736.385 759.411 736.323L759.416 736.322C759.483 736.32 759.551 736.32 759.647 736.32C761.462 736.32 763.187 737.022 764.533 738.332L893.509 863.889C896.415 866.718 896.567 871.503 893.838 874.532L772.873 1008.4C771.553 1009.86 769.784 1010.69 767.882 1010.75C765.982 1010.81 764.163 1010.11 762.76 1008.74Z" stroke="#EBEAE8" stroke-width="2.65996"/>
</g>
<g opacity="0.2">
<path d="M725.141 370.38C723.495 368.766 721.353 367.924 719.092 368.005C716.838 368.087 714.751 369.078 713.214 370.805L594.249 504.4C592.724 506.109 591.93 508.349 592.005 510.699C592.083 513.05 593.024 515.226 594.661 516.826L680.601 600.998" stroke="#EBEAE8" stroke-width="2.65996" stroke-linecap="round" stroke-linejoin="round"/>
<path d="M704.153 625.823L723.859 643.077C727.01 645.838 731.801 645.668 734.764 642.691L739.255 638.207" stroke="#EBEAE8" stroke-width="2.65996" stroke-linecap="round" stroke-linejoin="round"/>
<path d="M689.136 609.836L692.891 613.467" stroke="#EBEAE8" stroke-width="2.65996" stroke-linecap="round" stroke-linejoin="round"/>
<path d="M750.76 642.74L750.76 642.74L621.78 517.183C621.78 517.183 621.78 517.183 621.78 517.183C620.375 515.814 619.56 513.956 619.498 511.937C619.437 509.916 620.134 508.004 621.454 506.545L621.454 506.545L742.42 372.671C742.421 372.671 742.421 372.67 742.421 372.67C743.74 371.211 745.51 370.385 747.411 370.323L747.416 370.322C747.483 370.32 747.551 370.32 747.647 370.32C749.462 370.32 751.187 371.022 752.533 372.332L881.509 497.889C884.415 500.718 884.567 505.503 881.838 508.532L760.873 642.401C759.553 643.86 757.784 644.687 755.882 644.749C753.982 644.811 752.163 644.106 750.76 642.74Z" stroke="#EBEAE8" stroke-width="2.65996"/>
</g>
<g opacity="0.2">
<path d="M897.141 190.38C895.495 188.766 893.353 187.924 891.092 188.005C888.838 188.087 886.751 189.078 885.214 190.805L766.249 324.4C764.724 326.109 763.93 328.349 764.005 330.699C764.083 333.05 765.024 335.226 766.661 336.826L852.601 420.998" stroke="#EBEAE8" stroke-width="2.65996" stroke-linecap="round" stroke-linejoin="round"/>
<path d="M876.153 445.823L895.859 463.077C899.01 465.838 903.801 465.668 906.764 462.691L911.255 458.207" stroke="#EBEAE8" stroke-width="2.65996" stroke-linecap="round" stroke-linejoin="round"/>
<path d="M861.136 429.836L864.891 433.467" stroke="#EBEAE8" stroke-width="2.65996" stroke-linecap="round" stroke-linejoin="round"/>
<path d="M922.76 462.74L922.76 462.74L793.78 337.183C793.78 337.183 793.78 337.183 793.78 337.183C792.375 335.814 791.56 333.956 791.498 331.937C791.437 329.916 792.134 328.004 793.454 326.545L793.454 326.545L914.42 192.671C914.421 192.671 914.421 192.67 914.421 192.67C915.74 191.211 917.51 190.385 919.411 190.323L919.416 190.322C919.483 190.32 919.551 190.32 919.647 190.32C921.462 190.32 923.187 191.022 924.533 192.332L1053.51 317.889C1056.41 320.718 1056.57 325.503 1053.84 328.532L932.873 462.401C931.553 463.86 929.784 464.687 927.882 464.749C925.982 464.811 924.163 464.106 922.76 462.74Z" stroke="#EBEAE8" stroke-width="2.65996"/>
</g>
<g opacity="0.2">
<path d="M708.141 4.38027C706.495 2.76634 704.353 1.92399 702.092 2.00539C699.838 2.0868 697.751 3.0778 696.214 4.80498L577.249 138.4C575.724 140.109 574.93 142.349 575.005 144.699C575.083 147.05 576.024 149.226 577.661 150.826L663.601 234.998" stroke="#EBEAE8" stroke-width="2.65996" stroke-linecap="round" stroke-linejoin="round"/>
<path d="M687.153 259.823L706.859 277.077C710.01 279.838 714.801 279.668 717.764 276.691L722.255 272.207" stroke="#EBEAE8" stroke-width="2.65996" stroke-linecap="round" stroke-linejoin="round"/>
<path d="M672.136 243.836L675.891 247.467" stroke="#EBEAE8" stroke-width="2.65996" stroke-linecap="round" stroke-linejoin="round"/>
<path d="M733.76 276.74L733.76 276.74L604.78 151.183C604.78 151.183 604.78 151.183 604.78 151.183C603.375 149.814 602.56 147.956 602.498 145.937C602.437 143.916 603.134 142.004 604.454 140.545L604.454 140.545L725.42 6.67059C725.421 6.67052 725.421 6.67045 725.421 6.67038C726.74 5.21117 728.51 4.38477 730.411 4.32257L730.416 4.32235C730.483 4.31987 730.551 4.31973 730.647 4.31973C732.462 4.31973 734.187 5.02194 735.533 6.33183L864.509 131.889C867.415 134.718 867.567 139.503 864.838 142.532L743.873 276.401C742.553 277.86 740.784 278.687 738.882 278.749C736.982 278.811 735.163 278.106 733.76 276.74Z" stroke="#EBEAE8" stroke-width="2.65996"/>
</g>
<path d="M319.683 14.4635C315.778 10.6369 310.701 8.6396 305.34 8.83261C299.996 9.02562 295.048 11.3753 291.402 15.4705L9.33148 332.228C5.71748 336.281 3.83367 341.593 4.01154 347.165C4.19749 352.738 6.42896 357.899 10.3098 361.692L214.077 561.266" stroke="white" stroke-width="7.80899" stroke-linecap="round" stroke-linejoin="round"/>
<path d="M269.92 620.126L316.644 661.037C324.114 667.582 335.474 667.179 342.499 660.122L353.147 649.489" stroke="white" stroke-width="7.80899" stroke-linecap="round" stroke-linejoin="round"/>
<path d="M234.313 582.22L243.215 590.83" stroke="white" stroke-width="7.80899" stroke-linecap="round" stroke-linejoin="round"/>
<path d="M380.951 659.699L380.951 659.699L75.1349 362C75.1347 361.999 75.1345 361.999 75.1343 361.999C71.9442 358.892 70.0902 354.672 69.9506 350.076C69.8108 345.473 71.398 341.131 74.3937 337.817L74.3942 337.816L361.21 20.3966C364.205 17.0837 368.211 15.217 372.509 15.0763L372.518 15.076L372.526 15.0757C372.669 15.0704 372.816 15.07 373.045 15.07C377.149 15.07 381.053 16.6559 384.106 19.6279L689.914 317.327C689.914 317.327 689.914 317.327 689.914 317.327C696.512 323.753 696.862 334.639 690.659 341.522L403.846 658.93C403.846 658.93 403.846 658.93 403.846 658.93C400.851 662.243 396.846 664.109 392.547 664.25C388.249 664.391 384.132 662.797 380.951 659.699Z" stroke="white" stroke-width="7.80899"/>
<path fill-rule="evenodd" clip-rule="evenodd" d="M364.213 218.838C364.549 219.89 364.862 220.204 365.96 219.913C375.14 217.45 384.387 217.315 393.657 219.532C394.754 219.801 395.067 219.487 395.336 218.413C396.5 214.024 397.709 209.658 398.919 205.269C400.799 198.507 402.68 191.723 404.583 184.961C400.419 178.647 395.448 173.296 389.335 169.355C383.424 165.548 377.356 164.698 371.087 168.28C363.944 172.355 358.571 178.535 353.981 185.7C354.764 188.32 355.548 190.939 356.354 193.559C358.974 202 361.616 210.397 364.213 218.838Z" fill="#ECB000"/>
<path fill-rule="evenodd" clip-rule="evenodd" d="M422.407 446.864C421.13 437.213 419.854 427.563 418.6 417.913C417.593 410.121 416.607 402.306 415.6 394.515C414.503 385.939 413.361 377.386 412.264 368.81C410.808 357.391 409.398 345.949 407.92 334.53C406.375 322.574 404.763 310.617 403.24 298.66C401.852 287.868 400.531 277.054 399.143 266.239C397.62 254.461 396.053 242.706 394.553 230.929C394.396 229.765 393.993 229.272 392.963 229.026C388.731 228.041 384.455 227.458 380.133 227.615C375.565 227.593 371.087 228.265 366.654 229.451C365.691 229.698 365.288 230.19 365.176 231.242C364.46 238.81 363.721 246.378 362.982 253.947C361.952 264.336 360.9 274.725 359.847 285.114C358.862 294.988 357.855 304.863 356.869 314.759C355.817 325.507 354.809 336.254 353.735 347.002C352.481 359.451 351.137 371.878 349.906 384.327C348.607 397.224 347.398 410.121 346.144 422.995C344.846 436.206 343.502 449.416 342.159 462.627C342.069 463.545 342.114 464.239 342.696 464.911C344.689 467.284 346.637 469.68 348.585 472.076C354.742 479.599 360.877 487.122 367.012 494.645C372.184 500.982 377.312 507.341 382.507 513.655C384.029 515.513 384.074 515.446 385.596 513.453C391.463 505.773 397.329 498.093 403.195 490.436C410.002 481.547 416.831 472.68 423.683 463.813C424.108 463.276 424.534 462.783 424.422 461.955C423.728 456.962 423.056 451.924 422.407 446.864Z" fill="#ECB000"/>
</svg>
