<svg width="234" height="643" viewBox="0 0 234 643" fill="none" xmlns="http://www.w3.org/2000/svg">
<g opacity="0.2">
<path d="M272.312 407.114C271.454 406.273 270.339 405.834 269.161 405.877C267.987 405.919 266.9 406.435 266.099 407.335L204.131 476.924C203.337 477.814 202.923 478.981 202.962 480.205C203.003 481.429 203.494 482.563 204.346 483.396L249.112 527.241" stroke="#EBEAE8" stroke-width="1.38555" stroke-linecap="round" stroke-linejoin="round"/>
<path d="M285.656 548.985L285.656 548.985L218.471 483.583C217.739 482.87 217.315 481.902 217.283 480.85C217.251 479.797 217.614 478.802 218.301 478.042L218.301 478.041L281.312 408.307C281.312 408.307 281.312 408.307 281.312 408.307C281.999 407.547 282.921 407.117 283.911 407.084L283.914 407.084C283.949 407.083 283.984 407.083 284.034 407.083C284.98 407.083 285.878 407.449 286.579 408.131L353.762 473.533C355.276 475.006 355.355 477.499 353.933 479.077L290.923 548.808C290.236 549.568 289.314 549.999 288.324 550.031L288.347 550.724L288.324 550.031C287.334 550.064 286.387 549.696 285.656 548.985Z" stroke="#EBEAE8" stroke-width="1.38555"/>
</g>
<path d="M160.068 131.858C158.113 129.942 155.57 128.941 152.886 129.038C150.21 129.135 147.733 130.311 145.907 132.362L4.66956 290.968C2.85997 292.997 1.91671 295.657 2.00578 298.447C2.09889 301.237 3.21622 303.821 5.15941 305.721L107.189 405.651" stroke="white" stroke-width="3.91009" stroke-linecap="round" stroke-linejoin="round"/>
<path d="M135.15 435.123L158.545 455.607C162.286 458.885 167.974 458.683 171.492 455.149L176.823 449.826" stroke="white" stroke-width="3.91009" stroke-linecap="round" stroke-linejoin="round"/>
<path d="M117.322 416.142L121.779 420.453" stroke="white" stroke-width="3.91009" stroke-linecap="round" stroke-linejoin="round"/>
<path d="M190.745 454.938L190.745 454.937L37.6177 305.874C37.6176 305.874 37.6175 305.874 37.6174 305.874C36.02 304.318 35.0917 302.206 35.0218 299.904C34.9518 297.599 35.7465 295.425 37.2465 293.766L37.2468 293.766L180.86 134.828C180.86 134.828 180.86 134.828 180.861 134.828C182.36 133.169 184.366 132.235 186.518 132.164L186.526 132.164C186.598 132.161 186.672 132.161 186.786 132.161C188.841 132.161 190.796 132.955 192.325 134.443L345.448 283.506C345.448 283.506 345.448 283.506 345.448 283.506C348.752 286.724 348.927 292.174 345.821 295.621L202.209 454.552C202.209 454.553 202.209 454.553 202.209 454.553C200.709 456.211 198.704 457.146 196.551 457.216C194.399 457.287 192.338 456.489 190.745 454.938Z" stroke="white" stroke-width="3.91009"/>
<path fill-rule="evenodd" clip-rule="evenodd" d="M180.371 246.573C180.548 247.127 180.713 247.292 181.29 247.139C186.124 245.842 190.993 245.771 195.874 246.938C196.452 247.08 196.617 246.915 196.758 246.349C197.371 244.038 198.008 241.739 198.645 239.428C199.635 235.868 200.625 232.296 201.627 228.735C199.434 225.411 196.817 222.593 193.599 220.518C190.486 218.514 187.291 218.066 183.99 219.952C180.229 222.098 177.4 225.352 174.983 229.124C175.396 230.504 175.808 231.883 176.233 233.262C177.612 237.707 179.003 242.128 180.371 246.573Z" fill="#ECB000"/>
<path fill-rule="evenodd" clip-rule="evenodd" d="M211.012 366.638C210.34 361.557 209.668 356.476 209.008 351.395C208.477 347.292 207.958 343.177 207.428 339.074C206.85 334.559 206.249 330.055 205.671 325.54C204.905 319.527 204.162 313.503 203.384 307.49C202.571 301.195 201.722 294.899 200.92 288.603C200.189 282.921 199.493 277.226 198.762 271.532C197.961 265.331 197.136 259.141 196.346 252.94C196.263 252.327 196.051 252.067 195.509 251.938C193.28 251.419 191.029 251.112 188.753 251.195C186.348 251.183 183.99 251.537 181.656 252.162C181.149 252.291 180.937 252.551 180.878 253.105C180.5 257.09 180.111 261.075 179.722 265.06C179.18 270.53 178.626 276 178.072 281.471C177.553 286.67 177.023 291.869 176.504 297.08C175.95 302.739 175.419 308.398 174.853 314.057C174.193 320.612 173.486 327.155 172.837 333.71C172.153 340.501 171.517 347.292 170.857 354.071C170.173 361.027 169.465 367.982 168.758 374.938C168.711 375.422 168.734 375.787 169.041 376.141C170.09 377.391 171.116 378.652 172.142 379.914C175.384 383.875 178.614 387.836 181.844 391.797C184.568 395.134 187.268 398.482 190.003 401.807C190.805 402.785 190.828 402.75 191.63 401.701C194.719 397.657 197.808 393.613 200.896 389.581C204.48 384.9 208.076 380.232 211.684 375.563C211.908 375.28 212.132 375.021 212.073 374.585C211.707 371.956 211.354 369.303 211.012 366.638Z" fill="#ECB000"/>
<g opacity="0.2">
<path d="M221.392 2.23729C220.536 1.39835 219.423 0.960489 218.248 1.0028C217.076 1.04512 215.991 1.56025 215.192 2.45806L153.352 71.902C152.56 72.7906 152.147 73.9551 152.186 75.1768C152.227 76.3984 152.716 77.5298 153.567 78.3614L198.239 122.115" stroke="#EBEAE8" stroke-width="1.71199" stroke-linecap="round" stroke-linejoin="round"/>
<path d="M210.482 135.02L220.725 143.988C222.363 145.423 224.853 145.335 226.394 143.788L228.728 141.457" stroke="#EBEAE8" stroke-width="1.71199" stroke-linecap="round" stroke-linejoin="round"/>
<path d="M202.676 126.709L204.628 128.597" stroke="#EBEAE8" stroke-width="1.71199" stroke-linecap="round" stroke-linejoin="round"/>
<path d="M234.824 143.695L234.824 143.696C235.521 144.375 236.424 144.724 237.366 144.693L237.394 145.549L237.366 144.693C238.308 144.662 239.187 144.253 239.843 143.527C239.843 143.527 239.843 143.527 239.843 143.527L302.722 73.9405L234.824 143.695ZM234.824 143.695L167.779 78.4298C167.779 78.4297 167.779 78.4297 167.778 78.4296C167.079 77.7485 166.673 76.8234 166.642 75.8158C166.611 74.8066 166.959 73.8547 167.616 73.1282L167.616 73.128M234.824 143.695L167.616 73.128M167.616 73.128L230.496 3.5389C230.496 3.53885 230.496 3.53881 230.496 3.53876C231.153 2.81255 232.031 2.40336 232.973 2.37252L232.977 2.37239M167.616 73.128L232.977 2.37239M232.977 2.37239C233.008 2.37123 233.04 2.37113 233.09 2.37113C233.99 2.37113 234.846 2.7188 235.516 3.37038L302.559 68.636M232.977 2.37239L302.559 68.636M302.559 68.636C302.559 68.6361 302.559 68.6361 302.559 68.6361C304.005 70.0446 304.082 72.4304 302.723 73.9396L302.559 68.636Z" stroke="#EBEAE8" stroke-width="1.71199"/>
</g>
</svg>