<svg width="336" height="300" viewBox="0 0 336 300" fill="none" xmlns="http://www.w3.org/2000/svg">
<path d="M331.946 270.741C331.946 270.845 207.988 270.897 135.417 270.897C62.8448 270.897 4 270.845 4 270.741C4 270.638 62.8448 270.586 135.417 270.586C207.988 270.586 331.946 270.638 331.946 270.741Z" fill="#263238"/>
<path d="M325.24 41.6965H113.016V264.466H325.24V41.6965Z" fill="#FAFAFA"/>
<path d="M325.291 264.466C325.291 262.598 325.239 177.173 325.136 41.6963L325.291 41.9038C261.784 41.9557 199.106 41.9557 113.067 42.0075L113.274 41.7482C113.274 121.312 113.274 196.883 113.274 264.517L113.067 264.258C248.213 264.362 323.685 264.466 325.291 264.466C323.685 264.466 248.213 264.569 113.067 264.725H112.859V264.466C112.859 196.831 112.859 121.26 112.859 41.6963V41.437H113.067C199.106 41.437 261.784 41.4889 325.291 41.4889H325.447V41.6963C325.343 177.225 325.291 262.65 325.291 264.466Z" fill="#263238"/>
<path d="M139.95 229.715C139.846 229.715 139.743 194.86 139.743 151.914C139.743 108.916 139.846 74.1133 139.95 74.1133C140.053 74.1133 140.157 108.916 140.157 151.914C140.157 194.86 140.053 229.715 139.95 229.715Z" fill="#171751"/>
<path d="M132.232 80.9078C134.12 80.9078 135.651 80.7917 135.651 80.6485C135.651 80.5053 134.12 80.3892 132.232 80.3892C130.344 80.3892 128.813 80.5053 128.813 80.6485C128.813 80.7917 130.344 80.9078 132.232 80.9078Z" fill="#171751"/>
<path d="M132.232 91.1776C134.12 91.1776 135.651 91.0615 135.651 90.9183C135.651 90.775 134.12 90.6589 132.232 90.6589C130.344 90.6589 128.813 90.775 128.813 90.9183C128.813 91.0615 130.344 91.1776 132.232 91.1776Z" fill="#171751"/>
<path d="M132.232 101.447C134.12 101.447 135.651 101.331 135.651 101.188C135.651 101.045 134.12 100.929 132.232 100.929C130.344 100.929 128.813 101.045 128.813 101.188C128.813 101.331 130.344 101.447 132.232 101.447Z" fill="#171751"/>
<path d="M132.232 111.665C134.12 111.665 135.651 111.549 135.651 111.406C135.651 111.262 134.12 111.146 132.232 111.146C130.344 111.146 128.813 111.262 128.813 111.406C128.813 111.549 130.344 111.665 132.232 111.665Z" fill="#171751"/>
<path d="M132.232 121.935C134.12 121.935 135.651 121.819 135.651 121.675C135.651 121.532 134.12 121.416 132.232 121.416C130.344 121.416 128.813 121.532 128.813 121.675C128.813 121.819 130.344 121.935 132.232 121.935Z" fill="#171751"/>
<path d="M132.232 132.204C134.12 132.204 135.651 132.088 135.651 131.945C135.651 131.802 134.12 131.686 132.232 131.686C130.344 131.686 128.813 131.802 128.813 131.945C128.813 132.088 130.344 132.204 132.232 132.204Z" fill="#171751"/>
<path d="M132.232 142.422C134.12 142.422 135.651 142.306 135.651 142.163C135.651 142.02 134.12 141.904 132.232 141.904C130.344 141.904 128.813 142.02 128.813 142.163C128.813 142.306 130.344 142.422 132.232 142.422Z" fill="#171751"/>
<path d="M132.232 152.692C134.12 152.692 135.651 152.576 135.651 152.432C135.651 152.289 134.12 152.173 132.232 152.173C130.344 152.173 128.813 152.289 128.813 152.432C128.813 152.576 130.344 152.692 132.232 152.692Z" fill="#171751"/>
<path d="M132.232 162.962C134.12 162.962 135.651 162.845 135.651 162.702C135.651 162.559 134.12 162.443 132.232 162.443C130.344 162.443 128.813 162.559 128.813 162.702C128.813 162.845 130.344 162.962 132.232 162.962Z" fill="#171751"/>
<path d="M132.232 173.179C134.12 173.179 135.651 173.063 135.651 172.92C135.651 172.777 134.12 172.661 132.232 172.661C130.344 172.661 128.813 172.777 128.813 172.92C128.813 173.063 130.344 173.179 132.232 173.179Z" fill="#171751"/>
<path d="M132.232 183.449C134.12 183.449 135.651 183.333 135.651 183.19C135.651 183.047 134.12 182.93 132.232 182.93C130.344 182.93 128.813 183.047 128.813 183.19C128.813 183.333 130.344 183.449 132.232 183.449Z" fill="#171751"/>
<path d="M132.232 193.719C134.12 193.719 135.651 193.603 135.651 193.46C135.651 193.316 134.12 193.2 132.232 193.2C130.344 193.2 128.813 193.316 128.813 193.46C128.813 193.603 130.344 193.719 132.232 193.719Z" fill="#171751"/>
<path d="M132.232 203.937C134.12 203.937 135.651 203.821 135.651 203.677C135.651 203.534 134.12 203.418 132.232 203.418C130.344 203.418 128.813 203.534 128.813 203.677C128.813 203.821 130.344 203.937 132.232 203.937Z" fill="#171751"/>
<path d="M132.232 214.206C134.12 214.206 135.651 214.09 135.651 213.947C135.651 213.804 134.12 213.688 132.232 213.688C130.344 213.688 128.813 213.804 128.813 213.947C128.813 214.09 130.344 214.206 132.232 214.206Z" fill="#171751"/>
<path d="M132.232 224.476C134.12 224.476 135.651 224.36 135.651 224.217C135.651 224.073 134.12 223.957 132.232 223.957C130.344 223.957 128.813 224.073 128.813 224.217C128.813 224.36 130.344 224.476 132.232 224.476Z" fill="#171751"/>
<path d="M154.299 80.3375C159.22 80.3375 163.209 80.2214 163.209 80.0782C163.209 79.935 159.22 79.8188 154.299 79.8188C149.379 79.8188 145.39 79.935 145.39 80.0782C145.39 80.2214 149.379 80.3375 154.299 80.3375Z" fill="#E8505B"/>
<path d="M154.299 224.476C159.22 224.476 163.209 224.36 163.209 224.217C163.209 224.073 159.22 223.957 154.299 223.957C149.379 223.957 145.39 224.073 145.39 224.217C145.39 224.36 149.379 224.476 154.299 224.476Z" fill="#E8505B"/>
<path d="M171.393 101.447C180.605 101.447 188.073 101.331 188.073 101.188C188.073 101.045 180.605 100.929 171.393 100.929C162.181 100.929 154.713 101.045 154.713 101.188C154.713 101.331 162.181 101.447 171.393 101.447Z" fill="#E8505B"/>
<path d="M210.036 101.447C219.248 101.447 226.716 101.331 226.716 101.188C226.716 101.045 219.248 100.929 210.036 100.929C200.824 100.929 193.356 101.045 193.356 101.188C193.356 101.331 200.824 101.447 210.036 101.447Z" fill="#171751"/>
<path d="M211.952 111.406C211.952 111.561 200.919 111.665 187.347 111.665C173.776 111.665 162.742 111.561 162.742 111.406C162.742 111.25 173.776 111.146 187.347 111.146C200.919 111.146 211.952 111.25 211.952 111.406Z" fill="#171751"/>
<path d="M211.952 121.675C211.952 121.831 200.919 121.935 187.347 121.935C173.776 121.935 162.742 121.831 162.742 121.675C162.742 121.52 173.776 121.416 187.347 121.416C200.919 121.416 211.952 121.52 211.952 121.675Z" fill="#171751"/>
<path d="M245.829 152.432C245.829 152.588 234.796 152.692 221.224 152.692C207.653 152.692 196.619 152.588 196.619 152.432C196.619 152.277 207.653 152.173 221.224 152.173C234.848 152.173 245.829 152.277 245.829 152.432Z" fill="#171751"/>
<path d="M231.222 131.945C231.222 132.101 220.188 132.205 206.617 132.205C193.045 132.205 182.012 132.101 182.012 131.945C182.012 131.79 193.045 131.686 206.617 131.686C220.188 131.634 231.222 131.79 231.222 131.945Z" fill="#171751"/>
<path d="M291.362 131.945C291.362 132.101 280.328 132.205 266.757 132.205C253.185 132.205 242.152 132.101 242.152 131.945C242.152 131.79 253.185 131.686 266.757 131.686C280.328 131.634 291.362 131.79 291.362 131.945Z" fill="#171751"/>
<path d="M270.434 111.406C270.434 111.561 259.401 111.665 245.829 111.665C232.258 111.665 221.224 111.561 221.224 111.406C221.224 111.25 232.258 111.146 245.829 111.146C259.453 111.146 270.434 111.25 270.434 111.406Z" fill="#FAFAFA"/>
<path d="M304.468 152.432C304.468 152.588 293.434 152.692 279.863 152.692C266.291 152.692 255.258 152.588 255.258 152.432C255.258 152.277 266.291 152.173 279.863 152.173C293.434 152.173 304.468 152.277 304.468 152.432Z" fill="#FAFAFA"/>
<path d="M297.681 121.675C297.681 121.831 280.587 121.935 259.453 121.935C238.318 121.935 221.224 121.831 221.224 121.675C221.224 121.52 238.318 121.416 259.453 121.416C280.535 121.416 297.681 121.52 297.681 121.675Z" fill="#455A64"/>
<path d="M154.299 91.1776C159.22 91.1776 163.209 91.0615 163.209 90.9183C163.209 90.775 159.22 90.6589 154.299 90.6589C149.379 90.6589 145.39 90.775 145.39 90.9183C145.39 91.0615 149.379 91.1776 154.299 91.1776Z" fill="#FAFAFA"/>
<path d="M154.299 214.206C159.22 214.206 163.209 214.09 163.209 213.947C163.209 213.804 159.22 213.688 154.299 213.688C149.379 213.688 145.39 213.804 145.39 213.947C145.39 214.09 149.379 214.206 154.299 214.206Z" fill="#FAFAFA"/>
<path d="M163.157 132.204C168.077 132.204 172.066 132.088 172.066 131.945C172.066 131.802 168.077 131.686 163.157 131.686C158.236 131.686 154.247 131.802 154.247 131.945C154.247 132.088 158.236 132.204 163.157 132.204Z" fill="#FAFAFA"/>
<path d="M306.228 132.204C311.149 132.204 315.138 132.088 315.138 131.945C315.138 131.802 311.149 131.686 306.228 131.686C301.307 131.686 297.318 131.802 297.318 131.945C297.318 132.088 301.307 132.204 306.228 132.204Z" fill="#E8505B"/>
<path d="M171.393 173.128C180.605 173.128 188.073 173.011 188.073 172.868C188.073 172.725 180.605 172.609 171.393 172.609C162.181 172.609 154.713 172.725 154.713 172.868C154.713 173.011 162.181 173.128 171.393 173.128Z" fill="#E8505B"/>
<path d="M210.036 173.128C219.248 173.128 226.716 173.011 226.716 172.868C226.716 172.725 219.248 172.609 210.036 172.609C200.824 172.609 193.356 172.725 193.356 172.868C193.356 173.011 200.824 173.128 210.036 173.128Z" fill="#171751"/>
<path d="M211.952 183.138C211.952 183.294 200.919 183.397 187.347 183.397C173.776 183.397 162.742 183.294 162.742 183.138C162.742 182.982 173.776 182.879 187.347 182.879C200.919 182.879 211.952 182.982 211.952 183.138Z" fill="#171751"/>
<path d="M211.952 193.408C211.952 193.563 200.919 193.667 187.347 193.667C173.776 193.667 162.742 193.563 162.742 193.408C162.742 193.252 173.776 193.148 187.347 193.148C200.919 193.096 211.952 193.252 211.952 193.408Z" fill="#171751"/>
<path d="M231.222 203.626C231.222 203.781 220.188 203.885 206.617 203.885C193.045 203.885 182.012 203.781 182.012 203.626C182.012 203.47 193.045 203.366 206.617 203.366C220.188 203.366 231.222 203.47 231.222 203.626Z" fill="#171751"/>
<path d="M291.362 203.626C291.362 203.781 280.328 203.885 266.757 203.885C253.185 203.885 242.152 203.781 242.152 203.626C242.152 203.47 253.185 203.366 266.757 203.366C280.328 203.366 291.362 203.47 291.362 203.626Z" fill="#171751"/>
<path d="M270.434 183.138C270.434 183.294 259.401 183.397 245.829 183.397C232.258 183.397 221.224 183.294 221.224 183.138C221.224 182.982 232.258 182.879 245.829 182.879C259.453 182.879 270.434 182.982 270.434 183.138Z" fill="#FAFAFA"/>
<path d="M297.681 193.408C297.681 193.563 280.587 193.667 259.453 193.667C238.318 193.667 221.224 193.563 221.224 193.408C221.224 193.252 238.318 193.148 259.453 193.148C280.535 193.096 297.681 193.252 297.681 193.408Z" fill="#455A64"/>
<path d="M163.157 203.885C168.077 203.885 172.066 203.769 172.066 203.626C172.066 203.482 168.077 203.366 163.157 203.366C158.236 203.366 154.247 203.482 154.247 203.626C154.247 203.769 158.236 203.885 163.157 203.885Z" fill="#FAFAFA"/>
<path d="M306.228 203.885C311.149 203.885 315.138 203.769 315.138 203.626C315.138 203.482 311.149 203.366 306.228 203.366C301.307 203.366 297.318 203.482 297.318 203.626C297.318 203.769 301.307 203.885 306.228 203.885Z" fill="#E8505B"/>
<path d="M76.5999 267.662L76.4963 262.061L66.0327 262.216L66.1363 270.411L66.8097 270.463C69.7105 270.567 81.5209 270.826 83.4375 270.204C85.5095 269.53 76.5999 267.662 76.5999 267.662Z" fill="#ECB000"/>
<g opacity="0.4">
<g opacity="0.4">
<path opacity="0.4" d="M80.9501 268.7C80.9501 268.7 84.0581 269.53 83.6955 270.048C83.3329 270.567 71.3671 270.774 66.0835 270.359V270.1L80.0177 269.996C80.0695 270.1 80.3285 268.752 80.9501 268.7Z" fill="white"/>
</g>
</g>
<path d="M65.9287 270.152C65.9287 270.152 65.9805 270.152 66.0841 270.152C66.2395 270.152 66.3949 270.152 66.6021 270.152C67.1201 270.152 67.7417 270.204 68.5187 270.204C70.1245 270.255 72.3519 270.255 74.7865 270.204C77.2211 270.152 79.4485 270.1 81.0543 269.996C81.7795 269.945 82.4529 269.893 82.9709 269.893C83.1781 269.893 83.3335 269.841 83.4889 269.841C83.5925 269.841 83.6443 269.841 83.6443 269.841C83.6443 269.841 83.5925 269.841 83.4889 269.841C83.3335 269.841 83.1781 269.841 82.9709 269.841C82.4529 269.841 81.8313 269.893 81.0543 269.893C79.4485 269.945 77.2211 269.996 74.7865 270.048C72.3519 270.1 70.1245 270.1 68.5187 270.048C67.7935 270.048 67.1201 270.048 66.6021 270.048C66.3949 270.048 66.2395 270.048 66.0841 270.048C66.0323 270.152 65.9287 270.152 65.9287 270.152Z" fill="#080014"/>
<path d="M80.0703 270.256C80.1221 270.256 80.1221 269.789 80.4329 269.322C80.6919 268.855 81.1063 268.596 81.0545 268.596C81.0545 268.544 80.5883 268.752 80.3293 269.27C79.9667 269.737 80.0185 270.256 80.0703 270.256Z" fill="#080014"/>
<path d="M77.2528 268.299C77.4024 268.055 77.5039 267.844 77.4795 267.829C77.4551 267.814 77.314 268 77.1644 268.245C77.0148 268.489 76.9133 268.699 76.9378 268.714C76.9622 268.729 77.1032 268.543 77.2528 268.299Z" fill="#080014"/>
<path d="M76.4128 268.035C76.5807 267.879 76.7009 267.736 76.6815 267.715C76.662 267.694 76.5102 267.803 76.3424 267.959C76.1746 268.114 76.0543 268.258 76.0738 268.279C76.0932 268.3 76.245 268.19 76.4128 268.035Z" fill="#080014"/>
<path d="M76.0829 267.354C76.3978 267.353 76.653 267.329 76.6529 267.3C76.6528 267.271 76.3974 267.249 76.0824 267.251C75.7675 267.252 75.5123 267.277 75.5124 267.305C75.5126 267.334 75.768 267.356 76.0829 267.354Z" fill="#080014"/>
<path d="M75.3564 266.625C75.3564 266.677 75.6154 266.78 75.9781 266.78C76.3407 266.78 76.5997 266.729 76.5997 266.677C76.5997 266.625 76.3407 266.677 75.9781 266.625C75.6154 266.625 75.3564 266.573 75.3564 266.625Z" fill="#080014"/>
<path d="M77.2734 267.818C77.2734 267.818 77.5324 267.87 77.9468 267.818C78.154 267.766 78.413 267.715 78.672 267.663C78.8274 267.611 78.9311 267.559 79.0865 267.507C79.1383 267.455 79.2419 267.403 79.2419 267.3C79.2937 267.196 79.1901 267.092 79.1383 267.04C78.4649 266.729 77.8432 267.092 77.636 267.403C77.5324 267.559 77.4288 267.766 77.4288 267.87C77.4288 267.974 77.4288 268.026 77.4288 268.078C77.4288 268.078 77.4806 267.818 77.7396 267.507C77.8432 267.351 78.0504 267.196 78.3094 267.144C78.5684 267.092 78.8793 267.04 79.0865 267.196C79.1901 267.248 79.1383 267.403 79.0347 267.455C78.9311 267.507 78.7756 267.559 78.672 267.611C78.413 267.715 78.2059 267.766 77.9986 267.818C77.5324 267.766 77.2734 267.766 77.2734 267.818Z" fill="#080014"/>
<path d="M77.429 267.818C77.429 267.818 77.5326 267.662 77.4808 267.351C77.4808 267.195 77.429 267.04 77.2736 266.884C77.17 266.729 77.0146 266.521 76.7038 266.573C76.5484 266.573 76.4966 266.781 76.4966 266.884C76.4966 266.988 76.5484 267.092 76.6002 267.195C76.7038 267.351 76.8074 267.507 76.911 267.61C77.1182 267.818 77.2736 267.87 77.3254 267.87C77.3254 267.87 77.17 267.766 77.0146 267.559C76.911 267.455 76.8074 267.299 76.7038 267.144C76.6002 266.988 76.5484 266.729 76.7038 266.729C76.8592 266.729 77.0664 266.884 77.17 266.988C77.2736 267.144 77.3254 267.299 77.3772 267.403C77.4808 267.662 77.429 267.818 77.429 267.818Z" fill="#080014"/>
<path d="M66.1362 267.299C66.1362 267.299 66.447 267.247 66.9132 267.299C67.3794 267.351 68.0528 267.507 68.6226 267.973C69.1924 268.44 69.555 269.011 69.7104 269.426C69.8658 269.893 69.9176 270.152 69.9176 270.152C69.9176 270.152 69.9176 270.1 69.9176 269.944C69.9176 269.789 69.8658 269.633 69.814 269.374C69.6586 268.907 69.3478 268.285 68.7262 267.818C68.1046 267.351 67.4312 267.195 66.965 267.144C66.706 267.144 66.4988 267.144 66.3952 267.144C66.188 267.299 66.1362 267.299 66.1362 267.299Z" fill="#080014"/>
<path d="M67.1277 267.25C67.1563 267.25 67.1765 266.274 67.1728 265.071C67.1691 263.868 67.1429 262.893 67.1143 262.893C67.0857 262.893 67.0655 263.868 67.0692 265.071C67.0729 266.275 67.0991 267.25 67.1277 267.25Z" fill="#080014"/>
<path d="M71.2119 269.218C71.2119 269.27 71.8853 269.374 72.7659 269.322C73.5947 269.322 74.3199 269.218 74.2681 269.167C74.2681 269.115 73.5947 269.167 72.7141 269.167C71.8853 269.218 71.2119 269.167 71.2119 269.218Z" fill="#080014"/>
<path d="M69.1406 269.27C69.1406 269.322 69.1925 269.426 69.2961 269.582C69.348 269.737 69.3998 269.893 69.4517 269.893C69.5035 269.893 69.5035 269.737 69.3998 269.53C69.2961 269.322 69.1406 269.218 69.1406 269.27Z" fill="#080014"/>
<path d="M68.7509 268.669C68.7709 268.649 68.7044 268.551 68.6023 268.451C68.5002 268.35 68.4011 268.286 68.3811 268.306C68.361 268.326 68.4275 268.424 68.5296 268.525C68.6318 268.625 68.7308 268.69 68.7509 268.669Z" fill="#080014"/>
<path d="M67.2236 267.87C67.2236 267.922 67.3792 267.922 67.5347 267.974C67.6902 268.025 67.7939 268.129 67.8457 268.077C67.8975 268.077 67.7939 267.922 67.5865 267.87C67.3791 267.766 67.2236 267.87 67.2236 267.87Z" fill="#080014"/>
<path d="M66.7707 267.808C66.7807 267.781 66.7233 267.735 66.6426 267.706C66.5619 267.676 66.4884 267.673 66.4784 267.7C66.4685 267.727 66.5259 267.773 66.6066 267.803C66.6873 267.833 66.7608 267.835 66.7707 267.808Z" fill="#080014"/>
<path opacity="0.3" d="M66.1363 267.04L76.5481 266.677V265.432L66.0327 266.366L66.1363 267.04Z" fill="black"/>
<path d="M99.0296 267.662L98.8742 262.061L88.4106 262.268L88.566 270.463L89.2394 270.515C92.1402 270.619 103.951 270.826 105.867 270.204C107.991 269.478 99.0296 267.662 99.0296 267.662Z" fill="#ECB000"/>
<g opacity="0.4">
<g opacity="0.4">
<path opacity="0.4" d="M103.433 268.7C103.433 268.7 106.592 269.53 106.178 270.049C105.815 270.567 93.8495 270.827 88.5659 270.463V270.204L102.5 270.049C102.5 270.049 102.811 268.7 103.433 268.7Z" fill="white"/>
</g>
</g>
<path d="M88.4102 270.203C88.4102 270.203 88.462 270.203 88.5656 270.203C88.721 270.203 88.8764 270.203 89.0836 270.203C89.6016 270.203 90.2232 270.203 91.0002 270.255C92.606 270.255 94.8334 270.307 97.268 270.255C99.7026 270.203 101.93 270.1 103.536 270.048C104.261 269.996 104.934 269.945 105.452 269.945C105.66 269.945 105.815 269.893 105.97 269.893C106.074 269.893 106.126 269.893 106.126 269.893C106.126 269.893 106.074 269.893 105.97 269.893C105.815 269.893 105.66 269.893 105.452 269.893C104.934 269.893 104.313 269.945 103.536 269.996C101.93 270.048 99.7026 270.152 97.268 270.203C94.8334 270.255 92.606 270.255 91.0002 270.255C90.275 270.255 89.6016 270.255 89.0836 270.255C88.8764 270.255 88.721 270.255 88.5656 270.255C88.5138 270.203 88.4102 270.203 88.4102 270.203Z" fill="#080014"/>
<path d="M102.501 270.204C102.553 270.204 102.553 269.737 102.812 269.271C103.071 268.804 103.485 268.544 103.433 268.544C103.433 268.492 102.967 268.7 102.708 269.219C102.449 269.737 102.501 270.204 102.501 270.204Z" fill="#080014"/>
<path d="M99.7273 268.31C99.8756 268.065 99.976 267.854 99.9515 267.839C99.927 267.824 99.787 268.011 99.6386 268.256C99.4903 268.502 99.39 268.712 99.4145 268.727C99.439 268.742 99.579 268.555 99.7273 268.31Z" fill="#080014"/>
<path d="M98.8932 268.007C99.0602 267.85 99.1797 267.706 99.1601 267.686C99.1406 267.665 98.9894 267.775 98.8224 267.931C98.6554 268.088 98.5359 268.232 98.5554 268.253C98.575 268.274 98.7262 268.164 98.8932 268.007Z" fill="#080014"/>
<path d="M98.5678 267.362C98.8827 267.359 99.1378 267.334 99.1375 267.305C99.1372 267.277 98.8817 267.256 98.5668 267.259C98.2519 267.262 97.9968 267.288 97.9971 267.316C97.9974 267.345 98.2529 267.366 98.5678 267.362Z" fill="#080014"/>
<path d="M97.7866 266.625C97.7866 266.677 98.0456 266.781 98.4082 266.781C98.7708 266.781 99.0298 266.729 99.0298 266.677C99.0298 266.625 98.7708 266.677 98.4082 266.625C98.0974 266.625 97.7866 266.574 97.7866 266.625Z" fill="#080014"/>
<path d="M99.7549 267.766C99.7549 267.766 100.014 267.818 100.428 267.766C100.635 267.714 100.894 267.663 101.153 267.611C101.309 267.559 101.413 267.507 101.568 267.455C101.62 267.403 101.723 267.351 101.723 267.248C101.723 267.144 101.672 267.04 101.62 266.988C100.946 266.677 100.325 267.04 100.117 267.403C100.014 267.559 99.9103 267.766 99.9103 267.87C99.9103 267.974 99.9103 268.026 99.9103 268.077C99.9103 268.077 99.9621 267.818 100.221 267.507C100.325 267.351 100.532 267.196 100.791 267.144C101.05 267.092 101.361 267.04 101.568 267.196C101.672 267.248 101.62 267.403 101.516 267.455C101.413 267.507 101.257 267.559 101.153 267.611C100.894 267.714 100.687 267.766 100.48 267.818C100.014 267.766 99.7549 267.766 99.7549 267.766Z" fill="#080014"/>
<path d="M99.9104 267.818C99.9104 267.818 100.014 267.662 99.9622 267.351C99.9622 267.195 99.9104 267.04 99.755 266.884C99.6514 266.729 99.496 266.521 99.1852 266.573C99.0298 266.573 98.978 266.781 98.978 266.884C98.978 266.988 99.0298 267.092 99.0816 267.195C99.1852 267.351 99.2888 267.507 99.3924 267.61C99.5996 267.818 99.755 267.87 99.8068 267.87C99.8068 267.87 99.6514 267.766 99.496 267.559C99.3924 267.455 99.2888 267.299 99.1852 267.144C99.0816 266.988 99.0298 266.729 99.1852 266.729C99.3406 266.729 99.5478 266.884 99.6514 266.988C99.755 267.144 99.8068 267.299 99.8586 267.403C99.9622 267.61 99.9104 267.818 99.9104 267.818Z" fill="#080014"/>
<path d="M88.5659 267.351C88.5659 267.351 88.8767 267.299 89.3429 267.351C89.8091 267.403 90.4825 267.559 91.0523 268.025C91.6221 268.44 91.9847 269.063 92.1401 269.478C92.2955 269.945 92.3473 270.204 92.3473 270.204C92.3473 270.204 92.3473 270.152 92.3473 269.996C92.3473 269.841 92.2955 269.685 92.2437 269.426C92.0883 268.959 91.7257 268.337 91.1559 267.87C90.5343 267.403 89.8609 267.247 89.3947 267.196C89.1357 267.196 88.9285 267.196 88.8249 267.247C88.6695 267.299 88.5659 267.351 88.5659 267.351Z" fill="#080014"/>
<path d="M89.6229 267.308C89.6515 267.308 89.6666 266.332 89.6567 265.129C89.6468 263.926 89.6156 262.951 89.587 262.951C89.5584 262.951 89.5432 263.927 89.5531 265.13C89.563 266.333 89.5943 267.308 89.6229 267.308Z" fill="#080014"/>
<path d="M93.6416 269.219C93.6416 269.27 94.315 269.374 95.1956 269.322C96.0244 269.322 96.7496 269.219 96.6978 269.167C96.6978 269.115 96.0244 269.167 95.1438 269.219C94.3668 269.27 93.6416 269.219 93.6416 269.219Z" fill="#080014"/>
<path d="M91.6221 269.271C91.6221 269.322 91.6739 269.426 91.7776 269.582C91.8294 269.738 91.8813 269.893 91.9331 269.893C91.9849 269.893 91.9849 269.738 91.8812 269.53C91.7776 269.374 91.6221 269.271 91.6221 269.271Z" fill="#080014"/>
<path d="M91.19 268.733C91.21 268.713 91.143 268.615 91.0403 268.516C90.9377 268.416 90.8383 268.352 90.8184 268.372C90.7984 268.393 90.8654 268.49 90.9681 268.59C91.0707 268.69 91.1701 268.754 91.19 268.733Z" fill="#080014"/>
<path d="M89.7051 267.922C89.7051 267.974 89.8606 267.974 90.0161 268.026C90.1716 268.077 90.2753 268.181 90.3271 268.129C90.379 268.129 90.2753 267.974 90.0679 267.922C89.8606 267.818 89.7051 267.87 89.7051 267.922Z" fill="#080014"/>
<path d="M89.1968 267.823C89.2066 267.796 89.149 267.75 89.0682 267.721C88.9873 267.692 88.9138 267.69 88.904 267.717C88.8942 267.744 88.9518 267.789 89.0326 267.819C89.1135 267.848 89.187 267.85 89.1968 267.823Z" fill="#080014"/>
<path opacity="0.3" d="M88.566 267.092L99.0296 266.677L98.9778 265.432L88.5142 266.418L88.566 267.092Z" fill="black"/>
<path d="M136.948 99.25C136.119 98.9388 134.202 103.244 134.099 102.103C133.995 100.91 137.051 97.0716 136.222 96.7604C135.083 96.3454 133.166 100.962 133.011 101.325C132.804 101.688 132.286 101.428 132.441 101.117C132.7 100.65 135.497 95.5674 134.358 95.1525C133.736 94.945 133.425 96.0342 133.425 96.0342C133.425 96.0342 131.198 100.962 130.68 100.754C130.162 100.547 131.353 97.5902 131.871 96.6566C132.337 95.723 132.078 95.1006 131.509 95.2562C131.094 95.36 129.54 98.2645 129.126 99.1981C128.66 100.184 127.468 102.829 127.002 101.013C126.536 99.1981 125.5 98.0052 124.982 97.9015C124.464 97.7977 124.101 98.4201 124.464 98.8869C124.775 99.25 125.085 99.9761 125.293 100.547C125.448 101.013 125.552 101.532 125.552 101.999C125.552 103.607 125.396 104.644 125.344 104.904L112.187 122.331L106.748 119.063L101.672 127.881L109.027 132.03C112.912 134.208 117.782 132.964 120.164 129.229L133.736 104.955C134.72 103.762 135.601 102.569 136.067 101.791C137.466 99.5093 137.258 99.3537 136.948 99.25Z" fill="#FFBE9D"/>
<path d="M74.7871 111.335C77.9987 111.594 80.7441 109.105 80.8995 105.889C81.0031 102.829 81.1067 99.6649 81.1067 99.6649C81.1067 99.6649 85.7687 99.25 86.1313 94.582C86.4939 89.9658 86.2349 79.5405 86.2349 79.5405L86.3903 79.4886C81.1585 76.8434 74.9425 76.999 70.0733 80.2666L69.3481 80.7335L69.6071 105.63C69.5553 108.69 71.8345 111.128 74.7871 111.335Z" fill="#FFBE9D"/>
<path d="M85.0434 87.4916C85.3097 87.2317 85.3152 86.8048 85.0556 86.5381C84.796 86.2715 84.3696 86.266 84.1033 86.5259C83.837 86.7859 83.8315 87.2128 84.0911 87.4794C84.3507 87.7461 84.7771 87.7516 85.0434 87.4916Z" fill="#080014"/>
<path d="M85.872 86.6982C85.8202 86.75 85.354 86.387 84.7324 86.3351C84.1108 86.2832 83.5928 86.5944 83.541 86.4907C83.4892 86.4388 83.5928 86.3351 83.8 86.1795C84.0072 86.0239 84.3698 85.9202 84.7324 85.9202C85.1468 85.972 85.4576 86.1276 85.6648 86.2832C85.872 86.5426 85.9238 86.6463 85.872 86.6982Z" fill="#080014"/>
<path d="M78.2346 87.5371C78.4485 87.2325 78.3754 86.8119 78.0712 86.5977C77.767 86.3834 77.347 86.4567 77.133 86.7613C76.9191 87.0658 76.9922 87.4864 77.2964 87.7007C77.6006 87.9149 78.0206 87.8417 78.2346 87.5371Z" fill="#080014"/>
<path d="M78.9316 86.8539C78.8798 86.9058 78.4136 86.5427 77.792 86.4909C77.1704 86.439 76.6524 86.7502 76.6006 86.6465C76.5488 86.5946 76.6524 86.4909 76.8596 86.3353C77.0668 86.1797 77.4294 86.0759 77.792 86.0759C78.2064 86.1278 78.5172 86.2834 78.7244 86.439C78.9316 86.6465 78.9834 86.8021 78.9316 86.8539Z" fill="#080014"/>
<path d="M81.2108 91.7808C81.2108 91.729 81.6252 91.6771 82.2468 91.6252C82.4022 91.6252 82.5576 91.5734 82.5576 91.5215C82.6094 91.4178 82.5576 91.2622 82.454 91.0547C82.2986 90.6397 82.195 90.1729 82.0396 89.7061C81.4698 87.8389 81.0554 86.2829 81.159 86.231C81.2626 86.1792 81.7806 87.6833 82.4022 89.6024C82.5576 90.0692 82.6612 90.4841 82.8166 90.9509C82.8684 91.1584 82.972 91.3659 82.8684 91.6252C82.8166 91.7808 82.6612 91.8327 82.5576 91.8846C82.454 91.9364 82.3504 91.8846 82.2468 91.8846C81.6252 91.8846 81.2108 91.8327 81.2108 91.7808Z" fill="#080014"/>
<path d="M85.2511 77.4138C83.2827 76.6876 78.7243 75.5466 73.4925 76.8432C73.4925 76.8432 69.5039 78.3474 69.2967 80.4739C69.0895 82.6005 69.3485 86.1274 69.3485 86.1274H69.6075L69.5038 90.3287L71.0578 90.1212L71.265 84.8826C71.265 84.8826 74.0105 83.0154 74.0623 80.059C75.4091 79.9034 81.8841 79.1254 86.3389 80.6295V79.5922C86.3389 78.9179 85.8727 77.6212 85.2511 77.4138Z" fill="#080014"/>
<path d="M81.1586 99.7166C81.1586 99.7166 78.206 99.6647 75.2534 97.3826C75.2534 97.3826 76.3412 100.858 81.055 100.91L81.1586 99.7166Z" fill="#EB996E"/>
<path d="M77.6997 85.2975C78.3555 85.2451 78.8817 85.1333 78.8749 85.0477C78.868 84.9622 78.3308 84.9354 77.6749 84.9878C77.019 85.0403 76.4929 85.1521 76.4997 85.2376C76.5065 85.3231 77.0438 85.3499 77.6997 85.2975Z" fill="#080014"/>
<path d="M85.5101 84.2602C85.4583 84.3639 84.9921 84.1564 84.3705 84.2083C83.7489 84.2602 83.3345 84.5195 83.2309 84.4677C83.1791 84.4158 83.5935 83.949 84.3187 83.8971C85.0439 83.7934 85.5619 84.1564 85.5101 84.2602Z" fill="#080014"/>
<path d="M82.0383 93.7C82.0901 93.7518 81.3649 94.1149 80.5361 93.8556C79.6555 93.5962 79.2411 92.9738 79.2929 92.922C79.3447 92.8701 79.8627 93.3369 80.5879 93.5444C81.3649 93.7518 82.0383 93.5962 82.0383 93.7Z" fill="white"/>
<path d="M69.7624 85.972C69.7624 85.6089 69.4516 85.2977 69.089 85.2458C68.2084 85.2458 66.8098 85.5571 66.7062 87.9429C66.499 91.3662 69.7624 90.4844 69.8142 90.3807C69.7624 90.3807 69.7624 87.3205 69.7624 85.972Z" fill="#FFBE9D"/>
<path d="M69.0383 89.0849C69.0383 89.0849 68.9865 89.1368 68.8829 89.1887C68.7793 89.2405 68.6239 89.2405 68.4167 89.1887C68.0541 89.0331 67.7951 88.4625 67.7951 87.8401C67.7951 87.5289 67.8987 87.2177 68.0023 87.0102C68.1059 86.7509 68.3131 86.5953 68.4685 86.5953C68.6757 86.5434 68.7793 86.699 68.8311 86.8028C68.8829 86.9065 68.8311 86.9584 68.8829 86.9584C68.8829 86.9584 68.9347 86.9065 68.9347 86.7509C68.9347 86.699 68.8829 86.5953 68.8311 86.5434C68.7275 86.4916 68.6239 86.4397 68.5203 86.4397C68.2613 86.4397 68.0023 86.6472 67.8469 86.9584C67.6915 87.2177 67.5879 87.5289 67.5879 87.892C67.5879 88.5663 67.8987 89.2405 68.3649 89.3961C68.6239 89.448 68.7793 89.3961 68.9347 89.3443C68.9865 89.1887 69.0383 89.0849 69.0383 89.0849Z" fill="#EB996E"/>
<path d="M81.7798 105.163C83.9554 105.267 87.6332 105.578 94.8334 109.831C96.3874 110.764 112.653 121.657 112.653 121.657L105.452 130.837L92.2434 123.368L94.0046 139.24L96.1802 154.592L63.2872 152.725L63.1318 138.773L62.8728 125.91L60.8526 143.078L48.1616 141.885L51.6322 119.219C52.0466 116.47 53.1344 113.825 54.9474 111.698C57.123 109.157 59.9202 107.601 63.08 106.459C64.4786 105.941 67.224 105.474 69.037 105.37L68.9334 101.584C68.9334 101.584 74.6314 102.103 76.1336 105.785C76.1336 105.785 77.9984 101.428 81.6762 101.117L81.7798 105.163Z" fill="#ECB000"/>
<path d="M62.2516 107.134C62.2516 107.134 62.3034 107.134 62.4588 107.186C62.6142 107.238 62.7696 107.342 62.9768 107.445C63.443 107.705 64.0646 108.171 64.6344 108.949C65.2042 109.676 65.7222 110.713 66.033 111.906C66.3438 113.099 66.3438 114.499 66.1366 115.9C65.9294 117.3 65.5668 118.597 65.1524 119.79C64.738 120.931 64.3754 121.968 64.0646 122.85C63.7538 123.732 63.5466 124.458 63.3912 124.924C63.2358 125.443 63.184 125.702 63.1322 125.702C63.1322 125.702 63.1322 125.391 63.2358 124.924C63.3394 124.406 63.5466 123.68 63.8056 122.798C64.3236 121.034 65.3596 118.649 65.774 115.848C65.9812 114.447 65.9812 113.099 65.7222 111.958C65.4632 110.765 64.997 109.779 64.4272 109.053C63.3912 107.601 62.1998 107.238 62.2516 107.134Z" fill="#080014"/>
<path d="M92.6577 126.895C92.6577 126.895 92.6059 126.636 92.5023 126.117C92.4505 125.547 92.3469 124.873 92.2433 124.043C92.0361 122.227 91.7253 119.79 91.4145 117.144C91.1037 114.499 90.7929 112.061 90.5857 110.246C90.4821 109.416 90.3785 108.69 90.3267 108.171C90.2749 107.653 90.2231 107.393 90.2749 107.393C90.2749 107.393 90.3785 107.653 90.4821 108.171C90.5857 108.638 90.6893 109.364 90.8447 110.246C91.1037 112.009 91.4663 114.447 91.7771 117.144C92.0879 119.841 92.3469 122.279 92.5023 124.043C92.6059 124.924 92.6577 125.651 92.6577 126.117C92.6577 126.636 92.6577 126.895 92.6577 126.895Z" fill="#080014"/>
<path d="M75.2012 104.281C75.2012 104.333 74.735 104.074 74.1134 104.437C73.8026 104.592 73.5436 104.904 73.3364 105.319C73.2328 105.526 73.181 105.734 73.0774 105.993C73.0256 106.097 73.0256 106.252 72.9738 106.356C72.922 106.512 72.922 106.667 72.7666 106.771C72.7148 106.823 72.6112 106.875 72.5076 106.926C72.404 106.926 72.3004 106.926 72.2486 106.875C72.0932 106.823 71.9896 106.771 71.886 106.719C71.6788 106.615 71.4198 106.512 71.2126 106.408C70.7982 106.2 70.4356 105.993 70.073 105.837C69.4514 105.526 69.037 105.267 69.0888 105.215C69.0888 105.163 69.5032 105.319 70.1766 105.63C70.5392 105.785 70.9536 105.941 71.3162 106.148C71.5234 106.252 71.7824 106.356 71.9896 106.46C72.0932 106.512 72.1968 106.563 72.3522 106.615C72.4558 106.667 72.5076 106.667 72.5594 106.615C72.663 106.512 72.7148 106.148 72.7666 105.941C72.8184 105.682 72.922 105.422 73.0256 105.215C73.2328 104.748 73.5954 104.437 73.958 104.281C74.3206 104.126 74.6314 104.126 74.8386 104.178C75.0976 104.178 75.2012 104.281 75.2012 104.281Z" fill="#080014"/>
<path d="M81.8832 104.904C81.935 104.956 80.8472 105.889 79.3968 106.978L79.1896 107.134L79.1378 106.875C79.1378 106.771 79.086 106.667 79.086 106.563C78.9306 105.63 78.6198 104.8 78.1536 104.385C77.7392 103.97 77.273 103.918 77.3248 103.866C77.3248 103.814 77.791 103.814 78.309 104.229C78.568 104.437 78.827 104.748 79.0342 105.163C79.2414 105.578 79.345 106.045 79.3968 106.512C79.3968 106.615 79.4486 106.719 79.4486 106.823L79.1896 106.719C80.64 105.63 81.8314 104.852 81.8832 104.904Z" fill="#080014"/>
<path d="M77.0142 114.603C77.0142 114.603 76.9624 114.551 76.9624 114.499C76.8588 114.032 76.5998 112.321 76.3926 110.194C76.289 108.949 76.1854 107.86 76.1336 107.082C76.0818 106.252 76.0818 105.785 76.1336 105.785C76.1854 105.785 76.289 106.252 76.3926 107.082C76.4962 107.86 76.6516 109.001 76.7552 110.194C76.9624 112.269 77.1178 114.032 77.066 114.499C77.0142 114.603 77.0142 114.603 77.0142 114.603Z" fill="#080014"/>
<path d="M60.3347 142.507C60.3347 142.559 59.7131 142.352 58.7807 142.092C57.8483 141.781 56.5533 141.418 55.1029 141.055C53.6525 140.692 52.3057 140.433 51.3733 140.225C50.3891 140.018 49.8193 139.914 49.8193 139.862C49.8193 139.81 50.4409 139.862 51.4251 139.966C52.4093 140.121 53.7561 140.329 55.2065 140.692C56.6569 141.055 57.9519 141.47 58.8843 141.833C59.8167 142.196 60.3865 142.455 60.3347 142.507Z" fill="#080014"/>
<path d="M50.8555 138.514C50.8555 138.462 51.4253 138.566 52.3577 138.825C53.2901 139.084 54.5333 139.447 55.9319 139.914C56.6053 140.173 57.2787 140.381 57.8485 140.64C58.4183 140.848 58.9881 141.107 59.4025 141.366C60.2831 141.885 60.4385 142.559 60.3867 142.559C60.3349 142.611 60.0759 141.989 59.2471 141.574C58.8327 141.366 58.3147 141.159 57.7449 140.951C57.1233 140.744 56.5017 140.485 55.8283 140.277C54.4815 139.81 53.1865 139.395 52.3059 139.084C51.4253 138.773 50.8555 138.566 50.8555 138.514Z" fill="#080014"/>
<path d="M106.489 128.399C106.437 128.399 106.644 127.933 107.007 127.206C107.369 126.48 107.939 125.495 108.664 124.458C109.39 123.42 110.063 122.538 110.633 121.916C111.151 121.294 111.565 120.931 111.565 120.982C111.617 121.034 110.322 122.59 108.923 124.665C107.525 126.688 106.541 128.451 106.489 128.399Z" fill="#080014"/>
<path d="M105.504 126.895C105.453 126.895 105.66 126.429 106.074 125.806C106.489 125.184 107.11 124.302 107.939 123.472C108.768 122.642 109.597 122.02 110.27 121.605C110.943 121.19 111.358 121.034 111.358 121.034C111.41 121.138 109.752 122.02 108.146 123.628C106.54 125.339 105.608 126.947 105.504 126.895Z" fill="#080014"/>
<path d="M69.0365 147.123C68.7775 147.279 68.5185 147.486 68.4667 147.798C68.3113 148.42 68.5703 149.198 69.0883 149.457C69.8135 149.872 70.9013 149.302 71.0049 148.472C71.1085 147.798 70.5905 147.02 69.9171 146.864C69.7099 146.812 69.4509 146.864 69.2437 146.968L69.0365 147.123Z" fill="#FAFAFA"/>
<path d="M80.6406 145.619C80.4852 145.671 80.3298 145.827 80.3298 145.982C80.2262 146.345 80.3816 146.76 80.6924 146.916C81.1068 147.123 81.6766 146.864 81.7802 146.397C81.832 146.034 81.5212 145.567 81.1586 145.515C81.055 145.464 80.8996 145.515 80.796 145.567L80.6406 145.619Z" fill="#FAFAFA"/>
<path d="M63.3911 152.569V266.781L79.9153 266.106L81.3139 168.285L86.9601 266.521L103.381 266.106L96.2323 154.592L63.3911 152.569Z" fill="#080014"/>
<path d="M72.2491 266.055C72.1456 266.055 72.0938 240.795 72.0938 209.623C72.0938 178.451 72.1456 153.192 72.2491 153.192C72.3527 153.192 72.4045 178.451 72.4045 209.623C72.4045 240.795 72.3009 266.055 72.2491 266.055Z" fill="#FAFAFA"/>
<path d="M95.0928 266.055C95.0928 266.055 95.0928 265.951 95.041 265.744C95.041 265.536 94.9892 265.277 94.9892 264.914C94.9374 264.136 94.8338 263.046 94.782 261.646C94.5748 258.793 94.3158 254.696 94.005 249.665C93.3834 239.551 92.5028 225.547 91.674 210.09C90.7934 194.634 90.12 180.63 89.6538 170.516C89.4466 165.433 89.2912 161.335 89.1876 158.534C89.1358 157.134 89.1358 156.045 89.084 155.267C89.084 154.903 89.084 154.644 89.084 154.437C89.084 154.229 89.084 154.125 89.084 154.125C89.084 154.125 89.084 154.229 89.1358 154.437C89.1358 154.644 89.1876 154.903 89.1876 155.267C89.2394 156.045 89.2912 157.134 89.343 158.534C89.4984 161.387 89.6538 165.484 89.9128 170.516C90.4308 180.63 91.156 194.634 92.0366 210.09C92.9172 225.547 93.6942 239.499 94.264 249.665C94.5748 254.696 94.782 258.793 94.9374 261.646C94.9892 263.046 95.0928 264.136 95.0928 264.914C95.0928 265.277 95.1446 265.536 95.1446 265.744C95.0928 266.003 95.0928 266.055 95.0928 266.055Z" fill="#FAFAFA"/>
<path d="M82.7122 153.451C82.764 153.451 82.8158 154.177 82.8676 155.37C82.9194 156.563 82.9712 158.171 82.9712 159.986C82.9712 160.868 82.9712 161.75 82.9712 162.528C82.9712 163.306 82.8676 164.032 82.6086 164.603C82.3496 165.173 81.987 165.536 81.6762 165.692C81.3654 165.847 81.1582 165.847 81.1582 165.847C81.1582 165.796 81.3136 165.796 81.5726 165.588C81.8316 165.381 82.1424 165.069 82.3496 164.551C82.5568 164.032 82.6086 163.358 82.6086 162.58C82.6086 161.802 82.5568 160.92 82.5568 160.038C82.5568 158.223 82.505 156.615 82.5568 155.422C82.6086 154.229 82.6604 153.451 82.7122 153.451Z" fill="#FAFAFA"/>
<path d="M79.7601 154.799C79.8119 154.851 79.5529 155.007 79.5529 155.37C79.5529 155.526 79.6047 155.785 79.8119 155.889C79.9673 155.992 80.2781 155.992 80.4853 155.837C80.7961 155.629 80.7443 155.214 80.5371 155.007C80.2781 154.799 80.0191 154.799 79.8637 154.851V154.748C80.0191 154.799 80.0709 154.851 80.0709 154.903C80.0709 154.903 79.9673 154.903 79.8119 154.903L79.6565 154.851L79.7601 154.748C79.9155 154.644 80.3299 154.54 80.6407 154.799C80.7961 154.903 80.9515 155.111 81.0033 155.422C81.0033 155.681 80.8479 155.941 80.6407 156.096C80.3299 156.304 79.9155 156.356 79.6047 156.096C79.3457 155.889 79.2939 155.526 79.3457 155.318C79.3975 155.059 79.5011 154.903 79.6047 154.851C79.7083 154.799 79.7601 154.799 79.7601 154.799Z" fill="#FAFAFA"/>
<path d="M92.1921 137.165C91.7259 136.594 86.4423 137.528 86.4423 137.528L88.3589 136.075C87.3747 134.312 83.9559 136.438 82.8681 137.476C82.5573 137.735 82.4019 138.15 82.3501 138.513L60.8531 143.025L48.8873 141.781C48.8873 141.781 48.6283 143.855 48.0585 147.745C47.4887 151.428 53.5493 155.059 57.3307 154.54C60.7495 154.073 81.7803 148.057 85.3545 147.071C85.6653 146.967 85.8725 146.916 85.8725 146.916C87.0121 146.501 89.8093 145.515 90.0683 145.048C90.4309 144.426 90.3273 139.447 90.3273 139.447L92.2957 138.565C92.2439 138.565 92.6583 137.787 92.1921 137.165Z" fill="#FFBE9D"/>
<path d="M30.5493 146.935V145.638H43.3439L49.6117 120.638H87.4775L81.9867 146.935H30.5493Z" fill="#02000D"/>
<path d="M67.379 136.094C68.4089 136.094 69.2438 135.258 69.2438 134.227C69.2438 133.196 68.4089 132.36 67.379 132.36C66.3491 132.36 65.5142 133.196 65.5142 134.227C65.5142 135.258 66.3491 136.094 67.379 136.094Z" fill="#FAFAFA"/>
<path d="M321.355 233.605C321.458 233.657 321.458 233.657 321.51 233.657C321.614 233.709 321.821 233.761 322.028 233.864C322.443 234.072 323.064 234.435 323.582 235.057C323.841 235.368 324.1 235.783 324.256 236.25C324.411 236.717 324.463 237.288 324.359 237.858C324.256 238.429 323.997 238.999 323.582 239.414C323.375 239.622 323.116 239.829 322.857 239.933C322.598 240.036 322.287 240.14 321.976 240.14C321.355 240.192 320.733 240.036 320.163 239.829C319.594 239.622 319.076 239.362 318.558 239.155C318.04 238.947 317.573 238.74 317.055 238.584C316.589 238.48 316.123 238.429 315.709 238.48C314.88 238.584 314.258 239.051 313.999 239.466C313.947 239.57 313.896 239.673 313.844 239.725C313.792 239.829 313.792 239.881 313.74 239.933C313.74 239.985 313.688 240.036 313.688 240.088C313.688 240.14 313.688 240.14 313.688 240.14C313.688 240.14 313.688 240.14 313.688 240.088C313.688 240.036 313.74 239.985 313.74 239.933C313.74 239.881 313.792 239.777 313.844 239.725C313.896 239.622 313.947 239.57 313.999 239.466C314.258 239.103 314.88 238.636 315.709 238.532C316.123 238.48 316.589 238.532 317.055 238.636C317.522 238.74 318.04 238.947 318.506 239.207C319.024 239.414 319.542 239.725 320.112 239.933C320.681 240.14 321.303 240.296 321.976 240.244C322.287 240.244 322.598 240.14 322.909 240.036C323.22 239.881 323.479 239.725 323.686 239.466C324.1 238.999 324.359 238.429 324.463 237.858C324.566 237.288 324.515 236.717 324.359 236.198C324.204 235.732 323.945 235.317 323.686 234.954C323.116 234.279 322.494 233.968 322.08 233.761C321.614 233.657 321.355 233.605 321.355 233.605Z" fill="#02000D"/>
<path d="M300.117 260.628V254.092C300.117 252.277 301.515 250.773 303.276 250.773L321.303 250.514C322.494 250.514 323.478 251.499 323.478 252.796V260.524L300.117 260.628Z" fill="#ECB000"/>
<path d="M321.251 252.485H313.947V256.063H321.251V252.485Z" fill="#FAFAFA"/>
<path d="M311.668 260.472C311.697 260.472 311.72 258.289 311.72 255.596C311.72 252.904 311.697 250.721 311.668 250.721C311.639 250.721 311.616 252.904 311.616 255.596C311.616 258.289 311.639 260.472 311.668 260.472Z" fill="#02000D"/>
<path d="M311.72 247.765C311.72 247.765 311.979 247.661 312.445 247.609C312.859 247.557 313.533 247.713 314.051 248.18C314.569 248.647 314.776 249.321 314.776 249.736C314.828 250.203 314.724 250.462 314.724 250.462C314.724 250.462 314.776 250.41 314.776 250.254C314.828 250.151 314.828 249.943 314.828 249.684C314.828 249.425 314.776 249.165 314.672 248.854C314.569 248.543 314.361 248.284 314.102 248.024C313.844 247.765 313.533 247.609 313.222 247.557C312.911 247.454 312.652 247.454 312.445 247.506C312.238 247.506 312.031 247.557 311.927 247.609C311.823 247.765 311.72 247.765 311.72 247.765Z" fill="#02000D"/>
<path d="M302.811 250.825L311.668 225.877L318.092 229.092L310.581 252.485L302.811 250.825Z" fill="#ECB000"/>
<path opacity="0.4" d="M308.042 257.775C307.265 259.642 305.141 260.524 303.328 259.694C301.515 258.864 300.738 256.686 301.515 254.819C302.292 252.952 304.416 252.07 306.229 252.9C308.042 253.678 308.87 255.908 308.042 257.775Z" fill="black"/>
<path d="M308.612 256.375C307.784 258.294 305.66 259.176 303.795 258.346C301.93 257.516 301.101 255.234 301.93 253.315C302.759 251.395 304.883 250.514 306.748 251.344C308.561 252.174 309.389 254.404 308.612 256.375Z" fill="#02000D"/>
<path d="M306.54 255.389C306.229 256.115 305.4 256.478 304.727 256.115C304.001 255.804 303.691 254.922 304.001 254.196C304.312 253.47 305.141 253.107 305.814 253.47C306.54 253.833 306.85 254.663 306.54 255.389Z" fill="#03011E"/>
<path d="M306.591 251.603C306.643 251.551 306.643 251.499 306.643 251.447C306.695 251.344 306.747 251.188 306.799 251.032C306.954 250.669 307.161 250.099 307.368 249.425C307.835 248.076 308.508 246.209 309.233 244.186C309.699 242.837 310.166 241.541 310.528 240.503V240.452H310.476C309.389 240.089 308.508 239.725 307.835 239.518C307.524 239.414 307.265 239.311 307.109 239.259C307.006 239.207 306.954 239.207 306.902 239.207C306.85 239.207 306.85 239.207 306.85 239.207C306.85 239.207 306.85 239.207 306.902 239.259C306.954 239.259 307.006 239.311 307.109 239.311C307.265 239.362 307.524 239.466 307.835 239.57C308.456 239.829 309.389 240.14 310.425 240.555V240.503C310.062 241.593 309.596 242.837 309.13 244.186C308.404 246.261 307.731 248.076 307.265 249.476C307.058 250.151 306.85 250.669 306.695 251.084C306.643 251.292 306.591 251.396 306.54 251.499C306.643 251.499 306.591 251.551 306.591 251.603Z" fill="#02000D"/>
<path d="M314.883 239.483C314.894 239.456 313.338 238.788 311.408 237.99C309.477 237.191 307.903 236.566 307.892 236.592C307.881 236.619 309.437 237.287 311.368 238.085C313.298 238.884 314.872 239.509 314.883 239.483Z" fill="#02000D"/>
<path d="M307.058 258.501C307.058 258.501 307.109 258.501 307.109 258.449C307.161 258.397 307.213 258.346 307.317 258.294C307.472 258.138 307.731 257.931 307.99 257.619C308.56 256.997 309.181 256.063 309.699 254.922C310.217 253.781 310.528 252.692 310.735 251.862C310.839 251.447 310.943 251.136 310.994 250.928C310.994 250.825 311.046 250.721 311.046 250.669C311.046 250.617 311.046 250.565 311.046 250.565C311.046 250.565 311.046 250.617 310.994 250.669C310.994 250.721 310.943 250.825 310.943 250.928C310.891 251.136 310.787 251.499 310.684 251.862C310.476 252.64 310.114 253.729 309.648 254.87C309.13 256.011 308.508 256.945 307.99 257.568C307.731 257.879 307.472 258.086 307.317 258.242C307.161 258.397 307.058 258.501 307.058 258.501Z" fill="#02000D"/>
<path d="M302.395 256.426C302.395 256.426 302.292 256.375 302.188 256.323C302.085 256.219 301.877 256.063 301.826 255.752C301.722 255.493 301.722 255.13 301.774 254.715C301.826 254.352 301.877 253.885 301.981 253.47C302.188 252.588 302.395 251.81 302.603 251.24C302.706 250.98 302.81 250.721 302.862 250.565C302.913 250.41 302.965 250.306 302.965 250.306C302.965 250.306 302.913 250.41 302.862 250.514C302.81 250.669 302.706 250.877 302.603 251.136C302.395 251.707 302.136 252.485 301.929 253.366C301.826 253.833 301.774 254.248 301.722 254.611C301.67 255.026 301.722 255.389 301.826 255.648C301.929 255.908 302.136 256.115 302.24 256.219C302.292 256.271 302.344 256.271 302.395 256.323C302.395 256.426 302.395 256.426 302.395 256.426Z" fill="#02000D"/>
<path d="M301.049 269.03C302.823 269.03 304.261 267.521 304.261 265.659C304.261 263.797 302.823 262.288 301.049 262.288C299.275 262.288 297.837 263.797 297.837 265.659C297.837 267.521 299.275 269.03 301.049 269.03Z" fill="#03011E"/>
<path d="M301.049 266.8C301.65 266.8 302.137 266.289 302.137 265.659C302.137 265.029 301.65 264.518 301.049 264.518C300.448 264.518 299.961 265.029 299.961 265.659C299.961 266.289 300.448 266.8 301.049 266.8Z" fill="#02000D"/>
<path d="M311.616 269.082C313.39 269.082 314.828 267.573 314.828 265.711C314.828 263.849 313.39 262.34 311.616 262.34C309.842 262.34 308.404 263.849 308.404 265.711C308.404 267.573 309.842 269.082 311.616 269.082Z" fill="#03011E"/>
<path d="M311.616 266.852C312.217 266.852 312.704 266.341 312.704 265.711C312.704 265.081 312.217 264.57 311.616 264.57C311.015 264.57 310.528 265.081 310.528 265.711C310.528 266.341 311.015 266.852 311.616 266.852Z" fill="#02000D"/>
<path d="M322.287 269.082C324.061 269.082 325.498 267.573 325.498 265.711C325.498 263.849 324.061 262.34 322.287 262.34C320.513 262.34 319.075 263.849 319.075 265.711C319.075 267.573 320.513 269.082 322.287 269.082Z" fill="#03011E"/>
<path d="M322.287 266.852C322.888 266.852 323.375 266.341 323.375 265.711C323.375 265.081 322.888 264.57 322.287 264.57C321.686 264.57 321.199 265.081 321.199 265.711C321.199 266.341 321.686 266.852 322.287 266.852Z" fill="#02000D"/>
<path d="M327.311 265.659C327.311 262.858 325.135 260.524 322.442 260.524H300.997C298.303 260.524 296.127 262.806 296.127 265.659C296.127 268.46 298.303 270.794 300.997 270.794H322.442C325.135 270.742 327.311 268.46 327.311 265.659ZM322.442 262.184C324.255 262.184 325.705 263.74 325.705 265.607C325.705 267.526 324.255 269.03 322.442 269.03H300.997C299.184 269.03 297.733 267.474 297.733 265.607C297.733 263.688 299.184 262.184 300.997 262.184H322.442Z" fill="#02000D"/>
<path d="M323.682 261.618C323.81 261.178 323.891 260.815 323.864 260.807C323.836 260.799 323.71 261.149 323.582 261.589C323.455 262.029 323.373 262.393 323.401 262.401C323.428 262.409 323.554 262.058 323.682 261.618Z" fill="#03011E"/>
<path d="M326.239 264.156C326.617 263.953 326.913 263.769 326.9 263.744C326.886 263.719 326.569 263.862 326.19 264.064C325.812 264.266 325.516 264.451 325.529 264.476C325.543 264.501 325.86 264.358 326.239 264.156Z" fill="#03011E"/>
<path d="M323.651 270.536C323.678 270.528 323.597 270.164 323.468 269.724C323.34 269.284 323.214 268.934 323.187 268.942C323.159 268.95 323.241 269.313 323.369 269.753C323.497 270.193 323.623 270.544 323.651 270.536Z" fill="#03011E"/>
<path d="M326.822 267.77C326.836 267.745 326.54 267.561 326.161 267.359C325.782 267.157 325.465 267.014 325.451 267.04C325.438 267.065 325.734 267.249 326.112 267.451C326.491 267.653 326.809 267.796 326.822 267.77Z" fill="#03011E"/>
<path d="M299.85 269.816C299.978 269.375 300.059 269.012 300.032 269.004C300.004 268.996 299.878 269.347 299.75 269.787C299.623 270.227 299.541 270.59 299.569 270.598C299.596 270.606 299.722 270.256 299.85 269.816Z" fill="#03011E"/>
<path d="M297.232 267.316C297.61 267.114 297.906 266.93 297.892 266.905C297.879 266.88 297.561 267.023 297.183 267.225C296.804 267.427 296.508 267.612 296.522 267.637C296.535 267.662 296.853 267.519 297.232 267.316Z" fill="#03011E"/>
<path d="M300.237 262.339C300.264 262.331 300.183 261.967 300.055 261.527C299.927 261.087 299.801 260.737 299.773 260.745C299.746 260.753 299.827 261.116 299.955 261.556C300.083 261.996 300.209 262.347 300.237 262.339Z" fill="#03011E"/>
<path d="M297.966 264.27C297.979 264.245 297.683 264.061 297.305 263.859C296.926 263.657 296.608 263.514 296.595 263.539C296.581 263.564 296.877 263.748 297.256 263.95C297.634 264.152 297.952 264.295 297.966 264.27Z" fill="#03011E"/>
<path d="M307.782 220.534C307.782 220.534 307.782 220.534 307.73 220.483C307.679 220.431 307.679 220.379 307.575 220.275C307.471 220.119 307.264 219.86 307.057 219.549C306.643 218.927 306.021 218.045 305.296 216.904C304.571 215.763 303.794 214.362 303.068 212.703C302.706 211.873 302.343 211.043 301.981 210.109C301.618 209.176 301.255 208.242 300.841 207.308C300.427 206.375 299.96 205.441 299.391 204.663C298.821 203.885 298.199 203.159 297.526 202.588C296.852 202.018 296.075 201.655 295.35 201.395C294.625 201.136 293.848 201.136 293.226 201.24C292.553 201.344 291.983 201.551 291.569 201.81C291.103 202.07 290.74 202.381 290.533 202.64C290.274 202.951 290.118 203.159 290.015 203.366C289.963 203.47 289.963 203.522 289.911 203.574C289.911 203.626 289.859 203.626 289.859 203.626C289.859 203.626 289.859 203.626 289.911 203.574C289.911 203.522 289.963 203.47 290.015 203.366C290.118 203.211 290.274 202.951 290.533 202.64C290.792 202.381 291.154 202.07 291.569 201.81C292.035 201.551 292.605 201.344 293.226 201.24C293.848 201.136 294.573 201.188 295.35 201.395C296.075 201.603 296.801 202.018 297.526 202.588C298.199 203.159 298.821 203.833 299.391 204.611C299.96 205.389 300.427 206.323 300.841 207.256C301.255 208.19 301.618 209.124 301.981 210.057C302.343 210.991 302.706 211.821 303.068 212.651C303.845 214.259 304.622 215.711 305.348 216.852C306.073 217.993 306.694 218.875 307.109 219.497C307.316 219.808 307.523 220.016 307.627 220.171C307.679 220.223 307.73 220.327 307.782 220.327C307.782 220.483 307.782 220.534 307.782 220.534Z" fill="#02000D"/>
<path d="M296.231 210.576L306.902 219.705L304.83 221.779L294.314 213.221L296.231 210.576Z" fill="#E0E0E0"/>
<path d="M310.994 229.559L303.535 223.076L307.472 218.304L316.123 225.514L310.994 229.559Z" fill="#ECB000"/>
<path d="M316.175 230.441L320.94 234.435L322.546 232.412L317.936 228.522L316.175 230.441Z" fill="#E0E0E0"/>
<path d="M284.473 206.686L282.453 209.85L284.991 211.665L287.011 208.501L284.473 206.686Z" fill="#E0E0E0"/>
<path d="M282.66 209.487L278.102 209.539L275.563 213.48L276.807 217.526L277.894 217.267L277.325 214.57L279.189 212.184L281.52 212.339L283.126 213.48L284.11 215.659L282.297 218.408L280.174 218.875L280.225 219.964L283.748 219.653L286.441 215.451L285.198 211.302L282.453 209.331" fill="#02000D"/>
<path opacity="0.4" d="M317.521 230.701C316.9 232.672 314.879 233.709 313.015 233.035C311.15 232.361 310.166 230.286 310.787 228.315C311.409 226.344 313.429 225.307 315.294 225.981C317.159 226.655 318.195 228.782 317.521 230.701Z" fill="black"/>
<path d="M317.936 229.248C317.315 231.271 315.243 232.308 313.326 231.634C311.41 230.96 310.374 228.781 311.047 226.811C311.669 224.788 313.741 223.75 315.657 224.425C317.574 225.099 318.61 227.277 317.936 229.248Z" fill="#02000D"/>
<path d="M315.812 228.522C315.553 229.3 314.776 229.715 314.05 229.456C313.325 229.197 312.911 228.367 313.17 227.589C313.429 226.811 314.206 226.396 314.931 226.655C315.656 226.914 316.071 227.744 315.812 228.522Z" fill="#03011E"/>
<path d="M308.559 219.238C308.559 219.238 308.507 219.29 308.507 219.393C308.456 219.497 308.404 219.705 308.352 219.912C308.197 220.379 307.989 220.949 307.782 221.676V221.727C308.145 222.039 308.507 222.35 308.922 222.713C309.751 223.439 310.528 224.113 311.097 224.58C311.356 224.788 311.615 224.995 311.771 225.151C311.823 225.203 311.926 225.254 311.978 225.306C312.03 225.358 312.03 225.358 312.03 225.358C312.03 225.358 312.03 225.358 311.978 225.306C311.926 225.254 311.874 225.203 311.823 225.151C311.667 224.995 311.46 224.788 311.201 224.58C310.631 224.113 309.906 223.439 309.077 222.713C308.663 222.35 308.3 222.039 307.938 221.727V221.779C308.145 221.053 308.352 220.483 308.507 220.016C308.559 219.808 308.611 219.653 308.663 219.497C308.559 219.29 308.611 219.238 308.559 219.238Z" fill="#02000D"/>
<path d="M289.601 203.159L297.319 209.487L293.901 214.518L285.82 207.983L289.601 203.159Z" fill="#ECB000"/>
<path opacity="0.4" d="M290.276 203.938C291.519 204.975 291.778 206.894 290.742 208.243C289.706 209.591 287.893 209.799 286.65 208.761C285.407 207.724 285.148 205.805 286.184 204.456C287.22 203.108 289.033 202.9 290.276 203.938Z" fill="black"/>
<path d="M289.498 202.952C290.844 204.093 291.103 206.115 290.016 207.516C288.928 208.916 286.959 209.176 285.613 208.035C284.266 206.893 284.007 204.871 285.095 203.47C286.131 202.07 288.099 201.81 289.498 202.952Z" fill="#02000D"/>
<path d="M288.255 204.507C288.773 204.922 288.877 205.7 288.462 206.271C288.048 206.79 287.323 206.893 286.805 206.478C286.287 206.064 286.183 205.285 286.597 204.715C287.012 204.196 287.737 204.093 288.255 204.507Z" fill="#03011E"/>
<path d="M288.824 210.42C288.824 210.42 288.876 210.368 289.031 210.265C289.187 210.161 289.342 210.057 289.549 209.902C290.016 209.539 290.585 209.072 291.311 208.553H291.259C291.57 208.812 291.88 209.072 292.191 209.331C293.124 210.109 293.901 210.783 294.522 211.302C294.833 211.561 295.04 211.769 295.247 211.873C295.351 211.924 295.403 211.976 295.455 212.028C295.506 212.08 295.506 212.08 295.506 212.08C295.506 212.08 295.506 212.08 295.455 212.028C295.403 211.976 295.351 211.924 295.247 211.873C295.092 211.717 294.833 211.51 294.574 211.25C294.004 210.732 293.175 210.005 292.243 209.279C291.932 209.02 291.621 208.761 291.311 208.501C290.585 209.072 290.016 209.539 289.549 209.85C289.342 210.005 289.187 210.161 289.031 210.265C288.876 210.368 288.824 210.42 288.824 210.42Z" fill="#02000D"/>
<path d="M75.5603 174.756H37.7266V270.692H75.5603V174.756Z" fill="#D9D9D9"/>
<path d="M89.6021 146.727L80.3817 174.32H32.8293L22.4175 146.727H89.6021Z" fill="#D9D9D9"/>
<path fill-rule="evenodd" clip-rule="evenodd" d="M32.5712 120.507C33.3719 118.449 35.3695 117.079 37.5948 117.079H40.9618V118.079H37.5948C35.7806 118.079 34.1529 119.197 33.5025 120.872L33.5007 120.876L33.5006 120.876L22.8816 147.432L21.9531 147.061L32.5703 120.51C32.5706 120.509 32.5709 120.508 32.5712 120.507Z" fill="#D9D9D9"/>
<path d="M41.7385 119.134H43.9659C44.6911 119.134 45.2609 118.563 45.2609 117.837C45.2609 117.111 44.6911 116.541 43.9659 116.541H41.7385C41.0133 116.541 40.4435 117.111 40.4435 117.837C40.3917 118.563 41.0133 119.134 41.7385 119.134Z" fill="#C9C9C9"/>
<path d="M45.1608 270.635L66.606 270.635L66.606 174.369L45.1608 174.369L45.1608 270.635Z" fill="#C9C9C9"/>
<path d="M51.9958 245.535H22.3662V249.632H51.9958V245.535Z" fill="#232358"/>
<path d="M52.0467 249.684H22.3135V245.482H52.0467V249.684ZM22.4171 249.58H51.9431V245.586H22.4171V249.58Z" fill="#232358"/>
<path d="M25.1099 248.231L29.4093 269.341H45.1565L49.3005 249.632L25.1099 248.231Z" fill="#232358"/>
<path d="M47.6359 257.17C47.6359 257.259 42.9971 257.335 37.274 257.335C31.5509 257.335 26.9121 257.259 26.9121 257.17C26.9121 257.081 31.5509 257.005 37.274 257.005C42.9971 257.005 47.6359 257.081 47.6359 257.17Z" fill="#FAFAFA"/>
<path d="M47.3533 258.645C47.3533 258.734 42.8723 258.81 37.3551 258.81C31.8311 258.81 27.3569 258.734 27.3569 258.645C27.3569 258.556 31.8311 258.48 37.3551 258.48C42.8792 258.473 47.3533 258.549 47.3533 258.645Z" fill="#FAFAFA"/>
<path d="M25.1099 267.318L27.3891 270.482H46.6069L49.3005 267.318H25.1099Z" fill="#232358"/>
<path d="M36.0919 248.854C36.0401 248.854 35.9365 239.103 35.9365 227.07C35.8847 215.036 35.9365 205.285 35.9883 205.285C36.0401 205.285 36.1437 215.036 36.1437 227.07C36.1437 239.103 36.1437 248.854 36.0919 248.854Z" fill="#232358"/>
<path d="M42.6705 224.424C42.6705 224.424 42.6705 224.528 42.5669 224.632C42.5151 224.787 42.4115 224.995 42.3079 225.254C42.2561 225.41 42.2043 225.565 42.1007 225.721C42.0489 225.876 41.9971 226.084 41.8935 226.291C41.8417 226.499 41.7381 226.706 41.6863 226.914C41.5827 227.121 41.5309 227.381 41.4791 227.64C41.1683 228.625 40.9093 229.87 40.6503 231.271C40.4431 232.671 40.2877 234.175 40.1841 235.835C40.0287 239.051 40.2359 242.007 40.4431 244.134C40.5467 245.171 40.6503 246.053 40.7021 246.623C40.7539 246.883 40.7539 247.142 40.7539 247.297C40.7539 247.453 40.7539 247.557 40.7539 247.557C40.7539 247.557 40.7539 247.453 40.7021 247.297C40.6503 247.142 40.6503 246.883 40.5985 246.623C40.4949 246.053 40.3913 245.171 40.2877 244.134C40.0287 242.007 39.8215 239.051 39.9769 235.835C40.0805 234.227 40.2359 232.671 40.4431 231.271C40.7021 229.87 40.9611 228.625 41.3237 227.64C41.4273 227.381 41.4791 227.121 41.5827 226.914C41.6863 226.706 41.7381 226.499 41.8417 226.291C41.8935 226.084 41.9971 225.928 42.0489 225.721C42.1007 225.565 42.2043 225.41 42.2561 225.254C42.3597 224.995 42.4633 224.787 42.5669 224.632C42.6187 224.528 42.6705 224.424 42.6705 224.424Z" fill="#232358"/>
<path d="M41.9456 216.54C41.9456 216.54 41.9456 216.644 41.842 216.851C41.7902 217.059 41.6866 217.37 41.5312 217.733C41.4794 217.941 41.3758 218.148 41.324 218.408C41.2722 218.667 41.1686 218.926 41.065 219.186C40.9096 219.756 40.7024 220.378 40.4952 221.105C40.3916 221.468 40.288 221.831 40.1844 222.246C40.0808 222.661 39.9772 223.076 39.9254 223.49C39.7182 224.32 39.5628 225.254 39.3556 226.239C39.0448 228.159 38.734 230.337 38.5268 232.567C38.3196 234.849 38.2678 236.976 38.216 238.947C38.216 240.918 38.216 242.681 38.3196 244.185C38.3714 244.912 38.3714 245.586 38.4232 246.208C38.475 246.779 38.475 247.297 38.5268 247.712C38.5786 248.127 38.5786 248.439 38.5786 248.646C38.5786 248.853 38.5786 248.957 38.5786 248.957C38.5786 248.957 38.5786 248.853 38.5268 248.646C38.475 248.387 38.475 248.075 38.4232 247.712C38.3714 247.297 38.3196 246.779 38.2678 246.208C38.216 245.638 38.1642 244.963 38.1124 244.185C38.0088 242.681 37.957 240.918 37.957 238.947C37.957 236.976 38.0606 234.797 38.216 232.515C38.4232 230.233 38.734 228.107 39.0448 226.136C39.252 225.15 39.4074 224.268 39.6146 223.387C39.7182 222.972 39.8218 222.557 39.9254 222.142C40.029 221.727 40.1326 221.364 40.2362 221.001C40.4434 220.275 40.6506 219.652 40.806 219.082C40.9096 218.822 40.9614 218.563 41.065 218.304C41.1686 218.044 41.2204 217.837 41.324 217.629C41.4794 217.266 41.583 216.955 41.6866 216.748C41.8938 216.644 41.9456 216.54 41.9456 216.54Z" fill="#232358"/>
<path d="M34.2277 250.617C34.2277 250.617 34.2277 250.565 34.2277 250.513C34.2277 250.41 34.2277 250.306 34.1759 250.202C34.1759 249.891 34.1241 249.476 34.0723 248.905C34.0205 247.764 33.9169 246.156 33.7615 244.134C33.5025 240.14 33.1399 234.59 32.4665 228.47C32.1039 225.41 31.7413 222.505 31.3269 219.912C31.1197 218.615 30.9125 217.37 30.6535 216.177C30.4463 215.036 30.2391 213.947 30.0319 212.961C29.8247 211.976 29.6175 211.094 29.4621 210.316C29.3067 209.538 29.0995 208.864 28.9959 208.345C28.8405 207.827 28.7369 207.412 28.6851 207.1C28.6333 206.945 28.6333 206.841 28.6333 206.789C28.6333 206.737 28.6333 206.686 28.6333 206.686C28.6333 206.686 28.6333 206.737 28.6851 206.789C28.6851 206.893 28.7369 206.997 28.7887 207.1C28.8923 207.412 28.9959 207.827 29.1513 208.345C29.3067 208.864 29.4621 209.538 29.6693 210.316C29.8765 211.094 30.0837 211.976 30.2909 212.961C30.4981 213.947 30.7571 215.036 30.9643 216.177C31.2233 217.318 31.4305 218.563 31.6377 219.912C32.0521 222.557 32.4665 225.461 32.8291 228.47C33.5025 234.59 33.8651 240.14 34.0723 244.134C34.1759 246.156 34.2795 247.764 34.2795 248.905C34.2795 249.476 34.3313 249.891 34.3313 250.202C34.3313 250.358 34.3313 250.461 34.3313 250.513C34.2277 250.565 34.2277 250.617 34.2277 250.617Z" fill="#232358"/>
<path d="M35.833 209.953C35.7294 208.553 34.3308 207.516 32.9322 207.516C31.5336 207.516 30.2386 208.345 29.4098 209.435C28.581 210.524 28.1148 211.872 27.7004 213.221C26.768 216.489 26.25 219.912 26.6644 223.283C27.0788 226.655 28.4256 229.974 30.8602 232.36C31.2746 232.723 31.7408 233.138 32.3106 233.034C32.6214 232.982 32.8286 232.775 33.0876 232.567C37.8014 228.262 40.5468 221.883 40.3914 215.451C40.3396 214.155 40.1842 212.858 39.459 211.769C38.682 210.68 37.0244 209.538 35.833 209.953Z" fill="#ECB000"/>
<path d="M25.4735 198.906C24.8001 200.099 24.1785 201.291 23.5051 202.433C23.4533 202.536 23.4015 202.588 23.2979 202.64C23.1943 202.64 23.1425 202.536 23.0389 202.484C21.3295 199.839 19.6201 197.194 17.8589 194.549L19.0503 193.875L25.4735 198.906Z" fill="#ECB000"/>
<g opacity="0.2">
<g opacity="0.2">
<g opacity="0.2">
<g opacity="0.2">
<g opacity="0.2">
<path opacity="0.2" d="M25.4735 198.906C24.8001 200.099 24.1785 201.291 23.5051 202.433C23.4533 202.536 23.4015 202.588 23.2979 202.64C23.1943 202.64 23.1425 202.536 23.0389 202.484C21.3295 199.839 19.6201 197.194 17.8589 194.549L19.0503 193.875L25.4735 198.906Z" fill="black"/>
</g>
</g>
</g>
</g>
</g>
<path d="M35.9896 205.285C30.1362 201.81 24.231 198.335 18.3776 194.86C18.2222 194.756 18.015 194.653 17.9632 194.445C17.9114 194.186 18.0668 193.926 18.274 193.719C20.7086 191.229 24.231 189.777 27.7016 190.036C31.1722 190.296 34.4874 192.319 36.1968 195.327C37.8544 198.387 37.9062 202.381 35.9896 205.285Z" fill="#ECB000"/>
<path d="M20.8628 191.54C20.8628 191.54 20.9664 191.54 21.07 191.489C21.2254 191.489 21.4326 191.437 21.7434 191.437C22.3132 191.437 23.142 191.437 24.178 191.644C25.214 191.8 26.4054 192.163 27.6486 192.682C28.8918 193.252 30.1868 194.03 31.3782 195.119C32.5696 196.209 33.502 197.401 34.1754 198.594C34.8488 199.787 35.315 200.98 35.574 201.966C35.833 202.951 35.9884 203.781 35.9884 204.404C36.0402 204.715 36.0402 204.922 36.0402 205.078C36.0402 205.233 36.0402 205.285 36.0402 205.285C36.0402 205.285 35.9884 204.974 35.9366 204.404C35.8848 203.833 35.7294 203.003 35.4186 202.018C34.8488 200.047 33.5538 197.401 31.2228 195.275C28.8918 193.148 26.1464 192.163 24.1262 191.8C23.142 191.592 22.2614 191.54 21.6916 191.54C21.2254 191.54 20.8628 191.54 20.8628 191.54Z" fill="#232358"/>
<path d="M33.6063 198.076C33.6063 198.128 33.2955 198.283 32.7257 198.491C32.1559 198.698 31.3789 199.009 30.4983 199.269C29.6177 199.528 28.8407 199.787 28.2191 199.891C27.6493 200.047 27.2867 200.098 27.2349 200.098C27.2349 200.047 27.5975 199.943 28.1673 199.787C28.8407 199.58 29.5659 199.372 30.3947 199.061C31.2235 198.802 32.0005 198.542 32.6221 198.335C33.1919 198.179 33.5545 198.076 33.6063 198.076Z" fill="#232358"/>
<path d="M30.8089 190.607C30.8607 190.607 31.0161 191.488 31.0161 192.578C31.0679 193.667 30.9643 194.549 30.9125 194.549C30.8607 194.549 30.8607 193.667 30.8089 192.578C30.7571 191.488 30.7571 190.607 30.8089 190.607Z" fill="#232358"/>
<path d="M18.1694 194.652C18.1694 194.601 18.6356 194.445 19.4644 194.186C20.2414 193.926 21.381 193.615 22.6242 193.304C23.8674 192.993 25.007 192.785 25.8358 192.63C26.6646 192.474 27.1826 192.422 27.1826 192.422C27.1826 192.474 26.6646 192.578 25.8876 192.733C25.0588 192.941 23.9192 193.148 22.7278 193.459C21.4846 193.771 20.3968 194.03 19.568 194.237C18.6874 194.549 18.2212 194.704 18.1694 194.652Z" fill="#232358"/>
<path d="M27.8558 206.686C26.3536 205.545 24.7478 205.285 22.8312 205.389C20.9146 205.441 19.1016 206.063 17.3404 206.789C14.3878 208.086 11.5906 210.005 9.77759 212.754C8.01639 215.451 7.39479 219.082 8.68979 222.038C8.84519 222.35 9.00059 222.661 9.31139 222.765C9.62219 222.92 9.98479 222.816 10.2956 222.713C13.6626 221.623 17.0814 220.482 20.1894 218.771C23.2974 217.059 26.1464 214.621 27.804 211.509C28.2184 210.731 28.5292 209.953 28.581 209.072C28.6846 208.19 28.4256 207.308 27.8558 206.686Z" fill="#ECB000"/>
<path d="M27.8566 206.323C27.8566 206.323 27.753 206.375 27.5976 206.427C27.3904 206.479 27.1832 206.583 26.8724 206.686C26.717 206.738 26.5616 206.79 26.3544 206.842C26.1472 206.894 25.9918 206.998 25.7328 207.101C25.3184 207.257 24.8004 207.464 24.2824 207.724C24.0234 207.827 23.7644 207.983 23.4536 208.087C23.1428 208.242 22.8838 208.398 22.573 208.554C21.9514 208.865 21.3298 209.228 20.6564 209.643C19.3614 210.473 18.0146 211.458 16.6678 212.599C15.321 213.792 14.1814 215.037 13.1972 216.178C12.731 216.8 12.2648 217.371 11.9022 217.941C11.695 218.201 11.4878 218.512 11.3324 218.771C11.177 219.031 11.0216 219.29 10.8662 219.549C10.5554 220.016 10.2964 220.483 10.0892 220.898C9.98558 221.105 9.88198 221.313 9.77838 221.468C9.67478 221.624 9.62298 221.832 9.51938 221.935C9.36398 222.195 9.26038 222.454 9.20858 222.61C9.10498 222.765 9.10498 222.817 9.10498 222.817C9.10498 222.817 9.10498 222.713 9.20858 222.558C9.26038 222.402 9.36398 222.143 9.51938 221.883C9.57118 221.728 9.67478 221.572 9.72658 221.365C9.83018 221.209 9.93378 221.002 10.0374 220.794C10.2446 220.379 10.5036 219.912 10.8144 219.394C10.9698 219.134 11.1252 218.875 11.2806 218.616C11.436 218.356 11.6432 218.097 11.8504 217.786C12.213 217.215 12.6792 216.645 13.1454 216.022C14.1296 214.829 15.2692 213.585 16.616 212.392C17.9628 211.199 19.3614 210.213 20.6564 209.435C21.3298 209.072 21.9514 208.657 22.573 208.346C22.8838 208.19 23.1946 208.035 23.4536 207.879C23.7644 207.776 24.0234 207.62 24.2824 207.516C24.8004 207.257 25.3184 207.101 25.7328 206.946C25.94 206.842 26.1472 206.79 26.3544 206.738C26.5616 206.686 26.717 206.634 26.8724 206.583C27.1832 206.479 27.3904 206.427 27.5976 206.375C27.8048 206.323 27.8566 206.323 27.8566 206.323Z" fill="#232358"/>
<path d="M12.3412 213.941C14.4005 213.338 16.057 212.805 16.0409 212.75C16.0249 212.695 14.3424 213.139 12.283 213.742C10.2236 214.345 8.56721 214.878 8.58327 214.933C8.59932 214.988 10.2818 214.544 12.3412 213.941Z" fill="#232358"/>
<path d="M15.8907 220.897C15.8389 220.897 15.8389 220.482 15.7871 219.756C15.7871 219.03 15.7871 218.044 15.7871 216.955C15.8389 215.866 15.8907 214.881 15.9425 214.206C15.9943 213.48 16.0461 213.065 16.0979 213.065C16.1497 213.065 16.0979 213.532 16.0979 214.206C16.0979 214.984 16.0461 215.918 15.9943 216.955C15.9425 217.993 15.9425 218.926 15.9425 219.704C15.9425 220.43 15.8907 220.897 15.8907 220.897Z" fill="#232358"/>
<path d="M22.8271 217.308C22.8842 217.304 22.7927 215.308 22.6228 212.851C22.4528 210.393 22.2688 208.404 22.2118 208.408C22.1547 208.412 22.2461 210.407 22.4161 212.865C22.586 215.322 22.77 217.312 22.8271 217.308Z" fill="#232358"/>
<path d="M14.1807 208.19C14.1807 208.138 14.6469 208.138 15.3721 208.138C16.0973 208.138 17.0815 208.19 18.2211 208.19C19.3089 208.241 20.3449 208.293 21.0701 208.293C21.7953 208.345 22.2615 208.397 22.2615 208.397C22.2615 208.449 21.7953 208.449 21.0701 208.449C20.3449 208.449 19.3607 208.397 18.2211 208.397C17.1333 208.345 16.0973 208.293 15.3721 208.293C14.6469 208.293 14.1807 208.241 14.1807 208.19Z" fill="#232358"/>
<path d="M31.5853 233.293C31.5853 233.293 31.5853 233.19 31.5853 233.034C31.5853 232.878 31.5853 232.619 31.5335 232.36C31.4817 231.737 31.4817 230.907 31.5335 229.818C31.5335 228.729 31.6371 227.484 31.7407 226.032C31.8961 224.632 32.0515 223.076 32.3623 221.416C32.6731 219.808 32.9839 218.252 33.3465 216.903C33.7091 215.503 34.0717 214.31 34.4343 213.273C34.7969 212.235 35.1077 211.457 35.3149 210.887C35.4185 210.627 35.5221 210.42 35.5739 210.264C35.6257 210.109 35.6775 210.057 35.6775 210.057C35.6775 210.057 35.6775 210.161 35.6257 210.264C35.5739 210.42 35.4703 210.627 35.4185 210.939C35.2113 211.509 34.9005 212.339 34.5897 213.325C34.2789 214.362 33.9163 215.555 33.5537 216.955C33.1911 218.356 32.8803 219.86 32.5695 221.468C32.3105 223.076 32.1033 224.632 31.9479 226.032C31.7925 227.432 31.7407 228.729 31.6889 229.818C31.6371 230.907 31.6371 231.737 31.6371 232.36C31.6371 232.619 31.6371 232.878 31.6371 233.034C31.5853 233.19 31.5853 233.293 31.5853 233.293Z" fill="#232358"/>
<path d="M32.5181 221.208C32.5181 221.208 32.2591 221.52 31.7929 221.987C31.3267 222.453 30.7051 223.076 29.9281 223.698C29.2029 224.321 28.4777 224.891 28.0115 225.306C27.4935 225.721 27.1827 225.928 27.1309 225.877C27.1309 225.877 27.3899 225.565 27.9079 225.15C28.4259 224.684 29.0993 224.113 29.8245 223.491C30.5497 222.868 31.1713 222.298 31.6893 221.831C32.2073 221.468 32.5181 221.208 32.5181 221.208Z" fill="#232358"/>
<path d="M38.112 225.721C38.112 225.721 37.8012 225.358 37.3868 224.684C36.9206 223.958 36.299 223.128 35.6256 222.142C34.9522 221.209 34.3306 220.327 33.8644 219.601C33.3982 218.978 33.1392 218.563 33.1392 218.511C33.1392 218.511 33.5018 218.875 33.968 219.497C34.4342 220.119 35.1076 221.001 35.781 221.987C36.4544 222.972 37.076 223.906 37.4904 224.58C37.9048 225.306 38.112 225.721 38.112 225.721Z" fill="#232358"/>
<path d="M31.0388 214.41C33.3491 212.923 35.1969 211.678 35.1659 211.63C35.135 211.582 33.237 212.748 30.9268 214.235C28.6165 215.723 26.7687 216.967 26.7997 217.015C26.8306 217.064 28.7285 215.897 31.0388 214.41Z" fill="#232358"/>
<path d="M40.4422 217.221C40.4822 217.18 39.2858 215.947 37.7699 214.468C36.2541 212.988 34.9928 211.821 34.9528 211.862C34.9128 211.903 36.1092 213.136 37.625 214.616C39.1409 216.096 40.4022 217.262 40.4422 217.221Z" fill="#232358"/>
<path d="M41.7383 217.112L43.3441 216.956C44.4837 216.852 45.5715 216.541 46.5557 215.971C47.0219 215.711 47.5399 215.452 48.0579 215.193C50.0263 214.415 52.2019 214.518 54.3257 214.415C57.7963 214.259 61.2151 213.377 64.3231 211.873C64.4785 211.769 64.6857 211.666 64.7375 211.458C65.0483 210.888 64.4785 210.317 63.9605 210.006C61.2669 208.346 58.5733 206.687 55.5171 205.857C52.4609 205.027 49.0421 205.182 46.4521 206.946C43.3441 209.124 42.2045 213.481 41.7383 217.112Z" fill="#ECB000"/>
<path d="M64.7374 211.354C64.7374 211.354 64.6338 211.302 64.4784 211.25C64.2712 211.146 64.0122 211.043 63.7014 210.835C63.028 210.472 62.0956 210.005 60.9042 209.435C59.7128 208.864 58.2624 208.242 56.6048 207.775C54.9472 207.308 53.0306 207.049 51.0104 207.308C49.042 207.567 47.229 208.345 45.934 209.487C44.639 210.628 43.862 212.028 43.2922 213.221C42.7224 214.414 42.4116 215.451 42.1526 216.126C42.049 216.437 41.9454 216.748 41.8936 216.904C41.8418 217.111 41.79 217.163 41.79 217.163C41.79 217.163 41.79 217.059 41.8418 216.852C41.8936 216.644 41.9972 216.385 42.1008 216.022C42.308 215.296 42.6706 214.31 43.1886 213.065C43.7584 211.872 44.5354 210.42 45.8304 209.279C47.1254 208.086 48.9902 207.308 51.0104 207.049C53.0306 206.789 54.999 207.049 56.6566 207.516C58.366 207.982 59.8164 208.657 60.956 209.227C62.1474 209.798 63.0798 210.368 63.7014 210.731C64.0122 210.887 64.2712 211.043 64.4266 211.146C64.6338 211.302 64.7374 211.354 64.7374 211.354Z" fill="#232358"/>
<path d="M60.9477 213.406C60.9798 213.359 58.9472 211.933 56.4078 210.221C53.8684 208.51 51.7839 207.161 51.7518 207.208C51.7198 207.255 53.7524 208.681 56.2918 210.393C58.8312 212.105 60.9157 213.454 60.9477 213.406Z" fill="#232358"/>
<path d="M58.9358 206.997C58.9358 207.049 58.2106 207.256 57.33 207.308C56.3976 207.411 55.6724 207.359 55.6724 207.308C55.6724 207.256 56.3976 207.204 57.33 207.101C58.1588 207.049 58.9358 206.945 58.9358 206.997Z" fill="#232358"/>
<path d="M48.9041 206.691C49.3257 205.976 49.6275 205.372 49.5782 205.343C49.5289 205.314 49.1472 205.87 48.7257 206.586C48.3041 207.301 48.0024 207.905 48.0516 207.934C48.1009 207.963 48.4826 207.407 48.9041 206.691Z" fill="#232358"/>
<path d="M51.4773 214.621C51.4773 214.621 51.0629 214.466 50.4931 214.103C49.8715 213.74 49.0945 213.221 48.2139 212.547C47.3333 211.924 46.5563 211.302 46.0383 210.887C45.4685 210.472 45.1577 210.161 45.1577 210.161C45.1577 210.161 45.5203 210.368 46.0901 210.783C46.7117 211.25 47.4887 211.769 48.3175 212.391C49.1981 213.014 49.9751 213.584 50.5449 213.947C51.1147 214.362 51.4773 214.621 51.4773 214.621Z" fill="#232358"/>
<path d="M44.0691 223.905C42.5669 223.491 40.7539 224.995 40.4431 226.499C40.1323 228.055 40.7021 229.611 41.3755 231.011C42.8777 234.175 44.9497 237.08 47.6433 239.206C50.3369 241.385 53.7557 242.733 57.2263 242.733C56.6047 239.777 57.3817 236.613 57.0191 233.605C56.7083 230.959 55.4651 228.418 53.6003 226.551C51.7355 224.683 49.1973 223.491 46.5555 223.179C45.5713 223.127 44.4317 222.972 44.0691 223.905Z" fill="#ECB000"/>
<path d="M57.2275 242.785C57.2275 242.785 57.1757 242.733 57.0203 242.681C56.8649 242.63 56.7095 242.474 56.4505 242.318C55.9843 241.955 55.4145 241.281 54.9483 240.296C54.6893 239.829 54.4303 239.31 54.1713 238.74C53.9123 238.169 53.6533 237.547 53.3425 236.924C53.0317 236.302 52.7209 235.628 52.3583 235.005C51.9439 234.383 51.4777 233.76 50.9597 233.138C49.9237 231.893 48.7841 230.856 47.8517 229.87C46.8675 228.885 46.0387 227.899 45.4689 227.018C44.8473 226.136 44.5365 225.358 44.3293 224.787C44.2257 224.528 44.1739 224.269 44.1221 224.113C44.0703 223.957 44.0703 223.906 44.0703 223.906C44.0703 223.906 44.1739 224.217 44.3811 224.735C44.5883 225.254 45.0027 226.032 45.5725 226.914C46.1941 227.796 46.9711 228.729 47.9553 229.715C48.9395 230.7 50.0273 231.789 51.1151 232.982C51.6331 233.605 52.0993 234.227 52.5137 234.901C52.9281 235.576 53.2389 236.198 53.4979 236.872C53.7569 237.495 54.0677 238.117 54.2749 238.688C54.5339 239.258 54.7929 239.777 55.0001 240.244C55.4663 241.177 55.9843 241.903 56.3987 242.267C56.9167 242.63 57.2275 242.785 57.2275 242.785Z" fill="#232358"/>
<path d="M49.3529 240.295C49.3011 240.295 49.3529 239.88 49.5083 239.258C49.6119 238.636 49.8191 237.754 50.0781 236.82C50.3371 235.887 50.6479 235.057 50.8551 234.434C51.0623 233.864 51.2177 233.501 51.2695 233.501C51.3213 233.501 51.1659 233.864 51.0105 234.486C50.8033 235.109 50.5443 235.938 50.2853 236.872C50.0263 237.806 49.8191 238.636 49.6637 239.258C49.5083 239.932 49.4047 240.295 49.3529 240.295Z" fill="#232358"/>
<path d="M56.9161 232.982C56.9161 233.034 56.5017 232.93 55.8283 232.723C55.1549 232.567 54.2743 232.308 53.2901 232.101C52.3059 231.893 51.3735 231.686 50.7001 231.582C50.0267 231.478 49.6123 231.374 49.6123 231.323C49.6123 231.271 50.0267 231.323 50.7001 231.426C51.3735 231.53 52.3059 231.686 53.2901 231.893C54.2743 232.101 55.2067 232.36 55.8283 232.567C56.5535 232.827 56.9161 232.93 56.9161 232.982Z" fill="#232358"/>
<path d="M43.7584 235.109C43.7066 235.109 43.8102 234.642 43.9138 233.916C44.0692 233.189 44.2764 232.204 44.5354 231.115C44.7944 230.026 45.1052 229.04 45.3642 228.366C45.6232 227.692 45.7786 227.225 45.7786 227.277C45.8304 227.277 45.675 227.743 45.4678 228.418C45.2606 229.144 45.0016 230.077 44.6908 231.167C44.4318 232.256 44.1728 233.241 44.0174 233.967C43.862 234.694 43.7584 235.109 43.7584 235.109Z" fill="#232358"/>
<path d="M53.4327 226.582C53.4387 226.525 51.5525 226.278 49.2198 226.031C46.887 225.784 44.9911 225.63 44.985 225.687C44.979 225.743 46.8652 225.99 49.1979 226.237C51.5307 226.484 53.4266 226.638 53.4327 226.582Z" fill="#232358"/>
<path d="M37.1801 249.683C45.3907 249.683 52.0467 249.637 52.0467 249.58C52.0467 249.522 45.3907 249.476 37.1801 249.476C28.9695 249.476 22.3135 249.522 22.3135 249.58C22.3135 249.637 28.9695 249.683 37.1801 249.683Z" fill="#232358"/>
</svg>
