<svg width="336" height="300" viewBox="0 0 336 300" fill="none" xmlns="http://www.w3.org/2000/svg">
<path d="M29.0167 170.981C29.0167 170.981 34.4179 169.204 37.0105 181.675C39.603 194.146 39.9871 201.041 39.9871 201.041C39.9871 201.041 40.8333 203.736 42.8197 202.668C44.8061 201.599 48.1249 197.933 50.5914 199.433C53.154 200.987 53.22 204.336 51.4436 208.747C49.6672 213.158 46.1384 222.964 45.8204 223.852C45.5083 224.722 45.6643 226.175 47.1287 225.665C48.599 225.155 57.877 219.171 60.4515 223.744C63.0261 228.317 56.0646 239.792 55.3264 241.064C54.5883 242.33 54.6963 242.99 55.2544 243.507C55.8125 244.023 58.7412 241.718 61.4538 240.122C64.1603 238.531 67.5811 237.157 68.8474 239.918C70.1136 242.678 68.1632 252.184 55.1284 264.931L48.701 270.44L40.6352 267.752C23.7296 260.94 18.2984 252.899 18.4184 249.862C18.5325 246.825 22.2173 246.789 25.3319 247.227C28.4466 247.665 32.0294 248.68 32.3475 247.99C32.6655 247.299 32.5155 246.651 31.3512 245.757C30.187 244.863 19.3726 236.911 20.0088 231.702C20.6449 226.493 31.5073 228.479 33.0616 228.395C34.6159 228.305 34.2019 226.907 33.5837 226.223C32.9536 225.521 25.9501 217.803 22.6254 214.406C19.3006 211.004 18.0884 207.883 19.8648 205.47C21.5751 203.142 26.0401 205.266 28.2846 205.494C30.5291 205.728 30.283 202.908 30.283 202.908C30.283 202.908 28.0145 196.39 25.65 183.872C23.2855 171.353 29.1068 170.951 29.1068 170.951" fill="#171751"/>
<g opacity="0.3">
<g opacity="0.3">
<g opacity="0.3">
<g opacity="0.3">
<g opacity="0.3">
<path opacity="0.3" d="M48.7665 268.658C46.9961 259.47 44.4456 246.801 41.5769 232.812C38.7143 218.829 36.1278 206.166 34.3094 196.99C33.4032 192.411 32.671 188.702 32.1609 186.122C31.9088 184.849 31.7108 183.853 31.5728 183.169C31.5068 182.839 31.4528 182.587 31.4107 182.401C31.3747 182.227 31.3447 182.143 31.3447 182.143C31.3447 182.143 31.3507 182.233 31.3807 182.407C31.4107 182.593 31.4588 182.851 31.5128 183.181C31.6388 183.871 31.8188 184.867 32.0469 186.146C32.515 188.72 33.2171 192.441 34.0993 197.032C35.8697 206.22 38.4203 218.889 41.2829 232.872C44.1515 246.861 46.7321 259.524 48.5505 268.7" fill="#E0E0E0"/>
</g>
</g>
</g>
</g>
<g opacity="0.3">
<g opacity="0.3">
<g opacity="0.3">
<g opacity="0.3">
<path opacity="0.3" d="M46.1553 204.743C46.1373 204.731 46.0113 204.912 45.7952 205.236C45.5792 205.566 45.2791 206.046 44.9131 206.646C44.1869 207.852 43.2207 209.539 42.1945 211.423C41.1922 213.277 40.2861 214.958 39.5899 216.254C39.2778 216.824 39.0138 217.316 38.7917 217.712C38.5997 218.054 38.5037 218.252 38.5217 218.264C38.5397 218.276 38.6657 218.102 38.8878 217.772C39.1038 217.442 39.4039 216.962 39.7639 216.356C40.4781 215.144 41.4203 213.445 42.4465 211.561C43.4607 209.713 44.3789 208.044 45.0871 206.748C45.4052 206.178 45.6692 205.692 45.8913 205.29C46.0773 204.948 46.1733 204.755 46.1553 204.743Z" fill="#E0E0E0"/>
</g>
</g>
</g>
</g>
<g opacity="0.3">
<g opacity="0.3">
<g opacity="0.3">
<g opacity="0.3">
<path opacity="0.3" d="M37.7367 218.205C37.7787 218.139 34.3879 215.996 30.163 213.428C25.9381 210.859 22.4814 208.831 22.4394 208.897C22.3973 208.963 25.7881 211.105 30.013 213.674C34.2319 216.248 37.6947 218.277 37.7367 218.205Z" fill="#E0E0E0"/>
</g>
</g>
</g>
</g>
<g opacity="0.3">
<g opacity="0.3">
<g opacity="0.3">
<g opacity="0.3">
<path opacity="0.3" d="M43.1013 239.485C43.1073 239.467 42.8912 239.395 42.5072 239.287C42.0571 239.167 41.5109 239.017 40.8688 238.843C39.4885 238.465 37.5801 237.937 35.4916 237.283C33.4032 236.628 31.5368 235.974 30.1865 235.488C29.5564 235.266 29.0222 235.074 28.5841 234.918C28.2061 234.786 27.99 234.72 27.984 234.738C27.978 234.756 28.1761 234.858 28.5421 235.02C28.9082 235.182 29.4423 235.41 30.1085 235.68C31.4408 236.214 33.3072 236.904 35.4016 237.559C37.4901 238.219 39.4165 238.717 40.8148 239.041C41.5169 239.203 42.0811 239.323 42.4772 239.395C42.8792 239.473 43.1013 239.503 43.1013 239.485Z" fill="#E0E0E0"/>
</g>
</g>
</g>
</g>
<g opacity="0.3">
<g opacity="0.3">
<g opacity="0.3">
<g opacity="0.3">
<path opacity="0.3" d="M53.4065 228.983C53.3945 228.971 53.2324 229.097 52.9564 229.349C52.6803 229.601 52.2902 229.967 51.8101 230.423C50.8499 231.341 49.5416 232.62 48.1073 234.042C46.673 235.47 45.3827 236.773 44.4645 237.721C44.0024 238.195 43.6364 238.585 43.3843 238.861C43.1323 239.137 43.0002 239.293 43.0182 239.305C43.0302 239.317 43.1923 239.191 43.4683 238.939C43.7444 238.693 44.1345 238.321 44.6146 237.865C45.5748 236.947 46.8831 235.668 48.3174 234.246C49.7517 232.818 51.042 231.516 51.9602 230.567C52.4223 230.093 52.7883 229.703 53.0404 229.427C53.2864 229.157 53.4185 228.995 53.4065 228.983Z" fill="#E0E0E0"/>
</g>
</g>
</g>
</g>
<g opacity="0.3">
<g opacity="0.3">
<g opacity="0.3">
<g opacity="0.3">
<path opacity="0.3" d="M60.5296 247.167C60.5176 247.155 60.3136 247.323 59.9595 247.641C59.5694 248.001 59.0773 248.463 58.4892 249.015C57.2529 250.186 55.5606 251.812 53.7062 253.618C51.8517 255.431 50.1774 257.081 48.9831 258.281C48.419 258.857 47.9449 259.338 47.5728 259.722C47.2428 260.064 47.0687 260.262 47.0867 260.28C47.0987 260.292 47.3028 260.124 47.6568 259.806C48.0469 259.446 48.539 258.983 49.1272 258.431C50.3634 257.261 52.0558 255.635 53.9102 253.828C55.7646 252.016 57.433 250.366 58.6332 249.165C59.1973 248.589 59.6714 248.109 60.0435 247.725C60.3676 247.377 60.5416 247.179 60.5296 247.167Z" fill="#E0E0E0"/>
</g>
</g>
</g>
</g>
<g opacity="0.3">
<g opacity="0.3">
<g opacity="0.3">
<g opacity="0.3">
<path opacity="0.3" d="M47.3153 259.872C47.3213 259.854 47.0572 259.758 46.5711 259.601C46.031 259.433 45.3409 259.217 44.5127 258.959C42.7783 258.419 40.3778 257.663 37.7552 256.757C35.1327 255.857 32.7742 254.98 31.0758 254.332C30.2656 254.026 29.5875 253.768 29.0593 253.57C28.5852 253.39 28.3152 253.3 28.3092 253.324C28.3032 253.342 28.5552 253.468 29.0173 253.678C29.4794 253.888 30.1576 254.182 30.9978 254.524C32.6841 255.221 35.0306 256.127 37.6592 257.033C40.2878 257.939 42.7003 258.665 44.4527 259.157C45.3289 259.403 46.043 259.589 46.5351 259.71C47.0332 259.83 47.3093 259.89 47.3153 259.872Z" fill="#E0E0E0"/>
</g>
</g>
</g>
</g>
</g>
<path d="M190.121 45.2714C191.538 42.7328 192.348 39.8102 192.348 36.6895C192.348 27.0214 184.6 19.1777 175.04 19.1777C173.444 19.1777 171.901 19.3998 170.437 19.8079C177.759 21.8483 183.142 28.6298 183.142 36.6895C183.142 44.7493 177.759 51.5307 170.437 53.5712C171.901 53.9793 173.444 54.2013 175.04 54.2013C178.407 54.2013 181.551 53.2231 184.21 51.5427L192.354 54.6934L190.121 45.2714Z" fill="#ECB000"/>
<path d="M302.045 27.4236H245.855V108.867H302.045V27.4236Z" fill="#E0E0E0"/>
<path d="M299.23 27.4236H243.04V108.867H299.23V27.4236Z" fill="#F5F5F5"/>
<path d="M292.245 36.2456H250.02V100.045H292.245V36.2456Z" fill="white"/>
<path d="M292.244 100.045C292.244 100.045 292.238 99.9373 292.238 99.7332C292.238 99.5232 292.232 99.2231 292.232 98.827C292.226 98.0229 292.22 96.8526 292.214 95.3283C292.208 92.2676 292.19 87.8146 292.178 82.1854C292.16 70.933 292.136 55.0055 292.112 36.2455L292.25 36.3835C279.348 36.3895 265.052 36.3895 250.031 36.3955H250.025L250.175 36.2455C250.163 60.3167 250.151 82.5035 250.145 100.045L250.025 99.9253C262.886 99.9493 273.424 99.9733 280.758 99.9913C284.425 100.003 287.293 100.015 289.25 100.021C290.222 100.027 290.966 100.033 291.476 100.033C291.98 100.039 292.244 100.045 292.244 100.045C292.244 100.045 291.998 100.051 291.5 100.057C290.996 100.063 290.258 100.063 289.292 100.069C287.341 100.075 284.485 100.087 280.83 100.099C273.478 100.117 262.91 100.135 250.019 100.165H249.899V100.045C249.893 82.5035 249.881 60.3107 249.869 36.2455V36.0955H250.019H250.025C265.052 36.1015 279.348 36.1015 292.244 36.1075H292.382V36.2455C292.352 55.0416 292.328 71.005 292.316 82.2814C292.298 87.8987 292.286 92.3396 292.28 95.3943C292.274 96.9066 292.268 98.0709 292.262 98.863C292.256 99.2471 292.256 99.5472 292.256 99.7512C292.25 99.9493 292.244 100.045 292.244 100.045Z" fill="#E0E0E0"/>
<path d="M299.385 27.4239C299.415 27.4479 299.037 28.006 298.383 28.8762C297.729 29.7464 296.805 30.9347 295.748 32.2189C294.692 33.5032 293.702 34.6375 292.97 35.4476C292.238 36.2578 291.763 36.7379 291.733 36.7079C291.703 36.6779 292.118 36.1498 292.808 35.3036C293.564 34.3914 294.488 33.2632 295.514 32.0209C296.541 30.7786 297.465 29.6504 298.215 28.7382C298.911 27.91 299.349 27.3999 299.385 27.4239Z" fill="#E0E0E0"/>
<path d="M292.462 99.8416C294.557 103.178 297.035 106.275 299.826 109.054L292.462 99.8416Z" fill="white"/>
<path d="M299.825 109.053C299.795 109.083 299.297 108.645 298.54 107.883C297.784 107.121 296.782 106.029 295.762 104.75C294.742 103.472 293.889 102.254 293.313 101.348C292.737 100.441 292.425 99.8593 292.455 99.8413C292.491 99.8173 292.869 100.363 293.493 101.228C294.111 102.098 294.982 103.286 295.996 104.558C297.01 105.831 297.982 106.941 298.69 107.733C299.411 108.531 299.861 109.017 299.825 109.053Z" fill="#E0E0E0"/>
<path d="M243.028 108.802C245.482 105.777 247.937 102.747 250.385 99.7219L243.028 108.802Z" fill="white"/>
<path d="M250.391 99.7213C250.457 99.7753 248.861 101.852 246.833 104.36C244.798 106.869 243.1 108.855 243.034 108.807C242.968 108.753 244.564 106.677 246.592 104.168C248.621 101.66 250.325 99.6673 250.391 99.7213Z" fill="#E0E0E0"/>
<path d="M243.04 27.4235C243.106 27.3695 244.708 29.2839 246.61 31.6964C248.519 34.1089 250.007 36.1074 249.941 36.1554C249.875 36.2094 248.279 34.295 246.37 31.8824C244.462 29.4759 242.974 27.4775 243.04 27.4235Z" fill="#E0E0E0"/>
<path d="M279.09 49.1965H264.951V89.3392H279.09V49.1965Z" fill="#E0E0E0"/>
<path d="M125.661 14.4128V59.2845H61.2073L58.8848 14.7249L125.661 14.4128Z" fill="#E0E0E0"/>
<path d="M58.8843 14.7295V59.1931L123.338 59.1931V14.7295L58.8843 14.7295Z" fill="white"/>
<path d="M123.645 59.5019H58.5791V14.4202H123.645V59.5019ZM59.1912 58.8898H123.033V15.0323H59.1912V58.8898Z" fill="#E0E0E0"/>
<path d="M116.353 20.252H65.8643V53.6672H116.353V20.252Z" fill="white"/>
<path d="M116.354 20.2518C116.354 20.2518 116.27 20.2578 116.108 20.2578C115.934 20.2578 115.7 20.2638 115.388 20.2638C114.746 20.2698 113.822 20.2758 112.615 20.2818C110.191 20.2938 106.662 20.3059 102.209 20.3239C93.3032 20.3419 80.7005 20.3659 65.8653 20.3959L66.0093 20.2518C66.0153 30.46 66.0153 41.7725 66.0213 53.6671V53.6731L65.8593 53.511C84.9074 53.523 102.467 53.535 116.348 53.541L116.222 53.6671C116.252 43.4949 116.27 35.1591 116.288 29.3558C116.3 26.4512 116.312 24.1887 116.318 22.6344C116.324 21.8662 116.33 21.2781 116.33 20.87C116.348 20.4619 116.354 20.2518 116.354 20.2518C116.354 20.2518 116.366 20.4439 116.366 20.84C116.372 21.2421 116.372 21.8242 116.378 22.5803C116.384 24.1287 116.396 26.3852 116.408 29.2778C116.426 35.1051 116.444 43.4709 116.474 53.6731V53.7991H116.348C102.467 53.8051 84.9014 53.8171 65.8593 53.8291H65.6973V53.6671V53.6611C65.7033 41.7725 65.7093 30.46 65.7093 20.2458V20.1018H65.8533C80.7305 20.1318 93.3692 20.1558 102.293 20.1738C106.734 20.1918 110.245 20.2038 112.663 20.2158C113.858 20.2218 114.776 20.2278 115.406 20.2338C115.706 20.2398 115.94 20.2398 116.108 20.2398C116.282 20.2458 116.354 20.2518 116.354 20.2518Z" fill="#E0E0E0"/>
<path d="M58.8842 14.5988C58.9082 14.5628 59.3343 14.8389 59.9944 15.319C60.6546 15.7931 61.5488 16.4712 62.521 17.2454C63.4932 18.0196 64.3454 18.7577 64.9455 19.3039C65.5456 19.856 65.8997 20.2161 65.8697 20.2461C65.8097 20.3121 64.2613 19.0338 62.3229 17.4915C60.3845 15.9491 58.8302 14.6769 58.8842 14.5988Z" fill="#E0E0E0"/>
<path d="M123.339 14.725C123.393 14.7911 121.874 16.0873 119.948 17.6117C118.022 19.136 116.413 20.3183 116.359 20.2462C116.305 20.1802 117.824 18.8839 119.75 17.3596C121.676 15.8413 123.285 14.659 123.339 14.725Z" fill="#E0E0E0"/>
<path d="M123.287 59.2015C120.892 57.2571 118.498 55.3187 116.103 53.3743L123.287 59.2015Z" fill="white"/>
<path d="M116.102 53.3731C116.156 53.3071 117.812 54.5554 119.793 56.1637C121.779 57.7721 123.339 59.1344 123.285 59.2004C123.231 59.2664 121.575 58.0181 119.595 56.4098C117.608 54.8014 116.042 53.4451 116.102 53.3731Z" fill="#E0E0E0"/>
<path d="M58.8842 59.1941C58.8302 59.1281 60.3305 57.8438 62.2389 56.3375C64.1474 54.8311 65.7377 53.6609 65.7917 53.7329C65.8457 53.7989 64.3454 55.0832 62.437 56.5895C60.5286 58.0958 58.9382 59.2601 58.8842 59.1941Z" fill="#E0E0E0"/>
<path d="M76.1177 30.6659V41.8523H107.889V30.6659H76.1177Z" fill="#E0E0E0"/>
<path d="M327.932 270.44C327.932 270.524 206.775 270.596 133.217 270.596C59.6352 270.596 9.0083 270.524 9.0083 270.44C9.0083 270.356 59.6352 270.284 133.217 270.284C206.775 270.278 327.932 270.35 327.932 270.44Z" fill="#263238"/>
<path d="M116.449 251.17L116.941 266.107L120.734 277.81C121.01 278.656 120.512 279.55 119.647 279.766C119.167 279.886 118.657 279.772 118.285 279.448C115.885 277.39 107.099 269.78 107.129 268.688C107.159 267.421 105.568 252.97 105.568 252.97L116.449 251.17Z" fill="#ECB000"/>
<path d="M119.648 279.76L107.069 267.674L107.105 268.304C107.135 268.85 107.357 269.366 107.735 269.768C108.743 270.83 111.594 273.699 118.243 279.448C118.627 279.778 119.155 279.898 119.648 279.76Z" fill="#080014"/>
<path d="M109.865 262.686C110.255 262.927 110.405 263.485 110.183 263.881C109.961 264.277 109.397 264.439 109.001 264.211C108.611 263.983 108.401 263.317 108.671 262.945C108.935 262.572 109.613 262.422 109.937 262.74" fill="white"/>
<path d="M115.88 273.435C115.964 273.471 116.258 272.673 117.122 272.199C117.974 271.701 118.808 271.869 118.82 271.773C118.832 271.737 118.634 271.629 118.286 271.599C117.938 271.569 117.434 271.647 116.96 271.911C116.486 272.181 116.162 272.565 116.006 272.883C115.85 273.201 115.838 273.423 115.88 273.435Z" fill="#263238"/>
<path d="M117.049 275.373C117.121 275.433 117.577 274.923 118.334 274.659C119.09 274.377 119.762 274.485 119.78 274.389C119.816 274.311 119.084 274.035 118.22 274.347C117.361 274.653 116.971 275.337 117.049 275.373Z" fill="#263238"/>
<path d="M113.755 270.98C113.827 271.046 114.517 270.254 115.664 269.744C116.798 269.21 117.848 269.204 117.848 269.102C117.866 269.024 116.75 268.874 115.526 269.444C114.301 270.002 113.683 270.944 113.755 270.98Z" fill="#263238"/>
<path d="M113.226 266.456C113.268 266.546 114.078 266.149 115.147 266.053C116.215 265.939 117.079 266.167 117.109 266.071C117.145 265.993 116.263 265.609 115.117 265.729C113.964 265.837 113.178 266.389 113.226 266.456Z" fill="#263238"/>
<path d="M112.975 262.074C113.029 262.158 113.827 261.612 114.961 261.6C116.096 261.564 116.918 262.074 116.966 261.984C116.99 261.954 116.816 261.774 116.462 261.594C116.108 261.414 115.568 261.258 114.955 261.27C114.343 261.282 113.809 261.462 113.461 261.66C113.113 261.858 112.951 262.044 112.975 262.074Z" fill="#263238"/>
<path d="M114.888 260.772C114.906 260.772 114.93 260.568 114.876 260.208C114.822 259.848 114.69 259.32 114.348 258.756C114.174 258.486 113.982 258.138 113.556 257.97C113.346 257.88 113.034 257.94 112.872 258.144C112.71 258.348 112.668 258.594 112.674 258.828C112.74 259.776 113.604 260.646 114.678 260.724C115.753 260.784 116.689 260.118 117.067 259.278C117.145 259.062 117.199 258.798 117.067 258.552C116.941 258.306 116.629 258.222 116.419 258.27C115.981 258.36 115.717 258.63 115.464 258.834C114.972 259.278 114.678 259.728 114.51 260.052C114.342 260.376 114.294 260.574 114.312 260.58C114.366 260.616 114.648 259.824 115.615 259.014C115.861 258.828 116.143 258.588 116.461 258.54C116.617 258.516 116.755 258.57 116.815 258.69C116.881 258.81 116.857 258.996 116.785 259.164C116.467 259.854 115.609 260.46 114.696 260.394C113.79 260.34 113.034 259.572 112.974 258.81C112.962 258.624 112.998 258.438 113.094 258.324C113.184 258.21 113.328 258.174 113.472 258.222C113.766 258.324 113.982 258.624 114.156 258.876C114.84 259.938 114.822 260.79 114.888 260.772Z" fill="#263238"/>
<path d="M145.527 253.384L144.753 264.553C144.753 264.553 155.843 269.09 155.903 271.166L134.196 270.446L134.688 252.994L145.527 253.384Z" fill="#ECB000"/>
<path d="M138.072 263.389C137.646 263.491 137.34 263.953 137.424 264.379C137.508 264.805 137.976 265.123 138.402 265.027C138.828 264.931 139.212 264.391 139.08 263.971C138.948 263.557 138.378 263.215 137.988 263.407" fill="#E0E0E0"/>
<path d="M134.195 270.446L134.315 268.688L155.086 270.038C155.086 270.038 156.04 270.488 155.908 271.167L134.195 270.446Z" fill="#080014"/>
<path d="M145.106 264.457C145.1 264.565 144.565 264.595 144.031 264.919C143.491 265.231 143.203 265.681 143.107 265.633C143.011 265.609 143.191 264.979 143.839 264.601C144.499 264.211 145.136 264.361 145.106 264.457Z" fill="#263238"/>
<path d="M147.357 265.471C147.375 265.573 146.913 265.741 146.535 266.173C146.145 266.599 146.043 267.08 145.935 267.074C145.833 267.086 145.785 266.461 146.259 265.927C146.733 265.393 147.357 265.369 147.357 265.471Z" fill="#263238"/>
<path d="M148.556 268.238C148.46 268.256 148.328 267.722 148.622 267.151C148.91 266.575 149.414 266.365 149.456 266.455C149.516 266.545 149.18 266.845 148.946 267.32C148.706 267.788 148.664 268.232 148.556 268.238Z" fill="#263238"/>
<path d="M145.004 261.888C144.956 261.984 144.476 261.822 143.876 261.84C143.275 261.846 142.801 262.032 142.747 261.942C142.687 261.864 143.155 261.486 143.864 261.474C144.572 261.456 145.058 261.81 145.004 261.888Z" fill="#263238"/>
<path d="M145.117 259.632C145.117 259.674 144.697 259.728 144.03 259.59C143.7 259.524 143.31 259.398 142.902 259.2C142.698 259.104 142.494 258.984 142.29 258.846C142.194 258.78 142.074 258.707 141.972 258.581C141.858 258.467 141.798 258.185 141.942 258.017C142.056 257.855 142.26 257.789 142.416 257.789C142.578 257.789 142.704 257.825 142.824 257.861C143.064 257.927 143.286 258.017 143.49 258.113C143.898 258.317 144.229 258.563 144.469 258.804C144.955 259.284 145.117 259.686 145.081 259.71C145.033 259.746 144.799 259.404 144.301 259.002C144.048 258.804 143.73 258.593 143.346 258.425C143.154 258.341 142.95 258.269 142.728 258.209C142.5 258.143 142.302 258.131 142.242 258.233C142.218 258.269 142.218 258.287 142.26 258.353C142.308 258.419 142.398 258.479 142.494 258.545C142.68 258.677 142.872 258.792 143.058 258.894C143.43 259.092 143.79 259.236 144.097 259.332C144.709 259.536 145.117 259.578 145.117 259.632Z" fill="#263238"/>
<path d="M144.973 259.782C144.937 259.8 144.739 259.41 144.721 258.72C144.715 258.378 144.763 257.97 144.907 257.531C144.979 257.315 145.081 257.093 145.207 256.883C145.339 256.673 145.507 256.391 145.921 256.355C146.138 256.355 146.312 256.529 146.366 256.673C146.432 256.823 146.444 256.949 146.462 257.075C146.492 257.327 146.48 257.579 146.438 257.808C146.354 258.27 146.15 258.648 145.933 258.918C145.489 259.464 145.045 259.578 145.033 259.542C144.997 259.488 145.375 259.296 145.717 258.768C145.885 258.504 146.041 258.162 146.095 257.76C146.126 257.561 146.126 257.345 146.095 257.129C146.071 256.895 145.987 256.709 145.903 256.727C145.795 256.721 145.603 256.889 145.513 257.069C145.393 257.261 145.297 257.459 145.225 257.652C145.075 258.042 145.003 258.414 144.979 258.732C144.931 259.368 145.033 259.77 144.973 259.782Z" fill="#263238"/>
<path d="M100.9 143.177L104.105 263.227L121.232 262.716L125.313 139.084L100.9 143.177Z" fill="#080014"/>
<path d="M136.494 138.88C136.494 138.88 149.205 189.771 149.595 198.449C149.985 207.126 146.876 261.366 146.876 261.366H130.108L131.507 199.601L118.772 147.329L121.857 139.144L136.494 138.88Z" fill="#080014"/>
<path d="M126.142 145.127C126.148 145.127 126.148 145.181 126.148 145.289C126.148 145.415 126.142 145.571 126.136 145.763C126.118 146.207 126.094 146.82 126.07 147.594C125.998 149.208 125.889 151.495 125.763 154.315C125.469 160.01 125.073 167.842 124.629 176.49C124.149 185.138 123.717 192.97 123.405 198.665C123.237 201.485 123.093 203.772 122.997 205.386C122.943 206.16 122.901 206.773 122.871 207.211C122.853 207.403 122.841 207.559 122.829 207.685C122.817 207.793 122.811 207.847 122.805 207.847C122.799 207.847 122.799 207.793 122.799 207.685C122.799 207.559 122.805 207.403 122.811 207.211C122.829 206.767 122.853 206.16 122.877 205.38C122.949 203.766 123.057 201.479 123.183 198.659C123.477 192.964 123.873 185.132 124.317 176.478C124.797 167.83 125.229 160.004 125.541 154.309C125.709 151.489 125.853 149.202 125.95 147.594C126.004 146.82 126.046 146.207 126.076 145.769C126.094 145.577 126.106 145.421 126.118 145.295C126.13 145.181 126.136 145.127 126.142 145.127Z" fill="#8F9296"/>
<path d="M124.263 73.6214C124.263 73.6214 130.487 104.492 130.577 113.188C130.667 121.884 133.721 138.88 133.721 138.88H106.775L106.193 91.8474L104.273 77.8163L108.318 72.0491L124.263 73.6214Z" fill="#F5F5F5"/>
<path d="M124.588 74.5276C124.588 74.5276 131.015 76.418 132.714 78.7945C134.052 80.6729 135.864 116.177 135.864 116.177L138.625 147.449L135.924 147.197L132.12 135.489L124.588 74.5276Z" fill="#ECB000"/>
<path d="M132.719 78.7949L150.867 95.4485L173.198 88.211L177.645 97.585L153.82 108.399C150.417 109.852 148.281 109.053 145.916 107.157L133.415 97.1469L132.719 78.7949Z" fill="#ECB000"/>
<path d="M169.041 91.1995C169.167 91.4396 169.077 91.7336 168.837 91.8597C168.597 91.9857 168.303 91.8957 168.177 91.6556C168.05 91.4156 168.141 91.1215 168.381 90.9955C168.621 90.8755 168.915 90.9655 169.041 91.1995Z" fill="black"/>
<path d="M168.608 91.9376C168.56 91.9376 168.512 91.9316 168.464 91.9136C168.332 91.8716 168.23 91.7875 168.164 91.6675C168.098 91.5475 168.086 91.4095 168.128 91.2834C168.17 91.1574 168.254 91.0494 168.374 90.9834C168.494 90.9173 168.632 90.9053 168.758 90.9474C168.884 90.9894 168.992 91.0734 169.058 91.1934C169.124 91.3134 169.136 91.4515 169.094 91.5775C169.058 91.7035 168.968 91.8115 168.848 91.8776C168.776 91.9196 168.692 91.9376 168.608 91.9376ZM168.608 90.9594C168.53 90.9594 168.458 90.9774 168.386 91.0134C168.272 91.0734 168.194 91.1754 168.158 91.2954C168.122 91.4155 168.134 91.5475 168.194 91.6555C168.254 91.7695 168.356 91.8476 168.476 91.8836C168.596 91.9196 168.728 91.9076 168.836 91.8476C168.95 91.7875 169.028 91.6855 169.064 91.5655C169.1 91.4455 169.088 91.3134 169.028 91.2054C168.944 91.0494 168.776 90.9594 168.608 90.9594Z" fill="black"/>
<path d="M170.912 90.7556C171.038 90.9956 170.948 91.2897 170.708 91.4157C170.468 91.5417 170.174 91.4517 170.048 91.2117C169.922 90.9716 170.012 90.6776 170.252 90.5515C170.492 90.4255 170.786 90.5155 170.912 90.7556Z" fill="black"/>
<path d="M170.481 91.4935C170.433 91.4935 170.385 91.4875 170.336 91.4695C170.204 91.4275 170.102 91.3434 170.036 91.2234C169.904 90.9774 170 90.6713 170.246 90.5393C170.367 90.4733 170.505 90.4613 170.631 90.5033C170.757 90.5453 170.865 90.6293 170.931 90.7493C170.997 90.8693 171.009 91.0074 170.967 91.1334C170.925 91.2594 170.841 91.3674 170.721 91.4335C170.649 91.4695 170.565 91.4935 170.481 91.4935ZM170.481 90.5093C170.403 90.5093 170.325 90.5273 170.258 90.5633C170.03 90.6893 169.94 90.9774 170.066 91.2054C170.126 91.3194 170.228 91.3975 170.349 91.4335C170.469 91.4695 170.601 91.4575 170.709 91.3975C170.937 91.2714 171.027 90.9834 170.907 90.7553C170.847 90.6413 170.745 90.5633 170.625 90.5273C170.577 90.5213 170.529 90.5093 170.481 90.5093Z" fill="black"/>
<path d="M172.696 90.3962C172.823 90.6362 172.732 90.9303 172.492 91.0563C172.252 91.1824 171.958 91.0923 171.832 90.8523C171.706 90.6122 171.796 90.3182 172.036 90.1921C172.27 90.0661 172.57 90.1561 172.696 90.3962Z" fill="black"/>
<path d="M172.263 91.1332C172.215 91.1332 172.167 91.1272 172.113 91.1092C171.987 91.0672 171.879 90.9832 171.813 90.8632C171.747 90.7431 171.735 90.6051 171.777 90.4791C171.819 90.347 171.903 90.245 172.023 90.179C172.269 90.047 172.575 90.143 172.707 90.3891C172.839 90.6351 172.743 90.9412 172.497 91.0732C172.425 91.1092 172.347 91.1332 172.263 91.1332ZM172.263 90.155C172.185 90.155 172.113 90.173 172.041 90.209C171.927 90.269 171.849 90.371 171.813 90.4911C171.777 90.6111 171.789 90.7431 171.849 90.8512C171.909 90.9652 172.011 91.0432 172.131 91.0792C172.251 91.1152 172.383 91.1032 172.491 91.0432C172.719 90.9172 172.809 90.6291 172.689 90.4011C172.599 90.245 172.431 90.155 172.263 90.155Z" fill="black"/>
<path d="M173.42 88.679L175.148 88.0488L179.115 96.4026L177.423 97.1228L173.42 88.679Z" fill="#E0E0E0"/>
<path d="M133.302 85.3782C133.326 85.3782 133.356 85.7082 133.404 86.3144C133.47 86.9685 133.56 87.8267 133.662 88.8589C133.914 91.0614 134.244 93.996 134.61 97.2487C134.97 100.525 135.264 103.502 135.396 105.663C135.468 106.743 135.498 107.619 135.504 108.225C135.504 108.831 135.492 109.167 135.474 109.167C135.45 109.167 135.42 108.831 135.384 108.231C135.342 107.631 135.276 106.761 135.174 105.681C134.982 103.532 134.658 100.561 134.298 97.2847C133.938 94.008 133.614 91.0374 133.44 88.8829C133.35 87.8027 133.302 86.9325 133.278 86.3264C133.272 85.7082 133.278 85.3782 133.302 85.3782Z" fill="black"/>
<path d="M137.262 89.5432C137.346 89.5672 136.836 91.5716 136.128 94.0202C135.42 96.4687 134.772 98.4311 134.694 98.4071C134.61 98.3831 135.12 96.3787 135.828 93.9301C136.536 91.4816 137.178 89.5192 137.262 89.5432Z" fill="black"/>
<path d="M150.675 101.072C150.639 101.09 150.453 100.801 150.273 100.279C150.093 99.7572 149.949 98.9951 150.003 98.1489C150.057 97.3027 150.297 96.5585 150.537 96.0664C150.777 95.5683 151.005 95.3103 151.035 95.3283C151.125 95.3703 150.405 96.5405 150.315 98.1669C150.201 99.7932 150.765 101.042 150.675 101.072Z" fill="black"/>
<path d="M148.599 120.365L150.921 120.546L149.997 130.232L147.759 129.98L148.599 120.365Z" fill="#E0E0E0"/>
<path d="M108.324 72.7214L95.7994 80.7032C92.8588 82.7676 91.6285 86.5184 92.7628 89.9272L102.371 120.108L98.9081 147.534L126.352 146.369L125.686 134.349L123.357 112.84C122.925 108.849 121.935 104.942 120.411 101.234L108.324 72.7214Z" fill="#ECB000"/>
<path d="M95.2357 91.5836L107.76 117.797C108.775 119.916 110.689 121.458 112.97 121.998L147.729 130.232L148.617 120.114L122.086 110.134L108.739 84.5141C106.71 80.6192 101.807 79.2389 98.0443 81.5074C94.5936 83.5959 93.3633 88.0128 95.2357 91.5836Z" fill="#ECB000"/>
<path d="M148.623 120.114C148.623 120.12 148.575 120.108 148.479 120.078C148.371 120.042 148.239 119.994 148.071 119.94C147.693 119.802 147.165 119.616 146.499 119.375C145.113 118.865 143.132 118.139 140.678 117.233C135.727 115.385 128.849 112.81 121.059 109.899L121.005 109.875L120.975 109.821C120.237 108.351 119.457 106.815 118.665 105.248C116.486 101.012 114.32 97.0206 112.291 93.4199C111.277 91.6195 110.299 89.9211 109.375 88.3308C108.913 87.5386 108.463 86.7764 108.031 86.0383C107.821 85.6662 107.598 85.3121 107.37 84.982C107.16 84.634 106.902 84.3339 106.662 84.0338C105.672 82.8396 104.46 82.0654 103.326 81.6153C102.185 81.1652 101.111 81.0272 100.247 81.0692C98.4885 81.1292 97.6843 81.8133 97.6723 81.7593C97.6663 81.7533 97.7203 81.7173 97.8164 81.6573C97.9184 81.5913 98.0624 81.4893 98.2785 81.4053C98.6985 81.2132 99.3587 80.9972 100.241 80.9492C101.117 80.8952 102.215 81.0092 103.392 81.4593C104.556 81.9034 105.81 82.6895 106.83 83.9018C107.082 84.2079 107.346 84.5139 107.562 84.862C107.803 85.2041 108.025 85.5582 108.235 85.9242C108.673 86.6564 109.129 87.4186 109.597 88.2047C110.533 89.7891 111.517 91.4814 112.538 93.2818C114.578 96.8766 116.756 100.861 118.935 105.104C119.739 106.665 120.513 108.213 121.239 109.683L121.155 109.605C128.927 112.552 135.793 115.157 140.738 117.035C143.18 117.977 145.149 118.733 146.523 119.261C147.183 119.52 147.705 119.73 148.077 119.874C148.239 119.94 148.371 119.994 148.479 120.042C148.575 120.09 148.623 120.108 148.623 120.114Z" fill="black"/>
<path d="M142.712 126.421C142.712 126.691 142.49 126.913 142.22 126.913C141.95 126.913 141.728 126.691 141.728 126.421C141.728 126.151 141.95 125.929 142.22 125.929C142.496 125.935 142.712 126.151 142.712 126.421Z" fill="black"/>
<path d="M142.226 126.925C141.95 126.925 141.722 126.697 141.722 126.421C141.722 126.145 141.95 125.917 142.226 125.917C142.502 125.917 142.73 126.145 142.73 126.421C142.73 126.703 142.502 126.925 142.226 126.925ZM142.226 125.947C141.962 125.947 141.752 126.157 141.752 126.421C141.752 126.685 141.962 126.895 142.226 126.895C142.49 126.895 142.7 126.685 142.7 126.421C142.7 126.163 142.484 125.947 142.226 125.947Z" fill="black"/>
<path d="M144.574 126.913C144.574 127.184 144.352 127.406 144.081 127.406C143.811 127.406 143.589 127.184 143.589 126.913C143.589 126.643 143.811 126.421 144.081 126.421C144.358 126.421 144.574 126.643 144.574 126.913Z" fill="black"/>
<path d="M144.087 127.417C143.811 127.417 143.583 127.189 143.583 126.913C143.583 126.637 143.811 126.409 144.087 126.409C144.363 126.409 144.591 126.637 144.591 126.913C144.591 127.189 144.363 127.417 144.087 127.417ZM144.087 126.439C143.823 126.439 143.613 126.649 143.613 126.913C143.613 127.177 143.823 127.387 144.087 127.387C144.351 127.387 144.561 127.177 144.561 126.913C144.561 126.649 144.345 126.439 144.087 126.439Z" fill="black"/>
<path d="M145.828 127.928C146.099 127.928 146.32 127.707 146.32 127.436C146.32 127.164 146.099 126.944 145.828 126.944C145.556 126.944 145.335 127.164 145.335 127.436C145.335 127.707 145.556 127.928 145.828 127.928Z" fill="black"/>
<path d="M145.827 127.939C145.551 127.939 145.323 127.711 145.323 127.435C145.323 127.159 145.551 126.931 145.827 126.931C146.103 126.931 146.331 127.159 146.331 127.435C146.331 127.711 146.103 127.939 145.827 127.939ZM145.827 126.961C145.563 126.961 145.353 127.171 145.353 127.435C145.353 127.699 145.563 127.909 145.827 127.909C146.091 127.909 146.301 127.699 146.301 127.435C146.301 127.171 146.091 126.961 145.827 126.961Z" fill="black"/>
<path d="M147.735 130.232C147.735 130.238 147.675 130.226 147.567 130.208C147.441 130.178 147.279 130.142 147.081 130.1C146.631 129.992 146.007 129.842 145.208 129.649C143.564 129.241 141.218 128.665 138.337 127.957C132.534 126.535 124.522 124.518 115.64 122.46C114.53 122.196 113.426 121.986 112.345 121.692C111.271 121.398 110.203 120.96 109.375 120.209C108.547 119.459 108.018 118.499 107.556 117.575C107.112 116.639 106.674 115.726 106.248 114.832C104.556 111.267 103.037 108.051 101.753 105.344C100.493 102.656 99.4665 100.471 98.7464 98.9348C98.4043 98.1907 98.1343 97.6085 97.9422 97.1884C97.8582 97.0024 97.7922 96.8524 97.7382 96.7324C97.6962 96.6303 97.6722 96.5763 97.6782 96.5703C97.6842 96.5703 97.7142 96.6183 97.7682 96.7203C97.8282 96.8344 97.9062 96.9844 97.9962 97.1644C98.2003 97.5785 98.4883 98.1547 98.8544 98.8868C99.5986 100.411 100.649 102.584 101.951 105.254C103.253 107.955 104.796 111.159 106.506 114.712C106.938 115.6 107.376 116.513 107.826 117.443C108.288 118.361 108.805 119.285 109.585 119.987C110.365 120.69 111.379 121.11 112.435 121.398C113.498 121.686 114.608 121.896 115.718 122.166C124.606 124.224 132.606 126.271 138.397 127.753C141.272 128.503 143.606 129.115 145.244 129.541C146.037 129.757 146.655 129.926 147.105 130.046C147.303 130.106 147.459 130.148 147.585 130.184C147.681 130.208 147.735 130.232 147.735 130.232Z" fill="black"/>
<path d="M119.662 128.593C119.674 128.611 119.524 128.737 119.248 128.941C118.972 129.151 118.558 129.439 118.042 129.788C117.01 130.472 115.533 131.402 113.727 132.032C111.915 132.668 110.126 132.746 108.89 132.518C108.272 132.41 107.786 132.248 107.462 132.11C107.138 131.972 106.976 131.87 106.982 131.852C107.006 131.798 107.702 132.146 108.92 132.302C110.132 132.47 111.855 132.356 113.625 131.738C115.395 131.12 116.866 130.238 117.928 129.602C118.984 128.959 119.638 128.551 119.662 128.593Z" fill="black"/>
<path d="M121.179 132.074C121.191 132.074 121.221 132.146 121.263 132.302C121.317 132.452 121.365 132.68 121.425 132.974C121.533 133.568 121.587 134.45 121.401 135.519C121.203 136.581 120.746 137.829 119.84 138.957C118.946 140.092 117.578 141.016 115.975 141.472C114.373 141.916 112.717 141.832 111.366 141.328C110.01 140.836 108.966 140.002 108.252 139.198C107.538 138.381 107.13 137.595 106.913 137.031C106.805 136.749 106.733 136.527 106.703 136.371C106.667 136.215 106.649 136.137 106.661 136.131C106.733 136.089 106.979 137.475 108.42 139.041C109.14 139.804 110.16 140.59 111.468 141.052C112.771 141.526 114.355 141.592 115.897 141.166C117.434 140.728 118.754 139.852 119.624 138.771C120.506 137.697 120.975 136.497 121.191 135.477C121.605 133.382 121.095 132.074 121.179 132.074Z" fill="black"/>
<path d="M109.667 48.8302L109.745 71.1911C109.757 74.9959 112.95 78.0146 116.749 77.8105C120.296 77.6245 123.068 74.6838 123.05 71.1311C123.044 69.4507 123.038 68.0464 123.05 67.8724C123.05 67.8724 128.739 67.3142 129.129 61.679C129.316 58.9544 129.25 53.3132 129.129 48.2121C129.003 42.7329 124.677 38.274 119.203 37.9619L118.657 37.9319C112.782 37.9379 109.499 42.943 109.667 48.8302Z" fill="#FFBE9D"/>
<path d="M123.068 67.7942C123.068 67.7942 119.485 67.8782 115.836 65.2856C115.836 65.2856 117.342 69.4445 123.001 69.2585L123.068 67.7942Z" fill="#EB996E"/>
<path d="M127.738 51.531C127.726 51.9571 127.359 52.2992 126.915 52.2992C126.471 52.2992 126.117 51.9511 126.129 51.525C126.141 51.0989 126.507 50.7568 126.951 50.7568C127.395 50.7568 127.75 51.1049 127.738 51.531Z" fill="#080014"/>
<path d="M127.899 50.5767C127.791 50.6787 127.208 50.1866 126.344 50.1446C125.48 50.0846 124.82 50.4927 124.73 50.3847C124.688 50.3367 124.796 50.1506 125.09 49.9646C125.372 49.7785 125.852 49.6105 126.392 49.6465C126.932 49.6825 127.376 49.9046 127.623 50.1206C127.869 50.3367 127.953 50.5347 127.899 50.5767Z" fill="#080014"/>
<path d="M119.317 51.4651C119.305 51.8912 118.939 52.2333 118.495 52.2333C118.051 52.2333 117.697 51.8852 117.709 51.4591C117.721 51.033 118.087 50.6909 118.531 50.6909C118.975 50.6909 119.329 51.039 119.317 51.4651Z" fill="#080014"/>
<path d="M119.276 50.3848C119.168 50.4868 118.586 50.0007 117.715 49.9527C116.851 49.8927 116.191 50.3007 116.101 50.1927C116.059 50.1447 116.167 49.9587 116.461 49.7726C116.743 49.5866 117.223 49.4186 117.763 49.4486C118.303 49.4846 118.748 49.7066 118.994 49.9227C119.246 50.1447 119.324 50.3368 119.276 50.3848Z" fill="#080014"/>
<path d="M122.018 57.1961C122.018 57.148 122.558 57.082 123.44 57.022C123.662 57.01 123.872 56.98 123.92 56.83C123.98 56.6739 123.902 56.4279 123.812 56.1638C123.632 55.6177 123.446 55.0416 123.254 54.4415C122.48 51.9929 121.934 49.9825 122.036 49.9525C122.138 49.9225 122.84 51.8849 123.614 54.3334C123.8 54.9396 123.974 55.5157 124.143 56.0618C124.215 56.3199 124.341 56.6139 124.209 56.938C124.143 57.1 123.968 57.2081 123.824 57.2381C123.68 57.2741 123.554 57.2681 123.446 57.2681C122.564 57.2741 122.018 57.2441 122.018 57.1961Z" fill="#080014"/>
<path d="M119.624 48.5843C119.528 48.8123 118.664 48.6563 117.644 48.7163C116.618 48.7583 115.783 49.0104 115.657 48.7943C115.603 48.6923 115.759 48.4763 116.102 48.2662C116.444 48.0562 116.978 47.8701 117.596 47.8401C118.208 47.8101 118.766 47.9361 119.126 48.1102C119.486 48.2782 119.666 48.4763 119.624 48.5843Z" fill="#080014"/>
<path d="M127.827 48.5124C127.665 48.6984 127.077 48.4643 126.363 48.4103C125.649 48.3323 125.031 48.4643 124.899 48.2543C124.845 48.1523 124.953 47.9602 125.229 47.7862C125.499 47.6182 125.949 47.4861 126.441 47.5341C126.933 47.5762 127.353 47.7802 127.587 47.9962C127.827 48.2123 127.899 48.4163 127.827 48.5124Z" fill="#080014"/>
<path d="M109.895 53.0315C109.799 52.9835 106.085 51.6632 105.989 55.528C105.893 59.3929 109.787 58.6907 109.799 58.5827C109.805 58.4687 109.895 53.0315 109.895 53.0315Z" fill="#FFBE9D"/>
<path d="M108.65 57.0881C108.632 57.0761 108.584 57.1361 108.464 57.1841C108.35 57.2321 108.158 57.2622 107.96 57.1841C107.558 57.0221 107.228 56.368 107.228 55.6718C107.228 55.3177 107.312 54.9877 107.438 54.7116C107.564 54.4295 107.75 54.2375 107.96 54.2075C108.164 54.1655 108.308 54.2915 108.35 54.3995C108.398 54.5076 108.374 54.5856 108.392 54.5916C108.404 54.6036 108.476 54.5316 108.452 54.3695C108.44 54.2915 108.392 54.2015 108.308 54.1235C108.218 54.0455 108.08 54.0035 107.936 54.0155C107.636 54.0275 107.36 54.2975 107.216 54.5976C107.054 54.8976 106.952 55.2757 106.958 55.6658C106.964 56.446 107.342 57.1841 107.9 57.3582C108.17 57.4362 108.398 57.3582 108.518 57.2742C108.644 57.1781 108.662 57.0941 108.65 57.0881Z" fill="#EB996E"/>
<path d="M107.753 52.7793C108.347 52.6712 109.337 53.2714 109.553 53.8355C109.775 54.3996 109.793 55.0298 110.009 55.5939C110.225 56.158 110.765 56.6921 111.359 56.5841C111.774 56.5121 112.086 56.146 112.212 55.7499C112.344 55.3538 112.32 54.9217 112.296 54.5076C112.17 52.6952 111.894 50.8889 111.924 49.0705C111.954 47.2521 112.32 45.3857 113.358 43.8913C114.396 42.403 116.215 41.3648 118.015 41.6108C119.209 41.7729 120.271 42.463 121.454 42.6971C122.852 42.9731 124.376 42.5651 125.445 41.6108C125.481 41.5808 125.553 41.5268 125.637 41.4728C126.027 41.2208 126.225 40.7347 126.075 40.2906C126.027 40.1405 125.961 40.0025 125.871 39.9065C123.632 37.59 119.413 36.7378 116.251 37.3439C113.088 37.9501 110.033 39.9845 108.527 42.8351C107.015 45.6917 107.183 49.7786 107.753 52.7793Z" fill="#080014"/>
<path d="M119.971 57.8746C120.109 57.8686 120.115 58.8048 120.919 59.471C121.723 60.1371 122.72 60.0351 122.732 60.1671C122.744 60.2271 122.51 60.3472 122.084 60.3592C121.669 60.3712 121.063 60.2391 120.571 59.831C120.079 59.423 119.869 58.8768 119.839 58.4928C119.803 58.1027 119.905 57.8686 119.971 57.8746Z" fill="#080014"/>
<path d="M173.899 89.633C173.899 89.633 178.13 85.9182 178.929 85.6422C179.733 85.3721 186.094 85.2521 186.526 85.5702C186.958 85.8882 193.404 89.423 192.335 89.9631C191.267 90.5032 186.796 87.9707 186.796 87.9707L186.046 88.0727C186.046 88.0727 189.947 90.1551 190.643 90.9593C191.285 91.6975 190.673 92.5797 189.941 92.2436C189.215 91.9015 185.866 89.9751 185.602 90.0471C185.338 90.1191 189.167 92.3636 189.521 92.7777C189.995 93.3358 189.689 94.4161 188.957 94.104C188.525 93.918 184.99 91.5775 184.99 91.5775C184.99 91.5775 187.654 93.8219 187.846 94.194C188.159 94.7942 187.558 95.3403 186.946 94.9622C186.526 94.7041 184.708 92.9157 184.144 92.5737C184.144 92.5737 183.519 92.5317 182.601 93.5099C181.683 94.4881 178.058 95.8324 178.058 95.8324L173.899 89.633Z" fill="#FFBE9D"/>
<path d="M192.318 89.9812C192.318 90.0232 191.79 90.0533 190.949 89.8972C190.535 89.8132 190.043 89.6812 189.515 89.4711C189.011 89.2311 188.465 88.955 187.895 88.661C187.475 88.4449 187.067 88.2349 186.682 88.0308L186.76 88.0488C184.864 88.0668 183.49 88.0308 183.49 87.9528C183.49 87.8748 184.858 87.7848 186.76 87.7188H186.796L186.838 87.7368C187.223 87.9288 187.625 88.1328 188.045 88.3429C188.603 88.6309 189.131 88.907 189.635 89.1651C190.133 89.3871 190.601 89.5371 190.997 89.6452C191.802 89.8732 192.318 89.9272 192.318 89.9812Z" fill="#EB996E"/>
<path d="M175.473 90.7084C175.755 91.2425 176.475 91.3805 177.063 91.2545C177.651 91.1285 178.185 90.8104 178.761 90.6424C180.496 90.1443 182.422 91.0685 184.127 90.4864C184.367 90.4023 184.631 90.2283 184.601 89.9822C184.577 89.7482 184.313 89.6342 184.091 89.5622C182.194 88.956 180.298 88.3559 178.401 87.7498" fill="#FFBE9D"/>
<path d="M178.406 87.7487C178.412 87.7247 178.64 87.7727 179.042 87.8808C179.444 87.9888 180.021 88.1508 180.735 88.3609C181.473 88.5829 182.313 88.841 183.231 89.117C183.465 89.189 183.705 89.2671 183.951 89.3391C184.173 89.4291 184.503 89.4411 184.72 89.7952C184.816 89.9752 184.756 90.2273 184.63 90.3533C184.51 90.4853 184.365 90.5633 184.221 90.6174C183.939 90.7134 183.657 90.7794 183.363 90.8094C182.181 90.9294 181.113 90.6534 180.153 90.6354C179.672 90.6174 179.216 90.6534 178.814 90.7614C178.412 90.8694 178.04 91.0495 177.686 91.1755C176.978 91.4695 176.282 91.4155 175.904 91.1875C175.514 90.9654 175.454 90.6894 175.472 90.6954C175.502 90.6714 175.598 90.9054 175.964 91.0735C176.33 91.2415 176.93 91.2595 177.596 90.9534C177.932 90.8154 178.298 90.6234 178.736 90.4913C179.174 90.3593 179.66 90.3113 180.159 90.3233C181.161 90.3293 182.235 90.5873 183.321 90.4733C183.591 90.4493 183.855 90.3833 184.095 90.3053C184.329 90.2213 184.486 90.0532 184.413 89.9392C184.353 89.8072 184.089 89.7232 183.843 89.6451C183.597 89.5671 183.363 89.4891 183.123 89.4111C182.211 89.105 181.383 88.829 180.645 88.5829C179.943 88.3429 179.372 88.1448 178.982 87.9948C178.61 87.8628 178.394 87.7727 178.406 87.7487Z" fill="#EB996E"/>
<path d="M149.876 120.6L156.892 119.904C156.892 119.904 166.17 126.259 165.281 127.657C164.393 129.056 162.869 127.657 162.869 127.657C162.869 127.657 164.519 129.692 161.855 130.328C161.855 130.328 161.219 131.726 160.204 131.6L159.568 131.606C159.568 131.606 158.992 133.377 158.134 132.999C157.276 132.615 154.689 130.328 154.689 130.328L147.494 129.692L149.876 120.6Z" fill="#FFBE9D"/>
<path d="M154.24 127.832C154.24 127.832 152.446 128.522 152.068 129.242C151.696 129.962 151.48 131.666 152.638 131.972C153.082 132.092 154.678 131.906 154.678 131.906L154.234 130.016C154.234 130.016 154.906 129.242 155.308 128.906C155.693 128.6 155.272 127.357 154.24 127.832Z" fill="#FFBE9D"/>
<path d="M156.262 128.791C156.262 128.791 154.468 129.481 154.089 130.202C153.717 130.922 153.963 132.134 155.122 132.446C155.566 132.566 156.976 132.38 156.976 132.38L156.79 132.014C156.424 131.306 156.268 130.73 156.91 130.262C156.946 130.238 157.306 129.902 157.33 129.878C157.684 129.541 157.294 128.317 156.262 128.791Z" fill="#FFBE9D"/>
<path d="M156.694 132.32C156.364 132.02 156.334 131.48 156.55 131.084C156.766 130.694 157.174 130.436 157.606 130.316C157.888 130.238 158.236 130.226 158.429 130.448C158.549 130.592 158.567 130.802 158.543 130.988C158.477 131.486 158.152 131.906 157.84 132.302C157.672 132.512 157.468 132.74 157.198 132.734C156.922 132.728 156.73 132.476 156.574 132.248" fill="#FFBE9D"/>
<path d="M118.772 75.7523L120.351 75.1582L121.719 77.6007L120.957 80.2113L119.348 80.6074L117.746 78.5849L118.772 75.7523Z" fill="#ECB000"/>
<path d="M119.348 80.6074C119.348 80.6074 121.388 91.8358 123.092 99.7335C123.092 99.7335 124.491 106.311 125.055 107.823C125.685 109.516 127.629 112.048 127.629 112.048L129.604 112.81L128.398 101.714L120.962 80.2053L119.348 80.6074Z" fill="#ECB000"/>
<g opacity="0.4">
<g opacity="0.4">
<path opacity="0.4" d="M118.772 75.7523L120.351 75.1582L121.719 77.6007L120.957 80.2113L119.348 80.6074L117.746 78.5849L118.772 75.7523Z" fill="black"/>
</g>
</g>
<g opacity="0.4">
<g opacity="0.4">
<path opacity="0.4" d="M119.348 80.6074C119.348 80.6074 121.388 91.8358 123.092 99.7335C123.092 99.7335 124.689 106.245 125.055 107.823C125.265 108.747 127.629 112.048 127.629 112.048L129.604 112.81L128.398 101.714L120.962 80.2053L119.348 80.6074Z" fill="black"/>
</g>
</g>
<path d="M109.308 68.9287L118.772 75.7522L116.725 81.3814L108.113 72.5115L109.308 68.9287Z" fill="#F5F5F5"/>
<path d="M120.35 75.1582L122.996 69.2529L124.497 74.126L122.414 79.2391L120.35 75.1582Z" fill="#F5F5F5"/>
<path d="M118.772 75.7519C118.79 75.7579 118.748 75.9079 118.664 76.184C118.556 76.508 118.43 76.8981 118.28 77.3602C117.944 78.3624 117.446 79.7787 116.858 81.4291L116.774 81.6571L116.612 81.4771C115.927 80.7209 115.183 79.8988 114.403 79.0406C112.687 77.1382 111.15 75.4038 110.046 74.1375C109.53 73.5374 109.098 73.0333 108.75 72.6252C108.45 72.2651 108.294 72.0551 108.306 72.0431C108.324 72.0311 108.51 72.2051 108.84 72.5412C109.206 72.9313 109.662 73.4114 110.208 73.9875C111.354 75.2177 112.921 76.9281 114.631 78.8305C115.405 79.6947 116.144 80.5169 116.822 81.2791L116.576 81.3271C117.188 79.6827 117.716 78.2844 118.1 77.2942C118.28 76.8441 118.436 76.466 118.562 76.148C118.688 75.8899 118.76 75.7459 118.772 75.7519Z" fill="#263238"/>
<path d="M124.498 74.1257C124.54 74.1437 124.366 74.6658 124.053 75.506C123.741 76.3462 123.297 77.4924 122.781 78.7587C122.703 78.9448 122.631 79.1308 122.559 79.3048L122.403 79.6829L122.271 79.2988C121.467 76.9943 120.303 75.47 120.381 75.422C120.411 75.398 120.735 75.7521 121.173 76.4062C121.611 77.0604 122.145 78.0266 122.565 79.1968L122.277 79.1908C122.349 79.0168 122.421 78.8307 122.499 78.6447C123.009 77.3844 123.495 76.2442 123.855 75.428C124.21 74.6058 124.456 74.1077 124.498 74.1257Z" fill="#263238"/>
<path d="M149.876 120.6L156.892 119.904C156.892 119.904 166.17 126.259 165.281 127.657C164.393 129.056 162.869 127.657 162.869 127.657C162.869 127.657 164.519 129.692 161.855 130.328C161.855 130.328 161.219 131.726 160.204 131.6L159.568 131.606C159.568 131.606 158.992 133.377 158.134 132.999C157.276 132.615 154.689 130.328 154.689 130.328L147.494 129.692L149.876 120.6Z" fill="#FFBE9D"/>
<path d="M216.894 75.548L203.541 75.0018C203.457 73.4415 203.571 66.8881 203.571 66.8881C203.571 66.8881 198.014 66.0239 197.948 60.4727C197.882 54.9215 198.842 42.1687 198.842 42.1687C205.27 39.4081 212.693 40.3383 218.238 44.6053L219.061 45.2414L216.894 75.548Z" fill="#FFBE9D"/>
<path d="M200.121 51.7109C200.451 51.4108 200.475 50.9007 200.175 50.5706C199.875 50.2405 199.365 50.2165 199.035 50.5166C198.705 50.8167 198.681 51.3268 198.981 51.6568C199.281 51.9869 199.791 52.0109 200.121 51.7109Z" fill="#080014"/>
<path d="M198.777 50.4444C198.861 50.5404 199.407 50.1204 200.175 50.1144C200.937 50.1023 201.495 50.5044 201.579 50.4084C201.621 50.3664 201.531 50.1924 201.291 50.0063C201.051 49.8203 200.643 49.6462 200.169 49.6523C199.695 49.6583 199.287 49.8443 199.053 50.0303C198.819 50.2284 198.734 50.4024 198.777 50.4444Z" fill="#080014"/>
<path d="M207.586 51.1105C207.208 51.3445 207.088 51.8426 207.322 52.2207C207.556 52.5988 208.055 52.7188 208.433 52.4848C208.811 52.2507 208.931 51.7526 208.697 51.3745C208.463 50.9965 207.971 50.8764 207.586 51.1105Z" fill="#080014"/>
<path d="M207.082 51.1168C207.172 51.2128 207.712 50.7927 208.48 50.7867C209.242 50.7747 209.8 51.1768 209.884 51.0808C209.926 51.0388 209.836 50.8647 209.596 50.6787C209.356 50.4927 208.948 50.3186 208.474 50.3246C208 50.3306 207.592 50.5167 207.358 50.7027C207.124 50.9007 207.04 51.0748 207.082 51.1168Z" fill="#080014"/>
<path d="M204.015 57.43C204.021 57.3699 203.547 57.2739 202.779 57.1659C202.581 57.1419 202.419 57.0999 202.407 56.9919C202.371 56.8718 202.449 56.6558 202.551 56.4217C202.749 55.9176 202.947 55.4015 203.157 54.8674C203.991 52.6529 204.579 50.8225 204.465 50.7805C204.351 50.7385 203.583 52.4969 202.749 54.7114C202.551 55.2515 202.365 55.7676 202.179 56.2777C202.106 56.5118 201.968 56.7818 202.07 57.1119C202.124 57.2799 202.281 57.394 202.413 57.43C202.545 57.472 202.659 57.472 202.755 57.472C203.529 57.502 204.009 57.49 204.015 57.43Z" fill="#080014"/>
<path d="M206.501 58.2761C205.499 58.6722 204.304 59.1763 202.75 59.3684C202.75 59.3684 203.644 60.7967 205.247 60.2085C206.909 59.5964 206.501 58.2761 206.501 58.2761Z" fill="white"/>
<path d="M203.566 66.8102C203.566 66.8102 207.077 67.0982 210.803 64.7517C210.803 64.7517 209.093 68.7486 203.548 68.2505L203.566 66.8102Z" fill="#EB996E"/>
<path d="M198.728 43.5671C198.728 43.5671 201.974 45.4455 206.523 43.5851C209.506 42.3609 212.915 41.9108 213.611 42.5409C214.307 43.177 214.247 46.1537 217.031 47.2279C217.031 47.2279 216.419 52.8691 218.688 52.8391C220.956 52.8031 220.2 43.9392 220.2 43.9392L214.883 40.8365L208.948 39.2522L203.216 39.6303L198.74 40.5065V43.5671H198.728Z" fill="#080014"/>
<path d="M218.376 50.9906C218.472 50.9486 222.193 49.8623 222.073 53.6612C221.953 57.46 218.166 56.5538 218.16 56.4458C218.154 56.3317 218.376 50.9906 218.376 50.9906Z" fill="#FFBE9D"/>
<path d="M219.367 55.0412C219.385 55.0292 219.433 55.0892 219.541 55.1432C219.649 55.1973 219.835 55.2393 220.033 55.1672C220.441 55.0352 220.795 54.4051 220.837 53.7209C220.855 53.3729 220.795 53.0428 220.681 52.7667C220.573 52.4847 220.399 52.2866 220.201 52.2446C220.003 52.1906 219.853 52.3106 219.805 52.4126C219.751 52.5147 219.775 52.5927 219.751 52.5987C219.739 52.6107 219.673 52.5327 219.709 52.3766C219.727 52.3046 219.775 52.2146 219.865 52.1426C219.961 52.0706 220.093 52.0406 220.231 52.0586C220.525 52.0886 220.777 52.3646 220.903 52.6707C221.047 52.9768 221.119 53.3488 221.101 53.7389C221.053 54.5011 220.639 55.2093 220.087 55.3473C219.817 55.4073 219.595 55.3233 219.487 55.2273C219.373 55.1312 219.355 55.0472 219.367 55.0412Z" fill="#EB996E"/>
<path d="M202.496 49.1961C202.37 49.4181 201.644 49.2381 200.774 49.2081C199.904 49.1601 199.166 49.2741 199.064 49.04C198.95 48.83 199.712 48.2599 200.816 48.3139C201.92 48.3619 202.628 48.998 202.496 49.1961Z" fill="#080014"/>
<path d="M211.013 49.1961C210.887 49.4181 210.161 49.2381 209.291 49.2081C208.421 49.1601 207.683 49.2741 207.581 49.04C207.467 48.83 208.229 48.2599 209.333 48.3139C210.437 48.3619 211.145 48.998 211.013 49.1961Z" fill="#080014"/>
<path d="M215.009 43.333C215.669 44.2512 216.342 45.1754 217.218 45.8896C218.094 46.6038 219.21 47.0959 220.332 46.9818C221.455 46.8738 222.541 46.0516 222.733 44.9414C222.925 43.8312 221.971 42.5949 220.849 42.6909C221.587 42.7989 222.319 42.0428 222.181 41.3046C222.043 40.5664 221.083 40.1284 220.434 40.5064C221.407 40.4524 221.713 38.9581 221.029 38.2559C220.35 37.5598 219.222 37.5418 218.28 37.7938C217.338 38.0399 216.444 38.496 215.471 38.58C213.947 38.706 212.507 37.8899 211.294 36.9597C210.082 36.0295 208.96 34.9372 207.55 34.3431C205.821 33.6169 203.835 33.725 202.028 34.2231C200.528 34.6372 199.064 35.3273 197.978 36.4436C196.891 37.5598 196.219 39.1441 196.441 40.6865C196.663 42.2288 197.888 43.6451 199.43 43.8492C199.43 43.8492 202.857 44.6473 205.953 42.919C209.05 41.1906 214.973 42.2408 214.973 42.2408L215.009 43.333Z" fill="#080014"/>
<path d="M220.8 39.6422C220.806 39.6542 220.722 39.7022 220.56 39.7862C220.398 39.8702 220.152 39.9783 219.833 40.1103C219.191 40.3623 218.225 40.6624 216.989 40.8364C215.759 41.0045 214.252 41.0165 212.632 40.6864C211.006 40.3623 209.349 39.6122 207.609 38.94C205.874 38.2679 204.128 37.8178 202.544 37.9978C200.965 38.1539 199.633 38.928 198.967 39.9062C198.289 40.8965 198.223 41.9407 198.331 42.5888C198.445 43.255 198.679 43.573 198.643 43.597C198.631 43.603 198.571 43.531 198.469 43.375C198.385 43.213 198.253 42.9669 198.175 42.6248C198.013 41.9527 198.031 40.8364 198.727 39.7502C199.417 38.664 200.833 37.8118 202.502 37.6317C204.176 37.4217 206 37.8898 207.753 38.5679C209.511 39.2521 211.132 39.9963 212.704 40.3263C214.27 40.6684 215.741 40.6804 216.947 40.5544C219.389 40.2843 220.77 39.5582 220.8 39.6422Z" fill="#5C6063"/>
<path d="M221.73 45.6558C221.772 45.6798 221.598 46.0338 221.136 46.4479C220.68 46.856 219.894 47.3001 218.927 47.3781C217.967 47.4561 217.115 47.1561 216.593 46.826C216.065 46.4959 215.843 46.1779 215.873 46.1479C215.915 46.0999 216.203 46.3339 216.725 46.574C217.241 46.82 218.021 47.0481 218.885 46.976C219.75 46.904 220.482 46.5499 220.95 46.2199C221.436 45.8958 221.682 45.6197 221.73 45.6558Z" fill="#5C6063"/>
<path d="M220.8 43.651C220.89 43.7111 220.512 44.3532 219.726 44.7553C218.939 45.1634 218.195 45.0974 218.201 44.9893C218.195 44.8753 218.843 44.7613 219.54 44.3952C220.242 44.0411 220.71 43.579 220.8 43.651Z" fill="#5C6063"/>
<path d="M196.561 45.8235C196.507 45.8295 196.429 45.6315 196.441 45.2894C196.453 44.9534 196.591 44.4792 196.933 44.0712C197.281 43.6691 197.725 43.453 198.055 43.387C198.385 43.315 198.595 43.369 198.601 43.417C198.619 43.531 197.821 43.6451 197.239 44.3292C196.663 45.0194 196.675 45.8235 196.561 45.8235Z" fill="#080014"/>
<path d="M195.318 40.2003C195.432 40.1703 195.72 41.2146 196.596 42.1628C197.455 43.123 198.469 43.5071 198.427 43.6211C198.421 43.7231 197.245 43.483 196.302 42.4328C195.336 41.3886 195.21 40.1943 195.318 40.2003Z" fill="#5C6063"/>
<path d="M244.854 251.83L248.503 266.317L254.696 276.946C255.14 277.714 254.846 278.698 254.054 279.088C253.61 279.31 253.088 279.304 252.65 279.064C249.871 277.564 239.669 271.994 239.459 270.92C239.219 269.672 234.592 255.893 234.592 255.893L244.854 251.83Z" fill="#ECB000"/>
<path d="M254.054 279.088L239.194 269.948L239.362 270.56C239.506 271.088 239.836 271.55 240.287 271.856C241.499 272.679 244.896 274.875 252.607 279.082C253.057 279.322 253.603 279.328 254.054 279.088Z" fill="#080014"/>
<g opacity="0.6">
<g opacity="0.6">
<g opacity="0.6">
<path opacity="0.6" d="M240.862 264.487C241.294 264.637 241.558 265.147 241.426 265.585C241.294 266.023 240.772 266.299 240.34 266.155C239.908 266.011 239.566 265.405 239.746 264.991C239.926 264.571 240.556 264.282 240.94 264.523" fill="white"/>
</g>
</g>
</g>
<path d="M249.018 273.705C249.108 273.723 249.228 272.876 249.973 272.234C250.699 271.568 251.551 271.55 251.545 271.46C251.545 271.424 251.335 271.358 250.987 271.406C250.639 271.448 250.165 271.634 249.757 271.994C249.355 272.354 249.114 272.804 249.03 273.146C248.946 273.488 248.982 273.705 249.018 273.705Z" fill="#263238"/>
<path d="M250.579 275.349C250.663 275.391 250.999 274.797 251.683 274.377C252.361 273.945 253.039 273.903 253.039 273.807C253.063 273.723 252.283 273.609 251.509 274.101C250.729 274.587 250.495 275.331 250.579 275.349Z" fill="#263238"/>
<path d="M246.425 271.76C246.509 271.808 247.019 270.89 248.027 270.146C249.023 269.384 250.05 269.156 250.026 269.06C250.026 268.976 248.903 269.072 247.829 269.888C246.755 270.686 246.347 271.742 246.425 271.76Z" fill="#263238"/>
<path d="M244.948 267.451C245.008 267.529 245.717 266.977 246.737 266.653C247.757 266.317 248.651 266.353 248.657 266.251C248.675 266.167 247.733 265.981 246.635 266.341C245.537 266.689 244.882 267.397 244.948 267.451Z" fill="#263238"/>
<path d="M243.767 263.226C243.833 263.298 244.499 262.596 245.609 262.344C246.714 262.068 247.626 262.392 247.65 262.296C247.668 262.26 247.458 262.122 247.074 262.02C246.69 261.918 246.126 261.882 245.531 262.026C244.937 262.17 244.451 262.458 244.157 262.722C243.863 262.98 243.737 263.196 243.767 263.226Z" fill="#263238"/>
<path d="M245.363 261.546C245.381 261.54 245.363 261.336 245.231 260.994C245.104 260.652 244.858 260.166 244.402 259.686C244.174 259.464 243.916 259.164 243.46 259.086C243.232 259.044 242.944 259.164 242.83 259.404C242.71 259.638 242.722 259.89 242.782 260.118C243.052 261.03 244.078 261.696 245.146 261.54C246.209 261.366 246.983 260.52 247.175 259.62C247.211 259.392 247.199 259.122 247.019 258.912C246.839 258.696 246.521 258.677 246.323 258.774C245.915 258.954 245.711 259.278 245.513 259.53C245.129 260.064 244.936 260.568 244.84 260.922C244.744 261.276 244.738 261.48 244.756 261.48C244.816 261.504 244.924 260.67 245.699 259.668C245.897 259.434 246.125 259.14 246.425 259.026C246.569 258.972 246.719 258.996 246.803 259.098C246.893 259.2 246.911 259.386 246.875 259.572C246.707 260.316 245.999 261.084 245.098 261.216C244.204 261.354 243.298 260.766 243.076 260.034C243.028 259.86 243.022 259.668 243.088 259.536C243.154 259.404 243.286 259.338 243.436 259.356C243.748 259.392 244.018 259.644 244.24 259.854C245.141 260.742 245.303 261.576 245.363 261.546Z" fill="#263238"/>
<path d="M199.598 254.53L200.372 265.699C200.372 265.699 189.282 270.236 189.222 272.312L210.928 271.592L210.436 254.14L199.598 254.53Z" fill="#ECB000"/>
<path d="M207.05 264.535C207.476 264.637 207.782 265.099 207.698 265.525C207.614 265.951 207.146 266.269 206.72 266.173C206.294 266.077 205.91 265.537 206.042 265.117C206.174 264.703 206.744 264.361 207.134 264.553" fill="#E0E0E0"/>
<path d="M210.927 271.592L210.807 269.834L190.037 271.184C190.037 271.184 189.083 271.634 189.215 272.312L210.927 271.592Z" fill="#080014"/>
<path d="M200.016 265.603C200.022 265.711 200.556 265.741 201.09 266.065C201.63 266.377 201.919 266.827 202.015 266.779C202.111 266.755 201.931 266.125 201.282 265.747C200.622 265.357 199.986 265.507 200.016 265.603Z" fill="#263238"/>
<path d="M197.773 266.617C197.755 266.719 198.218 266.887 198.59 267.319C198.98 267.745 199.082 268.225 199.19 268.219C199.292 268.231 199.34 267.607 198.866 267.073C198.398 266.539 197.767 266.521 197.773 266.617Z" fill="#263238"/>
<path d="M196.565 269.39C196.661 269.408 196.793 268.873 196.499 268.303C196.211 267.727 195.707 267.517 195.665 267.607C195.605 267.697 195.941 267.997 196.175 268.471C196.415 268.933 196.463 269.378 196.565 269.39Z" fill="#263238"/>
<path d="M200.12 263.034C200.168 263.13 200.648 262.968 201.248 262.986C201.848 262.992 202.322 263.178 202.376 263.088C202.436 263.01 201.968 262.632 201.26 262.62C200.552 262.602 200.066 262.956 200.12 263.034Z" fill="#263238"/>
<path d="M200.005 260.784C200.005 260.826 200.425 260.88 201.091 260.742C201.421 260.676 201.811 260.55 202.219 260.352C202.423 260.256 202.627 260.136 202.832 259.998C202.928 259.932 203.048 259.86 203.15 259.734C203.264 259.62 203.324 259.337 203.18 259.169C203.066 259.007 202.862 258.941 202.705 258.941C202.543 258.941 202.417 258.977 202.297 259.013C202.057 259.079 201.835 259.169 201.631 259.265C201.223 259.47 200.893 259.716 200.653 259.956C200.167 260.442 200.005 260.838 200.041 260.862C200.089 260.898 200.323 260.556 200.821 260.154C201.073 259.956 201.391 259.746 201.775 259.578C201.967 259.494 202.171 259.422 202.393 259.362C202.621 259.295 202.819 259.283 202.88 259.386C202.904 259.422 202.904 259.44 202.862 259.506C202.813 259.572 202.723 259.632 202.627 259.698C202.441 259.83 202.249 259.944 202.063 260.046C201.691 260.244 201.331 260.388 201.025 260.484C200.413 260.682 200.005 260.724 200.005 260.784Z" fill="#263238"/>
<path d="M200.149 260.928C200.185 260.946 200.383 260.556 200.401 259.865C200.407 259.523 200.359 259.115 200.215 258.677C200.143 258.461 200.041 258.239 199.915 258.029C199.783 257.819 199.615 257.537 199.201 257.501C198.985 257.501 198.811 257.675 198.757 257.819C198.691 257.969 198.679 258.095 198.661 258.221C198.631 258.473 198.643 258.725 198.685 258.953C198.769 259.415 198.973 259.793 199.189 260.064C199.633 260.61 200.077 260.724 200.083 260.688C200.119 260.634 199.741 260.442 199.399 259.913C199.231 259.649 199.075 259.307 199.021 258.905C198.991 258.707 198.991 258.491 199.021 258.275C199.045 258.041 199.129 257.855 199.213 257.873C199.321 257.867 199.513 258.035 199.603 258.215C199.723 258.407 199.819 258.605 199.891 258.797C200.041 259.187 200.113 259.559 200.137 259.877C200.191 260.514 200.089 260.916 200.149 260.928Z" fill="#263238"/>
<path d="M193.674 133.047L197.167 263.011L214.288 262.495L212.974 150.955L234.795 265.597L250.26 261.558L230.294 133.299L193.674 133.047Z" fill="#080014"/>
<path d="M203.061 263.185C202.977 263.185 202.905 236.245 202.905 203.022C202.905 169.786 202.977 142.853 203.061 142.853C203.145 142.853 203.217 169.786 203.217 203.022C203.217 236.245 203.145 263.185 203.061 263.185Z" fill="#8F9296"/>
<path d="M239.68 265.555C239.596 265.567 235.594 239.737 230.745 207.871C225.895 175.992 222.031 150.15 222.121 150.132C222.205 150.12 226.208 175.944 231.057 207.823C235.906 239.695 239.765 265.543 239.68 265.555Z" fill="#8F9296"/>
<path d="M164.322 117.443L156.088 117.857C155.038 117.911 154.216 118.787 154.24 119.838C154.276 121.716 154.594 124.297 156.064 124.051L157 119.952L163.836 125.977C164.526 126.601 165.378 127.021 166.296 127.183L167.905 127.015L164.322 117.443Z" fill="#FFBE9D"/>
<path d="M203.517 73.3996L199.4 74.7619L197.263 110.506V142.204L223.687 145.133L223.993 99.4152L222.289 76.6583L218.256 71.8333C218.256 71.8333 217.668 71.8333 217.163 71.8333C215.765 73.0755 212.494 74.9899 209.896 74.9899C207.063 74.9899 203.517 73.3996 203.517 73.3996Z" fill="#E0E0E0"/>
<path d="M213.413 88.4688C213.431 88.4748 213.359 88.6849 213.203 89.0569C213.053 89.429 212.813 89.9571 212.507 90.5993C211.895 91.8895 210.989 93.6479 209.873 95.5263C208.756 97.4047 207.646 99.0431 206.806 100.195C206.386 100.771 206.032 101.234 205.78 101.54C205.528 101.852 205.384 102.014 205.366 102.002C205.33 101.972 205.834 101.246 206.626 100.063C207.418 98.8811 208.498 97.2307 209.608 95.3643C210.719 93.4979 211.655 91.7635 212.315 90.4972C212.975 89.243 213.371 88.4508 213.413 88.4688Z" fill="#6D7175"/>
<path d="M218.171 71.2749L222.432 73.3273L230.666 75.3378C234.278 75.9679 236.763 79.3286 236.295 82.9654L231.986 116.579L237.129 149.166L216.725 148.56L215.53 136.437V102.83L218.171 71.2749Z" fill="#171751"/>
<path d="M215.525 110.583C215.513 110.583 215.537 110.439 215.585 110.169C215.645 109.869 215.723 109.473 215.819 108.987C216.041 107.931 216.347 106.454 216.725 104.654C217.529 100.969 218.627 95.9402 219.839 90.389C220.182 88.8587 220.512 87.3704 220.83 85.936L220.866 86.0741C220.386 85.57 219.911 85.0779 219.449 84.5978L219.371 84.5137L219.431 84.4177C220.278 83.0134 221.07 81.6871 221.808 80.4689L221.802 80.5889C220.728 77.9843 219.833 75.8119 219.185 74.2515C218.891 73.5134 218.651 72.9192 218.477 72.4751C218.315 72.067 218.237 71.845 218.249 71.839C218.261 71.833 218.363 72.043 218.549 72.4451C218.741 72.8772 218.999 73.4653 219.323 74.1915C219.99 75.7398 220.92 77.8943 222.042 80.4869L222.066 80.5469L222.03 80.6069C221.304 81.8312 220.524 83.1574 219.683 84.5737L219.665 84.3937C220.128 84.8738 220.602 85.3659 221.088 85.864L221.142 85.924L221.124 86.0021C220.806 87.4304 220.482 88.9247 220.14 90.455C218.891 96.0002 217.763 101.023 216.935 104.702C216.515 106.496 216.173 107.961 215.927 109.011C215.807 109.491 215.711 109.881 215.639 110.181C215.579 110.445 215.537 110.583 215.525 110.583Z" fill="#020211"/>
<path d="M164.67 116.087L182.722 106.023L191.472 82.4315C192.696 79.1368 195.229 76.4962 198.475 75.1459L200.798 74.1797L200.81 136.293L201.278 151.008L191.496 148.08L196.483 118.505L194.76 103.946L193.044 110.986C192.432 113.506 190.824 115.667 188.585 116.975L169.795 126.733L164.67 116.087Z" fill="#171751"/>
<path d="M164.891 116.543L163.373 116.999L167.646 127.189L169.638 126.415L164.891 116.543Z" fill="#E0E0E0"/>
<path d="M185.994 110.212C185.904 110.242 185.592 109.053 184.644 107.925C183.714 106.785 182.604 106.263 182.646 106.179C182.658 106.101 183.894 106.521 184.884 107.727C185.886 108.921 186.072 110.212 185.994 110.212Z" fill="#020211"/>
<path d="M166.838 116.219C166.856 116.261 166.748 116.339 166.736 116.513C166.718 116.693 166.844 116.891 167.078 116.819C167.318 116.753 167.312 116.519 167.204 116.381C167.102 116.243 166.964 116.231 166.958 116.183C166.94 116.147 167.126 116.051 167.354 116.219C167.456 116.303 167.57 116.447 167.558 116.657C167.552 116.867 167.372 117.065 167.162 117.119C166.958 117.185 166.7 117.119 166.58 116.939C166.46 116.771 166.472 116.585 166.514 116.459C166.628 116.195 166.838 116.177 166.838 116.219Z" fill="#020211"/>
<path d="M168.296 115.607C168.314 115.649 168.206 115.727 168.194 115.901C168.176 116.081 168.302 116.279 168.536 116.207C168.776 116.141 168.77 115.907 168.662 115.769C168.56 115.631 168.422 115.619 168.416 115.571C168.398 115.535 168.584 115.439 168.812 115.607C168.914 115.691 169.028 115.835 169.016 116.045C169.01 116.255 168.83 116.453 168.62 116.507C168.416 116.573 168.158 116.507 168.038 116.327C167.918 116.159 167.93 115.973 167.972 115.847C168.08 115.583 168.296 115.565 168.296 115.607Z" fill="#020211"/>
<path d="M200.797 111.538C200.785 111.538 200.761 111.406 200.719 111.153C200.677 110.865 200.623 110.499 200.551 110.049C200.413 109.047 200.227 107.667 199.999 105.974C199.555 102.494 198.955 97.7526 198.289 92.5075C198.199 91.7633 198.109 91.0311 198.019 90.305L198.013 90.263L198.025 90.227C198.481 89.0687 198.919 87.9465 199.345 86.8722V86.9863C198.889 85.942 198.451 84.9518 198.043 84.0096L198.025 83.9616L198.037 83.9136C198.835 81.021 199.507 78.5904 199.993 76.8441C200.233 76.0159 200.425 75.3557 200.563 74.8576C200.701 74.4015 200.779 74.1555 200.797 74.1615C200.809 74.1675 200.761 74.4135 200.647 74.8816C200.521 75.3798 200.359 76.0519 200.149 76.8861C199.693 78.6445 199.057 81.081 198.301 83.9856L198.295 83.8956C198.709 84.8318 199.153 85.822 199.615 86.8602L199.639 86.9142L199.615 86.9743C199.195 88.0485 198.757 89.1707 198.307 90.329L198.319 90.251C198.409 90.9711 198.499 91.7093 198.589 92.4534C199.219 97.6986 199.789 102.446 200.209 105.932C200.395 107.631 200.551 109.017 200.665 110.019C200.707 110.475 200.743 110.847 200.773 111.135C200.803 111.406 200.809 111.538 200.797 111.538Z" fill="#020211"/>
<path d="M196.452 118.673C196.44 118.673 196.422 118.571 196.392 118.379C196.362 118.151 196.32 117.869 196.272 117.533C196.176 116.747 196.044 115.69 195.888 114.406C195.57 111.766 195.12 108.123 194.58 104.102C194.04 100.081 193.511 96.4443 193.121 93.8158C192.935 92.5375 192.779 91.4812 192.665 90.7011C192.623 90.365 192.587 90.0829 192.557 89.8489C192.533 89.6569 192.527 89.5488 192.539 89.5488C192.551 89.5488 192.575 89.6449 192.617 89.8369C192.665 90.0649 192.719 90.341 192.785 90.6771C192.923 91.4092 193.115 92.4655 193.337 93.7797C193.781 96.4023 194.346 100.033 194.886 104.06C195.426 108.081 195.84 111.736 196.104 114.382C196.236 115.708 196.332 116.777 196.392 117.521C196.416 117.863 196.434 118.145 196.452 118.373C196.464 118.571 196.464 118.673 196.452 118.673Z" fill="#020211"/>
<path d="M193.955 140.752C193.985 140.74 194.057 140.98 194.375 141.256C194.681 141.52 195.299 141.796 196.02 141.622C196.74 141.454 197.442 140.782 197.808 139.863C198.186 138.939 198.228 137.805 198.312 136.635C198.384 135.47 198.36 134.336 197.976 133.418C197.61 132.494 196.896 131.876 196.338 131.354C195.768 130.831 195.323 130.363 195.089 129.991C194.849 129.619 194.777 129.385 194.795 129.379C194.819 129.367 194.927 129.583 195.191 129.919C195.449 130.261 195.9 130.687 196.488 131.186C197.058 131.69 197.826 132.308 198.24 133.304C198.66 134.288 198.696 135.47 198.618 136.653C198.534 137.823 198.486 138.987 198.066 139.971C197.664 140.95 196.878 141.676 196.062 141.832C195.239 141.994 194.591 141.652 194.285 141.34C194.123 141.178 194.039 141.022 193.991 140.92C193.961 140.812 193.949 140.758 193.955 140.752Z" fill="#020211"/>
<path d="M216.468 143.218C216.828 143.458 232.342 153.6 232.342 153.6L234.13 152.166L234.976 128.899L219.859 117.443L217.777 118.157L216.468 143.218Z" fill="#ECB000"/>
<path d="M219.692 117.772L220.316 142.954H216.979L218.095 118.271L219.692 117.772Z" fill="#E0E0E0"/>
<path d="M224.684 148.739C224.684 148.739 225.038 149.855 226.473 149.957C226.515 149.963 226.563 149.993 226.605 150.065C226.929 150.617 227.475 151.007 228.111 151.007C228.603 151.007 229.197 150.893 229.815 150.515C230.644 150.011 232.12 146.699 232.12 146.699L235.619 138.903L229.731 137.312L222.254 139.641C222.254 139.779 220.501 146.855 220.501 146.855C220.501 146.855 221.918 147.251 222.602 145.738C223.286 144.226 223.922 143.266 223.922 143.266L224.48 146.452L222.356 147.179C222.356 147.179 222.098 148.355 223.268 148.793L224.684 148.739Z" fill="#FFBE9D"/>
<path d="M227.325 93.99L237.125 112.03L229.149 135.705L238.019 140.698L249.289 114.364C250.124 112.414 250.088 110.193 249.193 108.267L235.366 78.5667L227.325 93.99Z" fill="#171751"/>
<path d="M229.147 135.705L228.319 137.541L236.691 142.054L237.567 140.446L229.147 135.705Z" fill="#E0E0E0"/>
<path d="M229.148 135.705C229.142 135.705 229.154 135.663 229.172 135.585C229.202 135.489 229.232 135.375 229.274 135.237C229.376 134.913 229.52 134.462 229.7 133.898C230.09 132.71 230.643 131.024 231.327 128.923C232.743 124.674 234.717 118.757 236.974 111.982L236.986 112.108C235.846 110.169 234.675 108.123 233.487 106.01C231.327 102.151 229.34 98.4307 227.648 94.9979C226.808 93.2756 226.028 91.6252 225.367 90.0529C224.647 88.4805 224.467 86.8302 224.551 85.3779C224.647 83.9195 224.935 82.6113 225.427 81.555C225.914 80.4928 226.556 79.7006 227.156 79.1545C227.762 78.6084 228.326 78.2963 228.716 78.1223C229.106 77.9483 229.328 77.9062 229.328 77.9062C229.358 77.9543 228.422 78.1463 227.234 79.2445C226.658 79.7967 226.04 80.5888 225.578 81.6331C225.115 82.6713 224.839 83.9676 224.761 85.3959C224.695 86.8242 224.881 88.4265 225.596 89.9569C226.262 91.5172 227.054 93.1555 227.894 94.8779C229.604 98.3047 231.591 102.013 233.751 105.866C234.934 107.979 236.104 110.025 237.238 111.964L237.274 112.024L237.25 112.09C234.952 118.847 232.941 124.752 231.501 128.995C230.775 131.084 230.199 132.764 229.784 133.94C229.586 134.498 229.424 134.943 229.31 135.267C229.256 135.405 229.214 135.513 229.184 135.609C229.172 135.669 229.154 135.711 229.148 135.705Z" fill="#020211"/>
<path d="M243.75 111.862C243.726 111.904 243.378 111.718 242.783 111.519C242.195 111.321 241.343 111.141 240.395 111.171C239.447 111.201 238.607 111.435 238.03 111.67C237.448 111.904 237.118 112.114 237.088 112.072C237.07 112.042 237.364 111.766 237.94 111.471C238.516 111.171 239.393 110.895 240.389 110.859C241.385 110.829 242.279 111.057 242.867 111.315C243.462 111.574 243.774 111.832 243.75 111.862Z" fill="#020211"/>
<path d="M225.368 89.6987L232.408 113.26L233.404 105.512L225.368 89.6987Z" fill="#020211"/>
<path d="M236.999 135.993C237.017 136.035 236.909 136.113 236.897 136.287C236.879 136.467 237.005 136.665 237.239 136.593C237.479 136.527 237.473 136.293 237.365 136.155C237.263 136.017 237.125 136.005 237.119 135.957C237.101 135.921 237.287 135.825 237.515 135.993C237.617 136.077 237.731 136.221 237.719 136.431C237.713 136.641 237.533 136.839 237.323 136.893C237.119 136.959 236.861 136.893 236.741 136.713C236.621 136.545 236.633 136.359 236.675 136.233C236.783 135.969 236.999 135.951 236.999 135.993Z" fill="#020211"/>
<path d="M237.707 134.294C237.725 134.336 237.617 134.414 237.605 134.588C237.587 134.768 237.713 134.966 237.947 134.894C238.187 134.828 238.181 134.594 238.073 134.456C237.971 134.318 237.833 134.306 237.827 134.258C237.809 134.222 237.995 134.126 238.223 134.294C238.325 134.378 238.439 134.522 238.427 134.732C238.421 134.942 238.241 135.14 238.031 135.195C237.827 135.261 237.569 135.195 237.449 135.014C237.329 134.846 237.341 134.66 237.383 134.534C237.491 134.27 237.707 134.252 237.707 134.294Z" fill="#020211"/>
<path d="M154.239 119.838C154.305 120.684 154.389 121.53 154.593 122.34C154.701 122.742 154.834 123.144 155.062 123.48C155.284 123.823 155.656 124.015 156.046 123.949L155.962 124.027C156.28 122.664 156.616 121.302 157 119.952C156.76 121.338 156.466 122.706 156.16 124.075L156.148 124.141L156.082 124.153C155.62 124.249 155.128 123.973 154.906 123.594C154.659 123.222 154.527 122.802 154.431 122.382C154.251 121.542 154.221 120.684 154.239 119.838Z" fill="#EB996E"/>
<path d="M157.457 120.3C158.801 121.128 160.08 122.058 161.328 123.024C161.946 123.516 162.552 124.021 163.134 124.561C163.716 125.095 164.281 125.659 164.755 126.295C164.22 125.713 163.626 125.197 163.032 124.687C162.432 124.177 161.826 123.679 161.202 123.198C160.59 122.706 159.96 122.226 159.335 121.746L157.457 120.3Z" fill="#EB996E"/>
<path d="M156.88 132.152C156.094 131.612 155.338 131.024 154.618 130.394L154.672 130.418C153.85 130.364 153.028 130.274 152.211 130.106C153.046 130.082 153.868 130.136 154.69 130.226L154.72 130.232L154.744 130.25L156.88 132.152Z" fill="#EB996E"/>
<path d="M313.045 230.964C313.585 229.092 314.743 227.285 316.526 226.517C318.386 225.713 320.54 226.169 322.443 226.865C324.345 227.555 326.218 228.479 328.234 228.605C330.257 228.731 332.537 227.771 333.143 225.839C333.713 224.02 332.615 222.082 331.247 220.768C328.366 217.995 324.033 216.819 320.144 217.749C316.256 218.679 312.931 221.698 311.623 225.479" fill="#ECB000"/>
<g opacity="0.5">
<g opacity="0.5">
<g opacity="0.5">
<g opacity="0.5">
<g opacity="0.5">
<path opacity="0.5" d="M313.045 230.964C313.585 229.092 314.743 227.285 316.526 226.517C318.386 225.713 320.54 226.169 322.443 226.865C324.345 227.555 326.218 228.479 328.234 228.605C330.257 228.731 332.537 227.771 333.143 225.839C333.713 224.02 332.615 222.082 331.247 220.768C328.366 217.995 324.033 216.819 320.144 217.749C316.256 218.679 312.931 221.698 311.623 225.479" fill="black"/>
</g>
</g>
</g>
</g>
</g>
<path d="M297.033 239.084C294.069 236.269 294.219 231.366 295.695 227.549C297.171 223.738 300.4 220.81 304.007 218.877C310.998 215.139 319.736 214.856 326.95 218.133C323.403 218.253 319.976 220.264 318.146 223.306C316.52 226.007 316.159 229.278 314.815 232.128C313.321 235.303 310.572 237.865 307.308 239.144C304.043 240.428 300.286 240.404 297.033 239.084Z" fill="#ECB000"/>
<path d="M295.611 222.16C292.328 218.283 291.89 212.066 292.376 207.007C292.862 201.954 294.032 196.864 293.234 191.847C292.76 188.877 291.608 186.038 291.218 183.055C290.828 180.073 291.38 176.7 293.69 174.774C296.349 172.559 300.532 173.081 303.292 175.158C306.059 177.234 307.655 180.499 308.826 183.758C311.394 190.905 312.342 198.833 310.23 206.13C308.117 213.428 303.16 219.951 295.893 222.154" fill="#ECB000"/>
<path d="M294.032 253.955C294.02 253.955 294.02 253.799 294.02 253.511C294.026 253.217 294.02 252.785 294.044 252.232C294.086 251.122 294.194 249.514 294.44 247.539C294.692 245.565 295.082 243.224 295.7 240.668C296.313 238.105 297.357 235.369 298.839 232.71C300.321 230.052 302.134 227.753 303.964 225.857C305.801 223.96 307.679 222.49 309.335 221.386C310.158 220.816 310.95 220.39 311.634 219.987C312.336 219.621 312.948 219.315 313.446 219.075C313.944 218.865 314.334 218.703 314.628 218.577C314.899 218.469 315.043 218.415 315.049 218.421C315.055 218.427 314.917 218.499 314.652 218.625C314.364 218.757 313.98 218.937 313.494 219.165C313.002 219.423 312.402 219.735 311.712 220.113C311.04 220.522 310.26 220.96 309.449 221.536C307.811 222.652 305.963 224.128 304.15 226.019C302.344 227.909 300.555 230.19 299.079 232.83C296.06 238.111 295.232 243.663 294.632 247.551C294.362 249.514 294.224 251.116 294.152 252.226C294.122 252.761 294.098 253.187 294.074 253.505C294.056 253.805 294.044 253.955 294.032 253.955Z" fill="#232358"/>
<path d="M265.719 206.875C259.645 210.541 259.663 213.878 260.678 217.023C261.692 220.173 265.419 222.358 268.509 221.182C270.256 220.515 271.522 218.997 272.602 217.473C273.682 215.948 274.697 214.316 276.215 213.218C277.727 212.12 279.924 211.706 281.448 212.792" fill="#ECB000"/>
<g opacity="0.5">
<g opacity="0.5">
<g opacity="0.5">
<g opacity="0.5">
<g opacity="0.5">
<path opacity="0.5" d="M265.719 206.875C259.645 210.541 259.663 213.878 260.678 217.023C261.692 220.173 265.419 222.358 268.509 221.182C270.256 220.515 271.522 218.997 272.602 217.473C273.682 215.948 274.697 214.316 276.215 213.218C277.727 212.12 279.924 211.706 281.448 212.792" fill="black"/>
</g>
</g>
</g>
</g>
</g>
<path d="M261.169 210.889C262.76 208.693 266.679 208.057 269.157 209.155C271.636 210.247 273.448 212.42 275.074 214.586C276.701 216.753 278.279 219.045 280.53 220.551C282.78 222.058 285.925 222.604 288.163 221.086C289.634 220.089 290.492 218.355 290.756 216.597C291.026 214.838 290.768 213.044 290.402 211.303C289.868 208.759 288.991 206.094 286.951 204.48C284.677 202.674 281.526 202.59 278.627 202.686C275.302 202.794 271.924 203.046 268.803 204.198C265.682 205.35 262.496 207.841 261.169 210.889Z" fill="#ECB000"/>
<path d="M288.986 249.094C288.98 249.094 288.974 249.046 288.968 248.962C288.962 248.86 288.956 248.728 288.95 248.572C288.938 248.205 288.92 247.701 288.896 247.065C288.86 245.733 288.806 243.843 288.734 241.52C288.662 239.18 288.566 236.395 288.398 233.304C288.224 230.214 287.996 226.817 287.528 223.282C287.287 221.518 287.011 219.789 286.519 218.193C286.027 216.591 285.373 215.102 284.659 213.74C283.939 212.378 283.147 211.141 282.312 210.055C281.472 208.975 280.602 208.033 279.75 207.241C278.027 205.668 276.377 204.702 275.201 204.144C274.907 204.006 274.649 203.874 274.415 203.778C274.187 203.688 273.989 203.61 273.821 203.55C273.671 203.49 273.557 203.442 273.455 203.406C273.37 203.37 273.334 203.352 273.334 203.346C273.334 203.34 273.382 203.352 273.467 203.376C273.569 203.406 273.689 203.448 273.839 203.496C274.007 203.556 274.211 203.622 274.445 203.7C274.685 203.79 274.943 203.916 275.249 204.042C276.443 204.576 278.124 205.524 279.882 207.097C280.752 207.889 281.634 208.831 282.492 209.917C283.345 211.003 284.149 212.252 284.887 213.626C285.613 215 286.279 216.501 286.783 218.115C287.281 219.741 287.564 221.476 287.804 223.246C288.272 226.793 288.494 230.196 288.656 233.292C288.812 236.389 288.884 239.174 288.938 241.514C288.986 243.855 289.004 245.751 289.01 247.059C289.01 247.695 289.01 248.199 289.01 248.566C289.01 248.728 289.004 248.854 289.004 248.956C288.992 249.046 288.992 249.094 288.986 249.094Z" fill="#232358"/>
<path d="M291.171 251.836C291.171 251.836 290.829 250.936 290.505 249.226C290.187 247.522 289.953 244.995 290.229 241.898C290.487 238.802 291.279 235.165 292.545 231.264C293.794 227.357 295.486 223.18 296.932 218.685C297.646 216.435 298.259 214.214 298.679 212.03C299.105 209.845 299.369 207.715 299.543 205.68C299.885 201.606 299.837 197.915 299.735 194.824C299.633 191.733 299.465 189.231 299.363 187.503C299.315 186.65 299.273 185.984 299.243 185.51C299.231 185.294 299.225 185.12 299.219 184.994C299.213 184.88 299.213 184.82 299.219 184.814C299.225 184.814 299.231 184.874 299.243 184.988C299.255 185.12 299.273 185.288 299.297 185.504C299.339 185.978 299.393 186.644 299.465 187.491C299.597 189.219 299.795 191.715 299.921 194.812C300.047 197.909 300.113 201.606 299.783 205.698C299.621 207.745 299.357 209.881 298.931 212.078C298.517 214.274 297.904 216.513 297.184 218.763C295.732 223.27 294.034 227.441 292.779 231.336C291.507 235.219 290.703 238.832 290.421 241.91C290.121 244.989 290.331 247.498 290.613 249.202C290.763 250.054 290.901 250.708 291.021 251.152C291.075 251.362 291.111 251.53 291.141 251.656C291.165 251.776 291.177 251.836 291.171 251.836Z" fill="#232358"/>
<path d="M306.228 254.579H277.71L277.056 249.094H306.228V254.579Z" fill="#232358"/>
<path d="M280.77 253.955L284.334 270.422H299.83L303.166 253.955H280.77Z" fill="#232358"/>
<path d="M306.227 254.579C306.227 254.657 299.956 254.699 292.226 254.675C284.49 254.651 278.225 254.573 278.225 254.501C278.225 254.429 284.496 254.381 292.232 254.405C299.956 254.429 306.227 254.507 306.227 254.579Z" fill="#232358"/>
<path d="M301.336 262.711C301.3 262.765 300.496 261.936 298.827 261.27C297.999 260.94 296.949 260.682 295.773 260.658C294.591 260.622 293.312 260.904 292.016 261.348C290.714 261.786 289.501 262.297 288.319 262.579C287.131 262.837 286.027 262.819 285.126 262.675C284.22 262.531 283.524 262.267 283.074 262.027C282.852 261.9 282.684 261.798 282.576 261.714C282.468 261.636 282.414 261.588 282.42 261.582C282.438 261.558 282.666 261.726 283.116 261.936C283.572 262.141 284.262 262.375 285.15 262.489C286.033 262.603 287.113 262.603 288.259 262.339C289.399 262.051 290.612 261.534 291.926 261.09C293.234 260.64 294.561 260.352 295.773 260.406C296.985 260.448 298.053 260.73 298.893 261.09C299.74 261.438 300.352 261.864 300.754 262.177C300.952 262.333 301.102 262.465 301.198 262.561C301.294 262.651 301.342 262.699 301.336 262.711Z" fill="white"/>
<path d="M301.116 263.809C301.08 263.863 300.306 263.059 298.703 262.387C297.905 262.057 296.897 261.805 295.757 261.781C294.617 261.751 293.374 262.009 292.126 262.435C290.872 262.855 289.689 263.341 288.567 263.647C287.445 263.953 286.383 264.061 285.495 263.989C284.606 263.929 283.916 263.677 283.484 263.449C283.268 263.329 283.106 263.227 283.004 263.143C282.902 263.065 282.848 263.023 282.854 263.011C282.872 262.987 283.088 263.149 283.526 263.347C283.964 263.539 284.642 263.755 285.507 263.791C286.365 263.833 287.397 263.713 288.495 263.395C289.599 263.083 290.77 262.591 292.036 262.171C293.302 261.739 294.586 261.481 295.763 261.523C296.933 261.559 297.971 261.841 298.775 262.201C299.586 262.555 300.174 262.975 300.558 263.275C300.75 263.425 300.894 263.557 300.984 263.647C301.08 263.749 301.122 263.803 301.116 263.809Z" fill="white"/>
<path d="M301.62 261.619C301.584 261.673 300.749 260.832 299.039 260.1C298.193 259.74 297.125 259.422 295.906 259.35C294.694 259.266 293.368 259.578 292.03 260.034C290.685 260.484 289.437 261.03 288.201 261.282C286.964 261.504 285.83 261.438 284.9 261.288C283.97 261.126 283.25 260.862 282.782 260.616C282.554 260.49 282.373 260.382 282.265 260.298C282.157 260.214 282.097 260.166 282.103 260.16C282.121 260.136 282.355 260.304 282.824 260.52C283.298 260.73 284.012 260.964 284.924 261.096C285.836 261.222 286.952 261.264 288.147 261.036C289.329 260.784 290.583 260.232 291.934 259.776C293.278 259.314 294.652 258.996 295.912 259.098C297.167 259.188 298.253 259.536 299.105 259.926C299.963 260.31 300.593 260.748 301.008 261.072C301.212 261.234 301.368 261.366 301.464 261.468C301.572 261.559 301.626 261.613 301.62 261.619Z" fill="white"/>
<path d="M306.479 254.603C306.479 254.681 300.064 254.741 292.154 254.741C284.239 254.741 277.823 254.681 277.823 254.603C277.823 254.525 284.239 254.465 292.154 254.465C300.064 254.471 306.479 254.531 306.479 254.603Z" fill="#232358"/>
<path d="M48.8384 248.337C49.8646 249.802 51.8571 249.316 52.7813 248.421C53.7055 247.527 54.0956 246.231 54.4496 244.995C55.2598 242.168 56.082 239.209 55.4759 236.335C55.2958 235.477 54.9717 234.618 54.3716 233.982C53.7655 233.346 52.8413 232.962 51.9891 233.19C50.9869 233.454 50.3568 234.438 49.9067 235.375C48.5804 238.129 47.8782 241.178 47.8662 244.232C47.8662 245.661 48.0342 247.161 48.8384 248.337Z" fill="#ECB000"/>
<g opacity="0.2">
<g opacity="0.2">
<g opacity="0.2">
<path opacity="0.2" d="M48.8384 248.337C49.8646 249.802 51.8571 249.316 52.7813 248.421C53.7055 247.527 54.0956 246.231 54.4496 244.995C55.2598 242.168 56.082 239.209 55.4759 236.335C55.2958 235.477 54.9717 234.618 54.3716 233.982C53.7655 233.346 52.8413 232.962 51.9891 233.19C50.9869 233.454 50.3568 234.438 49.9067 235.375C48.5804 238.129 47.8782 241.178 47.8662 244.232C47.8662 245.661 48.0342 247.161 48.8384 248.337Z" fill="black"/>
</g>
</g>
</g>
<path d="M52.6856 255.755C54.3599 254.891 56.3404 254.777 58.2008 255.083C59.203 255.251 60.2472 255.545 60.9253 256.301C61.6035 257.051 61.7355 258.378 60.9553 259.02C60.4872 259.404 59.8391 259.464 59.239 259.458C57.7807 259.44 56.1663 259.182 54.9961 260.064C54.3299 260.562 53.8918 261.396 53.0936 261.642C52.3135 261.882 51.4373 261.426 51.0292 260.724C50.6151 260.022 50.6031 259.146 50.7951 258.354C50.7951 258.354 50.9932 256.631 52.6856 255.755Z" fill="#ECB000"/>
<path d="M46.0241 250.438C47.1403 249.118 47.3504 247.191 46.8523 245.535C46.3542 243.878 45.2379 242.468 43.9476 241.322C42.4353 239.972 40.6589 238.921 38.7445 238.249C37.9943 237.985 37.1962 237.775 36.404 237.853C35.6118 237.931 34.8137 238.333 34.4416 239.041C33.8955 240.086 34.4176 241.352 34.9877 242.384C35.9899 244.203 37.1302 245.949 38.4024 247.587C39.4287 248.908 40.5989 250.21 42.1592 250.81C43.7196 251.404 45.3399 251.338 46.1681 250.252" fill="#ECB000"/>
<path d="M48.7727 270.44C48.7907 270.44 48.8207 270.206 48.8627 269.774C48.9107 269.288 48.9707 268.682 49.0368 267.956C49.1208 267.194 49.2348 266.281 49.4448 265.291C49.6549 264.301 49.985 263.233 50.4111 262.146C50.8491 261.066 51.3893 260.088 52.0194 259.302C52.6435 258.516 53.3697 257.945 54.0478 257.615C54.726 257.279 55.3381 257.141 55.7582 257.081C56.1843 257.039 56.4184 257.003 56.4184 256.985C56.4184 256.967 56.1783 256.961 55.7462 256.973C55.3141 257.003 54.678 257.111 53.9638 257.435C53.2437 257.753 52.4755 258.336 51.8214 259.14C51.1612 259.944 50.6031 260.946 50.159 262.044C49.7269 263.149 49.3968 264.229 49.1988 265.243C48.9947 266.251 48.9047 267.169 48.8447 267.944C48.7847 268.718 48.7667 269.342 48.7547 269.774C48.7487 270.194 48.7547 270.434 48.7727 270.44Z" fill="#263238"/>
<path d="M48.8991 269.042C48.9111 269.042 48.9171 268.934 48.9171 268.736C48.9171 268.502 48.9171 268.214 48.9171 267.854C48.9171 267.085 48.9171 265.975 48.9591 264.607C49.0252 261.87 49.2652 258.083 49.7213 253.931C50.1774 249.772 50.7895 246.033 51.3417 243.35C51.4737 242.678 51.6057 242.072 51.7317 241.544C51.8518 241.01 51.9538 240.554 52.0498 240.182C52.1338 239.834 52.1998 239.551 52.2539 239.323C52.2959 239.125 52.3199 239.023 52.3079 239.017C52.2959 239.017 52.2599 239.113 52.1998 239.305C52.1338 239.527 52.0498 239.809 51.9418 240.152C51.8278 240.518 51.7137 240.974 51.5757 241.502C51.4377 242.03 51.2936 242.636 51.1496 243.308C50.5435 245.991 49.9073 249.736 49.4452 253.901C48.9891 258.065 48.7851 261.858 48.7671 264.607C48.7491 265.981 48.7791 267.091 48.8151 267.86C48.8391 268.22 48.8571 268.508 48.8691 268.742C48.8751 268.934 48.8871 269.042 48.8991 269.042Z" fill="#263238"/>
<path d="M48.9169 261.726C48.9349 261.726 48.9349 261.396 48.9109 260.802C48.8749 260.208 48.7969 259.35 48.6288 258.3C48.4548 257.249 48.2027 256.007 47.8187 254.657C47.4466 253.301 46.9425 251.836 46.2943 250.348C45.028 247.353 43.3117 244.899 41.8234 243.386C41.4753 242.984 41.0852 242.69 40.7731 242.408C40.6111 242.27 40.4671 242.138 40.323 242.03C40.179 241.928 40.041 241.838 39.9149 241.748C39.4228 241.412 39.1468 241.232 39.1408 241.25C39.0988 241.31 40.239 241.982 41.6853 243.519C43.1256 245.055 44.794 247.485 46.0483 250.456C46.6904 251.932 47.2005 253.385 47.5786 254.729C47.9807 256.067 48.2447 257.297 48.4428 258.336C48.6348 259.374 48.7429 260.226 48.8089 260.808C48.8569 261.396 48.8989 261.726 48.9169 261.726Z" fill="#263238"/>
<path d="M162.786 19.1838C162.786 19.1778 162.888 19.1718 163.092 19.1778C163.32 19.1838 163.614 19.1898 163.992 19.2018C164.389 19.1958 164.875 19.2558 165.451 19.3458C165.739 19.3878 166.051 19.4178 166.375 19.4898C166.699 19.5679 167.047 19.6579 167.407 19.7479C168.854 20.15 170.612 20.7861 172.4 21.9804C174.189 23.1566 176.019 24.855 177.459 27.1535C178.9 29.428 179.986 32.2966 180.118 35.4893C180.316 38.658 179.584 42.1387 177.753 45.2234C175.977 48.3441 173.006 50.9547 169.412 52.479C167.611 53.2411 165.637 53.6552 163.626 53.7513C161.616 53.8953 159.551 53.6132 157.577 53.0011L157.397 52.9471H157.541C154.078 54.1473 150.694 55.3176 147.429 56.4518L147.015 56.5959L147.147 56.1818C148.053 53.2711 148.929 50.4565 149.769 47.756L149.811 47.96C147.873 45.7755 146.559 43.201 145.917 40.5904C145.262 37.9798 145.286 35.3573 145.755 32.9868C146.229 30.6103 147.177 28.4978 148.365 26.7514C149.553 25.005 150.964 23.6247 152.368 22.5745C153.058 22.0224 153.796 21.6203 154.468 21.2122C155.183 20.8761 155.831 20.5161 156.485 20.3C157.133 20.066 157.727 19.8379 158.303 19.7239C158.873 19.5799 159.383 19.4418 159.864 19.3998C160.338 19.3398 160.752 19.2678 161.118 19.2318C161.478 19.2198 161.784 19.2078 162.036 19.2018C162.264 19.1958 162.45 19.1958 162.6 19.1898C162.72 19.1718 162.786 19.1778 162.786 19.1838C162.786 19.1898 162.72 19.2018 162.594 19.2138C162.45 19.2258 162.264 19.2438 162.036 19.2618C161.784 19.2798 161.478 19.2978 161.124 19.3278C160.764 19.3698 160.35 19.4538 159.882 19.5259C159.407 19.5799 158.903 19.7299 158.345 19.8799C157.775 20.006 157.193 20.24 156.557 20.4801C155.915 20.7021 155.279 21.0742 154.582 21.4103C153.922 21.8244 153.202 22.2204 152.53 22.7726C151.156 23.8228 149.781 25.1911 148.629 26.9135C147.477 28.6358 146.559 30.7123 146.109 33.0408C145.664 35.3633 145.652 37.9318 146.301 40.4824C146.937 43.0269 148.233 45.5415 150.129 47.6659L150.207 47.756L150.171 47.87C149.337 50.5706 148.467 53.3852 147.567 56.3018L147.285 56.0317C150.55 54.8975 153.934 53.7212 157.397 52.521L157.469 52.497L157.541 52.521L157.715 52.575C159.642 53.1751 161.652 53.4452 163.608 53.3132C165.565 53.2171 167.491 52.8151 169.25 52.0769C172.748 50.5946 175.659 48.056 177.399 45.0134C179.2 42.0067 179.926 38.61 179.752 35.5073C179.638 32.3806 178.594 29.566 177.195 27.3215C175.797 25.0591 174.015 23.3667 172.262 22.1904C170.516 20.9902 168.781 20.336 167.359 19.9159C166.999 19.8199 166.657 19.7299 166.339 19.6459C166.015 19.5739 165.709 19.5379 165.427 19.4838C164.863 19.3818 164.383 19.3098 163.986 19.2978C163.614 19.2678 163.314 19.2498 163.092 19.2318C162.888 19.2018 162.786 19.1898 162.786 19.1838Z" fill="#ECB000"/>
<path d="M152.612 37.6319L155.277 34.9673L160.408 39.5283L170.478 29.8362L172.951 32.5008L160.024 44.6594L152.612 37.6319Z" fill="#ECB000"/>
</svg>
