<svg width="31" height="29" viewBox="0 0 31 29" fill="none" xmlns="http://www.w3.org/2000/svg">
<path d="M23.355 17.9972C23.6441 16.4485 23.924 14.9655 24.2406 13.2637C22.5336 13.2637 20.9688 13.2637 19.2159 13.2637C19.2159 12.1 19.2159 11.1376 19.2159 9.9214C20.7991 9.9214 22.373 9.9214 24.1076 9.9214C24.1076 8.19775 24.1076 6.71034 24.1076 4.90794C21.4231 5.10043 18.6607 4.2736 16.146 5.83101C13.379 7.54591 13.9388 10.3851 13.7323 13.0625C12.6907 13.1368 11.7316 13.2025 10.6211 13.2768C10.6211 14.8211 10.6211 16.3085 10.6211 17.9753C11.5939 18.0453 12.5484 18.1109 13.8287 18.2028C13.8287 19.839 13.8287 21.4095 13.8287 22.9844C13.8287 24.5724 13.8287 26.1649 13.8287 27.9629C10.6257 27.9629 7.58792 28.0941 4.56849 27.9191C2.48518 27.801 0.966291 26.1124 0.943347 24.03C0.874516 17.3279 0.860748 10.6257 0.952524 3.92799C0.980056 1.69687 2.73298 0.0825859 5.10079 0.0563374C12.0528 -0.0180334 19.0094 -0.0180335 25.9614 0.0519626C28.5403 0.0782111 30.2244 1.75812 30.2474 4.2561C30.307 10.7395 30.307 17.2229 30.252 23.7062C30.229 26.3267 28.5312 27.9148 25.8054 27.9979C23.6716 28.0635 21.5378 28.011 19.2113 28.011C19.2113 24.7562 19.2113 21.602 19.2113 18.1853C20.5237 18.1284 21.8545 18.0672 23.355 17.9972Z" fill="#00003F"/>
</svg>
