<svg width="23" height="23" viewBox="0 0 23 23" fill="none" xmlns="http://www.w3.org/2000/svg">
<path d="M0.00680383 11.3465C0.00680383 8.9159 -0.0106165 6.4853 0.010292 4.0547C0.0346852 1.55107 1.25435 0.306217 3.74594 0.295785C8.67338 0.271444 13.6043 0.274922 18.5317 0.295785C21.0408 0.306217 22.2883 1.53716 22.2988 4.01992C22.3231 8.93676 22.3197 13.8571 22.2988 18.7739C22.2883 21.2775 21.0547 22.5224 18.5666 22.5328C13.6391 22.5572 8.70822 22.5537 3.78078 22.5328C1.27176 22.5224 0.03817 21.2914 0.010292 18.8087C-0.0106165 16.3224 0.00680383 13.8327 0.00680383 11.3465ZM14.3988 17.842C15.3815 17.842 16.1482 17.842 17.0577 17.842C17.0577 17.157 17.0612 16.5867 17.0577 16.0199C17.0507 14.6881 17.1239 13.3529 17.0159 12.0315C16.8521 10.0773 15.3606 8.69335 13.5625 8.89503C12.6425 8.99587 11.7818 8.97849 10.8827 8.83592C10.3914 8.75594 9.86864 8.87417 9.28668 8.90894C9.28668 11.955 9.28668 14.8724 9.28668 17.8351C10.1718 17.8351 10.9419 17.8351 11.7539 17.8351C11.7853 17.4282 11.8271 17.1466 11.8271 16.8649C11.841 15.4775 11.7469 14.0761 11.9107 12.7061C11.9665 12.2471 12.6077 11.6282 13.0886 11.5064C13.7611 11.3361 14.2664 11.875 14.35 12.6192C14.3988 13.0782 14.3988 13.5441 14.3988 14.0066C14.4023 15.2584 14.3988 16.5172 14.3988 17.842ZM7.78129 17.9081C7.78129 14.8064 7.78129 11.8959 7.78129 8.90547C6.91359 8.90547 6.18526 8.90547 5.41164 8.90547C5.41164 11.962 5.41164 14.9246 5.41164 17.9081C6.25495 17.9081 6.94495 17.9081 7.78129 17.9081ZM7.83355 5.01442C6.87176 5.01442 6.10512 5.01442 5.3559 5.01442C5.3559 5.89416 5.3559 6.62439 5.3559 7.41025C6.22012 7.41025 6.98327 7.41025 7.83355 7.41025C7.83355 6.56527 7.83355 5.842 7.83355 5.01442Z" fill="#B3B3C5"/>
</svg>
