<svg width="23" height="23" viewBox="0 0 23 23" fill="none" xmlns="http://www.w3.org/2000/svg">
<path fill-rule="evenodd" clip-rule="evenodd" d="M22.3174 13.4107C22.3151 12.6533 22.3128 11.8956 22.3128 11.1376C22.3128 10.3811 22.3151 9.6242 22.3174 8.86719C22.3225 7.13649 22.3277 5.40513 22.3059 3.67546C22.2745 1.28311 21.0339 0.0347725 18.6399 0.0208635C13.6532 -0.00695451 8.66657 -0.00695451 3.67989 0.0208635C1.28587 0.0347725 0.0348475 1.28658 0.0209085 3.67893C-0.0069695 8.65488 -0.0069695 13.6308 0.0209085 18.6068C0.0348475 20.9957 1.28936 22.244 3.68338 22.2544C8.67005 22.2822 13.6567 22.2822 18.6434 22.2544C21.0374 22.244 22.278 20.9887 22.3059 18.5998C22.3277 16.8705 22.3225 15.1412 22.3174 13.4107ZM5.32121 10.9916C5.39787 7.79948 8.12295 5.18459 11.3115 5.24022C14.507 5.29586 17.131 8.01159 17.0718 11.2037C17.016 14.3854 14.2596 17.049 11.1024 16.969C7.90689 16.889 5.24455 14.135 5.32121 10.9916ZM17.6955 2.69487C18.7793 2.67401 19.5843 3.42857 19.6226 4.49957C19.6609 5.53579 18.8734 6.42944 17.8628 6.50246C16.8139 6.57896 15.8068 5.63315 15.8068 4.57954C15.8068 3.56766 16.6606 2.71573 17.6955 2.69487ZM11.28 15.6477C13.7751 15.6095 15.744 13.5822 15.73 11.0682C15.7196 8.54369 13.7437 6.58252 11.2103 6.58252C8.69432 6.57905 6.67317 8.5576 6.64529 11.0473C6.61741 13.5822 8.73962 15.6894 11.28 15.6477Z" fill="#B3B3C5"/>
</svg>
