<svg width="23" height="19" viewBox="0 0 23 19" fill="none" xmlns="http://www.w3.org/2000/svg">
<path d="M2.09085 0.597267C4.12943 3.03134 6.47816 4.88472 9.72246 5.23244C10.8585 0.360814 13.7369 -0.922293 18.288 1.40399C19.1452 1.13972 20.0687 0.858061 21.2117 0.503381C21.027 1.29272 20.8876 1.88037 20.7308 2.54801C21.0897 2.64189 21.4486 2.73925 22.1107 2.91659C19.8422 4.73868 19.7063 7.17275 19.4066 9.6729C18.8595 14.2211 16.0821 17.0621 11.5798 18.0322C7.5863 18.8946 3.76004 18.4773 0 16.0328C1.63783 15.4347 3.09097 14.9062 4.86819 14.2559C3.1537 13.1328 2.64841 11.5923 1.98282 10.0519C1.32769 8.5254 1.02801 7.18666 1.09422 5.48628C1.16043 3.79982 0.944367 2.18985 2.09085 0.597267Z" fill="#B3B3C5"/>
</svg>
