<svg width="23" height="23" viewBox="0 0 23 23" fill="none" xmlns="http://www.w3.org/2000/svg">
<path d="M17.0618 14.5838C17.2813 13.3529 17.4939 12.1741 17.7343 10.8214C16.438 10.8214 15.2497 10.8214 13.9185 10.8214C13.9185 9.89647 13.9185 9.13147 13.9185 8.16479C15.1208 8.16479 16.316 8.16479 17.6333 8.16479C17.6333 6.79476 17.6333 5.61249 17.6333 4.17986C15.5947 4.33286 13.4969 3.67566 11.5872 4.91356C9.48593 6.27665 9.91107 8.53338 9.75425 10.6615C8.96322 10.7206 8.2349 10.7727 7.39159 10.8318C7.39159 12.0593 7.39159 13.2416 7.39159 14.5664C8.13036 14.6221 8.85519 14.6742 9.82743 14.7472C9.82743 16.0477 9.82743 17.2961 9.82743 18.5479C9.82743 19.8101 9.82743 21.0758 9.82743 22.505C7.39508 22.505 5.08818 22.6093 2.79521 22.4702C1.21314 22.3763 0.0596862 21.0341 0.0422625 19.3789C-0.0100087 14.0518 -0.0204641 8.72463 0.0492308 3.40096C0.0701393 1.62756 1.40131 0.344452 3.19944 0.323588C8.47884 0.264475 13.7617 0.264475 19.0411 0.320111C20.9995 0.340974 22.2784 1.67624 22.2959 3.66175C22.3412 8.81504 22.3412 13.9683 22.2993 19.1216C22.2819 21.2045 20.9926 22.4667 18.9226 22.5328C17.3022 22.585 15.6818 22.5432 13.915 22.5432C13.915 19.9562 13.915 17.4491 13.915 14.7333C14.9117 14.6881 15.9223 14.6394 17.0618 14.5838Z" fill="#B3B3C5"/>
</svg>
