<svg width="23" height="20" viewBox="0 0 23 20" fill="none" xmlns="http://www.w3.org/2000/svg">
<path d="M17.8803 19.8244C15.6849 18.0928 13.7404 16.5593 11.5694 14.845C10.4926 16.1073 9.45065 17.3243 8.21007 18.7813C7.11586 16.1003 6.20634 13.8783 5.28985 11.639C3.60323 10.9644 1.95495 10.3037 0 9.52135C7.4957 6.40573 14.6952 3.40834 22.2188 0.278809C20.7587 6.8682 19.3543 13.1968 17.8803 19.8244ZM8.1125 15.0154C9.33565 11.8372 9.33564 11.8372 11.3638 9.98034C12.3953 9.03453 13.4267 8.0922 14.4582 7.14638C14.3851 7.04902 14.3119 6.95513 14.2387 6.85777C11.7366 8.34256 9.23459 9.83082 6.68724 11.3434C6.82663 11.7885 6.90678 12.1189 7.03223 12.4318C7.35282 13.2316 7.69433 14.0209 8.1125 15.0154Z" fill="#B3B3C5"/>
</svg>
