<svg width="23" height="23" viewBox="0 0 23 23" fill="none" xmlns="http://www.w3.org/2000/svg">
<path d="M0.131658 22.4784C0.295441 21.7794 0.34771 21.3726 0.483616 20.9971C1.28859 18.7925 1.48026 16.7896 0.577705 14.359C-1.10891 9.82464 1.04466 4.77219 5.1253 2.09471C9.14322 -0.541051 14.332 -0.287211 18.1269 2.72409C21.9566 5.76669 23.3505 10.8574 21.5942 15.3987C19.8832 19.8252 15.4262 22.7774 10.666 22.4679C9.307 22.381 7.93749 21.9603 6.64814 21.4839C5.78043 21.164 5.03818 21.0214 4.14957 21.3239C2.90203 21.7516 1.61616 22.0576 0.131658 22.4784ZM15.7015 12.6482C15.2764 12.9194 15.0777 13.0341 14.8931 13.1663C13.5305 14.1747 13.1542 14.1608 11.9275 12.9889C11.2968 12.3874 10.6904 11.7684 10.0702 11.1564C8.25112 9.35174 8.24763 9.29958 9.6729 7.27581C9.73214 7.19584 9.70426 7.05327 9.74608 6.71945C8.91322 5.90925 7.98628 5.00517 7.09418 4.13933C5.51211 5.25205 5.11136 6.24307 5.37969 8.00604C6.01391 12.1787 10.5511 16.6192 14.7781 17.1651C15.3391 17.2381 15.935 17.1756 16.4995 17.0886C17.423 16.9461 18.0886 16.4627 18.4161 15.2735C17.5833 14.4598 16.6842 13.594 15.7015 12.6482Z" fill="#B3B3C5"/>
</svg>
