<svg width="30" height="29" viewBox="0 0 30 29" fill="none" xmlns="http://www.w3.org/2000/svg">
<path opacity="0.7" fill-rule="evenodd" clip-rule="evenodd" d="M29.388 16.876C29.385 15.923 29.382 14.9698 29.382 14.0162C29.382 13.0644 29.385 12.1121 29.388 11.1597C29.3948 8.98233 29.4016 6.80411 29.3729 4.62801C29.3316 1.61819 27.698 0.0476537 24.5455 0.0301547C17.9789 -0.00484324 11.4123 -0.00484324 4.84577 0.0301547C1.69326 0.0476537 0.0458879 1.62256 0.0275328 4.63239C-0.00917759 10.8926 -0.00917759 17.1529 0.0275328 23.4132C0.0458879 26.4186 1.69785 27.9892 4.85035 28.0023C11.4169 28.0373 17.9835 28.0373 24.55 28.0023C27.7025 27.9892 29.3362 26.4099 29.3729 23.4044C29.4016 21.2288 29.3948 19.0531 29.388 16.876ZM7.00709 13.8325C7.10804 9.81646 10.6965 6.52665 14.8952 6.59665C19.1031 6.66664 22.5585 10.0833 22.4805 14.0993C22.4071 18.1022 18.7773 21.4533 14.6199 21.3527C10.412 21.252 6.90613 17.7872 7.00709 13.8325ZM23.3019 3.39433C24.729 3.36809 25.789 4.31741 25.8395 5.66483C25.89 6.9685 24.8529 8.09281 23.5222 8.18468C22.1409 8.28092 20.8148 7.09099 20.8148 5.76545C20.8148 4.4924 21.939 3.42058 23.3019 3.39433ZM14.8539 19.6902C18.1395 19.642 20.7322 17.0916 20.7138 13.9286C20.7001 10.7525 18.0982 8.28516 14.7622 8.28516C11.4491 8.28079 8.78756 10.77 8.75085 13.9024C8.71414 17.0916 11.5087 19.7427 14.8539 19.6902Z" fill="#00003F"/>
</svg>
