<svg width="20" height="20" viewBox="0 0 20 20" fill="none" xmlns="http://www.w3.org/2000/svg">
<path d="M2.92969 20H17.0703C18.6858 20 20 18.6858 20 17.0703V2.92969C20 1.31424 18.6858 0 17.0703 0H2.92969C1.31424 0 0 1.31424 0 2.92969V17.0703C0 18.6858 1.31424 20 2.92969 20ZM1.17188 2.92969C1.17188 1.96045 1.96045 1.17188 2.92969 1.17188H17.0703C18.0396 1.17188 18.8281 1.96045 18.8281 2.92969V17.0703C18.8281 18.0396 18.0396 18.8281 17.0703 18.8281H2.92969C1.96045 18.8281 1.17188 18.0396 1.17188 17.0703V2.92969Z" fill="white"/>
<path d="M10.0005 15.2734C12.9082 15.2734 15.2739 12.9077 15.2739 10C15.2739 7.09228 12.9082 4.72656 10.0005 4.72656C7.09277 4.72656 4.72705 7.09228 4.72705 10C4.72705 12.9077 7.09277 15.2734 10.0005 15.2734ZM10.0005 5.89844C12.2621 5.89844 14.102 7.73834 14.102 10C14.102 12.2617 12.2621 14.1016 10.0005 14.1016C7.73883 14.1016 5.89893 12.2617 5.89893 10C5.89893 7.73834 7.73883 5.89844 10.0005 5.89844Z" fill="white"/>
<path d="M15.8599 5.89844C16.8291 5.89844 17.6177 5.10986 17.6177 4.14062C17.6177 3.17139 16.8291 2.38281 15.8599 2.38281C14.8906 2.38281 14.1021 3.17139 14.1021 4.14062C14.1021 5.10986 14.8906 5.89844 15.8599 5.89844ZM15.8599 3.55469C16.1829 3.55469 16.4458 3.8176 16.4458 4.14062C16.4458 4.46365 16.1829 4.72656 15.8599 4.72656C15.5368 4.72656 15.2739 4.46365 15.2739 4.14062C15.2739 3.8176 15.5368 3.55469 15.8599 3.55469Z" fill="white"/>
</svg>
