<svg width="26" height="22" viewBox="0 0 26 22" fill="none" xmlns="http://www.w3.org/2000/svg">
<path d="M12.8784 12.0778C11.5245 12.0778 10.4229 10.9868 10.4229 9.64607C10.4229 8.30531 11.5245 7.21436 12.8784 7.21436C14.2323 7.21436 15.3339 8.30531 15.3339 9.64607C15.3339 10.9868 14.2328 12.0778 12.8784 12.0778ZM12.8784 7.8875C11.8995 7.8875 11.1031 8.67615 11.1031 9.64552C11.1031 10.6149 11.8995 11.4035 12.8784 11.4035C13.8572 11.4035 14.6542 10.6149 14.6542 9.64552C14.6542 8.67615 13.8572 7.8875 12.8784 7.8875Z" fill="#00003F" stroke="#00003F" stroke-width="0.3"/>
<path d="M7.68685 20.2281H1.34043C1.15235 20.2281 1 20.0772 1 19.8915V18.6403C1 18.0064 1.24946 17.4101 1.70206 16.9619L2.78528 15.8897C3.12682 15.5515 3.5811 15.3652 4.06439 15.3652H7.07855C7.56184 15.3652 8.01611 15.5515 8.35821 15.8897L8.75445 16.2821C8.88727 16.4136 8.88727 16.627 8.75445 16.7585C8.62162 16.89 8.40621 16.89 8.27339 16.7585L7.87715 16.3661C7.66397 16.155 7.38047 16.0389 7.07855 16.0389H4.06439C3.76303 16.0389 3.47953 16.155 3.26634 16.3661L2.18368 17.4383C1.85943 17.7594 1.68085 18.1866 1.68085 18.6403V19.555H7.68741C7.87492 19.555 8.02728 19.7059 8.02728 19.8915C8.02728 20.0772 7.87492 20.2281 7.68685 20.2281Z" fill="#00003F" stroke="#00003F" stroke-width="0.3"/>
<path d="M5.57076 14.9904C4.21687 14.9904 3.11523 13.8994 3.11523 12.5587C3.11523 11.2179 4.21687 10.127 5.57076 10.127C6.92465 10.127 8.02629 11.2179 8.02629 12.5587C8.02629 13.8994 6.92521 14.9904 5.57076 14.9904ZM5.57076 10.8001C4.5919 10.8001 3.79553 11.5887 3.79553 12.5581C3.79553 13.5275 4.5919 14.3161 5.57076 14.3161C6.54963 14.3161 7.346 13.5275 7.346 12.5581C7.34656 11.5887 6.55018 10.8001 5.57076 10.8001Z" fill="#00003F" stroke="#00003F" stroke-width="0.3"/>
<path d="M24.6605 20.2281H18.3136C18.1255 20.2281 17.9731 20.0772 17.9731 19.8915C17.9731 19.7053 18.1255 19.555 18.3136 19.555H24.3201V18.6403C24.3201 18.186 24.1415 17.7594 23.8173 17.4383L22.7346 16.3661C22.5214 16.155 22.2379 16.0389 21.9366 16.0389H18.9224C18.6211 16.0389 18.3376 16.155 18.1244 16.3661L17.7281 16.7585C17.5953 16.89 17.3799 16.89 17.2471 16.7585C17.1143 16.627 17.1143 16.4136 17.2471 16.2821L17.6433 15.8897C17.9849 15.5515 18.4397 15.3652 18.9224 15.3652H21.9366C22.4199 15.3652 22.8741 15.5515 23.2157 15.8897L24.2984 16.9619C24.7509 17.4101 25.0004 18.0064 25.0004 18.6403V19.8915C25.0004 20.0772 24.8481 20.2281 24.6605 20.2281Z" fill="#00003F" stroke="#00003F" stroke-width="0.3"/>
<path d="M20.4292 14.9904C19.0753 14.9904 17.9736 13.8994 17.9736 12.5587C17.9736 11.2179 19.0753 10.127 20.4292 10.127C21.7831 10.127 22.8847 11.2179 22.8847 12.5587C22.8847 13.8994 21.7831 14.9904 20.4292 14.9904ZM20.4292 10.8001C19.4503 10.8001 18.6534 11.5887 18.6534 12.5581C18.6534 13.5275 19.4497 14.3161 20.4292 14.3161C21.408 14.3161 22.205 13.5275 22.205 12.5581C22.2044 11.5887 21.408 10.8001 20.4292 10.8001Z" fill="#00003F" stroke="#00003F" stroke-width="0.3"/>
<path d="M16.8812 14.3033L15.7985 13.2311C15.457 12.8929 15.0027 12.7061 14.5194 12.7061H11.5052C11.0219 12.7061 10.5677 12.8923 10.2261 13.2311L9.14346 14.3033C8.69087 14.7515 8.44141 15.3478 8.44141 15.9817V17.2329C8.44141 17.4192 8.59376 17.5695 8.78127 17.5695H8.88898C8.91075 17.4849 8.93419 17.4009 8.97046 17.3175C8.97325 17.3042 8.97548 17.2915 8.97827 17.2782C9.00953 17.1202 9.05975 16.9815 9.1217 16.8582V15.9806C9.1217 15.5263 9.30028 15.0996 9.62452 14.7785L10.7072 13.7064C10.9204 13.4953 11.2039 13.3786 11.5058 13.3786H14.52C14.8213 13.3786 15.1048 13.4947 15.318 13.7064L16.4012 14.7785C16.7255 15.0996 16.9041 15.5268 16.9041 15.9806V16.8952H16.8812C16.9258 16.9826 16.9638 17.071 16.9889 17.16C17.0279 17.3009 17.0402 17.4363 17.0397 17.5689H17.2439C17.432 17.5689 17.5843 17.4181 17.5843 17.2324V15.9811C17.5838 15.3478 17.3343 14.7515 16.8812 14.3033Z" fill="#00003F" stroke="#00003F" stroke-width="0.3"/>
<path d="M8.78044 20.9607C8.59237 20.9607 8.43945 20.8098 8.43945 20.623V16.1326C8.43945 15.9464 8.59181 15.7949 8.78044 15.7949C8.96907 15.7949 9.12142 15.9458 9.12142 16.1326V20.623C9.12142 20.8092 8.96851 20.9607 8.78044 20.9607Z" fill="#00003F" stroke="#00003F" stroke-width="0.3"/>
<path d="M17.2443 21.0002C17.0562 21.0002 16.9033 20.8493 16.9033 20.6625V15.971C16.9033 15.7847 17.0557 15.6333 17.2443 15.6333C17.4324 15.6333 17.5853 15.7842 17.5853 15.971V20.6625C17.5853 20.8488 17.4324 21.0002 17.2443 21.0002Z" fill="#00003F" stroke="#00003F" stroke-width="0.3"/>
<path d="M15.9686 10.4763C15.8732 10.4763 15.7844 10.4271 15.7348 10.3464C15.6851 10.2657 15.6812 10.1651 15.7247 10.0811C16.1187 9.32065 16.2069 8.8763 16.2197 8.65634H15.9312C15.78 8.65634 15.6572 8.53476 15.6572 8.38499C15.6572 8.23521 15.78 8.11363 15.9312 8.11363H16.4664C16.573 8.11363 16.6701 8.17497 16.7148 8.27059C16.7544 8.35514 16.9045 8.7934 16.4318 9.8711C17.5106 9.57266 18.0095 8.30319 18.0151 8.28882C18.0552 8.18326 18.1574 8.11363 18.2712 8.11363H19.7897V1.57397H9.29403C9.1428 1.57397 9.02002 1.45238 9.02002 1.30261C9.02002 1.15284 9.1428 1.03125 9.29403 1.03125H20.0632C20.2144 1.03125 20.3372 1.15284 20.3372 1.30261V8.38499C20.3372 8.53476 20.2144 8.65634 20.0632 8.65634H18.4504C18.2176 9.14545 17.4481 10.4763 15.9686 10.4763Z" fill="#00003F" stroke="#00003F" stroke-width="0.3"/>
<path d="M15.9687 10.5075C15.8632 10.5075 15.7627 10.4522 15.7081 10.3627C15.6534 10.2731 15.6483 10.1598 15.6969 10.0664C16.0764 9.33416 16.1679 8.89756 16.1858 8.68755H15.9313C15.7627 8.68755 15.626 8.55214 15.626 8.38524C15.626 8.21833 15.7627 8.08238 15.9313 8.08238H16.4665C16.5848 8.08238 16.6936 8.15146 16.7438 8.25757C16.7952 8.36645 16.9241 8.79752 16.4877 9.82161C17.5034 9.49664 17.9805 8.29018 17.9856 8.27747C18.0302 8.16086 18.1446 8.08238 18.2713 8.08238H19.758V1.60517H9.29411C9.12557 1.60517 8.98828 1.46976 8.98828 1.30286C8.98828 1.13596 9.12557 1 9.29411 1H20.0633C20.2318 1 20.3691 1.13596 20.3691 1.30286V8.38524C20.3691 8.55214 20.2318 8.68755 20.0633 8.68755H18.4705C18.1993 9.2496 17.4286 10.5075 15.9687 10.5075ZM15.9313 8.14538C15.7979 8.14538 15.6891 8.2526 15.6891 8.38524C15.6891 8.51733 15.7973 8.62509 15.9313 8.62509H16.2533L16.2511 8.65825C16.2366 8.90308 16.1389 9.35129 15.7527 10.0957C15.7142 10.1698 15.7175 10.2593 15.7616 10.3301C15.8052 10.4008 15.8844 10.445 15.9681 10.445C17.4074 10.445 18.163 9.18494 18.4214 8.64333L18.4298 8.62509H20.0627C20.1961 8.62509 20.3049 8.51788 20.3049 8.38524V1.30286C20.3049 1.17077 20.1967 1.063 20.0627 1.063H9.29411C9.16073 1.063 9.0519 1.17022 9.0519 1.30286C9.0519 1.43495 9.16017 1.54272 9.29411 1.54272H19.8211V8.14594H18.2713C18.1714 8.14594 18.0804 8.20839 18.0447 8.30068C18.0397 8.31395 17.5307 9.60054 16.4403 9.9023L16.3761 9.91998L16.4023 9.85919C16.8722 8.78813 16.721 8.35982 16.6858 8.28465C16.6462 8.2001 16.5602 8.14594 16.4659 8.14594H15.9313V8.14538Z" fill="#00003F" stroke="#00003F" stroke-width="0.3"/>
<path d="M8.39842 1.57397H7.95028C7.79905 1.57397 7.67627 1.45238 7.67627 1.30261C7.67627 1.15284 7.79905 1.03125 7.95028 1.03125H8.39842C8.54966 1.03125 8.67243 1.15284 8.67243 1.30261C8.67243 1.45238 8.54966 1.57397 8.39842 1.57397Z" fill="#00003F" stroke="#00003F" stroke-width="0.3"/>
<path d="M8.398 1.60517H7.94987C7.78133 1.60517 7.64404 1.46976 7.64404 1.30286C7.64404 1.13596 7.78189 1 7.94987 1H8.398C8.56654 1 8.70383 1.13596 8.70383 1.30286C8.70383 1.46976 8.56654 1.60517 8.398 1.60517ZM7.94987 1.063C7.81649 1.063 7.70766 1.17077 7.70766 1.30286C7.70766 1.43495 7.81593 1.54272 7.94987 1.54272H8.398C8.53138 1.54272 8.64021 1.4355 8.64021 1.30286C8.64021 1.17022 8.53194 1.063 8.398 1.063H7.94987Z" fill="#00003F" stroke="#00003F" stroke-width="0.3"/>
<path d="M9.69652 8.65677H5.69345C5.54221 8.65677 5.41943 8.53518 5.41943 8.38541V1.30358C5.41943 1.15381 5.54221 1.03223 5.69345 1.03223H6.98762C7.13886 1.03223 7.26164 1.15381 7.26164 1.30358C7.26164 1.45336 7.13886 1.57494 6.98762 1.57494H5.9669V8.11516H9.69652C9.84776 8.11516 9.97053 8.23674 9.97053 8.38652C9.96997 8.53518 9.84776 8.65677 9.69652 8.65677Z" fill="#00003F" stroke="#00003F" stroke-width="0.3"/>
<path d="M9.69603 8.68803H5.69296C5.52443 8.68803 5.3877 8.55263 5.3877 8.38573V1.30335C5.38714 1.13644 5.52443 1.00049 5.69296 1.00049H6.98714C7.15568 1.00049 7.29296 1.13644 7.29296 1.30335C7.29296 1.47025 7.15568 1.60565 6.98714 1.60565H5.99823V8.08287H9.69603C9.86457 8.08287 10.0013 8.21882 10.0013 8.38573C10.0013 8.55263 9.86457 8.68803 9.69603 8.68803ZM5.69296 1.06349C5.55958 1.06349 5.45076 1.17071 5.45076 1.30335V8.38573C5.45076 8.51781 5.55903 8.62558 5.69296 8.62558H9.69603C9.82941 8.62558 9.93824 8.51837 9.93824 8.38573C9.93824 8.25364 9.82997 8.14587 9.69603 8.14587H5.93461V1.54265H6.98658C7.11996 1.54265 7.22879 1.43543 7.22879 1.3028C7.22879 1.17071 7.12052 1.06294 6.98658 1.06294H5.69296V1.06349Z" fill="#00003F" stroke="#00003F" stroke-width="0.3"/>
<path d="M17.2692 20.9965H8.76914C8.5939 20.9965 8.45215 20.8561 8.45215 20.6826C8.45215 20.509 8.5939 20.3687 8.76914 20.3687H17.2692C17.4444 20.3687 17.5862 20.509 17.5862 20.6826C17.5862 20.8555 17.4444 20.9965 17.2692 20.9965Z" fill="#00003F" stroke="#00003F" stroke-width="0.3"/>
</svg>
