<svg width="84" height="84" viewBox="0 0 84 84" fill="none" xmlns="http://www.w3.org/2000/svg">
<g opacity="0.3">
<path d="M50.8594 31.1719C49.9538 31.1719 49.2188 31.9069 49.2188 32.8125C49.2188 33.7181 49.9538 34.4531 50.8594 34.4531C51.765 34.4531 52.5 33.7181 52.5 32.8125C52.5 31.9069 51.765 31.1719 50.8594 31.1719Z" fill="#00003F"/>
<path d="M82.0774 72.7976L60.1783 50.8986C63.7458 45.5249 65.625 39.302 65.625 32.8125C65.625 14.7197 50.9053 0 32.8125 0C14.7197 0 0 14.7197 0 32.8125C0 50.9053 14.7197 65.625 32.8125 65.625C39.3022 65.625 45.5251 63.7457 50.8986 60.1785L56.9517 66.2315C56.9525 66.2324 56.9533 66.2332 56.9543 66.2342L72.7975 82.0774C74.0375 83.3172 75.6852 84 77.4375 84C79.1898 84 80.8375 83.3172 82.0769 82.0778C83.317 80.8387 84 79.1908 84 77.4375C84 75.6842 83.317 74.0363 82.0774 72.7976ZM50.127 56.7208C50.127 56.721 50.1268 56.721 50.1267 56.7212C45.0626 60.3994 39.0756 62.3438 32.8125 62.3438C16.529 62.3438 3.28125 49.096 3.28125 32.8125C3.28125 16.529 16.529 3.28125 32.8125 3.28125C49.096 3.28125 62.3438 16.529 62.3438 32.8125C62.3438 39.0756 60.3994 45.0626 56.721 50.1268C54.8807 52.6621 52.6623 54.8807 50.127 56.7208ZM53.569 58.2082C55.2671 56.8191 56.8193 55.2669 58.2082 53.569L62.8628 58.2236C61.4473 59.8943 59.8943 61.4475 58.2236 62.8628L53.569 58.2082ZM79.7572 79.7572C79.137 80.3773 78.3133 80.7188 77.4375 80.7188C76.5617 80.7188 75.738 80.3773 75.1178 79.7572L60.5499 65.1892C62.2114 63.7634 63.7634 62.2115 65.1891 60.5501L79.7575 75.1185C80.3773 75.7376 80.7188 76.5611 80.7188 77.4375C80.7188 78.3139 80.3773 79.1374 79.7572 79.7572Z" fill="#00003F"/>
<path d="M32.8125 6.5625C18.3381 6.5625 6.5625 18.3381 6.5625 32.8125C6.5625 47.2869 18.3381 59.0625 32.8125 59.0625C47.2869 59.0625 59.0625 47.2869 59.0625 32.8125C59.0625 18.3381 47.2869 6.5625 32.8125 6.5625ZM32.8125 55.7812C20.1475 55.7812 9.84375 45.4775 9.84375 32.8125C9.84375 20.1475 20.1475 9.84375 32.8125 9.84375C45.4775 9.84375 55.7812 20.1475 55.7812 32.8125C55.7812 45.4775 45.4775 55.7812 32.8125 55.7812Z" fill="#00003F"/>
<path d="M51.1982 25.7698C49.7854 22.0928 47.3256 18.9491 44.0844 16.6786C40.7661 14.3538 36.8683 13.125 32.8125 13.125C31.9065 13.125 31.1719 13.8597 31.1719 14.7656C31.1719 15.6716 31.9065 16.4063 32.8125 16.4063C39.5553 16.4063 45.7129 20.642 48.1353 26.9468C48.386 27.5991 49.0076 27.9994 49.6671 27.9994C49.8627 27.9994 50.0617 27.9641 50.2551 27.8898C51.1009 27.5648 51.5232 26.6157 51.1982 25.7698Z" fill="#00003F"/>
</g>
</svg>
