<svg width="84" height="84" viewBox="0 0 84 84" fill="none" xmlns="http://www.w3.org/2000/svg">
<g opacity="0.3">
<path d="M48.5625 46.9219C49.468 46.9219 50.2031 46.1868 50.2031 45.2812C50.2031 44.3757 49.468 43.6406 48.5625 43.6406C47.657 43.6406 46.9219 44.3757 46.9219 45.2812C46.9219 46.1868 47.657 46.9219 48.5625 46.9219Z" fill="#00003F"/>
<path d="M12.4688 46.9219C13.3743 46.9219 14.1094 46.1868 14.1094 45.2812C14.1094 44.3757 13.3743 43.6406 12.4688 43.6406C11.5632 43.6406 10.8281 44.3757 10.8281 45.2812C10.8281 46.1868 11.5632 46.9219 12.4688 46.9219Z" fill="#00003F"/>
<path d="M1.64062 20.6719C2.54681 20.6719 3.28125 19.9374 3.28125 19.0312V3.28125H19.0312C19.9374 3.28125 20.6719 2.54681 20.6719 1.64062C20.6719 0.734436 19.9374 0 19.0312 0H1.64062C0.734436 0 0 0.734436 0 1.64062V19.0312C0 19.9374 0.734436 20.6719 1.64062 20.6719Z" fill="#00003F"/>
<path d="M20.6719 82.3594C20.6719 81.4532 19.9374 80.7188 19.0312 80.7188H3.28125V64.9688C3.28125 64.0626 2.54681 63.3281 1.64062 63.3281C0.734436 63.3281 0 64.0626 0 64.9688V82.3594C0 83.2656 0.734436 84 1.64062 84H19.0312C19.9374 84 20.6719 83.2656 20.6719 82.3594Z" fill="#00003F"/>
<path d="M82.3594 63.3281C81.4532 63.3281 80.7188 64.0626 80.7188 64.9688V80.7188H64.9688C64.0626 80.7188 63.3281 81.4532 63.3281 82.3594C63.3281 83.2656 64.0626 84 64.9688 84H82.3594C83.2656 84 84 83.2656 84 82.3594V64.9688C84 64.0626 83.2656 63.3281 82.3594 63.3281Z" fill="#00003F"/>
<path d="M82.3594 0H64.9688C64.0626 0 63.3281 0.734436 63.3281 1.64062C63.3281 2.54681 64.0626 3.28125 64.9688 3.28125H80.7188V19.0312C80.7188 19.9374 81.4532 20.6719 82.3594 20.6719C83.2656 20.6719 84 19.9374 84 19.0312V1.64062C84 0.734436 83.2656 0 82.3594 0Z" fill="#00003F"/>
<path d="M10.8281 71.5312C10.8281 72.4374 11.5626 73.1719 12.4688 73.1719H28.875C29.7812 73.1719 30.5156 72.4374 30.5156 71.5312V55.125C30.5156 54.2188 29.7812 53.4844 28.875 53.4844H12.4688C11.5626 53.4844 10.8281 54.2188 10.8281 55.125V71.5312ZM14.1094 56.7656H27.2344V69.8906H14.1094V56.7656Z" fill="#00003F"/>
<path d="M28.875 10.8281H12.4688C11.5626 10.8281 10.8281 11.5626 10.8281 12.4688V28.875C10.8281 29.7812 11.5626 30.5156 12.4688 30.5156H28.875C29.7812 30.5156 30.5156 29.7812 30.5156 28.875V12.4688C30.5156 11.5626 29.7812 10.8281 28.875 10.8281ZM27.2344 27.2344H14.1094V14.1094H27.2344V27.2344Z" fill="#00003F"/>
<path d="M73.1719 12.4688C73.1719 11.5626 72.4374 10.8281 71.5312 10.8281H55.125C54.2188 10.8281 53.4844 11.5626 53.4844 12.4688V28.875C53.4844 29.7812 54.2188 30.5156 55.125 30.5156H71.5312C72.4374 30.5156 73.1719 29.7812 73.1719 28.875V12.4688ZM69.8906 27.2344H56.7656V14.1094H69.8906V27.2344Z" fill="#00003F"/>
<path d="M73.1719 71.5312V55.125C73.1719 54.2188 72.4374 53.4844 71.5312 53.4844H55.125C54.2188 53.4844 53.4844 54.2188 53.4844 55.125V71.5312C53.4844 72.4374 54.2188 73.1719 55.125 73.1719H71.5312C72.4374 73.1719 73.1719 72.4374 73.1719 71.5312ZM69.8906 69.8906H56.7656V56.7656H69.8906V69.8906Z" fill="#00003F"/>
<path d="M22.3125 60.0469H19.0312C18.1251 60.0469 17.3906 60.7813 17.3906 61.6875V64.9688C17.3906 65.8749 18.1251 66.6094 19.0312 66.6094H22.3125C23.2187 66.6094 23.9531 65.8749 23.9531 64.9688V61.6875C23.9531 60.7813 23.2187 60.0469 22.3125 60.0469Z" fill="#00003F"/>
<path d="M19.0312 23.9531H22.3125C23.2187 23.9531 23.9531 23.2187 23.9531 22.3125V19.0312C23.9531 18.1251 23.2187 17.3906 22.3125 17.3906H19.0312C18.1251 17.3906 17.3906 18.1251 17.3906 19.0312V22.3125C17.3906 23.2187 18.1251 23.9531 19.0312 23.9531Z" fill="#00003F"/>
<path d="M61.6875 23.9531H64.9688C65.8749 23.9531 66.6094 23.2187 66.6094 22.3125V19.0312C66.6094 18.1251 65.8749 17.3906 64.9688 17.3906H61.6875C60.7813 17.3906 60.0469 18.1251 60.0469 19.0312V22.3125C60.0469 23.2187 60.7813 23.9531 61.6875 23.9531Z" fill="#00003F"/>
<path d="M61.6875 66.6094H64.9688C65.8749 66.6094 66.6094 65.8749 66.6094 64.9688V61.6875C66.6094 60.7813 65.8749 60.0469 64.9688 60.0469H61.6875C60.7813 60.0469 60.0469 60.7813 60.0469 61.6875V64.9688C60.0469 65.8749 60.7813 66.6094 61.6875 66.6094Z" fill="#00003F"/>
<path d="M17.3906 45.2812C17.3906 46.1874 18.1251 46.9219 19.0312 46.9219H40.3594V55.125C40.3594 56.0312 41.0938 56.7656 42 56.7656C42.9062 56.7656 43.6406 56.0312 43.6406 55.125V45.2812C43.6406 44.3751 42.9062 43.6406 42 43.6406H19.0312C18.1251 43.6406 17.3906 44.3751 17.3906 45.2812Z" fill="#00003F"/>
<path d="M28.875 40.3594C29.7812 40.3594 30.5156 39.6249 30.5156 38.7188C30.5156 37.8126 29.7812 37.0781 28.875 37.0781H12.4688C11.5626 37.0781 10.8281 37.8126 10.8281 38.7188C10.8281 39.6249 11.5626 40.3594 12.4688 40.3594H28.875Z" fill="#00003F"/>
<path d="M35.4375 40.3594H42C42.9062 40.3594 43.6406 39.6249 43.6406 38.7188C43.6406 37.8126 42.9062 37.0781 42 37.0781H35.4375C34.5313 37.0781 33.7969 37.8126 33.7969 38.7188C33.7969 39.6249 34.5313 40.3594 35.4375 40.3594Z" fill="#00003F"/>
<path d="M35.4375 10.8281C34.5313 10.8281 33.7969 11.5626 33.7969 12.4688V28.875C33.7969 29.7812 34.5313 30.5156 35.4375 30.5156H46.9219V38.7188C46.9219 39.6249 47.6563 40.3594 48.5625 40.3594H55.125C56.0312 40.3594 56.7656 39.6249 56.7656 38.7188C56.7656 37.8126 56.0312 37.0781 55.125 37.0781H50.2031V28.875C50.2031 27.9688 49.4687 27.2344 48.5625 27.2344H37.0781V12.4688C37.0781 11.5626 36.3437 10.8281 35.4375 10.8281Z" fill="#00003F"/>
<path d="M71.5312 37.0781H61.6875C60.7813 37.0781 60.0469 37.8126 60.0469 38.7188C60.0469 39.6249 60.7813 40.3594 61.6875 40.3594H71.5312C72.4374 40.3594 73.1719 39.6249 73.1719 38.7188C73.1719 37.8126 72.4374 37.0781 71.5312 37.0781Z" fill="#00003F"/>
<path d="M71.5312 43.6406H55.125C54.2188 43.6406 53.4844 44.3751 53.4844 45.2812C53.4844 46.1874 54.2188 46.9219 55.125 46.9219H71.5312C72.4374 46.9219 73.1719 46.1874 73.1719 45.2812C73.1719 44.3751 72.4374 43.6406 71.5312 43.6406Z" fill="#00003F"/>
<path d="M42 60.0469H35.4375C34.5313 60.0469 33.7969 60.7813 33.7969 61.6875V71.5312C33.7969 72.4374 34.5313 73.1719 35.4375 73.1719C36.3437 73.1719 37.0781 72.4374 37.0781 71.5312V63.3281H42C42.9062 63.3281 43.6406 62.5937 43.6406 61.6875C43.6406 60.7813 42.9062 60.0469 42 60.0469Z" fill="#00003F"/>
<path d="M46.9219 69.8906H42C41.0938 69.8906 40.3594 70.6251 40.3594 71.5312C40.3594 72.4374 41.0938 73.1719 42 73.1719H48.5625C49.4687 73.1719 50.2031 72.4374 50.2031 71.5312V51.8438C50.2031 50.9376 49.4687 50.2031 48.5625 50.2031C47.6563 50.2031 46.9219 50.9376 46.9219 51.8438V69.8906Z" fill="#00003F"/>
<path d="M48.5625 23.9531C49.4687 23.9531 50.2031 23.2187 50.2031 22.3125V12.4688C50.2031 11.5626 49.4687 10.8281 48.5625 10.8281C47.6563 10.8281 46.9219 11.5626 46.9219 12.4688V20.6719H42C41.0938 20.6719 40.3594 21.4063 40.3594 22.3125C40.3594 23.2187 41.0938 23.9531 42 23.9531H48.5625Z" fill="#00003F"/>
</g>
</svg>
