<svg width="70" height="84" viewBox="0 0 70 84" fill="none" xmlns="http://www.w3.org/2000/svg">
<g opacity="0.3">
<path d="M3.01913 27.8791C2.71414 27.5738 2.29086 27.3984 1.85938 27.3984C1.42789 27.3984 1.00477 27.574 0.699453 27.8791C0.394133 28.1843 0.21875 28.6076 0.21875 29.0391C0.21875 29.4705 0.394133 29.8938 0.699453 30.1988C1.00461 30.5041 1.42789 30.6797 1.85938 30.6797C2.29086 30.6797 2.71414 30.5041 3.01913 30.1988C3.32445 29.8938 3.5 29.4705 3.5 29.0391C3.5 28.6076 3.32445 28.1843 3.01913 27.8791Z" fill="#00003F"/>
<path d="M64.8594 0H31.6641C30.7582 0 30.0235 0.734672 30.0235 1.64062C30.0235 2.54658 30.7582 3.28125 31.6641 3.28125H64.8594C65.764 3.28125 66.5 4.01723 66.5 4.92188V79.0781C66.5 79.9828 65.764 80.7188 64.8594 80.7188H5.14062C4.23598 80.7188 3.5 79.9828 3.5 79.0781V35.164C3.5 34.2581 2.76533 33.5234 1.85938 33.5234C0.953422 33.5234 0.21875 34.2581 0.21875 35.164V79.0781C0.21875 81.792 2.4267 84 5.14062 84H64.8594C67.5733 84 69.7812 81.792 69.7812 79.0781V4.92188C69.7812 2.20795 67.5733 0 64.8594 0Z" fill="#00003F"/>
<path d="M35.0001 6.5625C33.8838 6.5625 32.762 6.64781 31.6657 6.81581C30.7701 6.9533 30.1553 7.79051 30.2927 8.68613C30.43 9.58174 31.2677 10.1957 32.163 10.0592C33.0953 9.9161 34.0498 9.84375 35.0001 9.84375C45.2227 9.84375 53.5393 18.1604 53.5393 28.383C53.5393 32.9226 51.8984 37.0853 49.1795 40.312C47.9765 38.2431 46.3332 36.4586 44.3387 35.0744C43.1747 34.2666 41.924 33.6218 40.6148 33.1446C42.1091 31.6839 43.0392 29.6484 43.0392 27.3988V25.7992C43.0392 21.3662 39.4329 17.7599 35.0001 17.7599C30.5673 17.7599 26.961 21.3662 26.961 25.7992V27.3988C26.961 29.6484 27.8909 31.6839 29.3854 33.1446C28.0763 33.6218 26.8257 34.2666 25.6615 35.0744C23.6575 36.4654 22.0077 38.2599 20.8031 40.3412C18.7315 37.8794 17.2835 34.8515 16.717 31.4736C16.5672 30.5803 15.7205 29.9775 14.8276 30.127C13.934 30.2767 13.3311 31.1227 13.4808 32.0163C14.3245 37.0465 16.9358 41.6507 20.8341 44.9807C24.7767 48.3487 29.8077 50.2036 34.9999 50.2036C47.0318 50.2036 56.8204 40.415 56.8204 28.3831C56.8204 16.3513 47.0319 6.5625 35.0001 6.5625ZM30.2423 25.799C30.2423 23.1755 32.3767 21.041 35.0001 21.041C37.6235 21.041 39.7579 23.1755 39.7579 25.799V27.3986C39.7579 30.022 37.6235 32.1564 35.0001 32.1564C32.3767 32.1564 30.2423 30.022 30.2423 27.3986V25.799ZM35.0001 46.9222C30.5583 46.9222 26.4518 45.3712 23.2378 42.7416C25.4408 38.2705 29.9445 35.4377 35.0001 35.4377C40.0452 35.4377 44.5403 38.2589 46.7483 42.7137C43.5479 45.3421 39.455 46.9222 35.0001 46.9222Z" fill="#00003F"/>
<path d="M50.1523 65.2971H26.8555C25.9495 65.2971 25.2148 66.0318 25.2148 66.9377C25.2148 67.8437 25.9495 68.5784 26.8555 68.5784H50.1523C51.0585 68.5784 51.793 67.8437 51.793 66.9377C51.793 66.0318 51.0583 65.2971 50.1523 65.2971Z" fill="#00003F"/>
<path d="M21.0071 56.5901C20.7019 56.2848 20.2786 56.1094 19.8472 56.1094C19.4157 56.1094 18.9924 56.2849 18.6872 56.5901C18.3821 56.8952 18.2065 57.3185 18.2065 57.75C18.2065 58.183 18.3823 58.6048 18.6872 58.9098C18.9924 59.2151 19.4157 59.3906 19.8472 59.3906C20.2786 59.3906 20.7019 59.2151 21.0071 58.9098C21.3139 58.6048 21.4878 58.1815 21.4878 57.75C21.4878 57.3185 21.3139 56.8952 21.0071 56.5901Z" fill="#00003F"/>
<path d="M21.0071 65.7776C20.7019 65.4723 20.2803 65.2969 19.8472 65.2969C19.4157 65.2969 18.9924 65.4724 18.6872 65.7776C18.3821 66.0827 18.2065 66.506 18.2065 66.9375C18.2065 67.3705 18.3823 67.7923 18.6872 68.0973C18.9924 68.4026 19.4157 68.5781 19.8472 68.5781C20.2786 68.5781 20.7019 68.4026 21.0071 68.0973C21.3139 67.7923 21.4878 67.3706 21.4878 66.9375C21.4878 66.506 21.3139 66.0827 21.0071 65.7776Z" fill="#00003F"/>
<path d="M50.1523 56.1096H26.8555C25.9495 56.1096 25.2148 56.8443 25.2148 57.7502C25.2148 58.6562 25.9495 59.3909 26.8555 59.3909H50.1523C51.0585 59.3909 51.793 58.6562 51.793 57.7502C51.793 56.8443 51.0583 56.1096 50.1523 56.1096Z" fill="#00003F"/>
<path d="M19.5169 9.45474C18.8759 8.81424 17.8374 8.81424 17.1966 9.45474L11.8537 14.7976L10.0279 12.9717C9.38689 12.3312 8.34838 12.3312 7.70755 12.9717C7.06688 13.6126 7.06688 14.6514 7.70755 15.2921L10.6935 18.278C11.0139 18.5983 11.4336 18.7586 11.8536 18.7586C12.2736 18.7586 12.6932 18.5983 13.0138 18.2782L19.5169 11.7751C20.1576 11.1342 20.1576 10.0954 19.5169 9.45474Z" fill="#00003F"/>
<path d="M13.6719 0C6.25379 0 0.21875 6.03504 0.21875 13.4531C0.21875 20.8712 6.25379 26.9062 13.6719 26.9062C21.09 26.9062 27.125 20.8712 27.125 13.4531C27.125 6.03504 21.09 0 13.6719 0ZM13.6719 23.625C8.06307 23.625 3.5 19.0619 3.5 13.4531C3.5 7.84432 8.06307 3.28125 13.6719 3.28125C19.2807 3.28125 23.8438 7.84432 23.8438 13.4531C23.8438 19.0619 19.2807 23.625 13.6719 23.625Z" fill="#00003F"/>
</g>
</svg>
