<svg width="19" height="18" viewBox="0 0 19 18" fill="none" xmlns="http://www.w3.org/2000/svg">
<path fill-rule="evenodd" clip-rule="evenodd" d="M1.33203 4.35858C1.51543 4.35858 1.66406 4.20995 1.66406 4.02655V0.83905H4.85156C5.03496 0.83905 5.18359 0.690414 5.18359 0.507019C5.18359 0.323624 5.03496 0.174988 4.85156 0.174988H1.33203C1.14864 0.174988 1 0.323624 1 0.507019V4.02655C1 4.20995 1.14864 4.35858 1.33203 4.35858ZM13.8197 0.507019C13.8197 0.690414 13.9683 0.83905 14.1517 0.83905L17.3392 0.83905V4.02655C17.3392 4.20995 17.4879 4.35858 17.6713 4.35858C17.8547 4.35858 18.0033 4.20995 18.0033 4.02655V0.507019C18.0033 0.323624 17.8547 0.174988 17.6713 0.174988H14.1517C13.9683 0.174988 13.8197 0.323623 13.8197 0.507019ZM4.85156 16.5109C5.03496 16.5109 5.18359 16.6596 5.18359 16.843C5.18359 17.0264 5.03496 17.175 4.85156 17.175H1.33203C1.14864 17.175 1 17.0264 1 16.843V13.3234C1 13.14 1.14864 12.9914 1.33203 12.9914C1.51543 12.9914 1.66406 13.14 1.66406 13.3234V16.5109H4.85156ZM17.668 12.9914C17.4846 12.9914 17.3359 13.14 17.3359 13.3234V16.5109H14.1484C13.965 16.5109 13.8164 16.6596 13.8164 16.843C13.8164 17.0264 13.965 17.175 14.1484 17.175H17.668C17.8514 17.175 18 17.0264 18 16.843V13.3234C18 13.14 17.8514 12.9914 17.668 12.9914ZM4.33203 13.825C4.14864 13.825 4 13.6764 4 13.493V3.50702C4 3.32362 4.14864 3.17499 4.33203 3.17499H14.7671C14.9505 3.17499 15.0991 3.32362 15.0991 3.50702V13.493C15.0991 13.6764 14.9505 13.825 14.7671 13.825H4.33203ZM14.4351 3.83905H4.66406V13.1609H14.4351V3.83905Z" fill="#00003F"/>
<path fill-rule="evenodd" clip-rule="evenodd" d="M1.33198 0.35C1.24524 0.35 1.17495 0.420286 1.17495 0.507031V4.02656C1.17495 4.11331 1.24524 4.18359 1.33198 4.18359C1.41873 4.18359 1.48901 4.11331 1.48901 4.02656V0.664062H4.85151C4.93826 0.664062 5.00854 0.593777 5.00854 0.507031C5.00854 0.420286 4.93826 0.35 4.85151 0.35H1.33198ZM0.824951 0.507031C0.824951 0.226986 1.05194 0 1.33198 0H4.85151C5.13156 0 5.35855 0.226986 5.35855 0.507031C5.35855 0.787076 5.13156 1.01406 4.85151 1.01406H1.83901V4.02656C1.83901 4.30661 1.61203 4.53359 1.33198 4.53359C1.05194 4.53359 0.824951 4.30661 0.824951 4.02656V0.507031ZM14.1517 0.35C14.0649 0.35 13.9947 0.420286 13.9947 0.507031C13.9947 0.593777 14.0649 0.664062 14.1517 0.664062L17.5142 0.664062V4.02656C17.5142 4.11331 17.5845 4.18359 17.6712 4.18359C17.758 4.18359 17.8282 4.11331 17.8282 4.02656V0.507031C17.8282 0.420286 17.758 0.35 17.6712 0.35H14.1517ZM13.6447 0.507031C13.6447 0.226986 13.8716 0 14.1517 0H17.6712C17.9513 0 18.1782 0.226986 18.1782 0.507031V4.02656C18.1782 4.30661 17.9513 4.53359 17.6712 4.53359C17.3912 4.53359 17.1642 4.30661 17.1642 4.02656V1.01406L14.1517 1.01406C13.8716 1.01406 13.6447 0.787076 13.6447 0.507031ZM3.82495 3.50703C3.82495 3.22699 4.05194 3 4.33198 3H14.767C15.0471 3 15.2741 3.22699 15.2741 3.50703V13.493C15.2741 13.773 15.0471 14 14.767 14H4.33198C4.05194 14 3.82495 13.773 3.82495 13.493V3.50703ZM4.33198 3.35C4.24524 3.35 4.17495 3.42029 4.17495 3.50703V13.493C4.17495 13.5797 4.24524 13.65 4.33198 13.65H14.767C14.8538 13.65 14.9241 13.5797 14.9241 13.493V3.50703C14.9241 3.42029 14.8538 3.35 14.767 3.35H4.33198ZM4.48901 3.66406H14.61V13.3359H4.48901V3.66406ZM4.83901 4.01406V12.9859H14.26V4.01406H4.83901ZM0.824951 13.3234C0.824951 13.0434 1.05194 12.8164 1.33198 12.8164C1.61203 12.8164 1.83901 13.0434 1.83901 13.3234V16.3359H4.85151C5.13156 16.3359 5.35855 16.5629 5.35855 16.843C5.35855 17.123 5.13156 17.35 4.85151 17.35H1.33198C1.05194 17.35 0.824951 17.123 0.824951 16.843V13.3234ZM1.33198 13.1664C1.24524 13.1664 1.17495 13.2367 1.17495 13.3234V16.843C1.17495 16.9297 1.24524 17 1.33198 17H4.85151C4.93826 17 5.00854 16.9297 5.00854 16.843C5.00854 16.7562 4.93826 16.6859 4.85151 16.6859H1.48901V13.3234C1.48901 13.2367 1.41873 13.1664 1.33198 13.1664ZM17.6679 13.1664C17.5812 13.1664 17.5109 13.2367 17.5109 13.3234V16.6859H14.1484C14.0616 16.6859 13.9914 16.7562 13.9914 16.843C13.9914 16.9297 14.0616 17 14.1484 17H17.6679C17.7547 17 17.825 16.9297 17.825 16.843V13.3234C17.825 13.2367 17.7547 13.1664 17.6679 13.1664ZM17.1609 13.3234C17.1609 13.0434 17.3879 12.8164 17.6679 12.8164C17.948 12.8164 18.1749 13.0434 18.1749 13.3234V16.843C18.1749 17.123 17.948 17.35 17.6679 17.35H14.1484C13.8683 17.35 13.6414 17.123 13.6414 16.843C13.6414 16.5629 13.8683 16.3359 14.1484 16.3359H17.1609V13.3234Z" fill="#00003F"/>
</svg>
