<svg width="23" height="23" viewBox="0 0 23 23" fill="none" xmlns="http://www.w3.org/2000/svg">
<path d="M10.5048 1.67598L10.0601 1.61441C10.0886 1.40477 10.1789 1.23705 10.321 1.12931C10.4625 1.02156 10.6479 0.980165 10.8565 1.00883L10.7952 1.45572C10.734 1.44723 10.6484 1.44616 10.5919 1.48915C10.5349 1.53268 10.5132 1.61494 10.5048 1.67598Z" fill="#00003F" stroke="#00003F" stroke-width="0.3"/>
<path d="M12.5068 1.7491C12.5031 1.49169 12.3769 1.45878 12.2554 1.4609L12.2485 1.00977C12.2528 1.00977 12.2575 1.00977 12.2617 1.00977C12.6774 1.00977 12.9489 1.29637 12.9557 1.74273L12.5068 1.7491Z" fill="#00003F" stroke="#00003F" stroke-width="0.3"/>
<path d="M12.3543 1.46177H12.3538L10.763 1.457C10.6389 1.45647 10.5385 1.35509 10.5391 1.2309C10.5396 1.1067 10.6399 1.00586 10.7635 1.00586H10.7641L12.3549 1.01064C12.479 1.01117 12.5793 1.11254 12.5788 1.23674C12.5783 1.36093 12.4779 1.46177 12.3543 1.46177Z" fill="#00003F" stroke="#00003F" stroke-width="0.3"/>
<path d="M12.6908 3.94292C12.6892 3.94292 12.6876 3.94292 12.6866 3.94292C12.5625 3.94079 12.4642 3.8373 12.4663 3.7131L12.506 1.64955C12.5081 1.52641 12.6084 1.42822 12.7304 1.42822C12.732 1.42822 12.7336 1.42822 12.7346 1.42822C12.8588 1.43035 12.957 1.53384 12.9549 1.65804L12.9153 3.72159C12.9126 3.84473 12.8128 3.94292 12.6908 3.94292Z" fill="#00003F" stroke="#00003F" stroke-width="0.3"/>
<path d="M12.6902 3.9669C12.6891 3.9669 12.6881 3.9669 12.6876 3.9669L10.2052 3.93559C10.0811 3.93399 9.98183 3.83156 9.98342 3.70736C9.985 3.58264 10.0848 3.48126 10.2111 3.48445L12.6934 3.51576C12.8175 3.51735 12.9168 3.61979 12.9152 3.74398C12.9131 3.86765 12.8127 3.9669 12.6902 3.9669Z" fill="#00003F" stroke="#00003F" stroke-width="0.3"/>
<path d="M10.208 3.93556C10.2054 3.93556 10.2027 3.93556 10.2001 3.93556C10.076 3.93132 9.97931 3.82676 9.98353 3.70203L10.0569 1.6337C10.0612 1.50897 10.1657 1.41291 10.2893 1.41609C10.4134 1.42034 10.5101 1.5249 10.5059 1.64962L10.4325 3.71796C10.4277 3.84003 10.3284 3.93556 10.208 3.93556Z" fill="#00003F" stroke="#00003F" stroke-width="0.3"/>
<path d="M19.7729 2.31884L19.4116 2.05081C19.6657 1.70423 20.0533 1.64585 20.3993 1.90167L20.1326 2.2647C19.9873 2.15749 19.8796 2.17394 19.7729 2.31884Z" fill="#00003F" stroke="#00003F" stroke-width="0.3"/>
<path d="M21.8938 3.55579L21.4961 3.34561C21.6154 3.11792 21.5204 3.02875 21.4121 2.97143L21.6213 2.57178C21.9962 2.76975 22.1029 3.15613 21.8938 3.55579Z" fill="#00003F" stroke="#00003F" stroke-width="0.3"/>
<path d="M21.6069 3.04758C21.5705 3.04758 21.5335 3.03856 21.4992 3.01998L20.1043 2.25145C19.9955 2.19148 19.9559 2.05455 20.0156 1.94521C20.0753 1.83588 20.2115 1.79607 20.3203 1.85604L21.7152 2.62457C21.824 2.68455 21.8636 2.82148 21.8039 2.93081C21.7632 3.00565 21.6861 3.04758 21.6069 3.04758Z" fill="#00003F" stroke="#00003F" stroke-width="0.3"/>
<path d="M20.7204 5.38745C20.6829 5.38745 20.6443 5.3779 20.6095 5.35773C20.5017 5.29616 20.4642 5.15817 20.5255 5.04989L21.5427 3.25702C21.604 3.14874 21.7413 3.11106 21.8491 3.17263C21.9568 3.2342 21.9943 3.37219 21.933 3.48046L20.9158 5.27334C20.8741 5.34658 20.7986 5.38745 20.7204 5.38745Z" fill="#00003F" stroke="#00003F" stroke-width="0.3"/>
<path d="M20.709 5.40894C20.6715 5.40894 20.634 5.39938 20.5991 5.38028L18.4342 4.15955C18.3259 4.09851 18.2874 3.96105 18.3481 3.85225C18.4088 3.74344 18.5456 3.7047 18.6539 3.76573L20.8188 4.98646C20.9271 5.04749 20.9656 5.18496 20.9049 5.29376C20.8637 5.36754 20.7877 5.40894 20.709 5.40894Z" fill="#00003F" stroke="#00003F" stroke-width="0.3"/>
<path d="M18.5441 4.18818C18.505 4.18818 18.4659 4.17809 18.43 4.15686C18.3233 4.09317 18.2879 3.95518 18.3513 3.84744L19.4002 2.06677C19.4636 1.95956 19.6009 1.924 19.7081 1.98769C19.8148 2.05138 19.8502 2.18937 19.7868 2.29711L18.7379 4.07778C18.6957 4.14837 18.6207 4.18818 18.5441 4.18818Z" fill="#00003F" stroke="#00003F" stroke-width="0.3"/>
<path d="M1.04945 3.15924C0.907376 2.75321 1.07744 2.39814 1.48254 2.25537L1.63147 2.68103C1.46141 2.74101 1.41388 2.83973 1.47356 3.00957L1.04945 3.15924Z" fill="#00003F" stroke="#00003F" stroke-width="0.3"/>
<path d="M3.28835 2.15499C3.16793 1.92783 3.04117 1.95649 2.93343 2.01381L2.72217 1.61522C3.09557 1.41566 3.47373 1.5441 3.68446 1.94269L3.28835 2.15499Z" fill="#00003F" stroke="#00003F" stroke-width="0.3"/>
<path d="M1.5017 2.72006C1.41983 2.72006 1.34114 2.67495 1.30152 2.59693C1.24501 2.486 1.28885 2.35013 1.39976 2.29334L2.8168 1.56727C2.92718 1.51048 3.06239 1.55453 3.1189 1.66599C3.17541 1.77692 3.13158 1.91279 3.02066 1.96958L1.60363 2.69565C1.57088 2.7121 1.53603 2.72006 1.5017 2.72006Z" fill="#00003F" stroke="#00003F" stroke-width="0.3"/>
<path d="M4.34554 4.0469C4.26262 4.0469 4.18287 4.0002 4.14378 3.92059L3.24064 2.06667C3.18624 1.95469 3.23219 1.81935 3.34363 1.76468C3.45507 1.71001 3.58975 1.75619 3.64415 1.86817L4.54729 3.72208C4.60169 3.83407 4.55574 3.96941 4.4443 4.02408C4.41261 4.03947 4.37881 4.0469 4.34554 4.0469Z" fill="#00003F" stroke="#00003F" stroke-width="0.3"/>
<path d="M2.13358 5.18067C2.05118 5.18067 1.97143 5.13502 1.93235 5.05541C1.87689 4.94395 1.92232 4.80861 2.03323 4.75288L4.2557 3.64096C4.36661 3.58523 4.50129 3.63088 4.55674 3.74234C4.6122 3.85379 4.56678 3.98913 4.45587 4.04486L2.2334 5.15679C2.20171 5.17271 2.16738 5.18067 2.13358 5.18067Z" fill="#00003F" stroke="#00003F" stroke-width="0.3"/>
<path d="M2.13403 5.18092C2.04952 5.18092 1.96871 5.13315 1.93069 5.05088L1.05554 3.17734C1.00272 3.06429 1.05131 2.93001 1.16328 2.87693C1.27578 2.82386 1.4094 2.87268 1.46222 2.9852L2.33737 4.85875C2.39018 4.9718 2.34159 5.10608 2.22962 5.15916C2.19846 5.17402 2.16624 5.18092 2.13403 5.18092Z" fill="#00003F" stroke="#00003F" stroke-width="0.3"/>
<path d="M17.2025 18.5368C17.1872 18.5368 17.1724 18.5352 17.1571 18.532C17.0356 18.5065 16.9574 18.3877 16.9828 18.2656L19.7466 4.82008C19.772 4.69801 19.8913 4.61946 20.0118 4.64493C20.1332 4.67041 20.2114 4.7893 20.1861 4.91137L17.4222 18.3569C17.4006 18.4635 17.3066 18.5368 17.2025 18.5368Z" fill="#00003F" stroke="#00003F" stroke-width="0.3"/>
<path d="M5.77832 19.8862L6.25366 21.7083" stroke="#00003F" stroke-width="0.3"/>
<path d="M6.25268 22.0002C6.12381 22.0002 6.00604 21.9131 5.97171 21.782L5.49637 19.96C5.4557 19.8039 5.54865 19.6447 5.70393 19.6038C5.85868 19.563 6.01818 19.6564 6.05832 19.8124L6.53366 21.6345C6.57433 21.7905 6.48137 21.9498 6.3261 21.9906C6.3018 21.997 6.27698 22.0002 6.25268 22.0002Z" fill="#00003F" stroke="#00003F" stroke-width="0.3"/>
<path d="M16.5961 22.0002C16.5702 22.0002 16.5433 21.9964 16.5174 21.989C16.3632 21.9455 16.2729 21.7841 16.3167 21.6286L16.8275 19.8066C16.8708 19.6516 17.0313 19.5608 17.1855 19.6049C17.3398 19.6484 17.4301 19.8097 17.3862 19.9647L16.8755 21.7868C16.8396 21.9163 16.7229 22.0002 16.5961 22.0002Z" fill="#00003F" stroke="#00003F" stroke-width="0.3"/>
<path d="M5.68857 18.5371C5.58347 18.5371 5.48946 18.4628 5.46833 18.355L2.84552 4.96258C2.82175 4.84051 2.90098 4.72162 3.02245 4.69774C3.14393 4.67333 3.26223 4.75347 3.286 4.87554L5.90934 18.268C5.93311 18.39 5.85388 18.5089 5.73241 18.5328C5.71762 18.536 5.70283 18.5371 5.68857 18.5371Z" fill="#00003F" stroke="#00003F" stroke-width="0.3"/>
<path d="M9.29824 11.3013C9.23434 11.3013 9.17096 11.2742 9.12659 11.2217L3.58098 4.64037C3.5007 4.54537 3.51285 4.4026 3.60739 4.32245C3.70193 4.24178 3.844 4.25399 3.92375 4.34899L9.46937 10.9303C9.54964 11.0253 9.5375 11.1681 9.44296 11.2482C9.40123 11.2838 9.34947 11.3013 9.29824 11.3013Z" fill="#00003F" stroke="#00003F" stroke-width="0.3"/>
<path d="M9.17406 9.29136C9.15452 9.29136 9.13445 9.28871 9.11491 9.2834C8.99502 9.25049 8.92478 9.12683 8.95699 9.00635L10.9297 3.69194C10.9624 3.57146 11.086 3.50087 11.2054 3.53325C11.3252 3.56615 11.3955 3.68982 11.3633 3.8103L9.39061 9.1247C9.36367 9.22555 9.27283 9.29136 9.17406 9.29136Z" fill="#00003F" stroke="#00003F" stroke-width="0.3"/>
<path d="M13.6287 9.49642C13.5331 9.49642 13.4444 9.43486 13.4143 9.33826L11.7242 3.92461C11.6872 3.80572 11.7527 3.67887 11.871 3.64172C11.9893 3.60456 12.1155 3.67038 12.1525 3.78926L13.8426 9.20292C13.8796 9.32181 13.8141 9.44866 13.6958 9.48581C13.6736 9.49324 13.6509 9.49642 13.6287 9.49642Z" fill="#00003F" stroke="#00003F" stroke-width="0.3"/>
<path d="M13.154 11.9381C13.1038 11.9381 13.0531 11.9211 13.0114 11.8866C12.9158 11.8075 12.9021 11.6652 12.9808 11.5686L18.9489 4.29737C19.0276 4.2013 19.1692 4.18751 19.2653 4.26712C19.3609 4.3462 19.3746 4.48844 19.2959 4.58504L13.3278 11.8563C13.2829 11.9099 13.2185 11.9381 13.154 11.9381Z" fill="#00003F" stroke="#00003F" stroke-width="0.3"/>
<path d="M16.2173 18.6816H6.65767C6.49711 18.6816 6.36719 18.551 6.36719 18.3896V16.955C6.36719 16.2534 6.63919 15.5936 7.13301 15.0974L8.35621 13.8682C8.72434 13.4982 9.21446 13.2944 9.73522 13.2944H13.1402C13.661 13.2944 14.1506 13.4982 14.5192 13.8682L15.7424 15.0974C16.2363 15.5936 16.5083 16.2534 16.5083 16.955V18.3896C16.5077 18.551 16.3778 18.6816 16.2173 18.6816ZM6.94816 18.0977H15.9268V16.955C15.9268 16.4094 15.7155 15.8962 15.3315 15.5103L14.1083 14.2811C13.8495 14.021 13.5057 13.8783 13.1402 13.8783H9.73522C9.36974 13.8783 9.02591 14.0216 8.76712 14.2811L7.54391 15.5103C7.15995 15.8962 6.94868 16.4094 6.94868 16.955V18.0977H6.94816Z" fill="#00003F" stroke="#00003F" stroke-width="0.3"/>
<path d="M11.4372 12.6772C9.95944 12.6772 8.75684 11.4686 8.75684 9.9836C8.75684 8.49856 9.95944 7.29004 11.4372 7.29004C12.915 7.29004 14.1176 8.49856 14.1176 9.9836C14.1176 11.4686 12.915 12.6772 11.4372 12.6772ZM11.4372 7.87386C10.2795 7.87386 9.3378 8.82019 9.3378 9.9836C9.3378 11.147 10.2795 12.0933 11.4372 12.0933C12.5949 12.0933 13.5366 11.147 13.5366 9.9836C13.5366 8.82019 12.5949 7.87386 11.4372 7.87386Z" fill="#00003F" stroke="#00003F" stroke-width="0.3"/>
<path d="M18.1308 18.6787H4.60532C4.48121 18.6787 4.38086 18.5778 4.38086 18.4531C4.38086 18.3284 4.48121 18.2275 4.60532 18.2275H18.1308C18.2549 18.2275 18.3553 18.3284 18.3553 18.4531C18.3553 18.5778 18.2549 18.6787 18.1308 18.6787Z" fill="#00003F" stroke="#00003F" stroke-width="0.3"/>
<path d="M12.8195 20.0678H4.58189C4.45777 20.0678 4.35742 19.967 4.35742 19.8423C4.35742 19.7175 4.45777 19.6167 4.58189 19.6167H12.82C12.9441 19.6167 13.0445 19.7175 13.0445 19.8423C13.0445 19.967 12.9436 20.0678 12.8195 20.0678Z" fill="#00003F" stroke="#00003F" stroke-width="0.3"/>
<path d="M18.1425 20.0498H14.1771C14.053 20.0498 13.9526 19.9489 13.9526 19.8242C13.9526 19.6995 14.053 19.5986 14.1771 19.5986H18.1425C18.2666 19.5986 18.3669 19.6995 18.3669 19.8242C18.3669 19.9489 18.2661 20.0498 18.1425 20.0498Z" fill="#00003F" stroke="#00003F" stroke-width="0.3"/>
<path d="M18.1617 20.0304C18.0994 20.0304 18.0445 20.0039 18.0102 19.9731C17.9325 19.9031 17.9003 19.773 17.9885 19.6595C18.1068 19.5077 18.3429 19.1022 17.9896 18.6224C17.9156 18.5221 17.9368 18.3809 18.0366 18.3066C18.1364 18.2323 18.2769 18.2535 18.3508 18.3538C18.7781 18.9334 18.6418 19.53 18.3656 19.9073C18.3551 19.9259 18.3418 19.9439 18.3255 19.9593C18.2716 20.0113 18.2146 20.0304 18.1617 20.0304Z" fill="#00003F" stroke="#00003F" stroke-width="0.3"/>
<path d="M4.55542 20.0478C4.5026 20.0478 4.44556 20.0287 4.39169 19.9767C4.37532 19.9608 4.36211 19.9432 4.35155 19.9241C4.07427 19.5446 3.94012 18.9497 4.36634 18.3712C4.44028 18.2708 4.58077 18.2501 4.68059 18.3239C4.78041 18.3982 4.80101 18.5394 4.72759 18.6397C4.37373 19.1195 4.61034 19.525 4.72865 19.6768C4.81685 19.7904 4.78463 19.9204 4.707 19.9905C4.67267 20.0213 4.61721 20.0478 4.55542 20.0478Z" fill="#00003F" stroke="#00003F" stroke-width="0.3"/>
</svg>
