<svg width="24" height="23" viewBox="0 0 24 23" fill="none" xmlns="http://www.w3.org/2000/svg">
<path d="M15.8699 12.364C15.6984 12.364 15.5597 12.2246 15.5597 12.0523C15.5597 10.0696 13.9605 8.45649 11.9946 8.45649C10.0288 8.45649 8.42958 10.0696 8.42958 12.0523C8.42958 12.2246 8.29081 12.364 8.11933 12.364C7.94785 12.364 7.80908 12.2246 7.80908 12.0523C7.80908 9.72556 9.68693 7.83301 11.9946 7.83301C14.3023 7.83301 16.1801 9.72556 16.1801 12.0523C16.1801 12.224 16.0408 12.364 15.8699 12.364Z" fill="#00003F" stroke="#00003F" stroke-width="0.3"/>
<path d="M22.6892 12.3644C22.5177 12.3644 22.3789 12.2249 22.3789 12.0526V10.9207C22.3789 10.7819 22.2661 10.6685 22.1279 10.6685H21.2857C20.8813 10.6685 20.5332 10.3925 20.4385 9.99798C20.2275 9.1217 19.8823 8.2851 19.4118 7.51198C19.2009 7.16453 19.2533 6.72243 19.5388 6.43563L20.1356 5.83595C20.2331 5.7379 20.2331 5.57749 20.1356 5.47943L18.542 3.87822C18.4946 3.83061 18.4314 3.80453 18.3643 3.80453C18.2972 3.80453 18.234 3.83061 18.1866 3.87822L17.591 4.47733C17.305 4.7647 16.865 4.81741 16.5198 4.60543C15.7515 4.13328 14.9189 3.7864 14.0445 3.57385C13.6502 3.47806 13.3761 3.12834 13.3761 2.72251V1.87571C13.3761 1.73684 13.2633 1.62348 13.1251 1.62348H10.8721C10.7339 1.62348 10.6211 1.73684 10.6211 1.87571V2.72194C10.6211 3.12777 10.3469 3.47749 9.95433 3.57328C9.95264 3.57385 9.94982 3.57441 9.94813 3.57441C9.08 3.78526 8.24853 4.13158 7.48137 4.60259C7.48024 4.60316 7.47912 4.60429 7.47799 4.60486C7.13333 4.81684 6.69278 4.76413 6.40678 4.47676L5.81224 3.87765C5.76485 3.83004 5.70167 3.80397 5.63455 3.80397C5.56742 3.80397 5.50424 3.83004 5.45686 3.87765L3.86444 5.4783C3.81706 5.52591 3.79111 5.58939 3.79111 5.65684C3.79111 5.72429 3.81706 5.78777 3.86444 5.83538L4.46124 6.43506C4.74667 6.72186 4.79913 7.16397 4.58873 7.51028C4.5876 7.51198 4.58591 7.51425 4.58534 7.51595C4.11884 8.28227 3.77418 9.11773 3.56209 9.99458C3.56152 9.99628 3.56152 9.99741 3.56096 9.99854C3.46619 10.393 3.11759 10.6685 2.7137 10.6685H1.87152C1.73331 10.6685 1.6205 10.7819 1.6205 10.9207V12.0526C1.6205 12.2249 1.48173 12.3644 1.31025 12.3644C1.13877 12.3644 1 12.2244 1 12.0526V10.9207C1 10.4378 1.39091 10.045 1.87152 10.045H2.7137C2.82934 10.045 2.92862 9.9668 2.95682 9.85458C2.95682 9.85344 2.95739 9.85231 2.95739 9.85117C3.18415 8.90972 3.55419 8.01304 4.05736 7.18607C4.05849 7.18437 4.05961 7.18211 4.06074 7.18041C4.11828 7.08518 4.10305 6.95765 4.02126 6.87547L3.42558 6.27579C3.26086 6.11028 3.17005 5.89036 3.17005 5.65628C3.17005 5.42219 3.26086 5.20227 3.42558 5.03733L5.01856 3.43668C5.18328 3.27117 5.40214 3.18049 5.63455 3.18049C5.86752 3.18049 6.08638 3.27174 6.25053 3.43725L6.84621 4.03636C6.928 4.11854 7.05379 4.13385 7.15251 4.07433C7.15364 4.07377 7.15477 4.0732 7.15533 4.07263C7.97833 3.56704 8.87072 3.19522 9.80767 2.96794C9.80936 2.96737 9.81218 2.9668 9.81331 2.9668C9.92162 2.94073 10.0006 2.83984 10.0006 2.72251V1.87571C10.0006 1.39279 10.3915 1 10.8721 1H13.1251C13.6057 1 13.9966 1.39279 13.9966 1.87571V2.72194C13.9966 2.8387 14.0756 2.9396 14.1889 2.96737C15.1276 3.19579 16.02 3.56704 16.8424 4.07263C16.9428 4.13441 17.0697 4.11911 17.1521 4.03636L17.7489 3.43725C17.9136 3.27174 18.1325 3.18049 18.3649 3.18049C18.5979 3.18049 18.8167 3.27174 18.9814 3.43725L20.575 5.03846C20.9146 5.37968 20.9146 5.93514 20.575 6.27692L19.9782 6.8766C19.8958 6.95935 19.8806 7.08632 19.9415 7.18607C20.4458 8.01587 20.8158 8.91198 21.042 9.85174C21.0697 9.96567 21.1695 10.045 21.2863 10.045H22.1285C22.6091 10.045 23 10.4378 23 10.9207V12.0526C22.9994 12.2244 22.8607 12.3644 22.6892 12.3644Z" fill="#00003F" stroke="#00003F" stroke-width="0.3"/>
<path d="M15.3007 7.56536C15.2392 7.56536 15.1772 7.54722 15.123 7.50924C14.9487 7.38682 14.7654 7.27346 14.5776 7.172C14.4264 7.09038 14.37 6.90163 14.4512 6.74973C14.5324 6.59783 14.7203 6.54115 14.8714 6.62277C15.0802 6.73556 15.2844 6.86139 15.4784 6.99799C15.6189 7.09661 15.6533 7.29103 15.5551 7.43216C15.4953 7.51888 15.3989 7.56536 15.3007 7.56536Z" fill="#00003F" stroke="#00003F" stroke-width="0.3"/>
<path d="M17.79 12.3642C17.6186 12.3642 17.4798 12.2248 17.4798 12.0525C17.4798 10.7664 17.0325 9.51376 16.2202 8.52526C16.166 8.45951 16.1096 8.39433 16.0521 8.33028C15.937 8.20275 15.9466 8.0055 16.0735 7.88987C16.2004 7.77424 16.3967 7.78388 16.5118 7.91141C16.5761 7.98226 16.6387 8.05538 16.6985 8.12849C17.6022 9.22809 18.1003 10.6219 18.1003 12.0525C18.1003 12.2242 17.9615 12.3642 17.79 12.3642Z" fill="#00003F" stroke="#00003F" stroke-width="0.3"/>
<path d="M6.1999 12.3646C6.02841 12.3646 5.88965 12.2252 5.88965 12.0528C5.88965 8.65884 8.6283 5.89795 11.9948 5.89795C12.4697 5.89795 12.9424 5.95293 13.4005 6.06175C13.5675 6.10143 13.6707 6.2692 13.6312 6.43698C13.5917 6.60475 13.4247 6.70791 13.2578 6.6688C12.8465 6.57131 12.4218 6.52143 11.9948 6.52143C8.9707 6.52143 6.51015 9.00289 6.51015 12.0528C6.51015 12.2246 6.37138 12.3646 6.1999 12.3646Z" fill="#00003F" stroke="#00003F" stroke-width="0.3"/>
<path d="M15.8329 22.0006H8.11445C7.94296 22.0006 7.8042 21.8611 7.8042 21.6888V20.5308C7.8042 19.9442 8.03153 19.3921 8.44444 18.9772L9.43216 17.9848C9.7441 17.6713 10.1581 17.499 10.5993 17.499H13.3486C13.7897 17.499 14.2038 17.6713 14.5157 17.9848L15.5034 18.9772C15.9163 19.3921 16.1437 19.9436 16.1437 20.5308V21.6888C16.1431 21.8611 16.0043 22.0006 15.8329 22.0006ZM8.4247 21.3771H15.5226V20.5308C15.5226 20.1108 15.3596 19.7152 15.064 19.4182L14.0763 18.4257C13.8817 18.2302 13.6233 18.1225 13.3481 18.1225H10.5987C10.3234 18.1225 10.0651 18.2302 9.87045 18.4257L8.88274 19.4182C8.58715 19.7152 8.42413 20.1103 8.42413 20.5308V21.3771H8.4247Z" fill="#00003F" stroke="#00003F" stroke-width="0.3"/>
<path d="M11.9749 17.1529C10.7395 17.1529 9.73486 16.1434 9.73486 14.9021C9.73486 13.6608 10.7395 12.6514 11.9749 12.6514C13.2102 12.6514 14.2149 13.6608 14.2149 14.9021C14.2149 16.1434 13.2096 17.1529 11.9749 17.1529ZM11.9749 13.2748C11.0819 13.2748 10.3554 14.0049 10.3554 14.9021C10.3554 15.7994 11.0819 16.5294 11.9749 16.5294C12.8678 16.5294 13.5944 15.7994 13.5944 14.9021C13.5944 14.0049 12.8678 13.2748 11.9749 13.2748Z" fill="#00003F" stroke="#00003F" stroke-width="0.3"/>
<path d="M7.14929 22.0006H1.36005C1.18857 22.0006 1.0498 21.8611 1.0498 21.6888V20.5308C1.0498 19.9442 1.27713 19.3927 1.69004 18.9772L2.67776 17.9848C2.9897 17.6713 3.40374 17.499 3.84486 17.499H6.59423C7.03478 17.499 7.44938 17.6713 7.76132 17.9848L8.1229 18.3481C8.24418 18.47 8.24418 18.6672 8.1229 18.7891C8.00163 18.9109 7.80532 18.9109 7.68404 18.7891L7.32246 18.4257C7.12785 18.2302 6.8695 18.1225 6.59423 18.1225H3.84486C3.56959 18.1225 3.31123 18.2302 3.11662 18.4257L2.12891 19.4182C1.83332 19.7152 1.6703 20.1103 1.6703 20.5308V21.3771H7.14872C7.32021 21.3771 7.45897 21.5165 7.45897 21.6888C7.45897 21.8611 7.32021 22.0006 7.14929 22.0006Z" fill="#00003F" stroke="#00003F" stroke-width="0.3"/>
<path d="M5.21949 17.1529C3.98413 17.1529 2.97949 16.1434 2.97949 14.9021C2.97949 13.6608 3.98413 12.6514 5.21949 12.6514C6.45427 12.6514 7.45948 13.6608 7.45948 14.9021C7.45948 16.1434 6.45427 17.1529 5.21949 17.1529ZM5.21949 13.2748C4.32653 13.2748 3.59999 14.0049 3.59999 14.9021C3.59999 15.7994 4.32653 16.5294 5.21949 16.5294C6.11244 16.5294 6.83898 15.7994 6.83898 14.9021C6.83898 14.0049 6.11244 13.2748 5.21949 13.2748Z" fill="#00003F" stroke="#00003F" stroke-width="0.3"/>
<path d="M22.6292 22.0006H16.8405C16.669 22.0006 16.5303 21.8611 16.5303 21.6888C16.5303 21.5165 16.669 21.3771 16.8405 21.3771H22.319V20.5308C22.319 20.1108 22.1559 19.7152 21.8603 19.4182L20.8726 18.4257C20.678 18.2302 20.4197 18.1225 20.1444 18.1225H17.395C17.1198 18.1225 16.8614 18.2302 16.6668 18.4257L16.3052 18.7891C16.1839 18.9109 15.9876 18.9109 15.8663 18.7891C15.7451 18.6672 15.7451 18.47 15.8663 18.3481L16.2279 17.9848C16.5399 17.6713 16.9539 17.499 17.395 17.499H20.1444C20.5849 17.499 20.9995 17.6713 21.3115 17.9848L22.2992 18.9772C22.7121 19.3921 22.9394 19.9436 22.9394 20.5308V21.6888C22.9394 21.8611 22.8007 22.0006 22.6292 22.0006Z" fill="#00003F" stroke="#00003F" stroke-width="0.3"/>
<path d="M18.7708 17.1529C17.5354 17.1529 16.5308 16.1434 16.5308 14.9021C16.5308 13.6608 17.5354 12.6514 18.7708 12.6514C20.0061 12.6514 21.0107 13.6608 21.0107 14.9021C21.0107 16.1434 20.0055 17.1529 18.7708 17.1529ZM18.7708 13.2748C17.8778 13.2748 17.1513 14.0049 17.1513 14.9021C17.1513 15.7994 17.8778 16.5294 18.7708 16.5294C19.6637 16.5294 20.3903 15.7994 20.3903 14.9021C20.3903 14.0049 19.6637 13.2748 18.7708 13.2748Z" fill="#00003F" stroke="#00003F" stroke-width="0.3"/>
</svg>
