<svg width="28" height="20" viewBox="0 0 28 20" fill="none" xmlns="http://www.w3.org/2000/svg">
<path d="M18.3089 8.81871L12.123 5.6268C11.7674 5.44327 11.3469 5.45012 10.9983 5.64493C10.6495 5.83994 10.4414 6.18444 10.4414 6.56681V12.8958C10.4414 13.2764 10.6482 13.6203 10.9947 13.8155C11.1756 13.9174 11.3762 13.9686 11.5772 13.9686C11.7614 13.9686 11.9459 13.9257 12.1158 13.8395L18.3018 10.7025C18.669 10.5162 18.8983 10.1562 18.9 9.76275C18.9015 9.3693 18.675 9.00768 18.3089 8.81871ZM12.0822 12.0997V7.36942L16.7054 9.75509L12.0822 12.0997Z" fill="white"/>
<path d="M27.7939 4.72038L27.7926 4.70829C27.7689 4.49575 27.5328 2.60526 26.5583 1.6437C25.4318 0.512712 24.1548 0.375317 23.5407 0.30944C23.4898 0.304001 23.4432 0.298965 23.4016 0.293727L23.3527 0.288892C19.651 0.0350538 14.0608 0.000402917 14.0048 0.000201459L13.9999 0L13.995 0.000201459C13.939 0.000402917 8.34875 0.0350538 4.6138 0.288892L4.56445 0.293727C4.52472 0.298763 4.48092 0.303397 4.43329 0.308635C3.82617 0.374713 2.56282 0.512309 1.43319 1.68419C0.505001 2.63548 0.236693 4.48548 0.209135 4.69338L0.205931 4.72038C0.1976 4.80882 0 6.91426 0 9.02796V11.0039C0 13.1176 0.1976 15.223 0.205931 15.3117L0.207426 15.325C0.231138 15.5341 0.466976 17.3899 1.43703 18.3519C2.49617 19.445 3.83536 19.5896 4.55569 19.6674C4.66955 19.6797 4.7676 19.6902 4.83447 19.7012L4.89919 19.7097C7.03648 19.9015 13.7376 19.996 14.0217 19.9998L14.0302 20L14.0388 19.9998C14.0947 19.9996 19.6848 19.9649 23.3864 19.7111L23.4353 19.7063C23.4821 19.7004 23.5347 19.6952 23.5924 19.6896C24.196 19.6291 25.4526 19.5036 26.5666 18.3476C27.4948 17.3961 27.7633 15.5462 27.7907 15.3385L27.7939 15.3115C27.8022 15.2228 28 13.1176 28 11.0039V9.02796C27.9998 6.91426 27.8022 4.80902 27.7939 4.72038ZM26.359 11.0039C26.359 12.9602 26.1778 14.975 26.1607 15.16C26.0911 15.6694 25.808 16.8399 25.3558 17.3035C24.6585 18.0269 23.9423 18.0986 23.4193 18.1508C23.3561 18.1571 23.2976 18.1631 23.2446 18.1693C19.6643 18.4135 14.2851 18.451 14.0373 18.4524C13.7594 18.4486 7.15632 18.3533 5.08419 18.1718C4.97802 18.1554 4.86331 18.143 4.7424 18.1301C4.12909 18.0638 3.28956 17.9731 2.64399 17.3035L2.62883 17.2882C2.18449 16.8516 1.90956 15.7571 1.83971 15.166C1.82668 15.0262 1.64083 12.9876 1.64083 11.0039V9.02796C1.64083 7.07381 1.82155 5.06124 1.83907 4.87248C1.92217 4.27233 2.21055 3.17277 2.64399 2.72835C3.36261 1.98296 4.12033 1.90036 4.62149 1.84576C4.66934 1.84053 4.71398 1.83569 4.75521 1.83065C8.38763 1.58528 13.8055 1.54881 13.9999 1.5474C14.1943 1.54861 19.6102 1.58528 23.2104 1.83065C23.2546 1.83589 23.3029 1.84113 23.3548 1.84677C23.8703 1.90217 24.6493 1.98598 25.3643 2.70519L25.371 2.71183C25.8153 3.14839 26.0902 4.26206 26.1601 4.86502C26.1725 4.99698 26.359 7.03997 26.359 9.02796V11.0039Z" fill="white"/>
</svg>
