<svg width="40" height="29" viewBox="0 0 40 29" fill="none" xmlns="http://www.w3.org/2000/svg">
<path d="M21.2926 28.1241C16.6546 28.0254 13.3858 27.9924 10.1209 27.8722C8.378 27.8079 6.62893 27.6717 4.90302 27.4251C2.91997 27.1419 1.64272 25.9498 1.00873 24.0535C0.56316 22.7198 0.377828 21.3433 0.332267 19.9599C0.23574 17.0292 0.14848 14.0955 0.18709 11.1648C0.214118 9.09468 0.309873 7.01228 0.854286 4.98577C1.3624 3.09324 2.42729 1.68838 4.39181 1.15554C5.18874 0.93964 6.03509 0.857722 6.86445 0.811021C12.8144 0.472632 18.7705 0.414447 24.7274 0.515505C27.4664 0.56144 30.2047 0.677044 32.9407 0.814849C33.8697 0.86155 34.8226 0.968732 35.7075 1.23516C37.5315 1.78332 38.5616 3.14377 38.9794 4.92835C39.2481 6.07597 39.4706 7.25574 39.5169 8.42862C39.6358 11.4083 39.7014 14.3933 39.6775 17.3753C39.6621 19.3581 39.5686 21.3533 39.0744 23.2948C38.7725 24.4799 38.3238 25.5916 37.3307 26.4123C36.3485 27.2246 35.201 27.5966 33.9592 27.6479C29.2819 27.8416 24.6038 28.0024 21.2926 28.1241ZM15.8677 8.35282C15.8677 12.0384 15.8677 15.6642 15.8677 19.3467C19.4338 17.5146 22.9536 15.7055 26.5297 13.8681C22.9374 12.01 19.4238 10.1925 15.8677 8.35282Z" fill="#00003F"/>
</svg>
